<svg width="25" height="25" viewBox="0 0 25 25" fill="none" xmlns="http://www.w3.org/2000/svg">
<path d="M20.262 13.8295V12.2295C20.262 11.3459 19.5457 10.6295 18.662 10.6295H2.66201C1.77836 10.6295 1.06201 11.3459 1.06201 12.2295V21.8295C1.06201 22.7132 1.77836 23.4295 2.66201 23.4295H18.662C19.5457 23.4295 20.262 22.7132 20.262 21.8295V20.2295M20.262 13.8295H13.862C12.0947 13.8295 10.662 15.2622 10.662 17.0295C10.662 18.7969 12.0947 20.2295 13.862 20.2295H20.262M20.262 13.8295C22.0293 13.8295 23.462 15.2622 23.462 17.0295C23.462 18.7969 22.0293 20.2295 20.262 20.2295M5.86201 10.6295V5.82954C5.86201 3.17857 8.01105 1.02954 10.662 1.02954C13.313 1.02954 15.462 3.17857 15.462 5.82954V10.6295M19.462 17.0295H21.062M16.262 17.0295H17.862M13.062 17.0295H14.662" stroke="white" stroke-width="2"/>
</svg>
