<svg width="22" height="25" viewBox="0 0 22 25" fill="white" xmlns="http://www.w3.org/2000/svg">
<mask id="mask0_672_3012" style="mask-type:alpha" maskUnits="userSpaceOnUse" x="0" y="15" width="22" height="10">
<path fill-rule="evenodd" clip-rule="evenodd" d="M0.583984 15.9138H21.584V24.8204H0.583984V15.9138Z" fill="white" stroke="current" stroke-width="0.2"/>
</mask>
<g mask="url(#mask0_672_3012)">
<path fill-rule="evenodd" clip-rule="evenodd" d="M11.0853 17.7256C5.43625 17.7256 2.5726 18.6097 2.5726 20.3551C2.5726 22.1161 5.43625 23.0087 11.0853 23.0087C16.7331 23.0087 19.5954 22.1245 19.5954 20.3792C19.5954 18.6182 16.7331 17.7256 11.0853 17.7256ZM11.0854 24.8204C8.4882 24.8204 0.583984 24.8204 0.583984 20.3551C0.583984 16.374 6.57777 15.9138 11.0854 15.9138C13.6826 15.9138 21.5841 15.9138 21.5841 20.3792C21.5841 24.3603 15.5917 24.8204 11.0854 24.8204Z" fill="white"/>
<path d="M11.0853 17.6256C8.25803 17.6256 6.11773 17.8466 4.68105 18.2903C3.25109 18.7319 2.4726 19.4111 2.4726 20.3551H2.6726C2.6726 19.5537 3.32593 18.9181 4.74007 18.4814C6.14749 18.0467 8.26357 17.8256 11.0853 17.8256V17.6256ZM2.4726 20.3551C2.4726 21.3063 3.25029 21.9918 4.6808 22.4377C6.11759 22.8856 8.25799 23.1087 11.0853 23.1087V22.9087C8.2636 22.9087 6.14763 22.6855 4.74032 22.2468C3.32673 21.8062 2.6726 21.1648 2.6726 20.3551H2.4726ZM11.0853 23.1087C13.912 23.1087 16.0516 22.8877 17.4878 22.444C18.9173 22.0023 19.6954 21.3231 19.6954 20.3792H19.4954C19.4954 21.1806 18.8424 21.8162 17.4288 22.2529C16.0219 22.6876 13.9065 22.9087 11.0853 22.9087V23.1087ZM19.6954 20.3792C19.6954 19.428 18.9181 18.7425 17.4881 18.2965C16.0518 17.8487 13.912 17.6256 11.0853 17.6256V17.8256C13.9064 17.8256 16.0217 18.0488 17.4285 18.4875C18.8416 18.9281 19.4954 19.5694 19.4954 20.3792H19.6954ZM11.0854 24.7204C9.78545 24.7204 7.1717 24.72 4.88432 24.1651C3.74044 23.8876 2.68745 23.4734 1.92223 22.8587C1.16061 22.2468 0.683984 21.4367 0.683984 20.3551H0.483984C0.483984 21.5061 0.995386 22.3706 1.79697 23.0146C2.59495 23.6557 3.68034 24.0788 4.83716 24.3595C7.15118 24.9209 9.78813 24.9204 11.0854 24.9204V24.7204ZM0.683984 20.3551C0.683984 19.3884 1.04645 18.639 1.65995 18.054C2.27638 17.4662 3.14975 17.0414 4.17281 16.7374C6.21958 16.1292 8.83212 16.0138 11.0854 16.0138V15.8138C8.83103 15.8138 6.19287 15.9285 4.11585 16.5457C3.07701 16.8544 2.17021 17.2911 1.52193 17.9092C0.870739 18.5302 0.483984 19.3312 0.483984 20.3551H0.683984ZM11.0854 16.0138C12.3853 16.0138 14.9984 16.0142 17.2851 16.5692C18.4286 16.8467 19.4813 17.2608 20.2463 17.8756C21.0076 18.4875 21.4841 19.2975 21.4841 20.3792H21.6841C21.6841 19.2282 21.1729 18.3637 20.3716 17.7197C19.5738 17.0786 18.4888 16.6555 17.3323 16.3748C15.0189 15.8134 12.3826 15.8138 11.0854 15.8138V16.0138ZM21.4841 20.3792C21.4841 21.3459 21.1217 22.0953 20.5084 22.6803C19.8921 23.2681 19.0189 23.6929 17.9961 23.9969C15.9498 24.605 13.338 24.7204 11.0854 24.7204V24.9204C13.3391 24.9204 15.9766 24.8058 18.0531 24.1886C19.0917 23.8799 19.9983 23.4432 20.6464 22.825C21.2974 22.2041 21.6841 21.4031 21.6841 20.3792H21.4841Z" fill="white"/>
</g>
<mask id="mask1_672_3012" style="mask-type:alpha" maskUnits="userSpaceOnUse" x="3" y="0" width="16" height="14">
<path fill-rule="evenodd" clip-rule="evenodd" d="M4.04395 0.820557H18.1236V13.6461H4.04395V0.820557Z" fill="white" stroke="current" stroke-width="0.2"/>
</mask>
<g mask="url(#mask1_672_3012)">
<path fill-rule="evenodd" clip-rule="evenodd" d="M11.0851 2.54492C8.24665 2.54492 5.93717 4.64777 5.93717 7.23376C5.92789 9.8113 8.22014 11.9129 11.0467 11.9226L11.0851 12.785V11.9226C13.9223 11.9226 16.2304 9.81855 16.2304 7.23376C16.2304 4.64777 13.9223 2.54492 11.0851 2.54492ZM11.0851 13.6461H11.0427C7.16882 13.6353 4.03073 10.757 4.04399 7.23009C4.04399 3.69715 7.20196 0.820068 11.0851 0.820068C14.967 0.820068 18.1236 3.69715 18.1236 7.23371C18.1236 10.7703 14.967 13.6461 11.0851 13.6461Z" fill="white"/>
<path d="M5.93717 7.23376L6.03717 7.23412V7.23376H5.93717ZM11.0467 11.9226L11.1466 11.9182L11.1423 11.8229L11.047 11.8226L11.0467 11.9226ZM11.0851 12.785L10.9852 12.7895L11.1851 12.785H11.0851ZM11.0851 11.9226V11.8226H10.9851V11.9226H11.0851ZM11.0427 13.6461L11.0424 13.7461H11.0427V13.6461ZM4.04399 7.23009L4.14399 7.23046V7.23009H4.04399ZM11.0851 2.44492C8.20043 2.44492 5.83717 4.58395 5.83717 7.23376H6.03717C6.03717 4.7116 8.29287 2.64492 11.0851 2.64492V2.44492ZM5.83717 7.2334C5.82766 9.87475 8.17354 12.0128 11.0463 12.0226L11.047 11.8226C8.26673 11.8131 6.02812 9.74785 6.03717 7.23412L5.83717 7.2334ZM10.9468 11.9271L10.9852 12.7895L11.185 12.7806L11.1466 11.9182L10.9468 11.9271ZM11.1851 12.785V11.9226H10.9851V12.785H11.1851ZM11.0851 12.0226C13.9685 12.0226 16.3304 9.88231 16.3304 7.23376H16.1304C16.1304 9.75479 13.876 11.8226 11.0851 11.8226V12.0226ZM16.3304 7.23376C16.3304 4.584 13.9685 2.44492 11.0851 2.44492V2.64492C13.876 2.64492 16.1304 4.71155 16.1304 7.23376H16.3304ZM11.0851 13.5461H11.0427V13.7461H11.0851V13.5461ZM11.043 13.5461C7.21537 13.5354 4.13097 10.6935 4.14399 7.23046L3.94399 7.22971C3.93049 10.8205 7.12227 13.7351 11.0424 13.7461L11.043 13.5461ZM4.14399 7.23009C4.14399 3.76099 7.24817 0.920068 11.0851 0.920068V0.720068C7.15575 0.720068 3.94399 3.63331 3.94399 7.23009H4.14399ZM11.0851 0.920068C14.9207 0.920068 18.0236 3.76092 18.0236 7.23371H18.2236C18.2236 3.63338 15.0133 0.720068 11.0851 0.720068V0.920068ZM18.0236 7.23371C18.0236 10.7065 14.9207 13.5461 11.0851 13.5461V13.7461C15.0132 13.7461 18.2236 10.8341 18.2236 7.23371H18.0236Z" fill="white"/>
</g>
</svg>
