<svg width="25" height="25" viewBox="0 0 25 25" fill="none" xmlns="http://www.w3.org/2000/svg">
<path d="M10.729 19.0713H13.729V22.0713H10.729V19.0713ZM12.729 2.07129C18.079 2.29129 20.409 7.69129 17.229 11.7413C16.399 12.7413 15.059 13.4013 14.399 14.2413C13.729 15.0713 13.729 16.0713 13.729 17.0713H10.729C10.729 15.4013 10.729 13.9913 11.399 12.9913C12.059 11.9913 13.399 11.4013 14.229 10.7413C16.649 8.50129 16.049 5.33129 12.729 5.07129C11.9334 5.07129 11.1703 5.38736 10.6077 5.94997C10.0451 6.51258 9.729 7.27564 9.729 8.07129H6.729C6.729 6.47999 7.36115 4.95387 8.48636 3.82865C9.61158 2.70343 11.1377 2.07129 12.729 2.07129Z" fill="white"/>
</svg>
