<svg width="25" height="25" viewBox="0 0 25 25" fill="none" xmlns="http://www.w3.org/2000/svg">
<path d="M12.729 2.49268C7.215 2.49268 2.729 6.97868 2.729 12.4927C2.729 18.0067 7.215 22.4927 12.729 22.4927C18.243 22.4927 22.729 18.0067 22.729 12.4927C22.729 6.97868 18.243 2.49268 12.729 2.49268ZM12.729 20.4927C8.318 20.4927 4.729 16.9037 4.729 12.4927C4.729 8.08168 8.318 4.49268 12.729 4.49268C17.14 4.49268 20.729 8.08168 20.729 12.4927C20.729 16.9037 17.14 20.4927 12.729 20.4927Z" fill="white"/>
<path d="M9.229 12.4927C10.0574 12.4927 10.729 11.8211 10.729 10.9927C10.729 10.1642 10.0574 9.49268 9.229 9.49268C8.40058 9.49268 7.729 10.1642 7.729 10.9927C7.729 11.8211 8.40058 12.4927 9.229 12.4927Z" fill="white"/>
<path d="M16.222 12.4787C17.0466 12.4787 17.715 11.8102 17.715 10.9857C17.715 10.1611 17.0466 9.49268 16.222 9.49268C15.3974 9.49268 14.729 10.1611 14.729 10.9857C14.729 11.8102 15.3974 12.4787 16.222 12.4787Z" fill="white"/>
<path d="M12.729 18.4927C16.729 18.4927 17.729 14.4927 17.729 14.4927H7.729C7.729 14.4927 8.729 18.4927 12.729 18.4927Z" fill="white"/>
</svg>
