<svg width="23" height="23" viewBox="0 0 23 23" fill="none" xmlns="http://www.w3.org/2000/svg">
<mask id="mask0_174_1408" style="mask-type:alpha" maskUnits="userSpaceOnUse" x="-1" y="-1" width="24" height="24">
<path fill-rule="evenodd" clip-rule="evenodd" d="M0.220215 0.329102H22.2202V22.3291H0.220215V0.329102Z" fill="white" stroke="current"/>
</mask>
<g mask="url(#mask0_174_1408)">
<path fill-rule="evenodd" clip-rule="evenodd" d="M12.7946 14.9493C14.0868 14.9493 15.1385 15.9447 15.1385 17.1682V20.315C15.1385 20.5779 15.3596 20.7887 15.6429 20.7948H17.6884C19.3003 20.7948 20.6106 19.5611 20.6106 18.0449V9.12013C20.6031 8.59839 20.3423 8.10734 19.8948 7.781L12.8193 2.40197C11.8696 1.68483 10.541 1.68483 9.58798 2.40401L2.56079 7.77895C2.0961 8.11552 1.83532 8.60657 1.82996 9.13752V18.0449C1.82996 19.5611 3.14031 20.7948 4.75223 20.7948H6.81703C7.10786 20.7948 7.34396 20.5749 7.34396 20.3048C7.34396 20.2454 7.35147 20.1861 7.36435 20.1298V17.1682C7.36435 15.9518 8.40963 14.9575 9.69208 14.9493H12.7946ZM17.6884 22.3294H15.6236C14.4409 22.3028 13.5287 21.4178 13.5287 20.315V17.1682C13.5287 16.7907 13.1993 16.4838 12.7947 16.4838H9.69748C9.30148 16.4859 8.97415 16.7938 8.97415 17.1682V20.3048C8.97415 20.3815 8.96342 20.4552 8.94089 20.5248C8.82498 21.5375 7.91707 22.3294 6.81706 22.3294H4.75226C2.25282 22.3294 0.220215 20.4071 0.220215 18.045V9.13038C0.230947 8.1135 0.722464 7.18255 1.57135 6.56977L8.58459 1.20404C10.1289 0.0377974 12.2806 0.0377974 13.8217 1.20199L20.8854 6.57284C21.715 7.17539 22.2065 8.10429 22.2204 9.1089V18.045C22.2204 20.4071 20.1878 22.3294 17.6884 22.3294Z" fill="white"/>
</g>
</svg>
