<svg width="23" height="23" viewBox="0 0 23 23" fill="none" xmlns="http://www.w3.org/2000/svg">
<mask id="mask0_550_4502" style="mask-type:alpha" maskUnits="userSpaceOnUse" x="0" y="-1" width="24" height="24">
<path fill-rule="evenodd" clip-rule="evenodd" d="M0.773926 0.141357H22.7739V22.1414H0.773926V0.141357Z" fill="white" stroke="white"/>
</mask>
<g mask="url(#mask0_550_4502)">
<path fill-rule="evenodd" clip-rule="evenodd" d="M13.3481 14.7613C14.6402 14.7613 15.6919 15.7567 15.6919 16.9802V20.127C15.6919 20.3899 15.913 20.6007 16.1963 20.6068H18.2418C19.8537 20.6068 21.1641 19.3731 21.1641 17.8569V8.93214C21.1566 8.4104 20.8958 7.91935 20.4483 7.59301L13.3728 2.21398C12.423 1.49684 11.0944 1.49684 10.1415 2.21603L3.11426 7.59096C2.64957 7.92754 2.38879 8.41858 2.38342 8.94953V17.8569C2.38342 19.3731 3.69378 20.6068 5.3057 20.6068H7.3705C7.66133 20.6068 7.89743 20.3869 7.89743 20.1168C7.89743 20.0575 7.90494 19.9981 7.91782 19.9419V16.9802C7.91782 15.7639 8.9631 14.7695 10.2455 14.7613H13.3481ZM18.2419 22.1414H16.1771C14.9944 22.1148 14.0822 21.2299 14.0822 20.127V16.9802C14.0822 16.6028 13.7527 16.2958 13.3481 16.2958H10.2509C9.85494 16.2979 9.52762 16.6058 9.52762 16.9802V20.1168C9.52762 20.1935 9.51689 20.2672 9.49435 20.3368C9.37845 21.3496 8.47054 22.1414 7.37053 22.1414H5.30573C2.80629 22.1414 0.773682 20.2191 0.773682 17.857V8.94239C0.784413 7.92551 1.27593 6.99457 2.12482 6.38178L9.13806 1.01605C10.6824 -0.150191 12.8341 -0.150191 14.3752 1.014L21.4389 6.38485C22.2684 6.9874 22.7599 7.91631 22.7739 8.92091V17.857C22.7739 20.2191 20.7413 22.1414 18.2419 22.1414V22.1414Z" fill="white"/>
</g>
</svg>
