<svg width="25" height="25" viewBox="0 0 25 25" fill="none" xmlns="http://www.w3.org/2000/svg">
<path fill-rule="evenodd" clip-rule="evenodd" d="M12.719 2.91406C7.199 2.91406 2.729 7.39406 2.729 12.9141C2.729 18.4341 7.199 22.9141 12.719 22.9141C18.249 22.9141 22.729 18.4341 22.729 12.9141C22.729 7.39406 18.249 2.91406 12.719 2.91406ZM13.729 13.9141V7.91406H11.729V13.9141H13.729ZM13.729 17.9141V15.9141H11.729V17.9141H13.729ZM4.729 12.9141C4.729 17.3341 8.309 20.9141 12.729 20.9141C17.149 20.9141 20.729 17.3341 20.729 12.9141C20.729 8.49406 17.149 4.91406 12.729 4.91406C8.309 4.91406 4.729 8.49406 4.729 12.9141Z" fill="white"/>
</svg>
