<svg width="336" height="338" viewBox="0 0 336 338" fill="none" xmlns="http://www.w3.org/2000/svg">
<g clip-path="url(#clip0_964_44598)">
<rect y="0.527344" width="336" height="337" rx="20" fill="url(#paint0_linear_964_44598)"/>
<path d="M42.4704 214.527L49.7504 203.327H51.8144L54.5984 214.527H52.5344L50.1984 204.399H51.0304L44.6944 214.527H42.4704ZM45.3184 211.935L46.1984 210.303H52.2304L52.5024 211.935H45.3184ZM55.8468 214.527L58.2148 202.655H60.2148L57.8468 214.527H55.8468ZM60.4718 214.527L62.8398 202.655H64.8398L62.4718 214.527H60.4718ZM69.3208 214.639C68.4888 214.639 67.7581 214.485 67.1288 214.175C66.5101 213.855 66.0301 213.418 65.6888 212.863C65.3475 212.298 65.1768 211.637 65.1768 210.879C65.1768 209.919 65.3955 209.066 65.8328 208.319C66.2701 207.562 66.8675 206.97 67.6248 206.543C68.3928 206.106 69.2675 205.887 70.2488 205.887C71.0915 205.887 71.8221 206.042 72.4408 206.351C73.0701 206.65 73.5555 207.082 73.8968 207.647C74.2381 208.202 74.4088 208.863 74.4088 209.631C74.4088 210.581 74.1901 211.434 73.7528 212.191C73.3155 212.949 72.7128 213.546 71.9448 213.983C71.1875 214.421 70.3128 214.639 69.3208 214.639ZM69.4488 212.927C70.0248 212.927 70.5315 212.794 70.9688 212.527C71.4061 212.25 71.7528 211.871 72.0088 211.391C72.2648 210.911 72.3928 210.357 72.3928 209.727C72.3928 209.066 72.1955 208.543 71.8008 208.159C71.4061 207.775 70.8515 207.583 70.1368 207.583C69.5715 207.583 69.0648 207.722 68.6168 207.999C68.1795 208.266 67.8328 208.639 67.5768 209.119C67.3208 209.599 67.1928 210.154 67.1928 210.783C67.1928 211.455 67.3901 211.983 67.7848 212.367C68.1795 212.741 68.7341 212.927 69.4488 212.927ZM77.1429 214.527L75.5749 205.983H77.3989L78.7109 213.519H77.7829L82.0549 205.983H83.7669L85.1269 213.519H84.1989L88.4229 205.983H90.3109L85.5429 214.527H83.5749L82.2789 207.855H82.8709L79.0789 214.527H77.1429ZM92.7276 214.639C91.9809 214.639 91.2822 214.549 90.6316 214.367C89.9809 214.186 89.4796 213.967 89.1276 213.711L89.9596 212.175C90.3116 212.421 90.7489 212.623 91.2716 212.783C91.8049 212.933 92.3596 213.007 92.9356 213.007C93.5969 213.007 94.0822 212.917 94.3916 212.735C94.7116 212.554 94.8716 212.303 94.8716 211.983C94.8716 211.749 94.7596 211.573 94.5356 211.455C94.3116 211.338 94.0236 211.242 93.6716 211.167C93.3302 211.093 92.9569 211.013 92.5516 210.927C92.1569 210.842 91.7836 210.725 91.4316 210.575C91.0902 210.426 90.8076 210.207 90.5836 209.919C90.3596 209.631 90.2476 209.247 90.2476 208.767C90.2476 208.159 90.4182 207.642 90.7596 207.215C91.1009 206.789 91.5756 206.463 92.1836 206.239C92.8022 206.005 93.5116 205.887 94.3116 205.887C94.8876 205.887 95.4529 205.951 96.0076 206.079C96.5622 206.207 97.0209 206.389 97.3836 206.623L96.6476 208.159C96.2636 207.914 95.8476 207.743 95.3996 207.647C94.9622 207.551 94.5356 207.503 94.1196 207.503C93.4689 207.503 92.9836 207.605 92.6636 207.807C92.3542 207.999 92.1996 208.245 92.1996 208.543C92.1996 208.778 92.3116 208.959 92.5356 209.087C92.7596 209.215 93.0422 209.322 93.3836 209.407C93.7356 209.482 94.1089 209.562 94.5036 209.647C94.9089 209.722 95.2822 209.834 95.6236 209.983C95.9756 210.133 96.2636 210.351 96.4876 210.639C96.7116 210.917 96.8236 211.29 96.8236 211.759C96.8236 212.378 96.6476 212.906 96.2956 213.343C95.9542 213.77 95.4742 214.095 94.8556 214.319C94.2369 214.533 93.5276 214.639 92.7276 214.639ZM102.728 214.527L104.552 205.439C104.733 204.543 105.112 203.839 105.688 203.327C106.264 202.805 107.032 202.543 107.992 202.543C108.354 202.543 108.701 202.586 109.032 202.671C109.362 202.757 109.64 202.885 109.864 203.055L109.048 204.511C108.76 204.277 108.408 204.159 107.992 204.159C107.576 204.159 107.245 204.277 107 204.511C106.754 204.746 106.578 205.103 106.472 205.583L106.264 206.543L106.168 207.359L104.728 214.527H102.728ZM102.712 207.647L103.032 206.047H108.712L108.392 207.647H102.712ZM112.477 214.639C111.645 214.639 110.914 214.485 110.285 214.175C109.666 213.855 109.186 213.418 108.845 212.863C108.504 212.298 108.333 211.637 108.333 210.879C108.333 209.919 108.552 209.066 108.989 208.319C109.426 207.562 110.024 206.97 110.781 206.543C111.549 206.106 112.424 205.887 113.405 205.887C114.248 205.887 114.978 206.042 115.597 206.351C116.226 206.65 116.712 207.082 117.053 207.647C117.394 208.202 117.565 208.863 117.565 209.631C117.565 210.581 117.346 211.434 116.909 212.191C116.472 212.949 115.869 213.546 115.101 213.983C114.344 214.421 113.469 214.639 112.477 214.639ZM112.605 212.927C113.181 212.927 113.688 212.794 114.125 212.527C114.562 212.25 114.909 211.871 115.165 211.391C115.421 210.911 115.549 210.357 115.549 209.727C115.549 209.066 115.352 208.543 114.957 208.159C114.562 207.775 114.008 207.583 113.293 207.583C112.728 207.583 112.221 207.722 111.773 207.999C111.336 208.266 110.989 208.639 110.733 209.119C110.477 209.599 110.349 210.154 110.349 210.783C110.349 211.455 110.546 211.983 110.941 212.367C111.336 212.741 111.89 212.927 112.605 212.927ZM118.566 214.527L120.262 205.983H122.166L121.686 208.415L121.51 207.711C121.904 207.018 122.406 206.543 123.014 206.287C123.622 206.021 124.363 205.887 125.238 205.887L124.87 207.791C124.784 207.77 124.704 207.759 124.63 207.759C124.555 207.749 124.47 207.743 124.374 207.743C123.595 207.743 122.95 207.951 122.438 208.367C121.926 208.773 121.584 209.423 121.414 210.319L120.566 214.527H118.566ZM132.618 214.639C131.872 214.639 131.173 214.549 130.522 214.367C129.872 214.186 129.37 213.967 129.018 213.711L129.85 212.175C130.202 212.421 130.64 212.623 131.162 212.783C131.696 212.933 132.25 213.007 132.826 213.007C133.488 213.007 133.973 212.917 134.282 212.735C134.602 212.554 134.762 212.303 134.762 211.983C134.762 211.749 134.65 211.573 134.426 211.455C134.202 211.338 133.914 211.242 133.562 211.167C133.221 211.093 132.848 211.013 132.442 210.927C132.048 210.842 131.674 210.725 131.322 210.575C130.981 210.426 130.698 210.207 130.474 209.919C130.25 209.631 130.138 209.247 130.138 208.767C130.138 208.159 130.309 207.642 130.65 207.215C130.992 206.789 131.466 206.463 132.074 206.239C132.693 206.005 133.402 205.887 134.202 205.887C134.778 205.887 135.344 205.951 135.898 206.079C136.453 206.207 136.912 206.389 137.274 206.623L136.538 208.159C136.154 207.914 135.738 207.743 135.29 207.647C134.853 207.551 134.426 207.503 134.01 207.503C133.36 207.503 132.874 207.605 132.554 207.807C132.245 207.999 132.09 208.245 132.09 208.543C132.09 208.778 132.202 208.959 132.426 209.087C132.65 209.215 132.933 209.322 133.274 209.407C133.626 209.482 134 209.562 134.394 209.647C134.8 209.722 135.173 209.834 135.514 209.983C135.866 210.133 136.154 210.351 136.378 210.639C136.602 210.917 136.714 211.29 136.714 211.759C136.714 212.378 136.538 212.906 136.186 213.343C135.845 213.77 135.365 214.095 134.746 214.319C134.128 214.533 133.418 214.639 132.618 214.639ZM142.229 214.639C141.375 214.639 140.634 214.485 140.005 214.175C139.375 213.855 138.885 213.418 138.533 212.863C138.191 212.298 138.021 211.637 138.021 210.879C138.021 209.909 138.234 209.05 138.661 208.303C139.087 207.557 139.669 206.97 140.405 206.543C141.151 206.106 141.999 205.887 142.949 205.887C143.749 205.887 144.442 206.037 145.029 206.335C145.615 206.634 146.069 207.066 146.389 207.631C146.719 208.186 146.885 208.853 146.885 209.631C146.885 209.834 146.874 210.042 146.853 210.255C146.831 210.469 146.799 210.666 146.757 210.847H139.509L139.733 209.519H145.813L144.997 209.967C145.082 209.423 145.045 208.97 144.885 208.607C144.725 208.245 144.469 207.967 144.117 207.775C143.765 207.583 143.343 207.487 142.853 207.487C142.266 207.487 141.754 207.626 141.317 207.903C140.89 208.17 140.559 208.554 140.325 209.055C140.09 209.546 139.973 210.122 139.973 210.783C139.973 211.477 140.17 212.01 140.565 212.383C140.97 212.757 141.594 212.943 142.437 212.943C142.917 212.943 143.375 212.869 143.813 212.719C144.25 212.559 144.613 212.341 144.901 212.063L145.733 213.455C145.285 213.85 144.751 214.149 144.133 214.351C143.525 214.543 142.89 214.639 142.229 214.639ZM151.047 214.639C150.492 214.639 150.012 214.522 149.607 214.287C149.212 214.042 148.924 213.701 148.743 213.263C148.572 212.815 148.545 212.287 148.663 211.679L150.183 204.095H152.183L150.663 211.663C150.599 212.058 150.641 212.378 150.791 212.623C150.94 212.869 151.223 212.991 151.639 212.991C151.831 212.991 152.023 212.965 152.215 212.911C152.417 212.847 152.599 212.762 152.759 212.655L153.111 214.127C152.812 214.319 152.481 214.453 152.119 214.527C151.756 214.602 151.399 214.639 151.047 214.639ZM148.087 207.647L148.407 206.047H154.087L153.767 207.647H148.087ZM157.641 214.639C157.086 214.639 156.606 214.522 156.201 214.287C155.806 214.042 155.518 213.701 155.337 213.263C155.166 212.815 155.139 212.287 155.257 211.679L156.777 204.095H158.777L157.257 211.663C157.193 212.058 157.235 212.378 157.385 212.623C157.534 212.869 157.817 212.991 158.233 212.991C158.425 212.991 158.617 212.965 158.809 212.911C159.011 212.847 159.193 212.762 159.353 212.655L159.705 214.127C159.406 214.319 159.075 214.453 158.713 214.527C158.35 214.602 157.993 214.639 157.641 214.639ZM154.681 207.647L155.001 206.047H160.681L160.361 207.647H154.681ZM161.222 214.527L162.918 205.983H164.918L163.222 214.527H161.222ZM164.374 204.575C164.011 204.575 163.718 204.469 163.494 204.255C163.28 204.031 163.174 203.765 163.174 203.455C163.174 203.093 163.296 202.789 163.542 202.543C163.798 202.298 164.128 202.175 164.534 202.175C164.886 202.175 165.174 202.282 165.398 202.495C165.622 202.698 165.734 202.949 165.734 203.247C165.734 203.642 165.611 203.962 165.366 204.207C165.12 204.453 164.79 204.575 164.374 204.575ZM172.199 205.887C172.935 205.887 173.559 206.037 174.071 206.335C174.583 206.634 174.94 207.077 175.143 207.663C175.356 208.239 175.377 208.949 175.207 209.791L174.263 214.527H172.263L173.191 209.839C173.329 209.146 173.265 208.607 172.999 208.223C172.732 207.829 172.247 207.631 171.543 207.631C170.807 207.631 170.199 207.834 169.719 208.239C169.239 208.645 168.913 209.263 168.743 210.095L167.847 214.527H165.847L167.543 205.983H169.447L168.967 208.415L168.647 207.647C169.052 207.039 169.559 206.597 170.167 206.319C170.785 206.031 171.463 205.887 172.199 205.887ZM180.272 217.743C179.461 217.743 178.714 217.642 178.032 217.439C177.349 217.247 176.762 216.959 176.272 216.575L177.312 215.071C177.642 215.359 178.08 215.589 178.624 215.759C179.168 215.941 179.76 216.031 180.4 216.031C181.338 216.031 182.048 215.823 182.528 215.407C183.008 215.002 183.328 214.389 183.488 213.567L183.84 211.807L184.368 209.999L184.688 208.063L185.088 205.983H186.992L185.552 213.231C185.232 214.821 184.634 215.967 183.76 216.671C182.885 217.386 181.722 217.743 180.272 217.743ZM180.768 214.143C180.032 214.143 179.376 214.005 178.8 213.727C178.224 213.439 177.77 213.034 177.44 212.511C177.109 211.978 176.944 211.343 176.944 210.607C176.944 209.935 177.061 209.317 177.296 208.751C177.541 208.175 177.877 207.674 178.304 207.247C178.741 206.821 179.253 206.49 179.84 206.255C180.437 206.01 181.088 205.887 181.792 205.887C182.41 205.887 182.981 205.999 183.504 206.223C184.026 206.437 184.442 206.789 184.752 207.279C185.061 207.759 185.205 208.394 185.184 209.183C185.162 210.122 184.976 210.97 184.624 211.727C184.272 212.474 183.77 213.066 183.12 213.503C182.469 213.93 181.685 214.143 180.768 214.143ZM181.216 212.447C181.792 212.447 182.298 212.325 182.736 212.079C183.173 211.823 183.514 211.477 183.76 211.039C184.016 210.591 184.144 210.09 184.144 209.535C184.144 208.927 183.946 208.453 183.552 208.111C183.157 207.759 182.608 207.583 181.904 207.583C181.328 207.583 180.821 207.711 180.384 207.967C179.946 208.213 179.6 208.554 179.344 208.991C179.088 209.429 178.96 209.93 178.96 210.495C178.96 211.103 179.157 211.583 179.552 211.935C179.957 212.277 180.512 212.447 181.216 212.447ZM195.259 214.639C194.512 214.639 193.813 214.549 193.163 214.367C192.512 214.186 192.011 213.967 191.659 213.711L192.491 212.175C192.843 212.421 193.28 212.623 193.803 212.783C194.336 212.933 194.891 213.007 195.467 213.007C196.128 213.007 196.613 212.917 196.923 212.735C197.243 212.554 197.403 212.303 197.403 211.983C197.403 211.749 197.291 211.573 197.067 211.455C196.843 211.338 196.555 211.242 196.203 211.167C195.861 211.093 195.488 211.013 195.083 210.927C194.688 210.842 194.315 210.725 193.963 210.575C193.621 210.426 193.339 210.207 193.115 209.919C192.891 209.631 192.779 209.247 192.779 208.767C192.779 208.159 192.949 207.642 193.291 207.215C193.632 206.789 194.107 206.463 194.715 206.239C195.333 206.005 196.043 205.887 196.843 205.887C197.419 205.887 197.984 205.951 198.539 206.079C199.093 206.207 199.552 206.389 199.915 206.623L199.179 208.159C198.795 207.914 198.379 207.743 197.931 207.647C197.493 207.551 197.067 207.503 196.651 207.503C196 207.503 195.515 207.605 195.195 207.807C194.885 207.999 194.731 208.245 194.731 208.543C194.731 208.778 194.843 208.959 195.067 209.087C195.291 209.215 195.573 209.322 195.915 209.407C196.267 209.482 196.64 209.562 197.035 209.647C197.44 209.722 197.813 209.834 198.155 209.983C198.507 210.133 198.795 210.351 199.019 210.639C199.243 210.917 199.355 211.29 199.355 211.759C199.355 212.378 199.179 212.906 198.827 213.343C198.485 213.77 198.005 214.095 197.387 214.319C196.768 214.533 196.059 214.639 195.259 214.639ZM204.805 214.639C203.973 214.639 203.243 214.485 202.613 214.175C201.995 213.855 201.515 213.418 201.173 212.863C200.832 212.298 200.661 211.637 200.661 210.879C200.661 209.919 200.88 209.066 201.317 208.319C201.755 207.562 202.352 206.97 203.109 206.543C203.877 206.106 204.752 205.887 205.733 205.887C206.576 205.887 207.307 206.042 207.925 206.351C208.555 206.65 209.04 207.082 209.381 207.647C209.723 208.202 209.893 208.863 209.893 209.631C209.893 210.581 209.675 211.434 209.237 212.191C208.8 212.949 208.197 213.546 207.429 213.983C206.672 214.421 205.797 214.639 204.805 214.639ZM204.933 212.927C205.509 212.927 206.016 212.794 206.453 212.527C206.891 212.25 207.237 211.871 207.493 211.391C207.749 210.911 207.877 210.357 207.877 209.727C207.877 209.066 207.68 208.543 207.285 208.159C206.891 207.775 206.336 207.583 205.621 207.583C205.056 207.583 204.549 207.722 204.101 207.999C203.664 208.266 203.317 208.639 203.061 209.119C202.805 209.599 202.677 210.154 202.677 210.783C202.677 211.455 202.875 211.983 203.269 212.367C203.664 212.741 204.219 212.927 204.933 212.927ZM223.15 205.887C223.896 205.887 224.52 206.037 225.022 206.335C225.523 206.634 225.875 207.077 226.078 207.663C226.28 208.239 226.296 208.949 226.126 209.791L225.182 214.527H223.182L224.126 209.839C224.264 209.135 224.206 208.591 223.95 208.207C223.694 207.823 223.23 207.631 222.558 207.631C221.864 207.631 221.294 207.834 220.846 208.239C220.408 208.634 220.104 209.247 219.934 210.079L219.038 214.527H217.038L217.982 209.839C218.12 209.135 218.062 208.591 217.806 208.207C217.55 207.823 217.086 207.631 216.414 207.631C215.72 207.631 215.15 207.834 214.702 208.239C214.264 208.634 213.96 209.253 213.79 210.095L212.894 214.527H210.894L212.59 205.983H214.494L214.03 208.335L213.694 207.647C214.088 207.039 214.579 206.597 215.166 206.319C215.763 206.031 216.414 205.887 217.118 205.887C217.672 205.887 218.163 205.983 218.59 206.175C219.016 206.357 219.358 206.639 219.614 207.023C219.88 207.397 220.035 207.861 220.078 208.415L219.118 208.207C219.555 207.439 220.115 206.863 220.798 206.479C221.491 206.085 222.275 205.887 223.15 205.887ZM232.041 214.639C231.188 214.639 230.446 214.485 229.817 214.175C229.188 213.855 228.697 213.418 228.345 212.863C228.004 212.298 227.833 211.637 227.833 210.879C227.833 209.909 228.046 209.05 228.473 208.303C228.9 207.557 229.481 206.97 230.217 206.543C230.964 206.106 231.812 205.887 232.761 205.887C233.561 205.887 234.254 206.037 234.841 206.335C235.428 206.634 235.881 207.066 236.201 207.631C236.532 208.186 236.697 208.853 236.697 209.631C236.697 209.834 236.686 210.042 236.665 210.255C236.644 210.469 236.612 210.666 236.569 210.847H229.321L229.545 209.519H235.625L234.809 209.967C234.894 209.423 234.857 208.97 234.697 208.607C234.537 208.245 234.281 207.967 233.929 207.775C233.577 207.583 233.156 207.487 232.665 207.487C232.078 207.487 231.566 207.626 231.129 207.903C230.702 208.17 230.372 208.554 230.137 209.055C229.902 209.546 229.785 210.122 229.785 210.783C229.785 211.477 229.982 212.01 230.377 212.383C230.782 212.757 231.406 212.943 232.249 212.943C232.729 212.943 233.188 212.869 233.625 212.719C234.062 212.559 234.425 212.341 234.713 212.063L235.545 213.455C235.097 213.85 234.564 214.149 233.945 214.351C233.337 214.543 232.702 214.639 232.041 214.639ZM242.337 214.527L244.161 205.439C244.343 204.543 244.721 203.839 245.297 203.327C245.873 202.805 246.641 202.543 247.601 202.543C247.964 202.543 248.311 202.586 248.641 202.671C248.972 202.757 249.249 202.885 249.473 203.055L248.657 204.511C248.369 204.277 248.017 204.159 247.601 204.159C247.185 204.159 246.855 204.277 246.609 204.511C246.364 204.746 246.188 205.103 246.081 205.583L245.873 206.543L245.777 207.359L244.337 214.527H242.337ZM242.321 207.647L242.641 206.047H248.321L248.001 207.647H242.321ZM251.651 214.639C250.937 214.639 250.323 214.49 249.811 214.191C249.31 213.882 248.953 213.439 248.739 212.863C248.526 212.277 248.505 211.562 248.675 210.719L249.619 205.983H251.619L250.675 210.671C250.547 211.365 250.611 211.909 250.867 212.303C251.134 212.687 251.614 212.879 252.307 212.879C253.022 212.879 253.619 212.677 254.099 212.271C254.59 211.866 254.915 211.247 255.075 210.415L255.971 205.983H257.955L256.259 214.527H254.355L254.835 212.095L255.155 212.863C254.75 213.471 254.238 213.919 253.619 214.207C253.011 214.495 252.355 214.639 251.651 214.639ZM265.23 205.887C265.966 205.887 266.59 206.037 267.102 206.335C267.614 206.634 267.971 207.077 268.174 207.663C268.387 208.239 268.409 208.949 268.238 209.791L267.294 214.527H265.294L266.222 209.839C266.361 209.146 266.297 208.607 266.03 208.223C265.763 207.829 265.278 207.631 264.574 207.631C263.838 207.631 263.23 207.834 262.75 208.239C262.27 208.645 261.945 209.263 261.774 210.095L260.878 214.527H258.878L260.574 205.983H262.478L261.998 208.415L261.678 207.647C262.083 207.039 262.59 206.597 263.198 206.319C263.817 206.031 264.494 205.887 265.23 205.887ZM273.703 214.639C273.009 214.639 272.375 214.49 271.799 214.191C271.223 213.893 270.769 213.466 270.439 212.911C270.108 212.346 269.943 211.669 269.943 210.879C269.943 210.154 270.06 209.487 270.295 208.879C270.54 208.271 270.881 207.743 271.319 207.295C271.756 206.847 272.263 206.501 272.839 206.255C273.425 206.01 274.06 205.887 274.743 205.887C275.447 205.887 276.055 206.01 276.567 206.255C277.079 206.501 277.473 206.869 277.751 207.359C278.028 207.85 278.167 208.458 278.167 209.183C278.167 209.983 278.065 210.719 277.863 211.391C277.66 212.053 277.367 212.629 276.983 213.119C276.599 213.599 276.129 213.973 275.575 214.239C275.031 214.506 274.407 214.639 273.703 214.639ZM274.215 212.927C274.78 212.927 275.281 212.794 275.719 212.527C276.167 212.25 276.513 211.871 276.759 211.391C277.015 210.911 277.143 210.357 277.143 209.727C277.143 209.066 276.945 208.543 276.551 208.159C276.167 207.775 275.612 207.583 274.887 207.583C274.332 207.583 273.831 207.722 273.383 207.999C272.935 208.266 272.583 208.639 272.327 209.119C272.081 209.599 271.959 210.154 271.959 210.783C271.959 211.445 272.151 211.967 272.535 212.351C272.929 212.735 273.489 212.927 274.215 212.927ZM276.295 214.527L276.695 212.575L277.223 210.303L277.495 208.015L278.567 202.655H280.567L278.199 214.527H276.295ZM283.743 214.639C282.997 214.639 282.298 214.549 281.647 214.367C280.997 214.186 280.495 213.967 280.143 213.711L280.975 212.175C281.327 212.421 281.765 212.623 282.287 212.783C282.821 212.933 283.375 213.007 283.951 213.007C284.613 213.007 285.098 212.917 285.407 212.735C285.727 212.554 285.887 212.303 285.887 211.983C285.887 211.749 285.775 211.573 285.551 211.455C285.327 211.338 285.039 211.242 284.687 211.167C284.346 211.093 283.973 211.013 283.567 210.927C283.173 210.842 282.799 210.725 282.447 210.575C282.106 210.426 281.823 210.207 281.599 209.919C281.375 209.631 281.263 209.247 281.263 208.767C281.263 208.159 281.434 207.642 281.775 207.215C282.117 206.789 282.591 206.463 283.199 206.239C283.818 206.005 284.527 205.887 285.327 205.887C285.903 205.887 286.469 205.951 287.023 206.079C287.578 206.207 288.037 206.389 288.399 206.623L287.663 208.159C287.279 207.914 286.863 207.743 286.415 207.647C285.978 207.551 285.551 207.503 285.135 207.503C284.485 207.503 283.999 207.605 283.679 207.807C283.37 207.999 283.215 208.245 283.215 208.543C283.215 208.778 283.327 208.959 283.551 209.087C283.775 209.215 284.058 209.322 284.399 209.407C284.751 209.482 285.125 209.562 285.519 209.647C285.925 209.722 286.298 209.834 286.639 209.983C286.991 210.133 287.279 210.351 287.503 210.639C287.727 210.917 287.839 211.29 287.839 211.759C287.839 212.378 287.663 212.906 287.311 213.343C286.97 213.77 286.49 214.095 285.871 214.319C285.253 214.533 284.543 214.639 283.743 214.639ZM80.0325 238.527L81.8565 229.439C82.0378 228.543 82.4165 227.839 82.9925 227.327C83.5685 226.805 84.3365 226.543 85.2965 226.543C85.6592 226.543 86.0058 226.586 86.3365 226.671C86.6672 226.757 86.9445 226.885 87.1685 227.055L86.3525 228.511C86.0645 228.277 85.7125 228.159 85.2965 228.159C84.8805 228.159 84.5498 228.277 84.3045 228.511C84.0592 228.746 83.8832 229.103 83.7765 229.583L83.5685 230.543L83.4725 231.359L82.0325 238.527H80.0325ZM80.0165 231.647L80.3365 230.047H86.0165L85.6965 231.647H80.0165ZM89.7818 238.639C88.9498 238.639 88.2191 238.485 87.5898 238.175C86.9711 237.855 86.4911 237.418 86.1497 236.863C85.8084 236.298 85.6378 235.637 85.6378 234.879C85.6378 233.919 85.8564 233.066 86.2938 232.319C86.7311 231.562 87.3284 230.97 88.0858 230.543C88.8538 230.106 89.7284 229.887 90.7098 229.887C91.5524 229.887 92.2831 230.042 92.9018 230.351C93.5311 230.65 94.0164 231.082 94.3578 231.647C94.6991 232.202 94.8698 232.863 94.8698 233.631C94.8698 234.581 94.6511 235.434 94.2138 236.191C93.7764 236.949 93.1738 237.546 92.4058 237.983C91.6484 238.421 90.7738 238.639 89.7818 238.639ZM89.9098 236.927C90.4858 236.927 90.9924 236.794 91.4298 236.527C91.8671 236.25 92.2138 235.871 92.4698 235.391C92.7258 234.911 92.8538 234.357 92.8538 233.727C92.8538 233.066 92.6564 232.543 92.2618 232.159C91.8671 231.775 91.3124 231.583 90.5978 231.583C90.0324 231.583 89.5258 231.722 89.0778 231.999C88.6404 232.266 88.2938 232.639 88.0378 233.119C87.7818 233.599 87.6538 234.154 87.6538 234.783C87.6538 235.455 87.8511 235.983 88.2458 236.367C88.6404 236.741 89.1951 236.927 89.9098 236.927ZM95.8703 238.527L97.5663 229.983H99.4703L98.9903 232.415L98.8143 231.711C99.2089 231.018 99.7103 230.543 100.318 230.287C100.926 230.021 101.668 229.887 102.542 229.887L102.174 231.791C102.089 231.77 102.009 231.759 101.934 231.759C101.86 231.749 101.774 231.743 101.678 231.743C100.9 231.743 100.254 231.951 99.7423 232.367C99.2303 232.773 98.8889 233.423 98.7183 234.319L97.8703 238.527H95.8703ZM110.851 238.639C110.158 238.639 109.523 238.49 108.947 238.191C108.382 237.893 107.928 237.466 107.587 236.911C107.256 236.346 107.091 235.669 107.091 234.879C107.091 234.154 107.208 233.487 107.443 232.879C107.688 232.271 108.03 231.743 108.467 231.295C108.904 230.847 109.411 230.501 109.987 230.255C110.574 230.01 111.214 229.887 111.907 229.887C112.622 229.887 113.235 230.015 113.747 230.271C114.27 230.527 114.664 230.917 114.931 231.439C115.198 231.951 115.32 232.591 115.299 233.359C115.278 234.415 115.086 235.343 114.723 236.143C114.36 236.933 113.854 237.546 113.203 237.983C112.552 238.421 111.768 238.639 110.851 238.639ZM111.363 236.927C111.939 236.927 112.446 236.794 112.883 236.527C113.32 236.25 113.667 235.871 113.923 235.391C114.179 234.911 114.307 234.357 114.307 233.727C114.307 233.066 114.11 232.543 113.715 232.159C113.32 231.775 112.766 231.583 112.051 231.583C111.486 231.583 110.979 231.722 110.531 231.999C110.094 232.266 109.747 232.639 109.491 233.119C109.235 233.599 109.107 234.154 109.107 234.783C109.107 235.445 109.304 235.967 109.699 236.351C110.094 236.735 110.648 236.927 111.363 236.927ZM113.459 238.527L113.843 236.575L114.387 234.303L114.659 232.015L115.059 229.983H117.059L115.363 238.527H113.459ZM125.314 238.639C124.567 238.639 123.868 238.549 123.218 238.367C122.567 238.186 122.066 237.967 121.713 237.711L122.546 236.175C122.898 236.421 123.335 236.623 123.858 236.783C124.391 236.933 124.946 237.007 125.522 237.007C126.183 237.007 126.668 236.917 126.978 236.735C127.298 236.554 127.458 236.303 127.458 235.983C127.458 235.749 127.346 235.573 127.122 235.455C126.898 235.338 126.61 235.242 126.258 235.167C125.916 235.093 125.543 235.013 125.138 234.927C124.743 234.842 124.37 234.725 124.018 234.575C123.676 234.426 123.394 234.207 123.17 233.919C122.946 233.631 122.834 233.247 122.834 232.767C122.834 232.159 123.004 231.642 123.346 231.215C123.687 230.789 124.162 230.463 124.77 230.239C125.388 230.005 126.098 229.887 126.898 229.887C127.474 229.887 128.039 229.951 128.594 230.079C129.148 230.207 129.607 230.389 129.97 230.623L129.234 232.159C128.85 231.914 128.434 231.743 127.986 231.647C127.548 231.551 127.122 231.503 126.706 231.503C126.055 231.503 125.57 231.605 125.25 231.807C124.94 231.999 124.786 232.245 124.786 232.543C124.786 232.778 124.898 232.959 125.122 233.087C125.346 233.215 125.628 233.322 125.97 233.407C126.322 233.482 126.695 233.562 127.09 233.647C127.495 233.722 127.868 233.834 128.21 233.983C128.562 234.133 128.85 234.351 129.074 234.639C129.298 234.917 129.41 235.29 129.41 235.759C129.41 236.378 129.234 236.906 128.882 237.343C128.54 237.77 128.06 238.095 127.442 238.319C126.823 238.533 126.114 238.639 125.314 238.639ZM135.804 238.639C135.089 238.639 134.471 238.511 133.948 238.255C133.425 237.989 133.031 237.599 132.764 237.087C132.497 236.565 132.375 235.919 132.396 235.151C132.417 234.085 132.609 233.157 132.972 232.367C133.335 231.578 133.841 230.97 134.492 230.543C135.153 230.106 135.937 229.887 136.844 229.887C137.548 229.887 138.183 230.037 138.748 230.335C139.313 230.623 139.761 231.05 140.092 231.615C140.433 232.17 140.604 232.842 140.604 233.631C140.604 234.357 140.481 235.023 140.236 235.631C140.001 236.239 139.665 236.767 139.228 237.215C138.791 237.663 138.279 238.015 137.692 238.271C137.116 238.517 136.487 238.639 135.804 238.639ZM130.012 241.631L132.332 229.983H134.236L133.852 231.935L133.324 234.207L133.036 236.495L132.012 241.631H130.012ZM135.644 236.927C136.22 236.927 136.727 236.794 137.164 236.527C137.601 236.25 137.948 235.871 138.204 235.391C138.46 234.911 138.588 234.357 138.588 233.727C138.588 233.066 138.391 232.543 137.996 232.159C137.601 231.775 137.047 231.583 136.332 231.583C135.767 231.583 135.26 231.722 134.812 231.999C134.375 232.266 134.028 232.639 133.772 233.119C133.516 233.599 133.388 234.154 133.388 234.783C133.388 235.445 133.585 235.967 133.98 236.351C134.375 236.735 134.929 236.927 135.644 236.927ZM145.893 238.639C145.039 238.639 144.298 238.485 143.669 238.175C143.039 237.855 142.549 237.418 142.197 236.863C141.855 236.298 141.685 235.637 141.685 234.879C141.685 233.909 141.898 233.05 142.325 232.303C142.751 231.557 143.333 230.97 144.069 230.543C144.815 230.106 145.663 229.887 146.613 229.887C147.413 229.887 148.106 230.037 148.693 230.335C149.279 230.634 149.733 231.066 150.053 231.631C150.383 232.186 150.549 232.853 150.549 233.631C150.549 233.834 150.538 234.042 150.517 234.255C150.495 234.469 150.463 234.666 150.421 234.847H143.173L143.397 233.519H149.477L148.661 233.967C148.746 233.423 148.709 232.97 148.549 232.607C148.389 232.245 148.133 231.967 147.781 231.775C147.429 231.583 147.007 231.487 146.517 231.487C145.93 231.487 145.418 231.626 144.981 231.903C144.554 232.17 144.223 232.554 143.989 233.055C143.754 233.546 143.637 234.122 143.637 234.783C143.637 235.477 143.834 236.01 144.229 236.383C144.634 236.757 145.258 236.943 146.101 236.943C146.581 236.943 147.039 236.869 147.477 236.719C147.914 236.559 148.277 236.341 148.565 236.063L149.397 237.455C148.949 237.85 148.415 238.149 147.797 238.351C147.189 238.543 146.554 238.639 145.893 238.639ZM155.783 238.639C154.94 238.639 154.199 238.485 153.559 238.175C152.93 237.855 152.444 237.418 152.103 236.863C151.762 236.298 151.591 235.637 151.591 234.879C151.591 233.919 151.81 233.066 152.247 232.319C152.684 231.562 153.287 230.97 154.055 230.543C154.823 230.106 155.708 229.887 156.711 229.887C157.575 229.887 158.316 230.058 158.935 230.399C159.564 230.73 160.05 231.226 160.391 231.887L158.679 232.767C158.487 232.362 158.21 232.063 157.847 231.871C157.495 231.679 157.063 231.583 156.551 231.583C155.996 231.583 155.495 231.722 155.047 231.999C154.599 232.266 154.247 232.639 153.991 233.119C153.735 233.599 153.607 234.154 153.607 234.783C153.607 235.445 153.804 235.967 154.199 236.351C154.594 236.735 155.154 236.927 155.879 236.927C156.348 236.927 156.786 236.831 157.191 236.639C157.596 236.447 157.938 236.149 158.215 235.743L159.687 236.735C159.292 237.333 158.748 237.802 158.055 238.143C157.362 238.474 156.604 238.639 155.783 238.639ZM160.73 238.527L162.426 229.983H164.426L162.73 238.527H160.73ZM163.882 228.575C163.519 228.575 163.226 228.469 163.002 228.255C162.788 228.031 162.682 227.765 162.682 227.455C162.682 227.093 162.804 226.789 163.05 226.543C163.306 226.298 163.636 226.175 164.042 226.175C164.394 226.175 164.682 226.282 164.906 226.495C165.13 226.698 165.242 226.949 165.242 227.247C165.242 227.642 165.119 227.962 164.874 228.207C164.628 228.453 164.298 228.575 163.882 228.575ZM165.611 238.527L167.435 229.439C167.616 228.543 167.995 227.839 168.571 227.327C169.147 226.805 169.915 226.543 170.875 226.543C171.237 226.543 171.584 226.586 171.915 226.671C172.245 226.757 172.523 226.885 172.747 227.055L171.931 228.511C171.643 228.277 171.291 228.159 170.875 228.159C170.459 228.159 170.128 228.277 169.883 228.511C169.637 228.746 169.461 229.103 169.355 229.583L169.147 230.543L169.051 231.359L167.611 238.527H165.611ZM165.595 231.647L165.915 230.047H171.595L171.275 231.647H165.595ZM171.307 238.527L173.003 229.983H175.003L173.307 238.527H171.307ZM174.459 228.575C174.096 228.575 173.803 228.469 173.579 228.255C173.365 228.031 173.259 227.765 173.259 227.455C173.259 227.093 173.381 226.789 173.627 226.543C173.883 226.298 174.213 226.175 174.619 226.175C174.971 226.175 175.259 226.282 175.483 226.495C175.707 226.698 175.819 226.949 175.819 227.247C175.819 227.642 175.696 227.962 175.451 228.207C175.205 228.453 174.875 228.575 174.459 228.575ZM180.205 238.639C179.362 238.639 178.621 238.485 177.981 238.175C177.351 237.855 176.866 237.418 176.525 236.863C176.183 236.298 176.013 235.637 176.013 234.879C176.013 233.919 176.231 233.066 176.669 232.319C177.106 231.562 177.709 230.97 178.477 230.543C179.245 230.106 180.13 229.887 181.133 229.887C181.997 229.887 182.738 230.058 183.357 230.399C183.986 230.73 184.471 231.226 184.813 231.887L183.101 232.767C182.909 232.362 182.631 232.063 182.269 231.871C181.917 231.679 181.485 231.583 180.973 231.583C180.418 231.583 179.917 231.722 179.469 231.999C179.021 232.266 178.669 232.639 178.413 233.119C178.157 233.599 178.029 234.154 178.029 234.783C178.029 235.445 178.226 235.967 178.621 236.351C179.015 236.735 179.575 236.927 180.301 236.927C180.77 236.927 181.207 236.831 181.613 236.639C182.018 236.447 182.359 236.149 182.637 235.743L184.109 236.735C183.714 237.333 183.17 237.802 182.477 238.143C181.783 238.474 181.026 238.639 180.205 238.639ZM194.82 238.639C194.105 238.639 193.486 238.511 192.964 238.255C192.441 237.989 192.046 237.599 191.78 237.087C191.513 236.565 191.39 235.919 191.412 235.151C191.433 234.085 191.625 233.157 191.988 232.367C192.35 231.578 192.857 230.97 193.508 230.543C194.169 230.106 194.953 229.887 195.86 229.887C196.564 229.887 197.198 230.037 197.764 230.335C198.329 230.623 198.777 231.05 199.108 231.615C199.449 232.17 199.62 232.842 199.62 233.631C199.62 234.357 199.497 235.023 199.252 235.631C199.017 236.239 198.681 236.767 198.244 237.215C197.806 237.663 197.294 238.015 196.708 238.271C196.132 238.517 195.502 238.639 194.82 238.639ZM189.027 241.631L191.348 229.983H193.252L192.868 231.935L192.34 234.207L192.052 236.495L191.028 241.631H189.027ZM194.66 236.927C195.236 236.927 195.742 236.794 196.18 236.527C196.617 236.25 196.964 235.871 197.22 235.391C197.476 234.911 197.604 234.357 197.604 233.727C197.604 233.066 197.406 232.543 197.012 232.159C196.617 231.775 196.062 231.583 195.348 231.583C194.782 231.583 194.276 231.722 193.828 231.999C193.39 232.266 193.044 232.639 192.788 233.119C192.532 233.599 192.404 234.154 192.404 234.783C192.404 235.445 192.601 235.967 192.996 236.351C193.39 236.735 193.945 236.927 194.66 236.927ZM204.284 238.639C203.57 238.639 202.956 238.49 202.444 238.191C201.943 237.882 201.586 237.439 201.372 236.863C201.159 236.277 201.138 235.562 201.308 234.719L202.252 229.983H204.252L203.308 234.671C203.18 235.365 203.244 235.909 203.5 236.303C203.767 236.687 204.247 236.879 204.94 236.879C205.655 236.879 206.252 236.677 206.732 236.271C207.223 235.866 207.548 235.247 207.708 234.415L208.604 229.983H210.588L208.892 238.527H206.988L207.468 236.095L207.788 236.863C207.383 237.471 206.871 237.919 206.252 238.207C205.644 238.495 204.988 238.639 204.284 238.639ZM211.511 238.527L213.207 229.983H215.111L214.631 232.415L214.455 231.711C214.85 231.018 215.351 230.543 215.959 230.287C216.567 230.021 217.308 229.887 218.183 229.887L217.815 231.791C217.73 231.77 217.65 231.759 217.575 231.759C217.5 231.749 217.415 231.743 217.319 231.743C216.54 231.743 215.895 231.951 215.383 232.367C214.871 232.773 214.53 233.423 214.359 234.319L213.511 238.527H211.511ZM223.32 238.639C222.605 238.639 221.986 238.511 221.464 238.255C220.941 237.989 220.546 237.599 220.28 237.087C220.013 236.565 219.89 235.919 219.912 235.151C219.933 234.085 220.125 233.157 220.488 232.367C220.85 231.578 221.357 230.97 222.008 230.543C222.669 230.106 223.453 229.887 224.36 229.887C225.064 229.887 225.698 230.037 226.264 230.335C226.829 230.623 227.277 231.05 227.608 231.615C227.949 232.17 228.12 232.842 228.12 233.631C228.12 234.357 227.997 235.023 227.752 235.631C227.517 236.239 227.181 236.767 226.744 237.215C226.306 237.663 225.794 238.015 225.208 238.271C224.632 238.517 224.002 238.639 223.32 238.639ZM217.527 241.631L219.848 229.983H221.752L221.368 231.935L220.84 234.207L220.552 236.495L219.528 241.631H217.527ZM223.16 236.927C223.736 236.927 224.242 236.794 224.68 236.527C225.117 236.25 225.464 235.871 225.72 235.391C225.976 234.911 226.104 234.357 226.104 233.727C226.104 233.066 225.906 232.543 225.512 232.159C225.117 231.775 224.562 231.583 223.848 231.583C223.282 231.583 222.776 231.722 222.328 231.999C221.89 232.266 221.544 232.639 221.288 233.119C221.032 233.599 220.904 234.154 220.904 234.783C220.904 235.445 221.101 235.967 221.496 236.351C221.89 236.735 222.445 236.927 223.16 236.927ZM233.344 238.639C232.512 238.639 231.782 238.485 231.152 238.175C230.534 237.855 230.054 237.418 229.712 236.863C229.371 236.298 229.2 235.637 229.2 234.879C229.2 233.919 229.419 233.066 229.856 232.319C230.294 231.562 230.891 230.97 231.648 230.543C232.416 230.106 233.291 229.887 234.272 229.887C235.115 229.887 235.846 230.042 236.464 230.351C237.094 230.65 237.579 231.082 237.92 231.647C238.262 232.202 238.432 232.863 238.432 233.631C238.432 234.581 238.214 235.434 237.776 236.191C237.339 236.949 236.736 237.546 235.968 237.983C235.211 238.421 234.336 238.639 233.344 238.639ZM233.472 236.927C234.048 236.927 234.555 236.794 234.992 236.527C235.43 236.25 235.776 235.871 236.032 235.391C236.288 234.911 236.416 234.357 236.416 233.727C236.416 233.066 236.219 232.543 235.824 232.159C235.43 231.775 234.875 231.583 234.16 231.583C233.595 231.583 233.088 231.722 232.64 231.999C232.203 232.266 231.856 232.639 231.6 233.119C231.344 233.599 231.216 234.154 231.216 234.783C231.216 235.455 231.414 235.983 231.808 236.367C232.203 236.741 232.758 236.927 233.472 236.927ZM242.345 238.639C241.598 238.639 240.899 238.549 240.249 238.367C239.598 238.186 239.097 237.967 238.745 237.711L239.577 236.175C239.929 236.421 240.366 236.623 240.889 236.783C241.422 236.933 241.977 237.007 242.553 237.007C243.214 237.007 243.699 236.917 244.009 236.735C244.329 236.554 244.489 236.303 244.489 235.983C244.489 235.749 244.377 235.573 244.153 235.455C243.929 235.338 243.641 235.242 243.289 235.167C242.947 235.093 242.574 235.013 242.169 234.927C241.774 234.842 241.401 234.725 241.049 234.575C240.707 234.426 240.425 234.207 240.201 233.919C239.977 233.631 239.865 233.247 239.865 232.767C239.865 232.159 240.035 231.642 240.377 231.215C240.718 230.789 241.193 230.463 241.801 230.239C242.419 230.005 243.129 229.887 243.929 229.887C244.505 229.887 245.07 229.951 245.625 230.079C246.179 230.207 246.638 230.389 247.001 230.623L246.265 232.159C245.881 231.914 245.465 231.743 245.017 231.647C244.579 231.551 244.153 231.503 243.737 231.503C243.086 231.503 242.601 231.605 242.281 231.807C241.971 231.999 241.817 232.245 241.817 232.543C241.817 232.778 241.929 232.959 242.153 233.087C242.377 233.215 242.659 233.322 243.001 233.407C243.353 233.482 243.726 233.562 244.121 233.647C244.526 233.722 244.899 233.834 245.241 233.983C245.593 234.133 245.881 234.351 246.105 234.639C246.329 234.917 246.441 235.29 246.441 235.759C246.441 236.378 246.265 236.906 245.913 237.343C245.571 237.77 245.091 238.095 244.473 238.319C243.854 238.533 243.145 238.639 242.345 238.639ZM251.955 238.639C251.102 238.639 250.36 238.485 249.731 238.175C249.102 237.855 248.611 237.418 248.259 236.863C247.918 236.298 247.747 235.637 247.747 234.879C247.747 233.909 247.96 233.05 248.387 232.303C248.814 231.557 249.395 230.97 250.131 230.543C250.878 230.106 251.726 229.887 252.675 229.887C253.475 229.887 254.168 230.037 254.755 230.335C255.342 230.634 255.795 231.066 256.115 231.631C256.446 232.186 256.611 232.853 256.611 233.631C256.611 233.834 256.6 234.042 256.579 234.255C256.558 234.469 256.526 234.666 256.483 234.847H249.235L249.459 233.519H255.539L254.723 233.967C254.808 233.423 254.771 232.97 254.611 232.607C254.451 232.245 254.195 231.967 253.843 231.775C253.491 231.583 253.07 231.487 252.579 231.487C251.992 231.487 251.48 231.626 251.043 231.903C250.616 232.17 250.286 232.554 250.051 233.055C249.816 233.546 249.699 234.122 249.699 234.783C249.699 235.477 249.896 236.01 250.291 236.383C250.696 236.757 251.32 236.943 252.163 236.943C252.643 236.943 253.102 236.869 253.539 236.719C253.976 236.559 254.339 236.341 254.627 236.063L255.459 237.455C255.011 237.85 254.478 238.149 253.859 238.351C253.251 238.543 252.616 238.639 251.955 238.639ZM25.807 262.527L24.239 253.983H26.063L27.375 261.519H26.447L30.719 253.983H32.431L33.791 261.519H32.863L37.087 253.983H38.975L34.207 262.527H32.239L30.943 255.855H31.535L27.743 262.527H25.807ZM38.589 262.527L40.285 253.983H42.285L40.589 262.527H38.589ZM41.741 252.575C41.3783 252.575 41.085 252.469 40.861 252.255C40.6477 252.031 40.541 251.765 40.541 251.455C40.541 251.093 40.6637 250.789 40.909 250.543C41.165 250.298 41.4957 250.175 41.901 250.175C42.253 250.175 42.541 250.282 42.765 250.495C42.989 250.698 43.101 250.949 43.101 251.247C43.101 251.642 42.9783 251.962 42.733 252.207C42.4877 252.453 42.157 252.575 41.741 252.575ZM46.414 262.639C45.8593 262.639 45.3793 262.522 44.974 262.287C44.5793 262.042 44.2913 261.701 44.11 261.263C43.9393 260.815 43.9127 260.287 44.03 259.679L45.55 252.095H47.55L46.03 259.663C45.966 260.058 46.0087 260.378 46.158 260.623C46.3073 260.869 46.59 260.991 47.006 260.991C47.198 260.991 47.39 260.965 47.582 260.911C47.7847 260.847 47.966 260.762 48.126 260.655L48.478 262.127C48.1793 262.319 47.8487 262.453 47.486 262.527C47.1233 262.602 46.766 262.639 46.414 262.639ZM43.454 255.647L43.774 254.047H49.454L49.134 255.647H43.454ZM56.3473 253.887C57.0833 253.887 57.7019 254.037 58.2033 254.335C58.7153 254.634 59.0779 255.077 59.2913 255.663C59.5046 256.239 59.5259 256.949 59.3553 257.791L58.4113 262.527H56.4113L57.3393 257.839C57.4779 257.146 57.4139 256.607 57.1473 256.223C56.8806 255.829 56.3953 255.631 55.6913 255.631C54.9553 255.631 54.3473 255.834 53.8673 256.239C53.3873 256.645 53.0619 257.263 52.8913 258.095L51.9953 262.527H49.9953L52.3633 250.655H54.3633L53.2113 256.415L52.7953 255.647C53.2006 255.039 53.7073 254.597 54.3153 254.319C54.9339 254.031 55.6113 253.887 56.3473 253.887ZM60.9484 262.527L62.6444 253.983H64.6444L62.9484 262.527H60.9484ZM64.1004 252.575C63.7377 252.575 63.4444 252.469 63.2204 252.255C63.007 252.031 62.9004 251.765 62.9004 251.455C62.9004 251.093 63.023 250.789 63.2684 250.543C63.5244 250.298 63.855 250.175 64.2604 250.175C64.6124 250.175 64.9004 250.282 65.1244 250.495C65.3484 250.698 65.4604 250.949 65.4604 251.247C65.4604 251.642 65.3377 251.962 65.0924 252.207C64.847 252.453 64.5164 252.575 64.1004 252.575ZM71.9254 253.887C72.6614 253.887 73.2854 254.037 73.7974 254.335C74.3094 254.634 74.6667 255.077 74.8694 255.663C75.0827 256.239 75.104 256.949 74.9334 257.791L73.9894 262.527H71.9894L72.9174 257.839C73.056 257.146 72.992 256.607 72.7254 256.223C72.4587 255.829 71.9734 255.631 71.2694 255.631C70.5334 255.631 69.9254 255.834 69.4454 256.239C68.9654 256.645 68.64 257.263 68.4694 258.095L67.5734 262.527H65.5734L67.2694 253.983H69.1734L68.6934 256.415L68.3734 255.647C68.7787 255.039 69.2854 254.597 69.8934 254.319C70.512 254.031 71.1894 253.887 71.9254 253.887ZM84.7884 262.639C84.095 262.639 83.4604 262.49 82.8844 262.191C82.319 261.893 81.8657 261.466 81.5244 260.911C81.1937 260.346 81.0284 259.669 81.0284 258.879C81.0284 258.154 81.1457 257.487 81.3804 256.879C81.6257 256.271 81.967 255.743 82.4044 255.295C82.8417 254.847 83.3484 254.501 83.9244 254.255C84.511 254.01 85.151 253.887 85.8444 253.887C86.559 253.887 87.1724 254.015 87.6844 254.271C88.207 254.527 88.6017 254.917 88.8684 255.439C89.135 255.951 89.2577 256.591 89.2364 257.359C89.215 258.415 89.023 259.343 88.6604 260.143C88.2977 260.933 87.791 261.546 87.1404 261.983C86.4897 262.421 85.7057 262.639 84.7884 262.639ZM85.3004 260.927C85.8764 260.927 86.383 260.794 86.8204 260.527C87.2577 260.25 87.6044 259.871 87.8604 259.391C88.1164 258.911 88.2444 258.357 88.2444 257.727C88.2444 257.066 88.047 256.543 87.6524 256.159C87.2577 255.775 86.703 255.583 85.9884 255.583C85.423 255.583 84.9164 255.722 84.4684 255.999C84.031 256.266 83.6844 256.639 83.4284 257.119C83.1724 257.599 83.0444 258.154 83.0444 258.783C83.0444 259.445 83.2417 259.967 83.6364 260.351C84.031 260.735 84.5857 260.927 85.3004 260.927ZM87.3964 262.527L87.7804 260.575L88.3244 258.303L88.5964 256.015L88.9964 253.983H90.9964L89.3004 262.527H87.3964ZM99.251 262.639C98.5043 262.639 97.8057 262.549 97.155 262.367C96.5043 262.186 96.003 261.967 95.651 261.711L96.483 260.175C96.835 260.421 97.2723 260.623 97.795 260.783C98.3283 260.933 98.883 261.007 99.459 261.007C100.12 261.007 100.606 260.917 100.915 260.735C101.235 260.554 101.395 260.303 101.395 259.983C101.395 259.749 101.283 259.573 101.059 259.455C100.835 259.338 100.547 259.242 100.195 259.167C99.8537 259.093 99.4803 259.013 99.075 258.927C98.6803 258.842 98.307 258.725 97.955 258.575C97.6137 258.426 97.331 258.207 97.107 257.919C96.883 257.631 96.771 257.247 96.771 256.767C96.771 256.159 96.9417 255.642 97.283 255.215C97.6243 254.789 98.099 254.463 98.707 254.239C99.3257 254.005 100.035 253.887 100.835 253.887C101.411 253.887 101.976 253.951 102.531 254.079C103.086 254.207 103.544 254.389 103.907 254.623L103.171 256.159C102.787 255.914 102.371 255.743 101.923 255.647C101.486 255.551 101.059 255.503 100.643 255.503C99.9923 255.503 99.507 255.605 99.187 255.807C98.8777 255.999 98.723 256.245 98.723 256.543C98.723 256.778 98.835 256.959 99.059 257.087C99.283 257.215 99.5657 257.322 99.907 257.407C100.259 257.482 100.632 257.562 101.027 257.647C101.432 257.722 101.806 257.834 102.147 257.983C102.499 258.133 102.787 258.351 103.011 258.639C103.235 258.917 103.347 259.29 103.347 259.759C103.347 260.378 103.171 260.906 102.819 261.343C102.478 261.77 101.998 262.095 101.379 262.319C100.76 262.533 100.051 262.639 99.251 262.639ZM109.741 262.639C109.027 262.639 108.408 262.511 107.885 262.255C107.363 261.989 106.968 261.599 106.701 261.087C106.435 260.565 106.312 259.919 106.333 259.151C106.355 258.085 106.547 257.157 106.909 256.367C107.272 255.578 107.779 254.97 108.429 254.543C109.091 254.106 109.875 253.887 110.781 253.887C111.485 253.887 112.12 254.037 112.685 254.335C113.251 254.623 113.699 255.05 114.029 255.615C114.371 256.17 114.541 256.842 114.541 257.631C114.541 258.357 114.419 259.023 114.173 259.631C113.939 260.239 113.603 260.767 113.165 261.215C112.728 261.663 112.216 262.015 111.629 262.271C111.053 262.517 110.424 262.639 109.741 262.639ZM103.949 265.631L106.269 253.983H108.173L107.789 255.935L107.261 258.207L106.973 260.495L105.949 265.631H103.949ZM109.581 260.927C110.157 260.927 110.664 260.794 111.101 260.527C111.539 260.25 111.885 259.871 112.141 259.391C112.397 258.911 112.525 258.357 112.525 257.727C112.525 257.066 112.328 256.543 111.933 256.159C111.539 255.775 110.984 255.583 110.269 255.583C109.704 255.583 109.197 255.722 108.749 255.999C108.312 256.266 107.965 256.639 107.709 257.119C107.453 257.599 107.325 258.154 107.325 258.783C107.325 259.445 107.523 259.967 107.917 260.351C108.312 260.735 108.867 260.927 109.581 260.927ZM119.83 262.639C118.977 262.639 118.235 262.485 117.606 262.175C116.977 261.855 116.486 261.418 116.134 260.863C115.793 260.298 115.622 259.637 115.622 258.879C115.622 257.909 115.835 257.05 116.262 256.303C116.689 255.557 117.27 254.97 118.006 254.543C118.753 254.106 119.601 253.887 120.55 253.887C121.35 253.887 122.043 254.037 122.63 254.335C123.217 254.634 123.67 255.066 123.99 255.631C124.321 256.186 124.486 256.853 124.486 257.631C124.486 257.834 124.475 258.042 124.454 258.255C124.433 258.469 124.401 258.666 124.358 258.847H117.11L117.334 257.519H123.414L122.598 257.967C122.683 257.423 122.646 256.97 122.486 256.607C122.326 256.245 122.07 255.967 121.718 255.775C121.366 255.583 120.945 255.487 120.454 255.487C119.867 255.487 119.355 255.626 118.918 255.903C118.491 256.17 118.161 256.554 117.926 257.055C117.691 257.546 117.574 258.122 117.574 258.783C117.574 259.477 117.771 260.01 118.166 260.383C118.571 260.757 119.195 260.943 120.038 260.943C120.518 260.943 120.977 260.869 121.414 260.719C121.851 260.559 122.214 260.341 122.502 260.063L123.334 261.455C122.886 261.85 122.353 262.149 121.734 262.351C121.126 262.543 120.491 262.639 119.83 262.639ZM129.72 262.639C128.878 262.639 128.136 262.485 127.496 262.175C126.867 261.855 126.382 261.418 126.04 260.863C125.699 260.298 125.528 259.637 125.528 258.879C125.528 257.919 125.747 257.066 126.184 256.319C126.622 255.562 127.224 254.97 127.992 254.543C128.76 254.106 129.646 253.887 130.648 253.887C131.512 253.887 132.254 254.058 132.872 254.399C133.502 254.73 133.987 255.226 134.328 255.887L132.616 256.767C132.424 256.362 132.147 256.063 131.784 255.871C131.432 255.679 131 255.583 130.488 255.583C129.934 255.583 129.432 255.722 128.984 255.999C128.536 256.266 128.184 256.639 127.928 257.119C127.672 257.599 127.544 258.154 127.544 258.783C127.544 259.445 127.742 259.967 128.136 260.351C128.531 260.735 129.091 260.927 129.816 260.927C130.286 260.927 130.723 260.831 131.128 260.639C131.534 260.447 131.875 260.149 132.152 259.743L133.624 260.735C133.23 261.333 132.686 261.802 131.992 262.143C131.299 262.474 130.542 262.639 129.72 262.639ZM134.667 262.527L136.363 253.983H138.363L136.667 262.527H134.667ZM137.819 252.575C137.456 252.575 137.163 252.469 136.939 252.255C136.726 252.031 136.619 251.765 136.619 251.455C136.619 251.093 136.742 250.789 136.987 250.543C137.243 250.298 137.574 250.175 137.979 250.175C138.331 250.175 138.619 250.282 138.843 250.495C139.067 250.698 139.179 250.949 139.179 251.247C139.179 251.642 139.056 251.962 138.811 252.207C138.566 252.453 138.235 252.575 137.819 252.575ZM139.548 262.527L141.372 253.439C141.553 252.543 141.932 251.839 142.508 251.327C143.084 250.805 143.852 250.543 144.812 250.543C145.175 250.543 145.521 250.586 145.852 250.671C146.183 250.757 146.46 250.885 146.684 251.055L145.868 252.511C145.58 252.277 145.228 252.159 144.812 252.159C144.396 252.159 144.065 252.277 143.82 252.511C143.575 252.746 143.399 253.103 143.292 253.583L143.084 254.543L142.988 255.359L141.548 262.527H139.548ZM139.532 255.647L139.852 254.047H145.532L145.212 255.647H139.532ZM145.244 262.527L146.94 253.983H148.94L147.244 262.527H145.244ZM148.396 252.575C148.033 252.575 147.74 252.469 147.516 252.255C147.303 252.031 147.196 251.765 147.196 251.455C147.196 251.093 147.319 250.789 147.564 250.543C147.82 250.298 148.151 250.175 148.556 250.175C148.908 250.175 149.196 250.282 149.42 250.495C149.644 250.698 149.756 250.949 149.756 251.247C149.756 251.642 149.633 251.962 149.388 252.207C149.143 252.453 148.812 252.575 148.396 252.575ZM154.158 262.639C153.305 262.639 152.564 262.485 151.934 262.175C151.305 261.855 150.814 261.418 150.462 260.863C150.121 260.298 149.95 259.637 149.95 258.879C149.95 257.909 150.164 257.05 150.59 256.303C151.017 255.557 151.598 254.97 152.334 254.543C153.081 254.106 153.929 253.887 154.878 253.887C155.678 253.887 156.372 254.037 156.958 254.335C157.545 254.634 157.998 255.066 158.318 255.631C158.649 256.186 158.814 256.853 158.814 257.631C158.814 257.834 158.804 258.042 158.782 258.255C158.761 258.469 158.729 258.666 158.686 258.847H151.438L151.662 257.519H157.742L156.926 257.967C157.012 257.423 156.974 256.97 156.814 256.607C156.654 256.245 156.398 255.967 156.046 255.775C155.694 255.583 155.273 255.487 154.782 255.487C154.196 255.487 153.684 255.626 153.246 255.903C152.82 256.17 152.489 256.554 152.254 257.055C152.02 257.546 151.902 258.122 151.902 258.783C151.902 259.477 152.1 260.01 152.494 260.383C152.9 260.757 153.524 260.943 154.366 260.943C154.846 260.943 155.305 260.869 155.742 260.719C156.18 260.559 156.542 260.341 156.83 260.063L157.662 261.455C157.214 261.85 156.681 262.149 156.062 262.351C155.454 262.543 154.82 262.639 154.158 262.639ZM163.633 262.639C162.939 262.639 162.305 262.49 161.729 262.191C161.153 261.893 160.699 261.466 160.368 260.911C160.038 260.346 159.873 259.669 159.873 258.879C159.873 258.154 159.99 257.487 160.225 256.879C160.47 256.271 160.811 255.743 161.249 255.295C161.686 254.847 162.193 254.501 162.769 254.255C163.355 254.01 163.99 253.887 164.673 253.887C165.377 253.887 165.985 254.01 166.497 254.255C167.009 254.501 167.403 254.869 167.681 255.359C167.958 255.85 168.097 256.458 168.097 257.183C168.097 257.983 167.995 258.719 167.793 259.391C167.59 260.053 167.297 260.629 166.913 261.119C166.529 261.599 166.059 261.973 165.505 262.239C164.961 262.506 164.337 262.639 163.633 262.639ZM164.145 260.927C164.71 260.927 165.211 260.794 165.649 260.527C166.097 260.25 166.443 259.871 166.689 259.391C166.945 258.911 167.073 258.357 167.073 257.727C167.073 257.066 166.875 256.543 166.481 256.159C166.097 255.775 165.542 255.583 164.817 255.583C164.262 255.583 163.761 255.722 163.312 255.999C162.865 256.266 162.513 256.639 162.257 257.119C162.011 257.599 161.889 258.154 161.889 258.783C161.889 259.445 162.081 259.967 162.465 260.351C162.859 260.735 163.419 260.927 164.145 260.927ZM166.225 262.527L166.625 260.575L167.153 258.303L167.425 256.015L168.497 250.655H170.497L168.128 262.527H166.225ZM179.023 262.639C178.329 262.639 177.695 262.49 177.119 262.191C176.553 261.893 176.1 261.466 175.759 260.911C175.428 260.346 175.263 259.669 175.263 258.879C175.263 258.154 175.38 257.487 175.615 256.879C175.86 256.271 176.201 255.743 176.639 255.295C177.076 254.847 177.583 254.501 178.159 254.255C178.745 254.01 179.385 253.887 180.079 253.887C180.793 253.887 181.407 254.015 181.919 254.271C182.441 254.527 182.836 254.917 183.103 255.439C183.369 255.951 183.492 256.591 183.471 257.359C183.449 258.415 183.257 259.343 182.895 260.143C182.532 260.933 182.025 261.546 181.375 261.983C180.724 262.421 179.94 262.639 179.023 262.639ZM179.535 260.927C180.111 260.927 180.617 260.794 181.055 260.527C181.492 260.25 181.839 259.871 182.095 259.391C182.351 258.911 182.479 258.357 182.479 257.727C182.479 257.066 182.281 256.543 181.887 256.159C181.492 255.775 180.937 255.583 180.223 255.583C179.657 255.583 179.151 255.722 178.703 255.999C178.265 256.266 177.919 256.639 177.663 257.119C177.407 257.599 177.279 258.154 177.279 258.783C177.279 259.445 177.476 259.967 177.871 260.351C178.265 260.735 178.82 260.927 179.535 260.927ZM181.631 262.527L182.015 260.575L182.559 258.303L182.831 256.015L183.231 253.983H185.231L183.535 262.527H181.631ZM198.408 253.887C199.154 253.887 199.778 254.037 200.28 254.335C200.781 254.634 201.133 255.077 201.336 255.663C201.538 256.239 201.554 256.949 201.384 257.791L200.44 262.527H198.44L199.384 257.839C199.522 257.135 199.464 256.591 199.208 256.207C198.952 255.823 198.488 255.631 197.816 255.631C197.122 255.631 196.552 255.834 196.104 256.239C195.666 256.634 195.362 257.247 195.192 258.079L194.296 262.527H192.296L193.24 257.839C193.378 257.135 193.32 256.591 193.064 256.207C192.808 255.823 192.344 255.631 191.672 255.631C190.978 255.631 190.408 255.834 189.96 256.239C189.522 256.634 189.218 257.253 189.048 258.095L188.152 262.527H186.152L187.848 253.983H189.752L189.288 256.335L188.952 255.647C189.346 255.039 189.837 254.597 190.424 254.319C191.021 254.031 191.672 253.887 192.376 253.887C192.93 253.887 193.421 253.983 193.848 254.175C194.274 254.357 194.616 254.639 194.872 255.023C195.138 255.397 195.293 255.861 195.336 256.415L194.376 256.207C194.813 255.439 195.373 254.863 196.056 254.479C196.749 254.085 197.533 253.887 198.408 253.887ZM207.235 262.639C206.403 262.639 205.672 262.485 205.043 262.175C204.424 261.855 203.944 261.418 203.603 260.863C203.262 260.298 203.091 259.637 203.091 258.879C203.091 257.919 203.31 257.066 203.747 256.319C204.184 255.562 204.782 254.97 205.539 254.543C206.307 254.106 207.182 253.887 208.163 253.887C209.006 253.887 209.736 254.042 210.355 254.351C210.984 254.65 211.47 255.082 211.811 255.647C212.152 256.202 212.323 256.863 212.323 257.631C212.323 258.581 212.104 259.434 211.667 260.191C211.23 260.949 210.627 261.546 209.859 261.983C209.102 262.421 208.227 262.639 207.235 262.639ZM207.363 260.927C207.939 260.927 208.446 260.794 208.883 260.527C209.32 260.25 209.667 259.871 209.923 259.391C210.179 258.911 210.307 258.357 210.307 257.727C210.307 257.066 210.11 256.543 209.715 256.159C209.32 255.775 208.766 255.583 208.051 255.583C207.486 255.583 206.979 255.722 206.531 255.999C206.094 256.266 205.747 256.639 205.491 257.119C205.235 257.599 205.107 258.154 205.107 258.783C205.107 259.455 205.304 259.983 205.699 260.367C206.094 260.741 206.648 260.927 207.363 260.927ZM216.987 262.639C216.273 262.639 215.659 262.49 215.147 262.191C214.646 261.882 214.289 261.439 214.075 260.863C213.862 260.277 213.841 259.562 214.011 258.719L214.955 253.983H216.955L216.011 258.671C215.883 259.365 215.947 259.909 216.203 260.303C216.47 260.687 216.95 260.879 217.643 260.879C218.358 260.879 218.955 260.677 219.435 260.271C219.926 259.866 220.251 259.247 220.411 258.415L221.307 253.983H223.291L221.595 262.527H219.691L220.171 260.095L220.491 260.863C220.086 261.471 219.574 261.919 218.955 262.207C218.347 262.495 217.691 262.639 216.987 262.639ZM230.566 253.887C231.302 253.887 231.926 254.037 232.438 254.335C232.95 254.634 233.307 255.077 233.51 255.663C233.723 256.239 233.745 256.949 233.574 257.791L232.63 262.527H230.63L231.558 257.839C231.697 257.146 231.633 256.607 231.366 256.223C231.099 255.829 230.614 255.631 229.91 255.631C229.174 255.631 228.566 255.834 228.086 256.239C227.606 256.645 227.281 257.263 227.11 258.095L226.214 262.527H224.214L225.91 253.983H227.814L227.334 256.415L227.014 255.647C227.419 255.039 227.926 254.597 228.534 254.319C229.153 254.031 229.83 253.887 230.566 253.887ZM238.367 262.639C237.812 262.639 237.332 262.522 236.927 262.287C236.532 262.042 236.244 261.701 236.063 261.263C235.892 260.815 235.866 260.287 235.983 259.679L237.503 252.095H239.503L237.983 259.663C237.919 260.058 237.962 260.378 238.111 260.623C238.26 260.869 238.543 260.991 238.959 260.991C239.151 260.991 239.343 260.965 239.535 260.911C239.738 260.847 239.919 260.762 240.079 260.655L240.431 262.127C240.132 262.319 239.802 262.453 239.439 262.527C239.076 262.602 238.719 262.639 238.367 262.639ZM235.407 255.647L235.727 254.047H241.407L241.087 255.647H235.407ZM250.594 262.639C249.762 262.639 249.032 262.485 248.402 262.175C247.784 261.855 247.304 261.418 246.962 260.863C246.621 260.298 246.45 259.637 246.45 258.879C246.45 257.919 246.669 257.066 247.106 256.319C247.544 255.562 248.141 254.97 248.898 254.543C249.666 254.106 250.541 253.887 251.522 253.887C252.365 253.887 253.096 254.042 253.714 254.351C254.344 254.65 254.829 255.082 255.17 255.647C255.512 256.202 255.682 256.863 255.682 257.631C255.682 258.581 255.464 259.434 255.026 260.191C254.589 260.949 253.986 261.546 253.218 261.983C252.461 262.421 251.586 262.639 250.594 262.639ZM250.722 260.927C251.298 260.927 251.805 260.794 252.242 260.527C252.68 260.25 253.026 259.871 253.282 259.391C253.538 258.911 253.666 258.357 253.666 257.727C253.666 257.066 253.469 256.543 253.074 256.159C252.68 255.775 252.125 255.583 251.41 255.583C250.845 255.583 250.338 255.722 249.89 255.999C249.453 256.266 249.106 256.639 248.85 257.119C248.594 257.599 248.466 258.154 248.466 258.783C248.466 259.455 248.664 259.983 249.058 260.367C249.453 260.741 250.008 260.927 250.722 260.927ZM256.939 262.527L258.763 253.439C258.944 252.543 259.323 251.839 259.899 251.327C260.475 250.805 261.243 250.543 262.203 250.543C262.565 250.543 262.912 250.586 263.243 250.671C263.573 250.757 263.851 250.885 264.075 251.055L263.259 252.511C262.971 252.277 262.619 252.159 262.203 252.159C261.787 252.159 261.456 252.277 261.211 252.511C260.965 252.746 260.789 253.103 260.683 253.583L260.475 254.543L260.379 255.359L258.939 262.527H256.939ZM256.923 255.647L257.243 254.047H262.923L262.603 255.647H256.923ZM270.211 262.639C269.656 262.639 269.176 262.522 268.771 262.287C268.376 262.042 268.088 261.701 267.907 261.263C267.736 260.815 267.71 260.287 267.827 259.679L269.347 252.095H271.347L269.827 259.663C269.763 260.058 269.806 260.378 269.955 260.623C270.104 260.869 270.387 260.991 270.803 260.991C270.995 260.991 271.187 260.965 271.379 260.911C271.582 260.847 271.763 260.762 271.923 260.655L272.275 262.127C271.976 262.319 271.646 262.453 271.283 262.527C270.92 262.602 270.563 262.639 270.211 262.639ZM267.251 255.647L267.571 254.047H273.251L272.931 255.647H267.251ZM273.792 262.527L275.488 253.983H277.488L275.792 262.527H273.792ZM276.944 252.575C276.581 252.575 276.288 252.469 276.064 252.255C275.851 252.031 275.744 251.765 275.744 251.455C275.744 251.093 275.867 250.789 276.112 250.543C276.368 250.298 276.699 250.175 277.104 250.175C277.456 250.175 277.744 250.282 277.968 250.495C278.192 250.698 278.304 250.949 278.304 251.247C278.304 251.642 278.181 251.962 277.936 252.207C277.691 252.453 277.36 252.575 276.944 252.575ZM290.673 253.887C291.42 253.887 292.044 254.037 292.545 254.335C293.046 254.634 293.398 255.077 293.601 255.663C293.804 256.239 293.82 256.949 293.649 257.791L292.705 262.527H290.705L291.649 257.839C291.788 257.135 291.729 256.591 291.473 256.207C291.217 255.823 290.753 255.631 290.081 255.631C289.388 255.631 288.817 255.834 288.369 256.239C287.932 256.634 287.628 257.247 287.457 258.079L286.561 262.527H284.561L285.505 257.839C285.644 257.135 285.585 256.591 285.329 256.207C285.073 255.823 284.609 255.631 283.937 255.631C283.244 255.631 282.673 255.834 282.225 256.239C281.788 256.634 281.484 257.253 281.313 258.095L280.417 262.527H278.417L280.113 253.983H282.017L281.553 256.335L281.217 255.647C281.612 255.039 282.102 254.597 282.689 254.319C283.286 254.031 283.937 253.887 284.641 253.887C285.196 253.887 285.686 253.983 286.113 254.175C286.54 254.357 286.881 254.639 287.137 255.023C287.404 255.397 287.558 255.861 287.601 256.415L286.641 256.207C287.078 255.439 287.638 254.863 288.321 254.479C289.014 254.085 289.798 253.887 290.673 253.887ZM299.565 262.639C298.711 262.639 297.97 262.485 297.341 262.175C296.711 261.855 296.221 261.418 295.868 260.863C295.527 260.298 295.357 259.637 295.357 258.879C295.357 257.909 295.57 257.05 295.997 256.303C296.423 255.557 297.005 254.97 297.741 254.543C298.487 254.106 299.335 253.887 300.285 253.887C301.085 253.887 301.778 254.037 302.365 254.335C302.951 254.634 303.405 255.066 303.725 255.631C304.055 256.186 304.22 256.853 304.22 257.631C304.22 257.834 304.21 258.042 304.189 258.255C304.167 258.469 304.135 258.666 304.093 258.847H296.845L297.069 257.519H303.149L302.333 257.967C302.418 257.423 302.381 256.97 302.221 256.607C302.061 256.245 301.805 255.967 301.453 255.775C301.101 255.583 300.679 255.487 300.189 255.487C299.602 255.487 299.09 255.626 298.653 255.903C298.226 256.17 297.895 256.554 297.661 257.055C297.426 257.546 297.309 258.122 297.309 258.783C297.309 259.477 297.506 260.01 297.901 260.383C298.306 260.757 298.93 260.943 299.773 260.943C300.253 260.943 300.711 260.869 301.149 260.719C301.586 260.559 301.949 260.341 302.237 260.063L303.069 261.455C302.621 261.85 302.087 262.149 301.469 262.351C300.861 262.543 300.226 262.639 299.565 262.639ZM305.999 262.639C305.647 262.639 305.348 262.522 305.103 262.287C304.868 262.053 304.751 261.754 304.751 261.391C304.751 260.975 304.889 260.639 305.167 260.383C305.444 260.117 305.769 259.983 306.143 259.983C306.495 259.983 306.788 260.101 307.023 260.335C307.257 260.559 307.375 260.858 307.375 261.231C307.375 261.509 307.311 261.754 307.183 261.967C307.055 262.181 306.884 262.346 306.671 262.463C306.468 262.581 306.244 262.639 305.999 262.639Z" fill="white"/>
<path d="M162.118 61.8708L128.252 78.7929C127.013 79.3176 125.956 80.1937 125.213 81.3121C124.469 82.4305 124.072 83.7418 124.072 85.083V100.865C124.032 115.228 128.232 129.286 136.15 141.29C142.255 150.524 150.34 162.36 163.806 169.119H169.878C184.863 164.567 196.049 152.432 202.892 142.058C210.81 130.054 215.011 115.996 214.971 101.633V85.083C214.973 83.7454 214.581 82.4367 213.843 81.3187C213.106 80.2007 212.056 79.3225 210.823 78.7929L172.216 62.3963C170.495 61.6929 163.839 61.1432 162.118 61.8708Z" fill="#FF725E"/>
<path opacity="0.3" d="M162.118 61.8708L128.252 78.7929C127.013 79.3176 125.956 80.1937 125.213 81.3121C124.469 82.4305 124.072 83.7418 124.072 85.083V100.865C124.032 115.228 128.232 129.286 136.15 141.29C142.255 150.524 150.34 162.36 163.806 169.119H169.878C184.863 164.567 196.049 152.432 202.892 142.058C210.81 130.054 215.011 115.996 214.971 101.633V85.083C214.973 83.7454 214.581 82.4367 213.843 81.3187C213.106 80.2007 212.056 79.3225 210.823 78.7929L172.216 62.3963C170.495 61.6929 163.839 61.1432 162.118 61.8708Z" fill="black"/>
<path d="M160.755 62.396L122.172 78.7925C120.934 79.3176 119.878 80.194 119.136 81.3125C118.394 82.431 117.999 83.7421 118 85.0827V100.865C118.002 115.478 122.355 129.763 130.509 141.912C138.662 154.062 150.25 163.53 163.807 169.119C178.792 164.567 189.977 152.431 196.812 142.058C204.734 130.056 208.935 115.997 208.891 101.633V85.0827C208.892 83.7421 208.497 82.431 207.755 81.3125C207.013 80.194 205.957 79.3176 204.719 78.7925L166.177 62.396C165.32 62.0303 164.398 61.8418 163.466 61.8418C162.534 61.8418 161.611 62.0303 160.755 62.396Z" fill="#FF725E"/>
<path d="M208.769 97.3809C208.779 97.4424 208.779 97.5052 208.769 97.5668C208.769 97.7123 208.769 97.8902 208.769 98.1085C208.769 98.626 208.81 99.3213 208.842 100.203C208.875 101.084 208.924 102.216 208.842 103.509C208.842 104.156 208.842 104.843 208.778 105.571C208.778 105.943 208.778 106.315 208.778 106.703C208.778 107.091 208.704 107.511 208.664 107.891C208.502 109.508 208.396 111.287 208.055 113.171C207.901 114.109 207.779 115.095 207.584 116.09C207.389 117.084 207.146 118.111 206.919 119.162C205.846 123.707 204.355 128.143 202.462 132.413C200.528 136.665 198.219 140.737 195.562 144.581C194.28 146.312 193.127 147.985 191.828 149.433C191.203 150.16 190.635 150.896 190.026 151.543L188.273 153.402C187.185 154.615 186.065 155.577 185.131 156.475C184.652 156.911 184.222 157.332 183.808 157.695L182.672 158.609L181.048 159.935L180.618 160.275C180.521 160.347 180.464 160.38 180.464 160.372C180.464 160.364 180.464 160.323 180.586 160.234L180.991 159.87L182.558 158.488L183.703 157.493C184.117 157.129 184.514 156.685 185.002 156.248C185.919 155.343 187.015 154.372 188.086 153.152L189.815 151.276C190.416 150.629 190.976 149.893 191.585 149.166C192.843 147.727 194.02 146.053 195.27 144.315C197.901 140.478 200.191 136.42 202.113 132.187C203.989 127.938 205.481 123.53 206.57 119.016C206.805 117.974 207.024 116.955 207.251 115.968C207.479 114.982 207.576 113.996 207.738 113.058C208.096 111.182 208.217 109.411 208.396 107.803C208.445 107.406 208.485 106.994 208.526 106.63C208.566 106.266 208.526 105.87 208.575 105.506C208.607 104.779 208.64 104.091 208.672 103.445C208.761 102.159 208.737 101.019 208.737 100.146V98.1166V97.5668C208.735 97.5033 208.746 97.4401 208.769 97.3809Z" fill="#263238"/>
<path d="M178.727 118.587H174.611V96.2807C174.539 93.8039 173.5 91.4526 171.715 89.7262C169.931 87.9997 167.541 87.034 165.053 87.034C162.565 87.034 160.175 87.9997 158.39 89.7262C156.606 91.4526 155.567 93.8039 155.494 96.2807V118.587H151.379V96.2807C151.466 92.7261 152.945 89.3462 155.5 86.8628C158.054 84.3794 161.483 82.9893 165.053 82.9893C168.623 82.9893 172.051 84.3794 174.606 86.8628C177.161 89.3462 178.64 92.7261 178.727 96.2807V118.587Z" fill="#F5F5F5"/>
<path d="M178.767 103.452H151.346C148.741 103.452 146.63 105.555 146.63 108.15V127.521C146.63 130.116 148.741 132.219 151.346 132.219H178.767C181.372 132.219 183.483 130.116 183.483 127.521V108.15C183.483 105.555 181.372 103.452 178.767 103.452Z" fill="white"/>
<path d="M178.767 132.219C179.18 132.176 179.589 132.105 179.993 132.009C180.976 131.726 181.839 131.131 182.451 130.313C183.062 129.495 183.387 128.501 183.378 127.481C183.378 126.535 183.378 125.508 183.378 124.401C183.378 122.194 183.378 119.679 183.378 116.898C183.378 114.117 183.378 111.085 183.378 107.818C183.316 107.004 183.035 106.222 182.564 105.554C182.092 104.887 181.447 104.359 180.699 104.026C179.9 103.699 179.035 103.566 178.174 103.638H175.447L151.346 103.63C150.333 103.63 149.349 103.97 148.554 104.595C147.759 105.219 147.198 106.093 146.963 107.075C146.857 107.563 146.814 108.063 146.833 108.562V113.114C146.833 117.157 146.833 120.973 146.833 124.651C146.906 126.479 146.524 128.363 147.466 129.802C147.883 130.509 148.484 131.09 149.206 131.484C149.927 131.879 150.743 132.071 151.565 132.041H160.697L173.921 132.114H177.509H178.442C178.55 132.104 178.659 132.104 178.767 132.114C178.659 132.126 178.55 132.126 178.442 132.114H177.509H173.921L160.697 132.179H151.565C150.895 132.209 150.225 132.101 149.597 131.863C148.97 131.625 148.398 131.262 147.917 130.795C147.437 130.328 147.057 129.768 146.802 129.15C146.547 128.531 146.422 127.867 146.435 127.198V124.651C146.435 120.973 146.435 117.116 146.435 113.114V108.595C146.411 108.052 146.457 107.508 146.573 106.978C146.837 105.918 147.452 104.978 148.318 104.309C149.192 103.621 150.273 103.245 151.387 103.242H175.398H178.126C179.041 103.173 179.959 103.322 180.804 103.679C181.612 104.038 182.306 104.609 182.812 105.331C183.318 106.053 183.618 106.899 183.678 107.778C183.678 111.077 183.678 114.1 183.678 116.882C183.678 119.663 183.678 122.177 183.678 124.385C183.678 125.492 183.678 126.519 183.678 127.465C183.679 128.35 183.431 129.219 182.964 129.971C182.327 131.017 181.304 131.772 180.114 132.074C179.678 132.205 179.221 132.255 178.767 132.219Z" fill="#263238"/>
<path d="M167.882 118.58C168.254 118.211 168.548 117.772 168.749 117.289C168.949 116.806 169.052 116.289 169.051 115.766C169.056 115.013 168.849 114.273 168.454 113.631C168.06 112.988 167.493 112.468 166.817 112.13C166.141 111.791 165.384 111.647 164.631 111.714C163.878 111.781 163.158 112.057 162.554 112.509C161.949 112.962 161.484 113.574 161.21 114.276C160.935 114.978 160.864 115.742 161.002 116.482C161.141 117.223 161.485 117.91 161.995 118.466C162.505 119.023 163.161 119.426 163.888 119.631L163.02 123.463H166.875L166.064 119.631C166.737 119.439 167.35 119.077 167.841 118.58" fill="#FF725E"/>
</g>
<defs>
<linearGradient id="paint0_linear_964_44598" x1="-78.7343" y1="-239.585" x2="429.039" y2="-202.405" gradientUnits="userSpaceOnUse">
<stop stop-color="#33458D"/>
<stop offset="0.4375" stop-color="#C06B29"/>
<stop offset="1" stop-color="#21093A"/>
</linearGradient>
<clipPath id="clip0_964_44598">
<rect y="0.527344" width="336" height="337" rx="20" fill="white"/>
</clipPath>
</defs>
</svg>
