<svg width="25" height="25" viewBox="0 0 25 25" fill="none" xmlns="http://www.w3.org/2000/svg">
<path d="M7.92881 18.7353H6.92881C6.92881 19.2875 7.37652 19.7353 7.92881 19.7353V18.7353ZM17.5288 18.7353V19.7353C18.0811 19.7353 18.5288 19.2875 18.5288 18.7353H17.5288ZM7.92881 19.7353H17.5288V17.7353H7.92881V19.7353ZM18.5288 18.7353V15.5353H16.5288V18.7353H18.5288ZM6.92881 15.5353V18.7353H8.92881V15.5353H6.92881ZM12.7288 9.73525C9.52556 9.73525 6.92881 12.332 6.92881 15.5353H8.92881C8.92881 13.4366 10.6301 11.7353 12.7288 11.7353V9.73525ZM18.5288 15.5353C18.5288 12.332 15.9321 9.73525 12.7288 9.73525V11.7353C14.8275 11.7353 16.5288 13.4366 16.5288 15.5353H18.5288ZM22.9288 18.7352C22.9288 19.0598 22.7796 19.4526 22.3369 19.9011C21.89 20.3539 21.1938 20.8076 20.2545 21.2101C18.3795 22.0137 15.7194 22.5352 12.7288 22.5352V24.5352C15.9238 24.5352 18.8638 23.9821 21.0423 23.0484C22.1298 22.5824 23.0738 22.0017 23.7604 21.306C24.4513 20.606 24.9288 19.7361 24.9288 18.7352H22.9288ZM12.7288 22.5352C9.7382 22.5352 7.07816 22.0137 5.20313 21.2101C4.26384 20.8076 3.5676 20.3539 3.12071 19.9011C2.67806 19.4526 2.52881 19.0598 2.52881 18.7352H0.528809C0.528809 19.7361 1.00636 20.606 1.69721 21.306C2.38382 22.0017 3.32779 22.5824 4.41529 23.0484C6.59387 23.9821 9.53383 24.5352 12.7288 24.5352V22.5352ZM2.52881 18.7352C2.52881 18.4147 2.67412 18.0283 3.10335 17.587C3.53711 17.141 4.21387 16.6925 5.12951 16.2921L4.3281 14.4597C3.26425 14.925 2.34101 15.5022 1.66964 16.1925C0.993749 16.8874 0.528809 17.7478 0.528809 18.7352H2.52881ZM20.3281 16.2921C21.2438 16.6925 21.9205 17.141 22.3543 17.587C22.7835 18.0283 22.9288 18.4147 22.9288 18.7352H24.9288C24.9288 17.7478 24.4639 16.8874 23.788 16.1925C23.1166 15.5022 22.1934 14.9249 21.1295 14.4597L20.3281 16.2921ZM12.7288 6.53525C11.5138 6.53525 10.5288 5.55028 10.5288 4.33525H8.52881C8.52881 6.65485 10.4092 8.53525 12.7288 8.53525V6.53525ZM14.9288 4.33525C14.9288 5.55028 13.9438 6.53525 12.7288 6.53525V8.53525C15.0484 8.53525 16.9288 6.65485 16.9288 4.33525H14.9288ZM12.7288 2.13525C13.9438 2.13525 14.9288 3.12023 14.9288 4.33525H16.9288C16.9288 2.01566 15.0484 0.135254 12.7288 0.135254V2.13525ZM12.7288 0.135254C10.4092 0.135254 8.52881 2.01566 8.52881 4.33525H10.5288C10.5288 3.12023 11.5138 2.13525 12.7288 2.13525V0.135254Z" fill="white"/>
</svg>
