<svg width="22" height="26" viewBox="0 0 22 26" fill="none" xmlns="http://www.w3.org/2000/svg">
<path d="M18.7875 11.3998H2.7875C1.90384 11.3998 1.1875 12.1161 1.1875 12.9998V22.5998C1.1875 23.4835 1.90384 24.1998 2.7875 24.1998H18.7875C19.6712 24.1998 20.3875 23.4835 20.3875 22.5998V12.9998C20.3875 12.1161 19.6712 11.3998 18.7875 11.3998Z" fill="white"/>
<path d="M5.9875 11.3998V6.5998C5.9875 3.94884 8.13653 1.7998 10.7875 1.7998C13.4385 1.7998 15.5875 3.94884 15.5875 6.5998V11.3998M2.7875 11.3998H18.7875C19.6712 11.3998 20.3875 12.1161 20.3875 12.9998V22.5998C20.3875 23.4835 19.6712 24.1998 18.7875 24.1998H2.7875C1.90384 24.1998 1.1875 23.4835 1.1875 22.5998V12.9998C1.1875 12.1161 1.90384 11.3998 2.7875 11.3998Z" stroke="white" stroke-width="2"/>
<path d="M10.0133 18.57C10.0133 18.2233 10.0899 17.9367 10.2433 17.71C10.4033 17.4833 10.6333 17.2333 10.9333 16.96C11.1533 16.76 11.3133 16.5933 11.4133 16.46C11.5199 16.32 11.5733 16.1633 11.5733 15.99C11.5733 15.7433 11.4733 15.55 11.2733 15.41C11.0799 15.2633 10.8199 15.19 10.4933 15.19C10.1799 15.19 9.89993 15.2567 9.65326 15.39C9.41326 15.5167 9.20993 15.6967 9.04326 15.93L7.83326 15.22C8.11326 14.7933 8.48993 14.4633 8.96326 14.23C9.44326 13.9967 10.0099 13.88 10.6633 13.88C11.4299 13.88 12.0433 14.0433 12.5033 14.37C12.9699 14.6967 13.2033 15.15 13.2033 15.73C13.2033 16.0033 13.1566 16.2433 13.0633 16.45C12.9766 16.6567 12.8666 16.8333 12.7333 16.98C12.6066 17.12 12.4399 17.2833 12.2333 17.47C11.9866 17.69 11.8066 17.8767 11.6933 18.03C11.5799 18.1767 11.5233 18.3567 11.5233 18.57H10.0133ZM10.7733 21.08C10.4999 21.08 10.2699 20.9933 10.0833 20.82C9.90326 20.64 9.81326 20.4233 9.81326 20.17C9.81326 19.9167 9.90326 19.7067 10.0833 19.54C10.2633 19.3667 10.4933 19.28 10.7733 19.28C11.0533 19.28 11.2833 19.3667 11.4633 19.54C11.6433 19.7067 11.7333 19.9167 11.7333 20.17C11.7333 20.4233 11.6399 20.64 11.4533 20.82C11.2733 20.9933 11.0466 21.08 10.7733 21.08Z" fill="white"/>
</svg>
