<svg width="336" height="338" viewBox="0 0 336 338" fill="none" xmlns="http://www.w3.org/2000/svg">
<g clip-path="url(#clip0_964_44529)">
<rect y="0.527344" width="336" height="337" rx="20" fill="url(#paint0_linear_964_44529)"/>
<path d="M24.6169 190.527L26.8569 179.327H31.3849C32.5263 179.327 33.5023 179.519 34.3129 179.903C35.1236 180.277 35.7423 180.81 36.1689 181.503C36.6063 182.197 36.8249 183.013 36.8249 183.951C36.8249 184.943 36.6543 185.845 36.3129 186.655C35.9823 187.466 35.5076 188.159 34.8889 188.735C34.2809 189.301 33.5503 189.743 32.6969 190.063C31.8436 190.373 30.8943 190.527 29.8489 190.527H24.6169ZM27.0489 188.767H29.9129C30.9156 188.767 31.7743 188.565 32.4889 188.159C33.2143 187.743 33.7689 187.183 34.1529 186.479C34.5369 185.775 34.7289 184.975 34.7289 184.079C34.7289 183.471 34.5956 182.943 34.3289 182.495C34.0623 182.047 33.6623 181.701 33.1289 181.455C32.6063 181.21 31.9503 181.087 31.1609 181.087H28.5849L27.0489 188.767ZM41.8677 190.639C41.0357 190.639 40.305 190.485 39.6757 190.175C39.057 189.855 38.577 189.418 38.2357 188.863C37.8944 188.298 37.7237 187.637 37.7237 186.879C37.7237 185.919 37.9424 185.066 38.3797 184.319C38.817 183.562 39.4144 182.97 40.1717 182.543C40.9397 182.106 41.8144 181.887 42.7957 181.887C43.6384 181.887 44.369 182.042 44.9877 182.351C45.617 182.65 46.1024 183.082 46.4437 183.647C46.785 184.202 46.9557 184.863 46.9557 185.631C46.9557 186.581 46.737 187.434 46.2997 188.191C45.8624 188.949 45.2597 189.546 44.4917 189.983C43.7344 190.421 42.8597 190.639 41.8677 190.639ZM41.9957 188.927C42.5717 188.927 43.0784 188.794 43.5157 188.527C43.953 188.25 44.2997 187.871 44.5557 187.391C44.8117 186.911 44.9397 186.357 44.9397 185.727C44.9397 185.066 44.7424 184.543 44.3477 184.159C43.953 183.775 43.3984 183.583 42.6837 183.583C42.1184 183.583 41.6117 183.722 41.1637 183.999C40.7264 184.266 40.3797 184.639 40.1237 185.119C39.8677 185.599 39.7397 186.154 39.7397 186.783C39.7397 187.455 39.937 187.983 40.3317 188.367C40.7264 188.741 41.281 188.927 41.9957 188.927ZM52.6021 193.743C52.1754 193.743 51.7594 193.674 51.3541 193.535C50.9381 193.397 50.6074 193.215 50.3621 192.991L51.3541 191.535C51.5354 191.695 51.7381 191.823 51.9621 191.919C52.1967 192.026 52.4634 192.079 52.7621 192.079C53.0927 192.079 53.3861 191.989 53.6421 191.807C53.9087 191.637 54.1754 191.338 54.4421 190.911L55.1941 189.743L55.3861 189.535L60.0901 181.983H62.0901L56.2021 191.279C55.8074 191.898 55.4287 192.389 55.0661 192.751C54.7034 193.114 54.3247 193.37 53.9301 193.519C53.5461 193.669 53.1034 193.743 52.6021 193.743ZM54.7941 190.831L52.6981 181.983H54.6981L56.3781 189.359L54.7941 190.831ZM65.6177 190.639C64.7857 190.639 64.055 190.485 63.4257 190.175C62.807 189.855 62.327 189.418 61.9857 188.863C61.6444 188.298 61.4737 187.637 61.4737 186.879C61.4737 185.919 61.6924 185.066 62.1297 184.319C62.567 183.562 63.1644 182.97 63.9217 182.543C64.6897 182.106 65.5644 181.887 66.5457 181.887C67.3884 181.887 68.119 182.042 68.7377 182.351C69.367 182.65 69.8524 183.082 70.1937 183.647C70.535 184.202 70.7057 184.863 70.7057 185.631C70.7057 186.581 70.487 187.434 70.0497 188.191C69.6124 188.949 69.0097 189.546 68.2417 189.983C67.4844 190.421 66.6097 190.639 65.6177 190.639ZM65.7457 188.927C66.3217 188.927 66.8284 188.794 67.2657 188.527C67.703 188.25 68.0497 187.871 68.3057 187.391C68.5617 186.911 68.6897 186.357 68.6897 185.727C68.6897 185.066 68.4924 184.543 68.0977 184.159C67.703 183.775 67.1484 183.583 66.4337 183.583C65.8684 183.583 65.3617 183.722 64.9137 183.999C64.4764 184.266 64.1297 184.639 63.8737 185.119C63.6177 185.599 63.4897 186.154 63.4897 186.783C63.4897 187.455 63.687 187.983 64.0817 188.367C64.4764 188.741 65.031 188.927 65.7457 188.927ZM75.3702 190.639C74.6555 190.639 74.0422 190.49 73.5302 190.191C73.0289 189.882 72.6715 189.439 72.4582 188.863C72.2449 188.277 72.2235 187.562 72.3942 186.719L73.3382 181.983H75.3382L74.3942 186.671C74.2662 187.365 74.3302 187.909 74.5862 188.303C74.8529 188.687 75.3329 188.879 76.0262 188.879C76.7409 188.879 77.3382 188.677 77.8182 188.271C78.3089 187.866 78.6342 187.247 78.7942 186.415L79.6902 181.983H81.6742L79.9782 190.527H78.0742L78.5542 188.095L78.8742 188.863C78.4689 189.471 77.9569 189.919 77.3382 190.207C76.7302 190.495 76.0742 190.639 75.3702 190.639ZM93.3707 181.887C94.1067 181.887 94.7254 182.037 95.2267 182.335C95.7387 182.634 96.1014 183.077 96.3147 183.663C96.528 184.239 96.5494 184.949 96.3787 185.791L95.4347 190.527H93.4347L94.3627 185.839C94.5014 185.146 94.4374 184.607 94.1707 184.223C93.904 183.829 93.4187 183.631 92.7147 183.631C91.9787 183.631 91.3707 183.834 90.8907 184.239C90.4107 184.645 90.0854 185.263 89.9147 186.095L89.0187 190.527H87.0187L89.3867 178.655H91.3867L90.2347 184.415L89.8187 183.647C90.224 183.039 90.7307 182.597 91.3387 182.319C91.9574 182.031 92.6347 181.887 93.3707 181.887ZM101.827 190.639C101.134 190.639 100.499 190.49 99.9234 190.191C99.3581 189.893 98.9048 189.466 98.5634 188.911C98.2328 188.346 98.0674 187.669 98.0674 186.879C98.0674 186.154 98.1848 185.487 98.4194 184.879C98.6648 184.271 99.0061 183.743 99.4434 183.295C99.8808 182.847 100.387 182.501 100.963 182.255C101.55 182.01 102.19 181.887 102.883 181.887C103.598 181.887 104.211 182.015 104.723 182.271C105.246 182.527 105.641 182.917 105.907 183.439C106.174 183.951 106.297 184.591 106.275 185.359C106.254 186.415 106.062 187.343 105.699 188.143C105.337 188.933 104.83 189.546 104.179 189.983C103.529 190.421 102.745 190.639 101.827 190.639ZM102.339 188.927C102.915 188.927 103.422 188.794 103.859 188.527C104.297 188.25 104.643 187.871 104.899 187.391C105.155 186.911 105.283 186.357 105.283 185.727C105.283 185.066 105.086 184.543 104.691 184.159C104.297 183.775 103.742 183.583 103.027 183.583C102.462 183.583 101.955 183.722 101.507 183.999C101.07 184.266 100.723 184.639 100.467 185.119C100.211 185.599 100.083 186.154 100.083 186.783C100.083 187.445 100.281 187.967 100.675 188.351C101.07 188.735 101.625 188.927 102.339 188.927ZM104.435 190.527L104.819 188.575L105.363 186.303L105.635 184.015L106.035 181.983H108.035L106.339 190.527H104.435ZM111.244 190.527L109.276 181.983H111.244L112.94 189.519H111.932L116.652 181.983H118.668L113.308 190.527H111.244ZM122.26 190.639C121.406 190.639 120.665 190.485 120.036 190.175C119.406 189.855 118.916 189.418 118.564 188.863C118.222 188.298 118.052 187.637 118.052 186.879C118.052 185.909 118.265 185.05 118.692 184.303C119.118 183.557 119.7 182.97 120.436 182.543C121.182 182.106 122.03 181.887 122.98 181.887C123.78 181.887 124.473 182.037 125.06 182.335C125.646 182.634 126.1 183.066 126.42 183.631C126.75 184.186 126.916 184.853 126.916 185.631C126.916 185.834 126.905 186.042 126.884 186.255C126.862 186.469 126.83 186.666 126.788 186.847H119.54L119.764 185.519H125.844L125.028 185.967C125.113 185.423 125.076 184.97 124.916 184.607C124.756 184.245 124.5 183.967 124.148 183.775C123.796 183.583 123.374 183.487 122.884 183.487C122.297 183.487 121.785 183.626 121.348 183.903C120.921 184.17 120.59 184.554 120.356 185.055C120.121 185.546 120.004 186.122 120.004 186.783C120.004 187.477 120.201 188.01 120.596 188.383C121.001 188.757 121.625 188.943 122.468 188.943C122.948 188.943 123.406 188.869 123.844 188.719C124.281 188.559 124.644 188.341 124.932 188.063L125.764 189.455C125.316 189.85 124.782 190.149 124.164 190.351C123.556 190.543 122.921 190.639 122.26 190.639ZM136.14 190.639C135.447 190.639 134.812 190.49 134.236 190.191C133.671 189.893 133.217 189.466 132.876 188.911C132.545 188.346 132.38 187.669 132.38 186.879C132.38 186.154 132.497 185.487 132.732 184.879C132.977 184.271 133.319 183.743 133.756 183.295C134.193 182.847 134.7 182.501 135.276 182.255C135.863 182.01 136.503 181.887 137.196 181.887C137.911 181.887 138.524 182.015 139.036 182.271C139.559 182.527 139.953 182.917 140.22 183.439C140.487 183.951 140.609 184.591 140.588 185.359C140.567 186.415 140.375 187.343 140.012 188.143C139.649 188.933 139.143 189.546 138.492 189.983C137.841 190.421 137.057 190.639 136.14 190.639ZM136.652 188.927C137.228 188.927 137.735 188.794 138.172 188.527C138.609 188.25 138.956 187.871 139.212 187.391C139.468 186.911 139.596 186.357 139.596 185.727C139.596 185.066 139.399 184.543 139.004 184.159C138.609 183.775 138.055 183.583 137.34 183.583C136.775 183.583 136.268 183.722 135.82 183.999C135.383 184.266 135.036 184.639 134.78 185.119C134.524 185.599 134.396 186.154 134.396 186.783C134.396 187.445 134.593 187.967 134.988 188.351C135.383 188.735 135.937 188.927 136.652 188.927ZM138.748 190.527L139.132 188.575L139.676 186.303L139.948 184.015L140.348 181.983H142.348L140.652 190.527H138.748ZM154.043 181.887C154.779 181.887 155.397 182.037 155.899 182.335C156.411 182.634 156.773 183.077 156.987 183.663C157.2 184.239 157.221 184.949 157.051 185.791L156.107 190.527H154.107L155.035 185.839C155.173 185.146 155.109 184.607 154.843 184.223C154.576 183.829 154.091 183.631 153.387 183.631C152.651 183.631 152.043 183.834 151.563 184.239C151.083 184.645 150.757 185.263 150.587 186.095L149.691 190.527H147.691L150.059 178.655H152.059L150.907 184.415L150.491 183.647C150.896 183.039 151.403 182.597 152.011 182.319C152.629 182.031 153.307 181.887 154.043 181.887ZM162.499 190.639C161.806 190.639 161.171 190.49 160.595 190.191C160.03 189.893 159.577 189.466 159.235 188.911C158.905 188.346 158.739 187.669 158.739 186.879C158.739 186.154 158.857 185.487 159.091 184.879C159.337 184.271 159.678 183.743 160.115 183.295C160.553 182.847 161.059 182.501 161.635 182.255C162.222 182.01 162.862 181.887 163.555 181.887C164.27 181.887 164.883 182.015 165.395 182.271C165.918 182.527 166.313 182.917 166.579 183.439C166.846 183.951 166.969 184.591 166.947 185.359C166.926 186.415 166.734 187.343 166.371 188.143C166.009 188.933 165.502 189.546 164.851 189.983C164.201 190.421 163.417 190.639 162.499 190.639ZM163.011 188.927C163.587 188.927 164.094 188.794 164.531 188.527C164.969 188.25 165.315 187.871 165.571 187.391C165.827 186.911 165.955 186.357 165.955 185.727C165.955 185.066 165.758 184.543 165.363 184.159C164.969 183.775 164.414 183.583 163.699 183.583C163.134 183.583 162.627 183.722 162.179 183.999C161.742 184.266 161.395 184.639 161.139 185.119C160.883 185.599 160.755 186.154 160.755 186.783C160.755 187.445 160.953 187.967 161.347 188.351C161.742 188.735 162.297 188.927 163.011 188.927ZM165.107 190.527L165.491 188.575L166.035 186.303L166.307 184.015L166.707 181.983H168.707L167.011 190.527H165.107ZM169.628 190.527L171.324 181.983H173.228L172.748 184.415L172.572 183.711C172.967 183.018 173.468 182.543 174.076 182.287C174.684 182.021 175.425 181.887 176.3 181.887L175.932 183.791C175.847 183.77 175.767 183.759 175.692 183.759C175.617 183.749 175.532 183.743 175.436 183.743C174.657 183.743 174.012 183.951 173.5 184.367C172.988 184.773 172.647 185.423 172.476 186.319L171.628 190.527H169.628ZM180.047 190.639C179.353 190.639 178.719 190.49 178.143 190.191C177.567 189.893 177.113 189.466 176.783 188.911C176.452 188.346 176.287 187.669 176.287 186.879C176.287 186.154 176.404 185.487 176.639 184.879C176.884 184.271 177.225 183.743 177.663 183.295C178.1 182.847 178.607 182.501 179.183 182.255C179.769 182.01 180.404 181.887 181.087 181.887C181.791 181.887 182.399 182.01 182.911 182.255C183.423 182.501 183.817 182.869 184.095 183.359C184.372 183.85 184.511 184.458 184.511 185.183C184.511 185.983 184.409 186.719 184.207 187.391C184.004 188.053 183.711 188.629 183.327 189.119C182.943 189.599 182.473 189.973 181.919 190.239C181.375 190.506 180.751 190.639 180.047 190.639ZM180.559 188.927C181.124 188.927 181.625 188.794 182.063 188.527C182.511 188.25 182.857 187.871 183.103 187.391C183.359 186.911 183.487 186.357 183.487 185.727C183.487 185.066 183.289 184.543 182.895 184.159C182.511 183.775 181.956 183.583 181.231 183.583C180.676 183.583 180.175 183.722 179.727 183.999C179.279 184.266 178.927 184.639 178.671 185.119C178.425 185.599 178.303 186.154 178.303 186.783C178.303 187.445 178.495 187.967 178.879 188.351C179.273 188.735 179.833 188.927 180.559 188.927ZM182.639 190.527L183.039 188.575L183.567 186.303L183.839 184.015L184.911 178.655H186.911L184.543 190.527H182.639ZM194.797 190.639C194.242 190.639 193.762 190.522 193.357 190.287C192.962 190.042 192.674 189.701 192.493 189.263C192.322 188.815 192.295 188.287 192.413 187.679L193.933 180.095H195.933L194.413 187.663C194.349 188.058 194.391 188.378 194.541 188.623C194.69 188.869 194.973 188.991 195.389 188.991C195.581 188.991 195.773 188.965 195.965 188.911C196.167 188.847 196.349 188.762 196.509 188.655L196.861 190.127C196.562 190.319 196.231 190.453 195.869 190.527C195.506 190.602 195.149 190.639 194.797 190.639ZM191.837 183.647L192.157 182.047H197.837L197.517 183.647H191.837ZM198.378 190.527L200.074 181.983H202.074L200.378 190.527H198.378ZM201.53 180.575C201.167 180.575 200.874 180.469 200.65 180.255C200.437 180.031 200.33 179.765 200.33 179.455C200.33 179.093 200.453 178.789 200.698 178.543C200.954 178.298 201.285 178.175 201.69 178.175C202.042 178.175 202.33 178.282 202.554 178.495C202.778 178.698 202.89 178.949 202.89 179.247C202.89 179.642 202.767 179.962 202.522 180.207C202.277 180.453 201.946 180.575 201.53 180.575ZM215.259 181.887C216.006 181.887 216.63 182.037 217.131 182.335C217.632 182.634 217.984 183.077 218.187 183.663C218.39 184.239 218.406 184.949 218.235 185.791L217.291 190.527H215.291L216.235 185.839C216.374 185.135 216.315 184.591 216.059 184.207C215.803 183.823 215.339 183.631 214.667 183.631C213.974 183.631 213.403 183.834 212.955 184.239C212.518 184.634 212.214 185.247 212.043 186.079L211.147 190.527H209.147L210.091 185.839C210.23 185.135 210.171 184.591 209.915 184.207C209.659 183.823 209.195 183.631 208.523 183.631C207.83 183.631 207.259 183.834 206.811 184.239C206.374 184.634 206.07 185.253 205.899 186.095L205.003 190.527H203.003L204.699 181.983H206.603L206.139 184.335L205.803 183.647C206.198 183.039 206.688 182.597 207.275 182.319C207.872 182.031 208.523 181.887 209.227 181.887C209.782 181.887 210.272 181.983 210.699 182.175C211.126 182.357 211.467 182.639 211.723 183.023C211.99 183.397 212.144 183.861 212.187 184.415L211.227 184.207C211.664 183.439 212.224 182.863 212.907 182.479C213.6 182.085 214.384 181.887 215.259 181.887ZM224.15 190.639C223.297 190.639 222.556 190.485 221.926 190.175C221.297 189.855 220.806 189.418 220.454 188.863C220.113 188.298 219.942 187.637 219.942 186.879C219.942 185.909 220.156 185.05 220.582 184.303C221.009 183.557 221.59 182.97 222.326 182.543C223.073 182.106 223.921 181.887 224.87 181.887C225.67 181.887 226.364 182.037 226.95 182.335C227.537 182.634 227.99 183.066 228.31 183.631C228.641 184.186 228.806 184.853 228.806 185.631C228.806 185.834 228.796 186.042 228.774 186.255C228.753 186.469 228.721 186.666 228.678 186.847H221.43L221.654 185.519H227.734L226.918 185.967C227.004 185.423 226.966 184.97 226.806 184.607C226.646 184.245 226.39 183.967 226.038 183.775C225.686 183.583 225.265 183.487 224.774 183.487C224.188 183.487 223.676 183.626 223.238 183.903C222.812 184.17 222.481 184.554 222.246 185.055C222.012 185.546 221.894 186.122 221.894 186.783C221.894 187.477 222.092 188.01 222.486 188.383C222.892 188.757 223.516 188.943 224.358 188.943C224.838 188.943 225.297 188.869 225.734 188.719C226.172 188.559 226.534 188.341 226.822 188.063L227.654 189.455C227.206 189.85 226.673 190.149 226.054 190.351C225.446 190.543 224.812 190.639 224.15 190.639ZM234.191 190.527L235.887 181.983H237.791L237.311 184.415L237.135 183.711C237.529 183.018 238.031 182.543 238.639 182.287C239.247 182.021 239.988 181.887 240.863 181.887L240.495 183.791C240.409 183.77 240.329 183.759 240.255 183.759C240.18 183.749 240.095 183.743 239.999 183.743C239.22 183.743 238.575 183.951 238.063 184.367C237.551 184.773 237.209 185.423 237.039 186.319L236.191 190.527H234.191ZM245.041 190.639C244.188 190.639 243.446 190.485 242.817 190.175C242.188 189.855 241.697 189.418 241.345 188.863C241.004 188.298 240.833 187.637 240.833 186.879C240.833 185.909 241.046 185.05 241.473 184.303C241.9 183.557 242.481 182.97 243.217 182.543C243.964 182.106 244.812 181.887 245.761 181.887C246.561 181.887 247.254 182.037 247.841 182.335C248.428 182.634 248.881 183.066 249.201 183.631C249.532 184.186 249.697 184.853 249.697 185.631C249.697 185.834 249.686 186.042 249.665 186.255C249.644 186.469 249.612 186.666 249.569 186.847H242.321L242.545 185.519H248.625L247.809 185.967C247.894 185.423 247.857 184.97 247.697 184.607C247.537 184.245 247.281 183.967 246.929 183.775C246.577 183.583 246.156 183.487 245.665 183.487C245.078 183.487 244.566 183.626 244.129 183.903C243.702 184.17 243.372 184.554 243.137 185.055C242.902 185.546 242.785 186.122 242.785 186.783C242.785 187.477 242.982 188.01 243.377 188.383C243.782 188.757 244.406 188.943 245.249 188.943C245.729 188.943 246.188 188.869 246.625 188.719C247.062 188.559 247.425 188.341 247.713 188.063L248.545 189.455C248.097 189.85 247.564 190.149 246.945 190.351C246.337 190.543 245.702 190.639 245.041 190.639ZM254.499 190.639C253.806 190.639 253.171 190.49 252.595 190.191C252.03 189.893 251.577 189.466 251.235 188.911C250.905 188.346 250.739 187.669 250.739 186.879C250.739 186.154 250.857 185.487 251.091 184.879C251.337 184.271 251.678 183.743 252.115 183.295C252.553 182.847 253.059 182.501 253.635 182.255C254.222 182.01 254.862 181.887 255.555 181.887C256.27 181.887 256.883 182.015 257.395 182.271C257.918 182.527 258.313 182.917 258.579 183.439C258.846 183.951 258.969 184.591 258.947 185.359C258.926 186.415 258.734 187.343 258.371 188.143C258.009 188.933 257.502 189.546 256.851 189.983C256.201 190.421 255.417 190.639 254.499 190.639ZM255.011 188.927C255.587 188.927 256.094 188.794 256.531 188.527C256.969 188.25 257.315 187.871 257.571 187.391C257.827 186.911 257.955 186.357 257.955 185.727C257.955 185.066 257.758 184.543 257.363 184.159C256.969 183.775 256.414 183.583 255.699 183.583C255.134 183.583 254.627 183.722 254.179 183.999C253.742 184.266 253.395 184.639 253.139 185.119C252.883 185.599 252.755 186.154 252.755 186.783C252.755 187.445 252.953 187.967 253.347 188.351C253.742 188.735 254.297 188.927 255.011 188.927ZM257.107 190.527L257.491 188.575L258.035 186.303L258.307 184.015L258.707 181.983H260.707L259.011 190.527H257.107ZM265.9 190.639C265.057 190.639 264.316 190.485 263.676 190.175C263.047 189.855 262.561 189.418 262.22 188.863C261.879 188.298 261.708 187.637 261.708 186.879C261.708 185.919 261.927 185.066 262.364 184.319C262.801 183.562 263.404 182.97 264.172 182.543C264.94 182.106 265.825 181.887 266.828 181.887C267.692 181.887 268.433 182.058 269.052 182.399C269.681 182.73 270.167 183.226 270.508 183.887L268.796 184.767C268.604 184.362 268.327 184.063 267.964 183.871C267.612 183.679 267.18 183.583 266.668 183.583C266.113 183.583 265.612 183.722 265.164 183.999C264.716 184.266 264.364 184.639 264.108 185.119C263.852 185.599 263.724 186.154 263.724 186.783C263.724 187.445 263.921 187.967 264.316 188.351C264.711 188.735 265.271 188.927 265.996 188.927C266.465 188.927 266.903 188.831 267.308 188.639C267.713 188.447 268.055 188.149 268.332 187.743L269.804 188.735C269.409 189.333 268.865 189.802 268.172 190.143C267.479 190.474 266.721 190.639 265.9 190.639ZM277.199 181.887C277.935 181.887 278.553 182.037 279.055 182.335C279.567 182.634 279.929 183.077 280.143 183.663C280.356 184.239 280.377 184.949 280.207 185.791L279.263 190.527H277.263L278.191 185.839C278.329 185.146 278.265 184.607 277.999 184.223C277.732 183.829 277.247 183.631 276.543 183.631C275.807 183.631 275.199 183.834 274.719 184.239C274.239 184.645 273.913 185.263 273.743 186.095L272.847 190.527H270.847L273.215 178.655H275.215L274.063 184.415L273.647 183.647C274.052 183.039 274.559 182.597 275.167 182.319C275.785 182.031 276.463 181.887 277.199 181.887ZM281.8 190.527L283.496 181.983H285.496L283.8 190.527H281.8ZM284.952 180.575C284.589 180.575 284.296 180.469 284.072 180.255C283.859 180.031 283.752 179.765 283.752 179.455C283.752 179.093 283.875 178.789 284.12 178.543C284.376 178.298 284.707 178.175 285.112 178.175C285.464 178.175 285.752 178.282 285.976 178.495C286.2 178.698 286.312 178.949 286.312 179.247C286.312 179.642 286.189 179.962 285.944 180.207C285.699 180.453 285.368 180.575 284.952 180.575ZM292.777 181.887C293.513 181.887 294.137 182.037 294.649 182.335C295.161 182.634 295.518 183.077 295.721 183.663C295.934 184.239 295.956 184.949 295.785 185.791L294.841 190.527H292.841L293.769 185.839C293.908 185.146 293.844 184.607 293.577 184.223C293.31 183.829 292.825 183.631 292.121 183.631C291.385 183.631 290.777 183.834 290.297 184.239C289.817 184.645 289.492 185.263 289.321 186.095L288.425 190.527H286.425L288.121 181.983H290.025L289.545 184.415L289.225 183.647C289.63 183.039 290.137 182.597 290.745 182.319C291.364 182.031 292.041 181.887 292.777 181.887ZM300.85 193.743C300.039 193.743 299.292 193.642 298.61 193.439C297.927 193.247 297.34 192.959 296.85 192.575L297.89 191.071C298.22 191.359 298.658 191.589 299.202 191.759C299.746 191.941 300.338 192.031 300.978 192.031C301.916 192.031 302.626 191.823 303.106 191.407C303.586 191.002 303.906 190.389 304.066 189.567L304.418 187.807L304.946 185.999L305.266 184.063L305.666 181.983H307.57L306.13 189.231C305.81 190.821 305.212 191.967 304.338 192.671C303.463 193.386 302.3 193.743 300.85 193.743ZM301.346 190.143C300.61 190.143 299.954 190.005 299.378 189.727C298.802 189.439 298.348 189.034 298.018 188.511C297.687 187.978 297.522 187.343 297.522 186.607C297.522 185.935 297.639 185.317 297.874 184.751C298.119 184.175 298.455 183.674 298.882 183.247C299.319 182.821 299.831 182.49 300.418 182.255C301.015 182.01 301.666 181.887 302.37 181.887C302.988 181.887 303.559 181.999 304.082 182.223C304.604 182.437 305.02 182.789 305.33 183.279C305.639 183.759 305.783 184.394 305.762 185.183C305.74 186.122 305.554 186.97 305.202 187.727C304.85 188.474 304.348 189.066 303.698 189.503C303.047 189.93 302.263 190.143 301.346 190.143ZM301.794 188.447C302.37 188.447 302.876 188.325 303.314 188.079C303.751 187.823 304.092 187.477 304.338 187.039C304.594 186.591 304.722 186.09 304.722 185.535C304.722 184.927 304.524 184.453 304.13 184.111C303.735 183.759 303.186 183.583 302.482 183.583C301.906 183.583 301.399 183.711 300.962 183.967C300.524 184.213 300.178 184.554 299.922 184.991C299.666 185.429 299.538 185.93 299.538 186.495C299.538 187.103 299.735 187.583 300.13 187.935C300.535 188.277 301.09 188.447 301.794 188.447ZM82.7349 217.743C82.3082 217.743 81.8922 217.674 81.4869 217.535C81.0709 217.397 80.7402 217.215 80.4949 216.991L81.4869 215.535C81.6682 215.695 81.8709 215.823 82.0949 215.919C82.3295 216.026 82.5962 216.079 82.8949 216.079C83.2255 216.079 83.5189 215.989 83.7749 215.807C84.0415 215.637 84.3082 215.338 84.5749 214.911L85.3269 213.743L85.5189 213.535L90.2229 205.983H92.2229L86.3349 215.279C85.9402 215.898 85.5615 216.389 85.1989 216.751C84.8362 217.114 84.4575 217.37 84.0629 217.519C83.6789 217.669 83.2362 217.743 82.7349 217.743ZM84.9269 214.831L82.8309 205.983H84.8309L86.5109 213.359L84.9269 214.831ZM95.7505 214.639C94.9185 214.639 94.1878 214.485 93.5585 214.175C92.9398 213.855 92.4598 213.418 92.1185 212.863C91.7772 212.298 91.6065 211.637 91.6065 210.879C91.6065 209.919 91.8252 209.066 92.2625 208.319C92.6998 207.562 93.2972 206.97 94.0545 206.543C94.8225 206.106 95.6972 205.887 96.6785 205.887C97.5212 205.887 98.2518 206.042 98.8705 206.351C99.4998 206.65 99.9852 207.082 100.327 207.647C100.668 208.202 100.839 208.863 100.839 209.631C100.839 210.581 100.62 211.434 100.183 212.191C99.7452 212.949 99.1425 213.546 98.3745 213.983C97.6172 214.421 96.7425 214.639 95.7505 214.639ZM95.8785 212.927C96.4545 212.927 96.9612 212.794 97.3985 212.527C97.8358 212.25 98.1825 211.871 98.4385 211.391C98.6945 210.911 98.8225 210.357 98.8225 209.727C98.8225 209.066 98.6252 208.543 98.2305 208.159C97.8358 207.775 97.2812 207.583 96.5665 207.583C96.0012 207.583 95.4945 207.722 95.0465 207.999C94.6092 208.266 94.2625 208.639 94.0065 209.119C93.7505 209.599 93.6225 210.154 93.6225 210.783C93.6225 211.455 93.8198 211.983 94.2145 212.367C94.6092 212.741 95.1638 212.927 95.8785 212.927ZM105.503 214.639C104.788 214.639 104.175 214.49 103.663 214.191C103.162 213.882 102.804 213.439 102.591 212.863C102.378 212.277 102.356 211.562 102.527 210.719L103.471 205.983H105.471L104.527 210.671C104.399 211.365 104.463 211.909 104.719 212.303C104.986 212.687 105.466 212.879 106.159 212.879C106.874 212.879 107.471 212.677 107.951 212.271C108.442 211.866 108.767 211.247 108.927 210.415L109.823 205.983H111.807L110.111 214.527H108.207L108.687 212.095L109.007 212.863C108.602 213.471 108.09 213.919 107.471 214.207C106.863 214.495 106.207 214.639 105.503 214.639ZM112.73 214.527L114.426 205.983H116.33L115.85 208.415L115.674 207.711C116.068 207.018 116.57 206.543 117.178 206.287C117.786 206.021 118.527 205.887 119.402 205.887L119.034 207.791C118.948 207.77 118.868 207.759 118.794 207.759C118.719 207.749 118.634 207.743 118.538 207.743C117.759 207.743 117.114 207.951 116.602 208.367C116.09 208.773 115.748 209.423 115.578 210.319L114.73 214.527H112.73ZM126.782 214.639C126.036 214.639 125.337 214.549 124.686 214.367C124.036 214.186 123.534 213.967 123.182 213.711L124.014 212.175C124.366 212.421 124.804 212.623 125.326 212.783C125.86 212.933 126.414 213.007 126.99 213.007C127.652 213.007 128.137 212.917 128.446 212.735C128.766 212.554 128.926 212.303 128.926 211.983C128.926 211.749 128.814 211.573 128.59 211.455C128.366 211.338 128.078 211.242 127.726 211.167C127.385 211.093 127.012 211.013 126.606 210.927C126.212 210.842 125.838 210.725 125.486 210.575C125.145 210.426 124.862 210.207 124.638 209.919C124.414 209.631 124.302 209.247 124.302 208.767C124.302 208.159 124.473 207.642 124.814 207.215C125.156 206.789 125.63 206.463 126.238 206.239C126.857 206.005 127.566 205.887 128.366 205.887C128.942 205.887 129.508 205.951 130.062 206.079C130.617 206.207 131.076 206.389 131.438 206.623L130.702 208.159C130.318 207.914 129.902 207.743 129.454 207.647C129.017 207.551 128.59 207.503 128.174 207.503C127.524 207.503 127.038 207.605 126.718 207.807C126.409 207.999 126.254 208.245 126.254 208.543C126.254 208.778 126.366 208.959 126.59 209.087C126.814 209.215 127.097 209.322 127.438 209.407C127.79 209.482 128.164 209.562 128.558 209.647C128.964 209.722 129.337 209.834 129.678 209.983C130.03 210.133 130.318 210.351 130.542 210.639C130.766 210.917 130.878 211.29 130.878 211.759C130.878 212.378 130.702 212.906 130.35 213.343C130.009 213.77 129.529 214.095 128.91 214.319C128.292 214.533 127.582 214.639 126.782 214.639ZM135.945 214.639C135.251 214.639 134.617 214.49 134.041 214.191C133.475 213.893 133.022 213.466 132.681 212.911C132.35 212.346 132.185 211.669 132.185 210.879C132.185 210.154 132.302 209.487 132.537 208.879C132.782 208.271 133.123 207.743 133.561 207.295C133.998 206.847 134.505 206.501 135.081 206.255C135.667 206.01 136.307 205.887 137.001 205.887C137.715 205.887 138.329 206.015 138.841 206.271C139.363 206.527 139.758 206.917 140.025 207.439C140.291 207.951 140.414 208.591 140.393 209.359C140.371 210.415 140.179 211.343 139.817 212.143C139.454 212.933 138.947 213.546 138.297 213.983C137.646 214.421 136.862 214.639 135.945 214.639ZM136.457 212.927C137.033 212.927 137.539 212.794 137.977 212.527C138.414 212.25 138.761 211.871 139.017 211.391C139.273 210.911 139.401 210.357 139.401 209.727C139.401 209.066 139.203 208.543 138.809 208.159C138.414 207.775 137.859 207.583 137.145 207.583C136.579 207.583 136.073 207.722 135.625 207.999C135.187 208.266 134.841 208.639 134.585 209.119C134.329 209.599 134.201 210.154 134.201 210.783C134.201 211.445 134.398 211.967 134.793 212.351C135.187 212.735 135.742 212.927 136.457 212.927ZM138.553 214.527L138.937 212.575L139.481 210.303L139.753 208.015L140.153 205.983H142.153L140.457 214.527H138.553ZM145.361 214.527L143.393 205.983H145.361L147.057 213.519H146.049L150.769 205.983H152.785L147.425 214.527H145.361ZM152.323 214.527L154.019 205.983H156.019L154.323 214.527H152.323ZM155.475 204.575C155.113 204.575 154.819 204.469 154.595 204.255C154.382 204.031 154.275 203.765 154.275 203.455C154.275 203.093 154.398 202.789 154.643 202.543C154.899 202.298 155.23 202.175 155.635 202.175C155.987 202.175 156.275 202.282 156.499 202.495C156.723 202.698 156.835 202.949 156.835 203.247C156.835 203.642 156.713 203.962 156.467 204.207C156.222 204.453 155.891 204.575 155.475 204.575ZM163.3 205.887C164.036 205.887 164.66 206.037 165.172 206.335C165.684 206.634 166.042 207.077 166.244 207.663C166.458 208.239 166.479 208.949 166.308 209.791L165.364 214.527H163.364L164.292 209.839C164.431 209.146 164.367 208.607 164.1 208.223C163.834 207.829 163.348 207.631 162.644 207.631C161.908 207.631 161.3 207.834 160.82 208.239C160.34 208.645 160.015 209.263 159.844 210.095L158.948 214.527H156.948L158.644 205.983H160.548L160.068 208.415L159.748 207.647C160.154 207.039 160.66 206.597 161.268 206.319C161.887 206.031 162.564 205.887 163.3 205.887ZM171.373 217.743C170.562 217.743 169.816 217.642 169.133 217.439C168.45 217.247 167.864 216.959 167.373 216.575L168.413 215.071C168.744 215.359 169.181 215.589 169.725 215.759C170.269 215.941 170.861 216.031 171.501 216.031C172.44 216.031 173.149 215.823 173.629 215.407C174.109 215.002 174.429 214.389 174.589 213.567L174.941 211.807L175.469 209.999L175.789 208.063L176.189 205.983H178.093L176.653 213.231C176.333 214.821 175.736 215.967 174.861 216.671C173.986 217.386 172.824 217.743 171.373 217.743ZM171.869 214.143C171.133 214.143 170.477 214.005 169.901 213.727C169.325 213.439 168.872 213.034 168.541 212.511C168.21 211.978 168.045 211.343 168.045 210.607C168.045 209.935 168.162 209.317 168.397 208.751C168.642 208.175 168.978 207.674 169.405 207.247C169.842 206.821 170.354 206.49 170.941 206.255C171.538 206.01 172.189 205.887 172.893 205.887C173.512 205.887 174.082 205.999 174.605 206.223C175.128 206.437 175.544 206.789 175.853 207.279C176.162 207.759 176.306 208.394 176.285 209.183C176.264 210.122 176.077 210.97 175.725 211.727C175.373 212.474 174.872 213.066 174.221 213.503C173.57 213.93 172.786 214.143 171.869 214.143ZM172.317 212.447C172.893 212.447 173.4 212.325 173.837 212.079C174.274 211.823 174.616 211.477 174.861 211.039C175.117 210.591 175.245 210.09 175.245 209.535C175.245 208.927 175.048 208.453 174.653 208.111C174.258 207.759 173.709 207.583 173.005 207.583C172.429 207.583 171.922 207.711 171.485 207.967C171.048 208.213 170.701 208.554 170.445 208.991C170.189 209.429 170.061 209.93 170.061 210.495C170.061 211.103 170.258 211.583 170.653 211.935C171.058 212.277 171.613 212.447 172.317 212.447ZM181.939 214.639C181.192 214.639 180.493 214.549 179.843 214.367C179.192 214.186 178.691 213.967 178.338 213.711L179.171 212.175C179.523 212.421 179.96 212.623 180.483 212.783C181.016 212.933 181.571 213.007 182.147 213.007C182.808 213.007 183.293 212.917 183.603 212.735C183.923 212.554 184.083 212.303 184.083 211.983C184.083 211.749 183.971 211.573 183.747 211.455C183.523 211.338 183.235 211.242 182.883 211.167C182.541 211.093 182.168 211.013 181.763 210.927C181.368 210.842 180.995 210.725 180.643 210.575C180.301 210.426 180.019 210.207 179.795 209.919C179.571 209.631 179.459 209.247 179.459 208.767C179.459 208.159 179.629 207.642 179.971 207.215C180.312 206.789 180.787 206.463 181.395 206.239C182.013 206.005 182.723 205.887 183.523 205.887C184.099 205.887 184.664 205.951 185.219 206.079C185.773 206.207 186.232 206.389 186.595 206.623L185.859 208.159C185.475 207.914 185.059 207.743 184.611 207.647C184.173 207.551 183.747 207.503 183.331 207.503C182.68 207.503 182.195 207.605 181.875 207.807C181.565 207.999 181.411 208.245 181.411 208.543C181.411 208.778 181.523 208.959 181.747 209.087C181.971 209.215 182.253 209.322 182.595 209.407C182.947 209.482 183.32 209.562 183.715 209.647C184.12 209.722 184.493 209.834 184.835 209.983C185.187 210.133 185.475 210.351 185.699 210.639C185.923 210.917 186.035 211.29 186.035 211.759C186.035 212.378 185.859 212.906 185.507 213.343C185.165 213.77 184.685 214.095 184.067 214.319C183.448 214.533 182.739 214.639 181.939 214.639ZM195.139 217.743C194.328 217.743 193.581 217.642 192.899 217.439C192.216 217.247 191.629 216.959 191.139 216.575L192.179 215.071C192.509 215.359 192.947 215.589 193.491 215.759C194.035 215.941 194.627 216.031 195.267 216.031C196.205 216.031 196.915 215.823 197.395 215.407C197.875 215.002 198.195 214.389 198.355 213.567L198.707 211.807L199.235 209.999L199.555 208.063L199.955 205.983H201.859L200.419 213.231C200.099 214.821 199.501 215.967 198.627 216.671C197.752 217.386 196.589 217.743 195.139 217.743ZM195.635 214.143C194.899 214.143 194.243 214.005 193.667 213.727C193.091 213.439 192.637 213.034 192.307 212.511C191.976 211.978 191.811 211.343 191.811 210.607C191.811 209.935 191.928 209.317 192.163 208.751C192.408 208.175 192.744 207.674 193.171 207.247C193.608 206.821 194.12 206.49 194.707 206.255C195.304 206.01 195.955 205.887 196.659 205.887C197.277 205.887 197.848 205.999 198.371 206.223C198.893 206.437 199.309 206.789 199.619 207.279C199.928 207.759 200.072 208.394 200.051 209.183C200.029 210.122 199.843 210.97 199.491 211.727C199.139 212.474 198.637 213.066 197.987 213.503C197.336 213.93 196.552 214.143 195.635 214.143ZM196.083 212.447C196.659 212.447 197.165 212.325 197.603 212.079C198.04 211.823 198.381 211.477 198.627 211.039C198.883 210.591 199.011 210.09 199.011 209.535C199.011 208.927 198.813 208.453 198.419 208.111C198.024 207.759 197.475 207.583 196.771 207.583C196.195 207.583 195.688 207.711 195.251 207.967C194.813 208.213 194.467 208.554 194.211 208.991C193.955 209.429 193.827 209.93 193.827 210.495C193.827 211.103 194.024 211.583 194.419 211.935C194.824 212.277 195.379 212.447 196.083 212.447ZM207.016 214.639C206.184 214.639 205.453 214.485 204.824 214.175C204.205 213.855 203.725 213.418 203.384 212.863C203.043 212.298 202.872 211.637 202.872 210.879C202.872 209.919 203.091 209.066 203.528 208.319C203.965 207.562 204.563 206.97 205.32 206.543C206.088 206.106 206.963 205.887 207.944 205.887C208.787 205.887 209.517 206.042 210.136 206.351C210.765 206.65 211.251 207.082 211.592 207.647C211.933 208.202 212.104 208.863 212.104 209.631C212.104 210.581 211.885 211.434 211.448 212.191C211.011 212.949 210.408 213.546 209.64 213.983C208.883 214.421 208.008 214.639 207.016 214.639ZM207.144 212.927C207.72 212.927 208.227 212.794 208.664 212.527C209.101 212.25 209.448 211.871 209.704 211.391C209.96 210.911 210.088 210.357 210.088 209.727C210.088 209.066 209.891 208.543 209.496 208.159C209.101 207.775 208.547 207.583 207.832 207.583C207.267 207.583 206.76 207.722 206.312 207.999C205.875 208.266 205.528 208.639 205.272 209.119C205.016 209.599 204.888 210.154 204.888 210.783C204.888 211.455 205.085 211.983 205.48 212.367C205.875 212.741 206.429 212.927 207.144 212.927ZM216.945 214.639C216.251 214.639 215.617 214.49 215.041 214.191C214.475 213.893 214.022 213.466 213.681 212.911C213.35 212.346 213.185 211.669 213.185 210.879C213.185 210.154 213.302 209.487 213.537 208.879C213.782 208.271 214.123 207.743 214.561 207.295C214.998 206.847 215.505 206.501 216.081 206.255C216.667 206.01 217.307 205.887 218.001 205.887C218.715 205.887 219.329 206.015 219.841 206.271C220.363 206.527 220.758 206.917 221.025 207.439C221.291 207.951 221.414 208.591 221.393 209.359C221.371 210.415 221.179 211.343 220.817 212.143C220.454 212.933 219.947 213.546 219.297 213.983C218.646 214.421 217.862 214.639 216.945 214.639ZM217.457 212.927C218.033 212.927 218.539 212.794 218.977 212.527C219.414 212.25 219.761 211.871 220.017 211.391C220.273 210.911 220.401 210.357 220.401 209.727C220.401 209.066 220.203 208.543 219.809 208.159C219.414 207.775 218.859 207.583 218.145 207.583C217.579 207.583 217.073 207.722 216.625 207.999C216.187 208.266 215.841 208.639 215.585 209.119C215.329 209.599 215.201 210.154 215.201 210.783C215.201 211.445 215.398 211.967 215.793 212.351C216.187 212.735 216.742 212.927 217.457 212.927ZM219.553 214.527L219.937 212.575L220.481 210.303L220.753 208.015L221.153 205.983H223.153L221.457 214.527H219.553ZM224.073 214.527L226.441 202.655H228.441L226.073 214.527H224.073ZM231.61 214.639C230.864 214.639 230.165 214.549 229.514 214.367C228.864 214.186 228.362 213.967 228.01 213.711L228.842 212.175C229.194 212.421 229.632 212.623 230.154 212.783C230.688 212.933 231.242 213.007 231.818 213.007C232.48 213.007 232.965 212.917 233.274 212.735C233.594 212.554 233.754 212.303 233.754 211.983C233.754 211.749 233.642 211.573 233.418 211.455C233.194 211.338 232.906 211.242 232.554 211.167C232.213 211.093 231.84 211.013 231.434 210.927C231.04 210.842 230.666 210.725 230.314 210.575C229.973 210.426 229.69 210.207 229.466 209.919C229.242 209.631 229.13 209.247 229.13 208.767C229.13 208.159 229.301 207.642 229.642 207.215C229.984 206.789 230.458 206.463 231.066 206.239C231.685 206.005 232.394 205.887 233.194 205.887C233.77 205.887 234.336 205.951 234.89 206.079C235.445 206.207 235.904 206.389 236.266 206.623L235.53 208.159C235.146 207.914 234.73 207.743 234.282 207.647C233.845 207.551 233.418 207.503 233.002 207.503C232.352 207.503 231.866 207.605 231.546 207.807C231.237 207.999 231.082 208.245 231.082 208.543C231.082 208.778 231.194 208.959 231.418 209.087C231.642 209.215 231.925 209.322 232.266 209.407C232.618 209.482 232.992 209.562 233.386 209.647C233.792 209.722 234.165 209.834 234.506 209.983C234.858 210.133 235.146 210.351 235.37 210.639C235.594 210.917 235.706 211.29 235.706 211.759C235.706 212.378 235.53 212.906 235.178 213.343C234.837 213.77 234.357 214.095 233.738 214.319C233.12 214.533 232.41 214.639 231.61 214.639ZM239.674 210.815C239.749 210.389 239.888 210.021 240.09 209.711C240.293 209.402 240.528 209.13 240.794 208.895C241.072 208.661 241.354 208.442 241.642 208.239C241.93 208.037 242.197 207.839 242.442 207.647C242.688 207.455 242.885 207.242 243.034 207.007C243.184 206.773 243.258 206.495 243.258 206.175C243.258 205.781 243.098 205.471 242.778 205.247C242.469 205.013 242.021 204.895 241.434 204.895C240.848 204.895 240.32 205.007 239.85 205.231C239.392 205.445 238.992 205.749 238.65 206.143L237.322 205.039C237.792 204.453 238.405 203.994 239.162 203.663C239.93 203.333 240.81 203.167 241.802 203.167C242.528 203.167 243.157 203.274 243.69 203.487C244.224 203.701 244.634 204.005 244.922 204.399C245.221 204.794 245.37 205.263 245.37 205.807C245.37 206.277 245.29 206.687 245.13 207.039C244.981 207.381 244.778 207.674 244.522 207.919C244.277 208.165 244.01 208.394 243.722 208.607C243.434 208.821 243.152 209.034 242.874 209.247C242.597 209.45 242.352 209.674 242.138 209.919C241.936 210.165 241.786 210.463 241.69 210.815H239.674ZM240.106 214.639C239.754 214.639 239.461 214.527 239.226 214.303C239.002 214.069 238.89 213.797 238.89 213.487C238.89 213.103 239.018 212.789 239.274 212.543C239.541 212.287 239.856 212.159 240.218 212.159C240.581 212.159 240.874 212.271 241.098 212.495C241.322 212.709 241.434 212.981 241.434 213.311C241.434 213.546 241.376 213.77 241.258 213.983C241.141 214.186 240.981 214.346 240.778 214.463C240.586 214.581 240.362 214.639 240.106 214.639ZM18.9841 238.527L21.2241 227.327H23.3041L21.4161 236.767H27.2721L26.9201 238.527H18.9841ZM32.5801 238.639C31.7268 238.639 30.9855 238.485 30.3561 238.175C29.7268 237.855 29.2361 237.418 28.8841 236.863C28.5428 236.298 28.3721 235.637 28.3721 234.879C28.3721 233.909 28.5855 233.05 29.0121 232.303C29.4388 231.557 30.0201 230.97 30.7561 230.543C31.5028 230.106 32.3508 229.887 33.3001 229.887C34.1001 229.887 34.7935 230.037 35.3801 230.335C35.9668 230.634 36.4201 231.066 36.7401 231.631C37.0708 232.186 37.2361 232.853 37.2361 233.631C37.2361 233.834 37.2255 234.042 37.2041 234.255C37.1828 234.469 37.1508 234.666 37.1081 234.847H29.8601L30.0841 233.519H36.1641L35.3481 233.967C35.4335 233.423 35.3961 232.97 35.2361 232.607C35.0761 232.245 34.8201 231.967 34.4681 231.775C34.1161 231.583 33.6948 231.487 33.2041 231.487C32.6175 231.487 32.1055 231.626 31.6681 231.903C31.2415 232.17 30.9108 232.554 30.6761 233.055C30.4415 233.546 30.3241 234.122 30.3241 234.783C30.3241 235.477 30.5215 236.01 30.9161 236.383C31.3215 236.757 31.9455 236.943 32.7881 236.943C33.2681 236.943 33.7268 236.869 34.1641 236.719C34.6015 236.559 34.9641 236.341 35.2521 236.063L36.0841 237.455C35.6361 237.85 35.1028 238.149 34.4841 238.351C33.8761 238.543 33.2415 238.639 32.5801 238.639ZM42.0384 238.639C41.345 238.639 40.7104 238.49 40.1344 238.191C39.569 237.893 39.1157 237.466 38.7744 236.911C38.4437 236.346 38.2784 235.669 38.2784 234.879C38.2784 234.154 38.3957 233.487 38.6304 232.879C38.8757 232.271 39.217 231.743 39.6544 231.295C40.0917 230.847 40.5984 230.501 41.1744 230.255C41.761 230.01 42.401 229.887 43.0944 229.887C43.809 229.887 44.4224 230.015 44.9344 230.271C45.457 230.527 45.8517 230.917 46.1184 231.439C46.385 231.951 46.5077 232.591 46.4864 233.359C46.465 234.415 46.273 235.343 45.9104 236.143C45.5477 236.933 45.041 237.546 44.3904 237.983C43.7397 238.421 42.9557 238.639 42.0384 238.639ZM42.5504 236.927C43.1264 236.927 43.633 236.794 44.0704 236.527C44.5077 236.25 44.8544 235.871 45.1104 235.391C45.3664 234.911 45.4944 234.357 45.4944 233.727C45.4944 233.066 45.297 232.543 44.9024 232.159C44.5077 231.775 43.953 231.583 43.2384 231.583C42.673 231.583 42.1664 231.722 41.7184 231.999C41.281 232.266 40.9344 232.639 40.6784 233.119C40.4224 233.599 40.2944 234.154 40.2944 234.783C40.2944 235.445 40.4917 235.967 40.8864 236.351C41.281 236.735 41.8357 236.927 42.5504 236.927ZM44.6464 238.527L45.0304 236.575L45.5744 234.303L45.8464 232.015L46.2464 229.983H48.2464L46.5504 238.527H44.6464ZM49.1671 238.527L50.8631 229.983H52.7671L52.2871 232.415L52.1111 231.711C52.5058 231.018 53.0071 230.543 53.6151 230.287C54.2231 230.021 54.9645 229.887 55.8391 229.887L55.4711 231.791C55.3858 231.77 55.3058 231.759 55.2311 231.759C55.1565 231.749 55.0711 231.743 54.9751 231.743C54.1965 231.743 53.5511 231.951 53.0391 232.367C52.5271 232.773 52.1858 233.423 52.0151 234.319L51.1671 238.527H49.1671ZM62.1598 229.887C62.8958 229.887 63.5198 230.037 64.0318 230.335C64.5438 230.634 64.9011 231.077 65.1038 231.663C65.3171 232.239 65.3384 232.949 65.1678 233.791L64.2238 238.527H62.2238L63.1518 233.839C63.2904 233.146 63.2264 232.607 62.9598 232.223C62.6931 231.829 62.2078 231.631 61.5038 231.631C60.7678 231.631 60.1598 231.834 59.6798 232.239C59.1998 232.645 58.8744 233.263 58.7038 234.095L57.8078 238.527H55.8078L57.5038 229.983H59.4078L58.9278 232.415L58.6078 231.647C59.0131 231.039 59.5198 230.597 60.1278 230.319C60.7464 230.031 61.4238 229.887 62.1598 229.887ZM77.5348 229.887C78.2708 229.887 78.8894 230.037 79.3908 230.335C79.9028 230.634 80.2654 231.077 80.4788 231.663C80.6921 232.239 80.7134 232.949 80.5428 233.791L79.5988 238.527H77.5988L78.5268 233.839C78.6654 233.146 78.6014 232.607 78.3348 232.223C78.0681 231.829 77.5828 231.631 76.8788 231.631C76.1428 231.631 75.5348 231.834 75.0548 232.239C74.5748 232.645 74.2494 233.263 74.0788 234.095L73.1828 238.527H71.1828L73.5508 226.655H75.5508L74.3988 232.415L73.9828 231.647C74.3881 231.039 74.8948 230.597 75.5028 230.319C76.1214 230.031 76.7988 229.887 77.5348 229.887ZM86.3755 238.639C85.5435 238.639 84.8128 238.485 84.1835 238.175C83.5648 237.855 83.0848 237.418 82.7435 236.863C82.4022 236.298 82.2315 235.637 82.2315 234.879C82.2315 233.919 82.4502 233.066 82.8875 232.319C83.3248 231.562 83.9222 230.97 84.6795 230.543C85.4475 230.106 86.3222 229.887 87.3035 229.887C88.1462 229.887 88.8768 230.042 89.4955 230.351C90.1248 230.65 90.6102 231.082 90.9515 231.647C91.2928 232.202 91.4635 232.863 91.4635 233.631C91.4635 234.581 91.2448 235.434 90.8075 236.191C90.3702 236.949 89.7675 237.546 88.9995 237.983C88.2422 238.421 87.3675 238.639 86.3755 238.639ZM86.5035 236.927C87.0795 236.927 87.5862 236.794 88.0235 236.527C88.4608 236.25 88.8075 235.871 89.0635 235.391C89.3195 234.911 89.4475 234.357 89.4475 233.727C89.4475 233.066 89.2502 232.543 88.8555 232.159C88.4608 231.775 87.9062 231.583 87.1915 231.583C86.6262 231.583 86.1195 231.722 85.6715 231.999C85.2342 232.266 84.8875 232.639 84.6315 233.119C84.3755 233.599 84.2475 234.154 84.2475 234.783C84.2475 235.455 84.4448 235.983 84.8395 236.367C85.2342 236.741 85.7888 236.927 86.5035 236.927ZM94.1976 238.527L92.6296 229.983H94.4536L95.7656 237.519H94.8376L99.1096 229.983H100.822L102.182 237.519H101.254L105.478 229.983H107.366L102.598 238.527H100.63L99.3336 231.855H99.9256L96.1336 238.527H94.1976ZM114.602 238.639C114.047 238.639 113.567 238.522 113.162 238.287C112.767 238.042 112.479 237.701 112.298 237.263C112.127 236.815 112.1 236.287 112.218 235.679L113.738 228.095H115.738L114.218 235.663C114.154 236.058 114.196 236.378 114.346 236.623C114.495 236.869 114.778 236.991 115.194 236.991C115.386 236.991 115.578 236.965 115.77 236.911C115.972 236.847 116.154 236.762 116.314 236.655L116.666 238.127C116.367 238.319 116.036 238.453 115.674 238.527C115.311 238.602 114.954 238.639 114.602 238.639ZM111.642 231.647L111.962 230.047H117.642L117.322 231.647H111.642ZM122.126 238.639C121.294 238.639 120.563 238.485 119.934 238.175C119.315 237.855 118.835 237.418 118.493 236.863C118.152 236.298 117.982 235.637 117.982 234.879C117.982 233.919 118.2 233.066 118.638 232.319C119.075 231.562 119.672 230.97 120.43 230.543C121.198 230.106 122.072 229.887 123.054 229.887C123.896 229.887 124.627 230.042 125.246 230.351C125.875 230.65 126.36 231.082 126.702 231.647C127.043 232.202 127.214 232.863 127.214 233.631C127.214 234.581 126.995 235.434 126.558 236.191C126.12 236.949 125.518 237.546 124.75 237.983C123.992 238.421 123.118 238.639 122.126 238.639ZM122.254 236.927C122.83 236.927 123.336 236.794 123.774 236.527C124.211 236.25 124.558 235.871 124.814 235.391C125.07 234.911 125.198 234.357 125.198 233.727C125.198 233.066 125 232.543 124.606 232.159C124.211 231.775 123.656 231.583 122.942 231.583C122.376 231.583 121.87 231.722 121.422 231.999C120.984 232.266 120.638 232.639 120.382 233.119C120.126 233.599 119.998 234.154 119.998 234.783C119.998 235.455 120.195 235.983 120.59 236.367C120.984 236.741 121.539 236.927 122.254 236.927ZM135.548 238.639C134.801 238.639 134.103 238.549 133.452 238.367C132.801 238.186 132.3 237.967 131.948 237.711L132.78 236.175C133.132 236.421 133.569 236.623 134.092 236.783C134.625 236.933 135.18 237.007 135.756 237.007C136.417 237.007 136.903 236.917 137.212 236.735C137.532 236.554 137.692 236.303 137.692 235.983C137.692 235.749 137.58 235.573 137.356 235.455C137.132 235.338 136.844 235.242 136.492 235.167C136.151 235.093 135.777 235.013 135.372 234.927C134.977 234.842 134.604 234.725 134.252 234.575C133.911 234.426 133.628 234.207 133.404 233.919C133.18 233.631 133.068 233.247 133.068 232.767C133.068 232.159 133.239 231.642 133.58 231.215C133.921 230.789 134.396 230.463 135.004 230.239C135.623 230.005 136.332 229.887 137.132 229.887C137.708 229.887 138.273 229.951 138.828 230.079C139.383 230.207 139.841 230.389 140.204 230.623L139.468 232.159C139.084 231.914 138.668 231.743 138.22 231.647C137.783 231.551 137.356 231.503 136.94 231.503C136.289 231.503 135.804 231.605 135.484 231.807C135.175 231.999 135.02 232.245 135.02 232.543C135.02 232.778 135.132 232.959 135.356 233.087C135.58 233.215 135.863 233.322 136.204 233.407C136.556 233.482 136.929 233.562 137.324 233.647C137.729 233.722 138.103 233.834 138.444 233.983C138.796 234.133 139.084 234.351 139.308 234.639C139.532 234.917 139.644 235.29 139.644 235.759C139.644 236.378 139.468 236.906 139.116 237.343C138.775 237.77 138.295 238.095 137.676 238.319C137.057 238.533 136.348 238.639 135.548 238.639ZM145.158 238.639C144.305 238.639 143.564 238.485 142.934 238.175C142.305 237.855 141.814 237.418 141.462 236.863C141.121 236.298 140.95 235.637 140.95 234.879C140.95 233.909 141.164 233.05 141.59 232.303C142.017 231.557 142.598 230.97 143.334 230.543C144.081 230.106 144.929 229.887 145.878 229.887C146.678 229.887 147.372 230.037 147.958 230.335C148.545 230.634 148.998 231.066 149.318 231.631C149.649 232.186 149.814 232.853 149.814 233.631C149.814 233.834 149.804 234.042 149.782 234.255C149.761 234.469 149.729 234.666 149.686 234.847H142.438L142.662 233.519H148.742L147.926 233.967C148.012 233.423 147.974 232.97 147.814 232.607C147.654 232.245 147.398 231.967 147.046 231.775C146.694 231.583 146.273 231.487 145.782 231.487C145.196 231.487 144.684 231.626 144.246 231.903C143.82 232.17 143.489 232.554 143.254 233.055C143.02 233.546 142.902 234.122 142.902 234.783C142.902 235.477 143.1 236.01 143.494 236.383C143.9 236.757 144.524 236.943 145.366 236.943C145.846 236.943 146.305 236.869 146.742 236.719C147.18 236.559 147.542 236.341 147.83 236.063L148.662 237.455C148.214 237.85 147.681 238.149 147.062 238.351C146.454 238.543 145.82 238.639 145.158 238.639ZM153.977 238.639C153.422 238.639 152.942 238.522 152.537 238.287C152.142 238.042 151.854 237.701 151.673 237.263C151.502 236.815 151.475 236.287 151.593 235.679L153.113 228.095H155.113L153.593 235.663C153.529 236.058 153.571 236.378 153.721 236.623C153.87 236.869 154.153 236.991 154.569 236.991C154.761 236.991 154.953 236.965 155.145 236.911C155.347 236.847 155.529 236.762 155.689 236.655L156.041 238.127C155.742 238.319 155.411 238.453 155.049 238.527C154.686 238.602 154.329 238.639 153.977 238.639ZM151.017 231.647L151.337 230.047H157.017L156.697 231.647H151.017ZM165.644 238.639C164.929 238.639 164.316 238.49 163.804 238.191C163.302 237.882 162.945 237.439 162.732 236.863C162.518 236.277 162.497 235.562 162.668 234.719L163.612 229.983H165.612L164.668 234.671C164.54 235.365 164.604 235.909 164.86 236.303C165.126 236.687 165.606 236.879 166.3 236.879C167.014 236.879 167.612 236.677 168.092 236.271C168.582 235.866 168.908 235.247 169.068 234.415L169.964 229.983H171.948L170.252 238.527H168.348L168.828 236.095L169.148 236.863C168.742 237.471 168.23 237.919 167.612 238.207C167.004 238.495 166.348 238.639 165.644 238.639ZM178.038 238.639C177.324 238.639 176.705 238.511 176.182 238.255C175.66 237.989 175.265 237.599 174.998 237.087C174.732 236.565 174.609 235.919 174.63 235.151C174.652 234.085 174.844 233.157 175.206 232.367C175.569 231.578 176.076 230.97 176.726 230.543C177.388 230.106 178.172 229.887 179.078 229.887C179.782 229.887 180.417 230.037 180.982 230.335C181.548 230.623 181.996 231.05 182.326 231.615C182.668 232.17 182.838 232.842 182.838 233.631C182.838 234.357 182.716 235.023 182.47 235.631C182.236 236.239 181.9 236.767 181.462 237.215C181.025 237.663 180.513 238.015 179.926 238.271C179.35 238.517 178.721 238.639 178.038 238.639ZM172.246 241.631L174.566 229.983H176.47L176.086 231.935L175.558 234.207L175.27 236.495L174.246 241.631H172.246ZM177.878 236.927C178.454 236.927 178.961 236.794 179.398 236.527C179.836 236.25 180.182 235.871 180.438 235.391C180.694 234.911 180.822 234.357 180.822 233.727C180.822 233.066 180.625 232.543 180.23 232.159C179.836 231.775 179.281 231.583 178.566 231.583C178.001 231.583 177.494 231.722 177.046 231.999C176.609 232.266 176.262 232.639 176.006 233.119C175.75 233.599 175.622 234.154 175.622 234.783C175.622 235.445 175.82 235.967 176.214 236.351C176.609 236.735 177.164 236.927 177.878 236.927ZM192.101 238.639C191.408 238.639 190.773 238.49 190.197 238.191C189.632 237.893 189.178 237.466 188.837 236.911C188.506 236.346 188.341 235.669 188.341 234.879C188.341 234.154 188.458 233.487 188.693 232.879C188.938 232.271 189.28 231.743 189.717 231.295C190.154 230.847 190.661 230.501 191.237 230.255C191.824 230.01 192.464 229.887 193.157 229.887C193.872 229.887 194.485 230.015 194.997 230.271C195.52 230.527 195.914 230.917 196.181 231.439C196.448 231.951 196.57 232.591 196.549 233.359C196.528 234.415 196.336 235.343 195.973 236.143C195.61 236.933 195.104 237.546 194.453 237.983C193.802 238.421 193.018 238.639 192.101 238.639ZM192.613 236.927C193.189 236.927 193.696 236.794 194.133 236.527C194.57 236.25 194.917 235.871 195.173 235.391C195.429 234.911 195.557 234.357 195.557 233.727C195.557 233.066 195.36 232.543 194.965 232.159C194.57 231.775 194.016 231.583 193.301 231.583C192.736 231.583 192.229 231.722 191.781 231.999C191.344 232.266 190.997 232.639 190.741 233.119C190.485 233.599 190.357 234.154 190.357 234.783C190.357 235.445 190.554 235.967 190.949 236.351C191.344 236.735 191.898 236.927 192.613 236.927ZM194.709 238.527L195.093 236.575L195.637 234.303L195.909 232.015L196.309 229.983H198.309L196.613 238.527H194.709ZM208.82 238.639C208.105 238.639 207.486 238.511 206.964 238.255C206.441 237.989 206.046 237.599 205.78 237.087C205.513 236.565 205.39 235.919 205.412 235.151C205.433 234.085 205.625 233.157 205.988 232.367C206.35 231.578 206.857 230.97 207.508 230.543C208.169 230.106 208.953 229.887 209.86 229.887C210.564 229.887 211.198 230.037 211.764 230.335C212.329 230.623 212.777 231.05 213.108 231.615C213.449 232.17 213.62 232.842 213.62 233.631C213.62 234.357 213.497 235.023 213.252 235.631C213.017 236.239 212.681 236.767 212.244 237.215C211.806 237.663 211.294 238.015 210.708 238.271C210.132 238.517 209.502 238.639 208.82 238.639ZM203.027 241.631L205.348 229.983H207.252L206.868 231.935L206.34 234.207L206.052 236.495L205.028 241.631H203.027ZM208.66 236.927C209.236 236.927 209.742 236.794 210.18 236.527C210.617 236.25 210.964 235.871 211.22 235.391C211.476 234.911 211.604 234.357 211.604 233.727C211.604 233.066 211.406 232.543 211.012 232.159C210.617 231.775 210.062 231.583 209.348 231.583C208.782 231.583 208.276 231.722 207.828 231.999C207.39 232.266 207.044 232.639 206.788 233.119C206.532 233.599 206.404 234.154 206.404 234.783C206.404 235.445 206.601 235.967 206.996 236.351C207.39 236.735 207.945 236.927 208.66 236.927ZM214.62 238.527L216.988 226.655H218.988L216.62 238.527H214.62ZM223.085 238.639C222.392 238.639 221.757 238.49 221.181 238.191C220.616 237.893 220.163 237.466 219.821 236.911C219.491 236.346 219.325 235.669 219.325 234.879C219.325 234.154 219.443 233.487 219.677 232.879C219.923 232.271 220.264 231.743 220.701 231.295C221.139 230.847 221.645 230.501 222.221 230.255C222.808 230.01 223.448 229.887 224.141 229.887C224.856 229.887 225.469 230.015 225.981 230.271C226.504 230.527 226.899 230.917 227.165 231.439C227.432 231.951 227.555 232.591 227.533 233.359C227.512 234.415 227.32 235.343 226.957 236.143C226.595 236.933 226.088 237.546 225.437 237.983C224.787 238.421 224.003 238.639 223.085 238.639ZM223.597 236.927C224.173 236.927 224.68 236.794 225.117 236.527C225.555 236.25 225.901 235.871 226.157 235.391C226.413 234.911 226.541 234.357 226.541 233.727C226.541 233.066 226.344 232.543 225.949 232.159C225.555 231.775 225 231.583 224.285 231.583C223.72 231.583 223.213 231.722 222.765 231.999C222.328 232.266 221.981 232.639 221.725 233.119C221.469 233.599 221.341 234.154 221.341 234.783C221.341 235.445 221.539 235.967 221.933 236.351C222.328 236.735 222.883 236.927 223.597 236.927ZM225.693 238.527L226.077 236.575L226.621 234.303L226.893 232.015L227.293 229.983H229.293L227.597 238.527H225.693ZM236.566 229.887C237.302 229.887 237.926 230.037 238.438 230.335C238.95 230.634 239.307 231.077 239.51 231.663C239.723 232.239 239.745 232.949 239.574 233.791L238.63 238.527H236.63L237.558 233.839C237.697 233.146 237.633 232.607 237.366 232.223C237.099 231.829 236.614 231.631 235.91 231.631C235.174 231.631 234.566 231.834 234.086 232.239C233.606 232.645 233.281 233.263 233.11 234.095L232.214 238.527H230.214L231.91 229.983H233.814L233.334 232.415L233.014 231.647C233.419 231.039 233.926 230.597 234.534 230.319C235.153 230.031 235.83 229.887 236.566 229.887ZM248.789 238.639C248.234 238.639 247.754 238.522 247.349 238.287C246.954 238.042 246.666 237.701 246.485 237.263C246.314 236.815 246.288 236.287 246.405 235.679L247.925 228.095H249.925L248.405 235.663C248.341 236.058 248.384 236.378 248.533 236.623C248.682 236.869 248.965 236.991 249.381 236.991C249.573 236.991 249.765 236.965 249.957 236.911C250.16 236.847 250.341 236.762 250.501 236.655L250.853 238.127C250.554 238.319 250.224 238.453 249.861 238.527C249.498 238.602 249.141 238.639 248.789 238.639ZM245.829 231.647L246.149 230.047H251.829L251.509 231.647H245.829ZM258.722 229.887C259.458 229.887 260.077 230.037 260.578 230.335C261.09 230.634 261.453 231.077 261.666 231.663C261.88 232.239 261.901 232.949 261.73 233.791L260.786 238.527H258.786L259.714 233.839C259.853 233.146 259.789 232.607 259.522 232.223C259.256 231.829 258.77 231.631 258.066 231.631C257.33 231.631 256.722 231.834 256.242 232.239C255.762 232.645 255.437 233.263 255.266 234.095L254.37 238.527H252.37L254.738 226.655H256.738L255.586 232.415L255.17 231.647C255.576 231.039 256.082 230.597 256.69 230.319C257.309 230.031 257.986 229.887 258.722 229.887ZM267.179 238.639C266.486 238.639 265.851 238.49 265.275 238.191C264.71 237.893 264.256 237.466 263.915 236.911C263.584 236.346 263.419 235.669 263.419 234.879C263.419 234.154 263.536 233.487 263.771 232.879C264.016 232.271 264.358 231.743 264.795 231.295C265.232 230.847 265.739 230.501 266.315 230.255C266.902 230.01 267.542 229.887 268.235 229.887C268.95 229.887 269.563 230.015 270.075 230.271C270.598 230.527 270.992 230.917 271.259 231.439C271.526 231.951 271.648 232.591 271.627 233.359C271.606 234.415 271.414 235.343 271.051 236.143C270.688 236.933 270.182 237.546 269.531 237.983C268.88 238.421 268.096 238.639 267.179 238.639ZM267.691 236.927C268.267 236.927 268.774 236.794 269.211 236.527C269.648 236.25 269.995 235.871 270.251 235.391C270.507 234.911 270.635 234.357 270.635 233.727C270.635 233.066 270.438 232.543 270.043 232.159C269.648 231.775 269.094 231.583 268.379 231.583C267.814 231.583 267.307 231.722 266.859 231.999C266.422 232.266 266.075 232.639 265.819 233.119C265.563 233.599 265.435 234.154 265.435 234.783C265.435 235.445 265.632 235.967 266.027 236.351C266.422 236.735 266.976 236.927 267.691 236.927ZM269.787 238.527L270.171 236.575L270.715 234.303L270.987 232.015L271.387 229.983H273.387L271.691 238.527H269.787ZM277.508 238.639C276.953 238.639 276.473 238.522 276.068 238.287C275.673 238.042 275.385 237.701 275.204 237.263C275.033 236.815 275.006 236.287 275.124 235.679L276.644 228.095H278.644L277.124 235.663C277.06 236.058 277.102 236.378 277.252 236.623C277.401 236.869 277.684 236.991 278.1 236.991C278.292 236.991 278.484 236.965 278.676 236.911C278.878 236.847 279.06 236.762 279.22 236.655L279.572 238.127C279.273 238.319 278.942 238.453 278.58 238.527C278.217 238.602 277.86 238.639 277.508 238.639ZM274.548 231.647L274.868 230.047H280.548L280.228 231.647H274.548ZM287.479 238.527L285.911 229.983H287.735L289.047 237.519H288.119L292.391 229.983H294.103L295.463 237.519H294.535L298.759 229.983H300.647L295.879 238.527H293.911L292.615 231.855H293.207L289.415 238.527H287.479ZM300.261 238.527L301.957 229.983H303.957L302.261 238.527H300.261ZM303.413 228.575C303.05 228.575 302.757 228.469 302.533 228.255C302.32 228.031 302.213 227.765 302.213 227.455C302.213 227.093 302.336 226.789 302.581 226.543C302.837 226.298 303.168 226.175 303.573 226.175C303.925 226.175 304.213 226.282 304.437 226.495C304.661 226.698 304.773 226.949 304.773 227.247C304.773 227.642 304.65 227.962 304.405 228.207C304.16 228.453 303.829 228.575 303.413 228.575ZM304.886 238.527L307.254 226.655H309.254L306.886 238.527H304.886ZM309.511 238.527L311.879 226.655H313.879L311.511 238.527H309.511ZM26.9934 253.887C27.7401 253.887 28.3641 254.037 28.8654 254.335C29.3668 254.634 29.7188 255.077 29.9214 255.663C30.1241 256.239 30.1401 256.949 29.9694 257.791L29.0254 262.527H27.0254L27.9694 257.839C28.1081 257.135 28.0494 256.591 27.7934 256.207C27.5374 255.823 27.0734 255.631 26.4014 255.631C25.7081 255.631 25.1374 255.834 24.6894 256.239C24.2521 256.634 23.9481 257.247 23.7774 258.079L22.8814 262.527H20.8814L21.8254 257.839C21.9641 257.135 21.9054 256.591 21.6494 256.207C21.3934 255.823 20.9294 255.631 20.2574 255.631C19.5641 255.631 18.9934 255.834 18.5454 256.239C18.1081 256.634 17.8041 257.253 17.6334 258.095L16.7374 262.527H14.7374L16.4334 253.983H18.3374L17.8734 256.335L17.5374 255.647C17.9321 255.039 18.4228 254.597 19.0094 254.319C19.6068 254.031 20.2574 253.887 20.9614 253.887C21.5161 253.887 22.0068 253.983 22.4334 254.175C22.8601 254.357 23.2014 254.639 23.4574 255.023C23.7241 255.397 23.8788 255.861 23.9214 256.415L22.9614 256.207C23.3988 255.439 23.9588 254.863 24.6414 254.479C25.3348 254.085 26.1188 253.887 26.9934 253.887ZM35.4368 262.639C34.7435 262.639 34.1088 262.49 33.5328 262.191C32.9675 261.893 32.5141 261.466 32.1728 260.911C31.8421 260.346 31.6768 259.669 31.6768 258.879C31.6768 258.154 31.7941 257.487 32.0288 256.879C32.2741 256.271 32.6155 255.743 33.0528 255.295C33.4901 254.847 33.9968 254.501 34.5728 254.255C35.1595 254.01 35.7995 253.887 36.4928 253.887C37.2075 253.887 37.8208 254.015 38.3328 254.271C38.8555 254.527 39.2501 254.917 39.5168 255.439C39.7835 255.951 39.9061 256.591 39.8848 257.359C39.8635 258.415 39.6715 259.343 39.3088 260.143C38.9461 260.933 38.4395 261.546 37.7888 261.983C37.1381 262.421 36.3541 262.639 35.4368 262.639ZM35.9488 260.927C36.5248 260.927 37.0315 260.794 37.4688 260.527C37.9061 260.25 38.2528 259.871 38.5088 259.391C38.7648 258.911 38.8928 258.357 38.8928 257.727C38.8928 257.066 38.6955 256.543 38.3008 256.159C37.9061 255.775 37.3515 255.583 36.6368 255.583C36.0715 255.583 35.5648 255.722 35.1168 255.999C34.6795 256.266 34.3328 256.639 34.0768 257.119C33.8208 257.599 33.6928 258.154 33.6928 258.783C33.6928 259.445 33.8901 259.967 34.2848 260.351C34.6795 260.735 35.2341 260.927 35.9488 260.927ZM38.0448 262.527L38.4288 260.575L38.9728 258.303L39.2448 256.015L39.6448 253.983H41.6448L39.9488 262.527H38.0448ZM44.6456 260.559L45.0776 258.095L50.2136 253.983H52.9336L48.1336 257.855L47.0616 258.639L44.6456 260.559ZM42.5656 262.527L44.9336 250.655H46.9336L44.5656 262.527H42.5656ZM49.0936 262.527L46.7096 258.671L48.0856 257.135L51.4136 262.527H49.0936ZM56.5098 262.639C55.6565 262.639 54.9151 262.485 54.2858 262.175C53.6565 261.855 53.1658 261.418 52.8138 260.863C52.4725 260.298 52.3018 259.637 52.3018 258.879C52.3018 257.909 52.5151 257.05 52.9418 256.303C53.3685 255.557 53.9498 254.97 54.6858 254.543C55.4325 254.106 56.2805 253.887 57.2298 253.887C58.0298 253.887 58.7231 254.037 59.3098 254.335C59.8965 254.634 60.3498 255.066 60.6698 255.631C61.0005 256.186 61.1658 256.853 61.1658 257.631C61.1658 257.834 61.1551 258.042 61.1338 258.255C61.1125 258.469 61.0805 258.666 61.0378 258.847H53.7898L54.0138 257.519H60.0938L59.2778 257.967C59.3631 257.423 59.3258 256.97 59.1658 256.607C59.0058 256.245 58.7498 255.967 58.3978 255.775C58.0458 255.583 57.6245 255.487 57.1338 255.487C56.5471 255.487 56.0351 255.626 55.5978 255.903C55.1711 256.17 54.8405 256.554 54.6058 257.055C54.3711 257.546 54.2538 258.122 54.2538 258.783C54.2538 259.477 54.4511 260.01 54.8458 260.383C55.2511 260.757 55.8751 260.943 56.7178 260.943C57.1978 260.943 57.6565 260.869 58.0938 260.719C58.5311 260.559 58.8938 260.341 59.1818 260.063L60.0138 261.455C59.5658 261.85 59.0325 262.149 58.4138 262.351C57.8058 262.543 57.1711 262.639 56.5098 262.639ZM69.4619 262.639C68.7153 262.639 68.0166 262.549 67.3659 262.367C66.7153 262.186 66.2139 261.967 65.8619 261.711L66.6939 260.175C67.0459 260.421 67.4833 260.623 68.0059 260.783C68.5393 260.933 69.0939 261.007 69.6699 261.007C70.3313 261.007 70.8166 260.917 71.1259 260.735C71.4459 260.554 71.6059 260.303 71.6059 259.983C71.6059 259.749 71.4939 259.573 71.2699 259.455C71.0459 259.338 70.7579 259.242 70.4059 259.167C70.0646 259.093 69.6913 259.013 69.2859 258.927C68.8913 258.842 68.5179 258.725 68.1659 258.575C67.8246 258.426 67.5419 258.207 67.3179 257.919C67.0939 257.631 66.9819 257.247 66.9819 256.767C66.9819 256.159 67.1526 255.642 67.4939 255.215C67.8353 254.789 68.3099 254.463 68.9179 254.239C69.5366 254.005 70.2459 253.887 71.0459 253.887C71.6219 253.887 72.1873 253.951 72.7419 254.079C73.2966 254.207 73.7553 254.389 74.1179 254.623L73.3819 256.159C72.9979 255.914 72.5819 255.743 72.1339 255.647C71.6966 255.551 71.2699 255.503 70.8539 255.503C70.2033 255.503 69.7179 255.605 69.3979 255.807C69.0886 255.999 68.9339 256.245 68.9339 256.543C68.9339 256.778 69.0459 256.959 69.2699 257.087C69.4939 257.215 69.7766 257.322 70.1179 257.407C70.4699 257.482 70.8433 257.562 71.2379 257.647C71.6433 257.722 72.0166 257.834 72.3579 257.983C72.7099 258.133 72.9979 258.351 73.2219 258.639C73.4459 258.917 73.5579 259.29 73.5579 259.759C73.5579 260.378 73.3819 260.906 73.0299 261.343C72.6886 261.77 72.2086 262.095 71.5899 262.319C70.9713 262.533 70.2619 262.639 69.4619 262.639ZM78.6243 262.639C77.931 262.639 77.2963 262.49 76.7203 262.191C76.155 261.893 75.7016 261.466 75.3603 260.911C75.0296 260.346 74.8643 259.669 74.8643 258.879C74.8643 258.154 74.9816 257.487 75.2163 256.879C75.4616 256.271 75.803 255.743 76.2403 255.295C76.6776 254.847 77.1843 254.501 77.7603 254.255C78.347 254.01 78.987 253.887 79.6803 253.887C80.395 253.887 81.0083 254.015 81.5203 254.271C82.043 254.527 82.4376 254.917 82.7043 255.439C82.971 255.951 83.0936 256.591 83.0723 257.359C83.051 258.415 82.859 259.343 82.4963 260.143C82.1336 260.933 81.627 261.546 80.9763 261.983C80.3256 262.421 79.5416 262.639 78.6243 262.639ZM79.1363 260.927C79.7123 260.927 80.219 260.794 80.6563 260.527C81.0936 260.25 81.4403 259.871 81.6963 259.391C81.9523 258.911 82.0803 258.357 82.0803 257.727C82.0803 257.066 81.883 256.543 81.4883 256.159C81.0936 255.775 80.539 255.583 79.8243 255.583C79.259 255.583 78.7523 255.722 78.3043 255.999C77.867 256.266 77.5203 256.639 77.2643 257.119C77.0083 257.599 76.8803 258.154 76.8803 258.783C76.8803 259.445 77.0776 259.967 77.4723 260.351C77.867 260.735 78.4216 260.927 79.1363 260.927ZM81.2323 262.527L81.6163 260.575L82.1603 258.303L82.4323 256.015L82.8323 253.983H84.8323L83.1363 262.527H81.2323ZM88.0411 262.527L86.0731 253.983H88.0411L89.7371 261.519H88.7291L93.4491 253.983H95.4651L90.1051 262.527H88.0411ZM95.0031 262.527L96.6991 253.983H98.6991L97.0031 262.527H95.0031ZM98.1551 252.575C97.7924 252.575 97.4991 252.469 97.2751 252.255C97.0617 252.031 96.9551 251.765 96.9551 251.455C96.9551 251.093 97.0777 250.789 97.3231 250.543C97.5791 250.298 97.9097 250.175 98.3151 250.175C98.6671 250.175 98.9551 250.282 99.1791 250.495C99.4031 250.698 99.5151 250.949 99.5151 251.247C99.5151 251.642 99.3924 251.962 99.1471 252.207C98.9017 252.453 98.5711 252.575 98.1551 252.575ZM105.98 253.887C106.716 253.887 107.34 254.037 107.852 254.335C108.364 254.634 108.721 255.077 108.924 255.663C109.137 256.239 109.159 256.949 108.988 257.791L108.044 262.527H106.044L106.972 257.839C107.111 257.146 107.047 256.607 106.78 256.223C106.513 255.829 106.028 255.631 105.324 255.631C104.588 255.631 103.98 255.834 103.5 256.239C103.02 256.645 102.695 257.263 102.524 258.095L101.628 262.527H99.6281L101.324 253.983H103.228L102.748 256.415L102.428 255.647C102.833 255.039 103.34 254.597 103.948 254.319C104.567 254.031 105.244 253.887 105.98 253.887ZM114.053 265.743C113.242 265.743 112.495 265.642 111.813 265.439C111.13 265.247 110.543 264.959 110.053 264.575L111.093 263.071C111.423 263.359 111.861 263.589 112.405 263.759C112.949 263.941 113.541 264.031 114.181 264.031C115.119 264.031 115.829 263.823 116.309 263.407C116.789 263.002 117.109 262.389 117.269 261.567L117.621 259.807L118.149 257.999L118.469 256.063L118.869 253.983H120.773L119.333 261.231C119.013 262.821 118.415 263.967 117.541 264.671C116.666 265.386 115.503 265.743 114.053 265.743ZM114.549 262.143C113.813 262.143 113.157 262.005 112.581 261.727C112.005 261.439 111.551 261.034 111.221 260.511C110.89 259.978 110.725 259.343 110.725 258.607C110.725 257.935 110.842 257.317 111.077 256.751C111.322 256.175 111.658 255.674 112.085 255.247C112.522 254.821 113.034 254.49 113.621 254.255C114.218 254.01 114.869 253.887 115.573 253.887C116.191 253.887 116.762 253.999 117.285 254.223C117.807 254.437 118.223 254.789 118.533 255.279C118.842 255.759 118.986 256.394 118.965 257.183C118.943 258.122 118.757 258.97 118.405 259.727C118.053 260.474 117.551 261.066 116.901 261.503C116.25 261.93 115.466 262.143 114.549 262.143ZM114.997 260.447C115.573 260.447 116.079 260.325 116.517 260.079C116.954 259.823 117.295 259.477 117.541 259.039C117.797 258.591 117.925 258.09 117.925 257.535C117.925 256.927 117.727 256.453 117.333 256.111C116.938 255.759 116.389 255.583 115.685 255.583C115.109 255.583 114.602 255.711 114.165 255.967C113.727 256.213 113.381 256.554 113.125 256.991C112.869 257.429 112.741 257.93 112.741 258.495C112.741 259.103 112.938 259.583 113.333 259.935C113.738 260.277 114.293 260.447 114.997 260.447ZM126.384 262.527L128.208 253.439C128.389 252.543 128.768 251.839 129.344 251.327C129.92 250.805 130.688 250.543 131.648 250.543C132.011 250.543 132.357 250.586 132.688 250.671C133.019 250.757 133.296 250.885 133.52 251.055L132.704 252.511C132.416 252.277 132.064 252.159 131.648 252.159C131.232 252.159 130.901 252.277 130.656 252.511C130.411 252.746 130.235 253.103 130.128 253.583L129.92 254.543L129.824 255.359L128.384 262.527H126.384ZM126.368 255.647L126.688 254.047H132.368L132.048 255.647H126.368ZM136.133 262.639C135.301 262.639 134.571 262.485 133.941 262.175C133.323 261.855 132.843 261.418 132.501 260.863C132.16 260.298 131.989 259.637 131.989 258.879C131.989 257.919 132.208 257.066 132.645 256.319C133.083 255.562 133.68 254.97 134.437 254.543C135.205 254.106 136.08 253.887 137.061 253.887C137.904 253.887 138.635 254.042 139.253 254.351C139.883 254.65 140.368 255.082 140.709 255.647C141.051 256.202 141.221 256.863 141.221 257.631C141.221 258.581 141.003 259.434 140.565 260.191C140.128 260.949 139.525 261.546 138.757 261.983C138 262.421 137.125 262.639 136.133 262.639ZM136.261 260.927C136.837 260.927 137.344 260.794 137.781 260.527C138.219 260.25 138.565 259.871 138.821 259.391C139.077 258.911 139.205 258.357 139.205 257.727C139.205 257.066 139.008 256.543 138.613 256.159C138.219 255.775 137.664 255.583 136.949 255.583C136.384 255.583 135.877 255.722 135.429 255.999C134.992 256.266 134.645 256.639 134.389 257.119C134.133 257.599 134.005 258.154 134.005 258.783C134.005 259.455 134.203 259.983 134.597 260.367C134.992 260.741 135.547 260.927 136.261 260.927ZM142.222 262.527L143.918 253.983H145.822L145.342 256.415L145.166 255.711C145.56 255.018 146.062 254.543 146.67 254.287C147.278 254.021 148.019 253.887 148.894 253.887L148.526 255.791C148.44 255.77 148.36 255.759 148.286 255.759C148.211 255.749 148.126 255.743 148.03 255.743C147.251 255.743 146.606 255.951 146.094 256.367C145.582 256.773 145.24 257.423 145.07 258.319L144.222 262.527H142.222ZM156.274 262.639C155.528 262.639 154.829 262.549 154.178 262.367C153.528 262.186 153.026 261.967 152.674 261.711L153.506 260.175C153.858 260.421 154.296 260.623 154.818 260.783C155.352 260.933 155.906 261.007 156.482 261.007C157.144 261.007 157.629 260.917 157.938 260.735C158.258 260.554 158.418 260.303 158.418 259.983C158.418 259.749 158.306 259.573 158.082 259.455C157.858 259.338 157.57 259.242 157.218 259.167C156.877 259.093 156.504 259.013 156.098 258.927C155.704 258.842 155.33 258.725 154.978 258.575C154.637 258.426 154.354 258.207 154.13 257.919C153.906 257.631 153.794 257.247 153.794 256.767C153.794 256.159 153.965 255.642 154.306 255.215C154.648 254.789 155.122 254.463 155.73 254.239C156.349 254.005 157.058 253.887 157.858 253.887C158.434 253.887 159 253.951 159.554 254.079C160.109 254.207 160.568 254.389 160.93 254.623L160.194 256.159C159.81 255.914 159.394 255.743 158.946 255.647C158.509 255.551 158.082 255.503 157.666 255.503C157.016 255.503 156.53 255.605 156.21 255.807C155.901 255.999 155.746 256.245 155.746 256.543C155.746 256.778 155.858 256.959 156.082 257.087C156.306 257.215 156.589 257.322 156.93 257.407C157.282 257.482 157.656 257.562 158.05 257.647C158.456 257.722 158.829 257.834 159.17 257.983C159.522 258.133 159.81 258.351 160.034 258.639C160.258 258.917 160.37 259.29 160.37 259.759C160.37 260.378 160.194 260.906 159.842 261.343C159.501 261.77 159.021 262.095 158.402 262.319C157.784 262.533 157.074 262.639 156.274 262.639ZM166.765 262.639C166.05 262.639 165.431 262.511 164.909 262.255C164.386 261.989 163.991 261.599 163.725 261.087C163.458 260.565 163.335 259.919 163.357 259.151C163.378 258.085 163.57 257.157 163.933 256.367C164.295 255.578 164.802 254.97 165.453 254.543C166.114 254.106 166.898 253.887 167.805 253.887C168.509 253.887 169.143 254.037 169.709 254.335C170.274 254.623 170.722 255.05 171.053 255.615C171.394 256.17 171.565 256.842 171.565 257.631C171.565 258.357 171.442 259.023 171.197 259.631C170.962 260.239 170.626 260.767 170.189 261.215C169.751 261.663 169.239 262.015 168.653 262.271C168.077 262.517 167.447 262.639 166.765 262.639ZM160.973 265.631L163.293 253.983H165.197L164.813 255.935L164.285 258.207L163.997 260.495L162.973 265.631H160.973ZM166.605 260.927C167.181 260.927 167.687 260.794 168.125 260.527C168.562 260.25 168.909 259.871 169.165 259.391C169.421 258.911 169.549 258.357 169.549 257.727C169.549 257.066 169.351 256.543 168.957 256.159C168.562 255.775 168.007 255.583 167.293 255.583C166.727 255.583 166.221 255.722 165.773 255.999C165.335 256.266 164.989 256.639 164.733 257.119C164.477 257.599 164.349 258.154 164.349 258.783C164.349 259.445 164.546 259.967 164.941 260.351C165.335 260.735 165.89 260.927 166.605 260.927ZM176.854 262.639C176 262.639 175.259 262.485 174.63 262.175C174 261.855 173.51 261.418 173.158 260.863C172.816 260.298 172.646 259.637 172.646 258.879C172.646 257.909 172.859 257.05 173.286 256.303C173.712 255.557 174.294 254.97 175.03 254.543C175.776 254.106 176.624 253.887 177.574 253.887C178.374 253.887 179.067 254.037 179.654 254.335C180.24 254.634 180.694 255.066 181.014 255.631C181.344 256.186 181.51 256.853 181.51 257.631C181.51 257.834 181.499 258.042 181.478 258.255C181.456 258.469 181.424 258.666 181.382 258.847H174.134L174.358 257.519H180.438L179.622 257.967C179.707 257.423 179.67 256.97 179.51 256.607C179.35 256.245 179.094 255.967 178.742 255.775C178.39 255.583 177.968 255.487 177.478 255.487C176.891 255.487 176.379 255.626 175.942 255.903C175.515 256.17 175.184 256.554 174.95 257.055C174.715 257.546 174.598 258.122 174.598 258.783C174.598 259.477 174.795 260.01 175.19 260.383C175.595 260.757 176.219 260.943 177.062 260.943C177.542 260.943 178 260.869 178.438 260.719C178.875 260.559 179.238 260.341 179.526 260.063L180.358 261.455C179.91 261.85 179.376 262.149 178.758 262.351C178.15 262.543 177.515 262.639 176.854 262.639ZM186.744 262.639C185.901 262.639 185.16 262.485 184.52 262.175C183.89 261.855 183.405 261.418 183.064 260.863C182.722 260.298 182.552 259.637 182.552 258.879C182.552 257.919 182.77 257.066 183.208 256.319C183.645 255.562 184.248 254.97 185.016 254.543C185.784 254.106 186.669 253.887 187.672 253.887C188.536 253.887 189.277 254.058 189.896 254.399C190.525 254.73 191.01 255.226 191.352 255.887L189.64 256.767C189.448 256.362 189.17 256.063 188.808 255.871C188.456 255.679 188.024 255.583 187.512 255.583C186.957 255.583 186.456 255.722 186.008 255.999C185.56 256.266 185.208 256.639 184.952 257.119C184.696 257.599 184.568 258.154 184.568 258.783C184.568 259.445 184.765 259.967 185.16 260.351C185.554 260.735 186.114 260.927 186.84 260.927C187.309 260.927 187.746 260.831 188.152 260.639C188.557 260.447 188.898 260.149 189.176 259.743L190.648 260.735C190.253 261.333 189.709 261.802 189.016 262.143C188.322 262.474 187.565 262.639 186.744 262.639ZM191.691 262.527L193.387 253.983H195.387L193.691 262.527H191.691ZM194.843 252.575C194.48 252.575 194.187 252.469 193.963 252.255C193.749 252.031 193.643 251.765 193.643 251.455C193.643 251.093 193.765 250.789 194.011 250.543C194.267 250.298 194.597 250.175 195.003 250.175C195.355 250.175 195.643 250.282 195.867 250.495C196.091 250.698 196.203 250.949 196.203 251.247C196.203 251.642 196.08 251.962 195.835 252.207C195.589 252.453 195.259 252.575 194.843 252.575ZM196.572 262.527L198.396 253.439C198.577 252.543 198.956 251.839 199.532 251.327C200.108 250.805 200.876 250.543 201.836 250.543C202.198 250.543 202.545 250.586 202.876 250.671C203.206 250.757 203.484 250.885 203.708 251.055L202.892 252.511C202.604 252.277 202.252 252.159 201.836 252.159C201.42 252.159 201.089 252.277 200.844 252.511C200.598 252.746 200.422 253.103 200.316 253.583L200.108 254.543L200.012 255.359L198.572 262.527H196.572ZM196.556 255.647L196.876 254.047H202.556L202.236 255.647H196.556ZM202.268 262.527L203.964 253.983H205.964L204.268 262.527H202.268ZM205.42 252.575C205.057 252.575 204.764 252.469 204.54 252.255C204.326 252.031 204.22 251.765 204.22 251.455C204.22 251.093 204.342 250.789 204.588 250.543C204.844 250.298 205.174 250.175 205.58 250.175C205.932 250.175 206.22 250.282 206.444 250.495C206.668 250.698 206.78 250.949 206.78 251.247C206.78 251.642 206.657 251.962 206.412 252.207C206.166 252.453 205.836 252.575 205.42 252.575ZM211.166 262.639C210.323 262.639 209.582 262.485 208.942 262.175C208.312 261.855 207.827 261.418 207.486 260.863C207.144 260.298 206.974 259.637 206.974 258.879C206.974 257.919 207.192 257.066 207.63 256.319C208.067 255.562 208.67 254.97 209.438 254.543C210.206 254.106 211.091 253.887 212.094 253.887C212.958 253.887 213.699 254.058 214.318 254.399C214.947 254.73 215.432 255.226 215.774 255.887L214.062 256.767C213.87 256.362 213.592 256.063 213.23 255.871C212.878 255.679 212.446 255.583 211.934 255.583C211.379 255.583 210.878 255.722 210.43 255.999C209.982 256.266 209.63 256.639 209.374 257.119C209.118 257.599 208.99 258.154 208.99 258.783C208.99 259.445 209.187 259.967 209.582 260.351C209.976 260.735 210.536 260.927 211.262 260.927C211.731 260.927 212.168 260.831 212.574 260.639C212.979 260.447 213.32 260.149 213.598 259.743L215.07 260.735C214.675 261.333 214.131 261.802 213.438 262.143C212.744 262.474 211.987 262.639 211.166 262.639ZM224.068 265.743C223.258 265.743 222.511 265.642 221.828 265.439C221.146 265.247 220.559 264.959 220.068 264.575L221.108 263.071C221.439 263.359 221.876 263.589 222.42 263.759C222.964 263.941 223.556 264.031 224.196 264.031C225.135 264.031 225.844 263.823 226.324 263.407C226.804 263.002 227.124 262.389 227.284 261.567L227.636 259.807L228.164 257.999L228.484 256.063L228.884 253.983H230.788L229.348 261.231C229.028 262.821 228.431 263.967 227.556 264.671C226.682 265.386 225.519 265.743 224.068 265.743ZM224.564 262.143C223.828 262.143 223.172 262.005 222.596 261.727C222.02 261.439 221.567 261.034 221.236 260.511C220.906 259.978 220.74 259.343 220.74 258.607C220.74 257.935 220.858 257.317 221.092 256.751C221.338 256.175 221.674 255.674 222.1 255.247C222.538 254.821 223.05 254.49 223.636 254.255C224.234 254.01 224.884 253.887 225.588 253.887C226.207 253.887 226.778 253.999 227.3 254.223C227.823 254.437 228.239 254.789 228.548 255.279C228.858 255.759 229.002 256.394 228.98 257.183C228.959 258.122 228.772 258.97 228.42 259.727C228.068 260.474 227.567 261.066 226.916 261.503C226.266 261.93 225.482 262.143 224.564 262.143ZM225.012 260.447C225.588 260.447 226.095 260.325 226.532 260.079C226.97 259.823 227.311 259.477 227.556 259.039C227.812 258.591 227.94 258.09 227.94 257.535C227.94 256.927 227.743 256.453 227.348 256.111C226.954 255.759 226.404 255.583 225.7 255.583C225.124 255.583 224.618 255.711 224.18 255.967C223.743 256.213 223.396 256.554 223.14 256.991C222.884 257.429 222.756 257.93 222.756 258.495C222.756 259.103 222.954 259.583 223.348 259.935C223.754 260.277 224.308 260.447 225.012 260.447ZM235.946 262.639C235.114 262.639 234.383 262.485 233.754 262.175C233.135 261.855 232.655 261.418 232.314 260.863C231.972 260.298 231.802 259.637 231.802 258.879C231.802 257.919 232.02 257.066 232.458 256.319C232.895 255.562 233.492 254.97 234.25 254.543C235.018 254.106 235.892 253.887 236.874 253.887C237.716 253.887 238.447 254.042 239.066 254.351C239.695 254.65 240.18 255.082 240.522 255.647C240.863 256.202 241.034 256.863 241.034 257.631C241.034 258.581 240.815 259.434 240.378 260.191C239.94 260.949 239.338 261.546 238.57 261.983C237.812 262.421 236.938 262.639 235.946 262.639ZM236.074 260.927C236.65 260.927 237.156 260.794 237.594 260.527C238.031 260.25 238.378 259.871 238.634 259.391C238.89 258.911 239.018 258.357 239.018 257.727C239.018 257.066 238.82 256.543 238.426 256.159C238.031 255.775 237.476 255.583 236.762 255.583C236.196 255.583 235.69 255.722 235.242 255.999C234.804 256.266 234.458 256.639 234.202 257.119C233.946 257.599 233.818 258.154 233.818 258.783C233.818 259.455 234.015 259.983 234.41 260.367C234.804 260.741 235.359 260.927 236.074 260.927ZM245.874 262.639C245.181 262.639 244.546 262.49 243.97 262.191C243.405 261.893 242.952 261.466 242.61 260.911C242.28 260.346 242.114 259.669 242.114 258.879C242.114 258.154 242.232 257.487 242.466 256.879C242.712 256.271 243.053 255.743 243.49 255.295C243.928 254.847 244.434 254.501 245.01 254.255C245.597 254.01 246.237 253.887 246.93 253.887C247.645 253.887 248.258 254.015 248.77 254.271C249.293 254.527 249.688 254.917 249.954 255.439C250.221 255.951 250.344 256.591 250.322 257.359C250.301 258.415 250.109 259.343 249.746 260.143C249.384 260.933 248.877 261.546 248.226 261.983C247.576 262.421 246.792 262.639 245.874 262.639ZM246.386 260.927C246.962 260.927 247.469 260.794 247.906 260.527C248.344 260.25 248.69 259.871 248.946 259.391C249.202 258.911 249.33 258.357 249.33 257.727C249.33 257.066 249.133 256.543 248.738 256.159C248.344 255.775 247.789 255.583 247.074 255.583C246.509 255.583 246.002 255.722 245.554 255.999C245.117 256.266 244.77 256.639 244.514 257.119C244.258 257.599 244.13 258.154 244.13 258.783C244.13 259.445 244.328 259.967 244.722 260.351C245.117 260.735 245.672 260.927 246.386 260.927ZM248.482 262.527L248.866 260.575L249.41 258.303L249.682 256.015L250.082 253.983H252.082L250.386 262.527H248.482ZM253.003 262.527L255.371 250.655H257.371L255.003 262.527H253.003ZM260.54 262.639C259.793 262.639 259.095 262.549 258.444 262.367C257.793 262.186 257.292 261.967 256.94 261.711L257.772 260.175C258.124 260.421 258.561 260.623 259.084 260.783C259.617 260.933 260.172 261.007 260.748 261.007C261.409 261.007 261.895 260.917 262.204 260.735C262.524 260.554 262.684 260.303 262.684 259.983C262.684 259.749 262.572 259.573 262.348 259.455C262.124 259.338 261.836 259.242 261.484 259.167C261.143 259.093 260.769 259.013 260.364 258.927C259.969 258.842 259.596 258.725 259.244 258.575C258.903 258.426 258.62 258.207 258.396 257.919C258.172 257.631 258.06 257.247 258.06 256.767C258.06 256.159 258.231 255.642 258.572 255.215C258.913 254.789 259.388 254.463 259.996 254.239C260.615 254.005 261.324 253.887 262.124 253.887C262.7 253.887 263.265 253.951 263.82 254.079C264.375 254.207 264.833 254.389 265.196 254.623L264.46 256.159C264.076 255.914 263.66 255.743 263.212 255.647C262.775 255.551 262.348 255.503 261.932 255.503C261.281 255.503 260.796 255.605 260.476 255.807C260.167 255.999 260.012 256.245 260.012 256.543C260.012 256.778 260.124 256.959 260.348 257.087C260.572 257.215 260.855 257.322 261.196 257.407C261.548 257.482 261.921 257.562 262.316 257.647C262.721 257.722 263.095 257.834 263.436 257.983C263.788 258.133 264.076 258.351 264.3 258.639C264.524 258.917 264.636 259.29 264.636 259.759C264.636 260.378 264.46 260.906 264.108 261.343C263.767 261.77 263.287 262.095 262.668 262.319C262.049 262.533 261.34 262.639 260.54 262.639ZM282.54 253.887C283.287 253.887 283.911 254.037 284.412 254.335C284.914 254.634 285.266 255.077 285.468 255.663C285.671 256.239 285.687 256.949 285.516 257.791L284.572 262.527H282.572L283.516 257.839C283.655 257.135 283.596 256.591 283.34 256.207C283.084 255.823 282.62 255.631 281.948 255.631C281.255 255.631 280.684 255.834 280.236 256.239C279.799 256.634 279.495 257.247 279.324 258.079L278.428 262.527H276.428L277.372 257.839C277.511 257.135 277.452 256.591 277.196 256.207C276.94 255.823 276.476 255.631 275.804 255.631C275.111 255.631 274.54 255.834 274.092 256.239C273.655 256.634 273.351 257.253 273.18 258.095L272.284 262.527H270.284L271.98 253.983H273.884L273.42 256.335L273.084 255.647C273.479 255.039 273.97 254.597 274.556 254.319C275.154 254.031 275.804 253.887 276.508 253.887C277.063 253.887 277.554 253.983 277.98 254.175C278.407 254.357 278.748 254.639 279.004 255.023C279.271 255.397 279.426 255.861 279.468 256.415L278.508 256.207C278.946 255.439 279.506 254.863 280.188 254.479C280.882 254.085 281.666 253.887 282.54 253.887ZM290.792 262.639C290.077 262.639 289.464 262.49 288.952 262.191C288.451 261.882 288.093 261.439 287.88 260.863C287.667 260.277 287.645 259.562 287.816 258.719L288.76 253.983H290.76L289.816 258.671C289.688 259.365 289.752 259.909 290.008 260.303C290.275 260.687 290.755 260.879 291.448 260.879C292.163 260.879 292.76 260.677 293.24 260.271C293.731 259.866 294.056 259.247 294.216 258.415L295.112 253.983H297.096L295.4 262.527H293.496L293.976 260.095L294.296 260.863C293.891 261.471 293.379 261.919 292.76 262.207C292.152 262.495 291.496 262.639 290.792 262.639ZM302.291 262.639C301.448 262.639 300.707 262.485 300.067 262.175C299.437 261.855 298.952 261.418 298.611 260.863C298.269 260.298 298.099 259.637 298.099 258.879C298.099 257.919 298.317 257.066 298.755 256.319C299.192 255.562 299.795 254.97 300.563 254.543C301.331 254.106 302.216 253.887 303.219 253.887C304.083 253.887 304.824 254.058 305.443 254.399C306.072 254.73 306.557 255.226 306.899 255.887L305.187 256.767C304.995 256.362 304.717 256.063 304.355 255.871C304.003 255.679 303.571 255.583 303.059 255.583C302.504 255.583 302.003 255.722 301.555 255.999C301.107 256.266 300.755 256.639 300.499 257.119C300.243 257.599 300.115 258.154 300.115 258.783C300.115 259.445 300.312 259.967 300.707 260.351C301.101 260.735 301.661 260.927 302.387 260.927C302.856 260.927 303.293 260.831 303.699 260.639C304.104 260.447 304.445 260.149 304.723 259.743L306.195 260.735C305.8 261.333 305.256 261.802 304.563 262.143C303.869 262.474 303.112 262.639 302.291 262.639ZM313.589 253.887C314.325 253.887 314.944 254.037 315.445 254.335C315.957 254.634 316.32 255.077 316.533 255.663C316.747 256.239 316.768 256.949 316.597 257.791L315.653 262.527H313.653L314.581 257.839C314.72 257.146 314.656 256.607 314.389 256.223C314.123 255.829 313.637 255.631 312.933 255.631C312.197 255.631 311.589 255.834 311.109 256.239C310.629 256.645 310.304 257.263 310.133 258.095L309.237 262.527H307.237L309.605 250.655H311.605L310.453 256.415L310.037 255.647C310.443 255.039 310.949 254.597 311.557 254.319C312.176 254.031 312.853 253.887 313.589 253.887ZM143.697 286.639C142.844 286.639 142.103 286.485 141.473 286.175C140.844 285.855 140.353 285.418 140.001 284.863C139.66 284.298 139.489 283.637 139.489 282.879C139.489 281.909 139.703 281.05 140.129 280.303C140.556 279.557 141.137 278.97 141.873 278.543C142.62 278.106 143.468 277.887 144.417 277.887C145.217 277.887 145.911 278.037 146.497 278.335C147.084 278.634 147.537 279.066 147.857 279.631C148.188 280.186 148.353 280.853 148.353 281.631C148.353 281.834 148.343 282.042 148.321 282.255C148.3 282.469 148.268 282.666 148.225 282.847H140.977L141.201 281.519H147.281L146.465 281.967C146.551 281.423 146.513 280.97 146.353 280.607C146.193 280.245 145.937 279.967 145.585 279.775C145.233 279.583 144.812 279.487 144.321 279.487C143.735 279.487 143.223 279.626 142.785 279.903C142.359 280.17 142.028 280.554 141.793 281.055C141.559 281.546 141.441 282.122 141.441 282.783C141.441 283.477 141.639 284.01 142.033 284.383C142.439 284.757 143.063 284.943 143.905 284.943C144.385 284.943 144.844 284.869 145.281 284.719C145.719 284.559 146.081 284.341 146.369 284.063L147.201 285.455C146.753 285.85 146.22 286.149 145.601 286.351C144.993 286.543 144.359 286.639 143.697 286.639ZM153.156 286.639C152.462 286.639 151.828 286.49 151.252 286.191C150.686 285.893 150.233 285.466 149.892 284.911C149.561 284.346 149.396 283.669 149.396 282.879C149.396 282.154 149.513 281.487 149.748 280.879C149.993 280.271 150.334 279.743 150.772 279.295C151.209 278.847 151.716 278.501 152.292 278.255C152.878 278.01 153.518 277.887 154.212 277.887C154.926 277.887 155.54 278.015 156.052 278.271C156.574 278.527 156.969 278.917 157.236 279.439C157.502 279.951 157.625 280.591 157.604 281.359C157.582 282.415 157.39 283.343 157.028 284.143C156.665 284.933 156.158 285.546 155.508 285.983C154.857 286.421 154.073 286.639 153.156 286.639ZM153.668 284.927C154.244 284.927 154.75 284.794 155.188 284.527C155.625 284.25 155.972 283.871 156.228 283.391C156.484 282.911 156.612 282.357 156.612 281.727C156.612 281.066 156.414 280.543 156.02 280.159C155.625 279.775 155.07 279.583 154.356 279.583C153.79 279.583 153.284 279.722 152.836 279.999C152.398 280.266 152.052 280.639 151.796 281.119C151.54 281.599 151.412 282.154 151.412 282.783C151.412 283.445 151.609 283.967 152.004 284.351C152.398 284.735 152.953 284.927 153.668 284.927ZM155.764 286.527L156.148 284.575L156.692 282.303L156.964 280.015L157.364 277.983H159.364L157.668 286.527H155.764ZM163.196 286.639C162.45 286.639 161.751 286.549 161.1 286.367C160.45 286.186 159.948 285.967 159.596 285.711L160.428 284.175C160.78 284.421 161.218 284.623 161.74 284.783C162.274 284.933 162.828 285.007 163.404 285.007C164.066 285.007 164.551 284.917 164.86 284.735C165.18 284.554 165.34 284.303 165.34 283.983C165.34 283.749 165.228 283.573 165.004 283.455C164.78 283.338 164.492 283.242 164.14 283.167C163.799 283.093 163.426 283.013 163.02 282.927C162.626 282.842 162.252 282.725 161.9 282.575C161.559 282.426 161.276 282.207 161.052 281.919C160.828 281.631 160.716 281.247 160.716 280.767C160.716 280.159 160.887 279.642 161.228 279.215C161.57 278.789 162.044 278.463 162.652 278.239C163.271 278.005 163.98 277.887 164.78 277.887C165.356 277.887 165.922 277.951 166.476 278.079C167.031 278.207 167.49 278.389 167.852 278.623L167.116 280.159C166.732 279.914 166.316 279.743 165.868 279.647C165.431 279.551 165.004 279.503 164.588 279.503C163.938 279.503 163.452 279.605 163.132 279.807C162.823 279.999 162.668 280.245 162.668 280.543C162.668 280.778 162.78 280.959 163.004 281.087C163.228 281.215 163.511 281.322 163.852 281.407C164.204 281.482 164.578 281.562 164.972 281.647C165.378 281.722 165.751 281.834 166.092 281.983C166.444 282.133 166.732 282.351 166.956 282.639C167.18 282.917 167.292 283.29 167.292 283.759C167.292 284.378 167.116 284.906 166.764 285.343C166.423 285.77 165.943 286.095 165.324 286.319C164.706 286.533 163.996 286.639 163.196 286.639ZM168.519 286.527L170.215 277.983H172.215L170.519 286.527H168.519ZM171.671 276.575C171.308 276.575 171.015 276.469 170.791 276.255C170.577 276.031 170.471 275.765 170.471 275.455C170.471 275.093 170.593 274.789 170.839 274.543C171.095 274.298 171.425 274.175 171.831 274.175C172.183 274.175 172.471 274.282 172.695 274.495C172.919 274.698 173.031 274.949 173.031 275.247C173.031 275.642 172.908 275.962 172.663 276.207C172.417 276.453 172.087 276.575 171.671 276.575ZM177.432 286.639C176.578 286.639 175.837 286.485 175.208 286.175C174.578 285.855 174.088 285.418 173.736 284.863C173.394 284.298 173.224 283.637 173.224 282.879C173.224 281.909 173.437 281.05 173.864 280.303C174.29 279.557 174.872 278.97 175.608 278.543C176.354 278.106 177.202 277.887 178.152 277.887C178.952 277.887 179.645 278.037 180.232 278.335C180.818 278.634 181.272 279.066 181.592 279.631C181.922 280.186 182.088 280.853 182.088 281.631C182.088 281.834 182.077 282.042 182.056 282.255C182.034 282.469 182.002 282.666 181.96 282.847H174.712L174.936 281.519H181.016L180.2 281.967C180.285 281.423 180.248 280.97 180.088 280.607C179.928 280.245 179.672 279.967 179.32 279.775C178.968 279.583 178.546 279.487 178.056 279.487C177.469 279.487 176.957 279.626 176.52 279.903C176.093 280.17 175.762 280.554 175.528 281.055C175.293 281.546 175.176 282.122 175.176 282.783C175.176 283.477 175.373 284.01 175.768 284.383C176.173 284.757 176.797 284.943 177.64 284.943C178.12 284.943 178.578 284.869 179.016 284.719C179.453 284.559 179.816 284.341 180.104 284.063L180.936 285.455C180.488 285.85 179.954 286.149 179.336 286.351C178.728 286.543 178.093 286.639 177.432 286.639ZM183.05 286.527L184.746 277.983H186.65L186.17 280.415L185.994 279.711C186.389 279.018 186.89 278.543 187.498 278.287C188.106 278.021 188.847 277.887 189.722 277.887L189.354 279.791C189.269 279.77 189.189 279.759 189.114 279.759C189.039 279.749 188.954 279.743 188.858 279.743C188.079 279.743 187.434 279.951 186.922 280.367C186.41 280.773 186.069 281.423 185.898 282.319L185.05 286.527H183.05ZM190.428 286.639C190.076 286.639 189.778 286.522 189.532 286.287C189.298 286.053 189.18 285.754 189.18 285.391C189.18 284.975 189.319 284.639 189.596 284.383C189.874 284.117 190.199 283.983 190.572 283.983C190.924 283.983 191.218 284.101 191.452 284.335C191.687 284.559 191.804 284.858 191.804 285.231C191.804 285.509 191.74 285.754 191.612 285.967C191.484 286.181 191.314 286.346 191.1 286.463C190.898 286.581 190.674 286.639 190.428 286.639Z" fill="white"/>
<path d="M96 96.2161L97.8987 91.117L100.668 90.5674L104.897 94.6665L105.228 106.322L102.538 107.096L96 96.2161Z" fill="#455A64"/>
<path d="M120.237 157.863L99.5954 86.8598C99.5454 86.6853 99.4583 86.5217 99.3391 86.3785C99.22 86.2352 99.0711 86.1151 98.9012 86.0252C98.7313 85.9353 98.5437 85.8773 98.3493 85.8546C98.1549 85.8319 97.9575 85.8449 97.7686 85.8929C97.4217 85.9868 97.1289 86.2029 96.9539 86.4942C96.7789 86.7855 96.7356 87.1287 96.8336 87.4492L117.303 157.949" fill="#263238"/>
<path d="M147.084 108.999L135.065 157.864H142.315L154.535 110.761L147.084 108.999Z" fill="#263238"/>
<path d="M176.488 111.873C176.488 112.376 187.456 157.864 187.456 157.864H194.268L181.976 108.999L176.488 111.873Z" fill="#263238"/>
<path d="M197.855 100.097C198.042 100.6 227.171 157.862 227.171 157.862H234.708L202.207 96.2295L197.855 100.097Z" fill="#263238"/>
<path d="M210.293 98.9674C224.491 78.0302 220.219 51.9843 200.751 40.7923C181.283 29.6003 153.991 37.5003 139.793 58.4375C125.595 79.3747 129.867 105.421 149.335 116.613C168.803 127.805 196.094 119.905 210.293 98.9674Z" fill="#263238"/>
<path d="M206.409 95.9563C219.845 75.4082 215.771 50.4546 197.31 40.2209C178.848 29.9872 152.99 38.3486 139.554 58.8968C126.119 79.445 130.192 104.399 148.654 114.632C167.115 124.866 192.973 116.504 206.409 95.9563Z" fill="#F5F5F5"/>
<path d="M166.036 119.301C160.834 119.326 155.695 118.254 151.012 116.169C142.755 112.474 136.512 105.699 133.427 97.0968C129.471 86.051 130.96 73.0782 137.519 61.5092C149.624 40.1395 175.379 29.8817 194.92 38.6362C203.177 42.338 209.427 49.1125 212.505 57.7081C216.461 68.7605 214.972 81.7267 208.413 93.2957L208.097 93.1434L208.413 93.2957C199.243 109.487 182.24 119.301 166.036 119.301ZM179.889 36.1662C163.951 36.1662 147.2 45.8544 138.174 61.8205C131.701 73.2305 130.262 86.0113 134.132 96.918C137.167 105.322 143.244 111.944 151.328 115.573C170.524 124.182 195.848 114.05 207.78 92.9911C214.253 81.5811 215.692 68.8003 211.822 57.8935C208.801 49.4635 202.688 42.8281 194.604 39.2058C190.014 37.1738 184.981 36.1341 179.889 36.1662Z" fill="#263238"/>
<path d="M182.965 82.0375C187.169 75.2098 186.104 67.3397 180.585 64.4591C175.067 61.5786 167.185 64.7783 162.981 71.6061C158.777 78.4338 159.843 86.3039 165.361 89.1845C170.88 92.065 178.761 88.8652 182.965 82.0375Z" fill="#FF725E"/>
<path d="M167.282 104.42C164.121 104.451 161 103.769 158.191 102.433C153.459 100.142 150.078 96.1887 148.417 91.0036C146.08 83.6861 147.496 74.9779 152.308 67.1174C160.716 53.383 177.006 46.7873 188.622 52.4161C193.354 54.7074 196.735 58.6542 198.396 63.8394C200.741 71.1635 199.324 79.8651 194.505 87.7256C188.14 98.1092 177.244 104.42 167.282 104.42ZM179.387 55.6544C171.526 55.6544 162.65 61.0118 157.321 69.7133C153.322 76.2361 152.064 83.6198 153.941 89.5003C155.149 93.2816 157.537 96.1225 160.867 97.7383C169.756 102.043 182.602 96.4139 189.499 85.1165C193.491 78.5936 194.757 71.2099 192.872 65.336C191.664 61.5548 189.276 58.7138 185.946 57.098C183.921 56.1297 181.669 55.634 179.387 55.6544Z" fill="#FF725E"/>
<path d="M166.06 114.879C160.935 114.919 155.885 113.744 151.395 111.468C144.397 107.872 139.312 101.667 137.082 93.9857C134.119 83.7875 136.262 72.0199 142.973 61.6893C155.128 42.9684 178.654 34.7371 195.419 43.3459C202.417 46.9351 207.502 53.1467 209.731 60.8284C212.687 71.02 210.53 82.8074 203.848 93.1248C194.966 106.8 180.006 114.879 166.06 114.879ZM180.66 45.1935C168.728 45.1935 155.725 52.3653 147.907 64.3978C141.995 73.5099 140.074 83.7875 142.642 92.6082C144.49 98.9854 148.489 103.899 154.2 106.833C168.268 114.057 188.334 106.687 198.907 90.3964C204.819 81.291 206.739 71.0067 204.179 62.1926C202.323 55.8154 198.324 50.8952 192.621 47.9615C188.956 46.1131 184.838 45.1601 180.66 45.1935Z" fill="#FF725E"/>
<path d="M113.944 40.3004L112.196 35.1549L114.073 33.208L120.122 34.2079L127.883 43.4194L126.207 45.512L113.944 40.3004Z" fill="#455A64"/>
<path d="M108.981 32.7821L170.798 78.4751C170.935 78.5764 171.094 78.6499 171.264 78.6908C171.434 78.7316 171.612 78.7388 171.785 78.7118C171.958 78.6849 172.123 78.6246 172.269 78.5347C172.415 78.4448 172.539 78.3274 172.632 78.1903C172.757 78.086 172.857 77.9588 172.926 77.8168C172.994 77.6748 173.029 77.5212 173.029 77.3659C173.029 77.2105 172.994 77.0569 172.926 76.9149C172.857 76.7729 172.757 76.6457 172.632 76.5414L110.858 30.8484C110.706 30.7353 110.53 30.6512 110.342 30.6009C110.154 30.5507 109.957 30.5352 109.762 30.5556C109.568 30.5759 109.379 30.6315 109.208 30.7193C109.037 30.8071 108.887 30.9252 108.765 31.0669C108.557 31.3242 108.463 31.6451 108.503 31.9639C108.543 32.2828 108.714 32.5755 108.981 32.7821Z" fill="#263238"/>
<path d="M172.79 73.7588C173.094 74.0727 173.292 74.4618 173.358 74.8779C173.605 75.876 173.435 76.9229 172.884 77.8116C172.322 78.6923 171.437 79.3593 170.388 79.6923C169.973 79.8617 169.514 79.9213 169.064 79.8644C169.064 79.8048 169.568 79.7585 170.294 79.4671C171.238 79.0902 172.03 78.4512 172.56 77.6394C173.064 76.8152 173.251 75.8587 173.092 74.9243C172.977 74.1959 172.733 73.7853 172.79 73.7588Z" fill="#263238"/>
</g>
<defs>
<linearGradient id="paint0_linear_964_44529" x1="-78.7343" y1="-239.585" x2="429.039" y2="-202.405" gradientUnits="userSpaceOnUse">
<stop stop-color="#33458D"/>
<stop offset="0.4375" stop-color="#C06B29"/>
<stop offset="1" stop-color="#21093A"/>
</linearGradient>
<clipPath id="clip0_964_44529">
<rect y="0.527344" width="336" height="337" rx="20" fill="white"/>
</clipPath>
</defs>
</svg>
