<svg width="23" height="23" viewBox="0 0 23 23" fill="none" xmlns="http://www.w3.org/2000/svg">
<path fill-rule="evenodd" clip-rule="evenodd" d="M22.0766 15.0379H17.7616C15.7394 15.0379 14.0936 13.2674 14.0925 11.0918C14.0925 8.91393 15.7384 7.14226 17.7616 7.14111H22.0766C22.5179 7.14111 22.876 7.52666 22.876 8.0017C22.876 8.47675 22.5179 8.86229 22.0766 8.86229H17.7616C16.6199 8.86344 15.6915 9.86287 15.6915 11.0906C15.6915 12.3173 16.621 13.3167 17.7616 13.3167H22.0766C22.5179 13.3167 22.876 13.7022 22.876 14.1773C22.876 14.6523 22.5179 15.0379 22.0766 15.0379Z" fill="white"/>
<path d="M22.0766 15.0379H17.7616C15.7394 15.0379 14.0936 13.2674 14.0925 11.0918C14.0925 8.91393 15.7384 7.14226 17.7616 7.14111H22.0766C22.5179 7.14111 22.876 7.52666 22.876 8.0017C22.876 8.47675 22.5179 8.86229 22.0766 8.86229H17.7616C16.6199 8.86344 15.6915 9.86287 15.6915 11.0906C15.6915 12.3173 16.621 13.3167 17.7616 13.3167H22.0766C22.5179 13.3167 22.876 13.7022 22.876 14.1773C22.876 14.6523 22.5179 15.0379 22.0766 15.0379" stroke="current" stroke-width="0.2"/>
<path fill-rule="evenodd" clip-rule="evenodd" d="M18.2492 11.8799H17.9167C17.4753 11.8799 17.1172 11.4943 17.1172 11.0193C17.1172 10.5442 17.4753 10.1587 17.9167 10.1587H18.2492C18.6905 10.1587 19.0487 10.5442 19.0487 11.0193C19.0487 11.4943 18.6905 11.8799 18.2492 11.8799Z" fill="white"/>
<path d="M18.2492 11.8799H17.9167C17.4753 11.8799 17.1172 11.4943 17.1172 11.0193C17.1172 10.5442 17.4753 10.1587 17.9167 10.1587H18.2492C18.6905 10.1587 19.0487 10.5442 19.0487 11.0193C19.0487 11.4943 18.6905 11.8799 18.2492 11.8799" stroke="current" stroke-width="0.2"/>
<mask id="mask0_550_863" style="mask-type:alpha" maskUnits="userSpaceOnUse" x="0" y="0" width="23" height="23">
<path fill-rule="evenodd" clip-rule="evenodd" d="M0.875977 0.240723H22.8759V22.2407H0.875977V0.240723Z" fill="white" stroke="current" stroke-width="0.2"/>
</mask>
<g mask="url(#mask0_550_863)">
<path fill-rule="evenodd" clip-rule="evenodd" d="M7.26911 1.9619C4.62553 1.9619 2.47443 4.27746 2.47443 7.12315V15.3584C2.47443 18.2041 4.62553 20.5197 7.26911 20.5197H16.4833C19.1268 20.5197 21.2769 18.2041 21.2769 15.3584V7.12315C21.2769 4.27746 19.1268 1.9619 16.4833 1.9619H7.26911ZM16.4833 22.2408H7.26911C3.74398 22.2408 0.875488 19.153 0.875488 15.3584V7.12315C0.875488 3.32737 3.74398 0.240723 7.26911 0.240723H16.4833C20.0084 0.240723 22.8758 3.32737 22.8758 7.12315V15.3584C22.8758 19.153 20.0084 22.2408 16.4833 22.2408Z" fill="white"/>
<path d="M7.26911 1.8619C4.56349 1.8619 2.37443 4.2293 2.37443 7.12315H2.57443C2.57443 4.32563 4.68757 2.0619 7.26911 2.0619V1.8619ZM2.37443 7.12315V15.3584H2.57443V7.12315H2.37443ZM2.37443 15.3584C2.37443 18.2523 4.56349 20.6197 7.26911 20.6197V20.4197C4.68757 20.4197 2.57443 18.1559 2.57443 15.3584H2.37443ZM7.26911 20.6197H16.4833V20.4197H7.26911V20.6197ZM16.4833 20.6197C19.1889 20.6197 21.3769 18.2522 21.3769 15.3584H21.1769C21.1769 18.156 19.0648 20.4197 16.4833 20.4197V20.6197ZM21.3769 15.3584V7.12315H21.1769V15.3584H21.3769ZM21.3769 7.12315C21.3769 4.22933 19.1889 1.8619 16.4833 1.8619V2.0619C19.0648 2.0619 21.1769 4.3256 21.1769 7.12315H21.3769ZM16.4833 1.8619H7.26911V2.0619H16.4833V1.8619ZM16.4833 22.1408H7.26911V22.3408H16.4833V22.1408ZM7.26911 22.1408C3.80602 22.1408 0.975488 19.1049 0.975488 15.3584H0.775488C0.775488 19.2012 3.68194 22.3408 7.26911 22.3408V22.1408ZM0.975488 15.3584V7.12315H0.775488V15.3584H0.975488ZM0.975488 7.12315C0.975488 3.37555 3.80601 0.340723 7.26911 0.340723V0.140723C3.68195 0.140723 0.775488 3.2792 0.775488 7.12315H0.975488ZM7.26911 0.340723H16.4833V0.140723H7.26911V0.340723ZM16.4833 0.340723C19.9463 0.340723 22.7758 3.37552 22.7758 7.12315H22.9758C22.9758 3.27922 20.0704 0.140723 16.4833 0.140723V0.340723ZM22.7758 7.12315V15.3584H22.9758V7.12315H22.7758ZM22.7758 15.3584C22.7758 19.1049 19.9463 22.1408 16.4833 22.1408V22.3408C20.0704 22.3408 22.9758 19.2012 22.9758 15.3584H22.7758Z" fill="white"/>
</g>
<path fill-rule="evenodd" clip-rule="evenodd" d="M12.2653 7.16918H6.51016C6.06886 7.16918 5.71069 6.78363 5.71069 6.30859C5.71069 5.83354 6.06886 5.448 6.51016 5.448H12.2653C12.7066 5.448 13.0647 5.83354 13.0647 6.30859C13.0647 6.78363 12.7066 7.16918 12.2653 7.16918Z" fill="white"/>
<path d="M12.2653 7.16918H6.51016C6.06886 7.16918 5.71069 6.78363 5.71069 6.30859C5.71069 5.83354 6.06886 5.448 6.51016 5.448H12.2653C12.7066 5.448 13.0647 5.83354 13.0647 6.30859C13.0647 6.78363 12.7066 7.16918 12.2653 7.16918" stroke="current" stroke-width="0.2"/>
</svg>
