<svg width="259" height="258" viewBox="0 0 259 258" fill="none" xmlns="http://www.w3.org/2000/svg">
<path d="M5.373 87.1086H0.587891V31.5038C0.587891 14.4559 14.5384 0.573402 31.6791 0.573402H87.6241V5.33384H31.6791C17.181 5.33384 5.373 17.0729 5.373 31.5038V87.1086Z" fill="white"/>
<path d="M87.6154 257.112H31.6703C14.5297 257.112 0.579102 243.23 0.579102 226.182V170.552H5.36421V226.182C5.36421 240.613 17.1722 252.352 31.6703 252.352H87.6154V257.112Z" fill="white"/>
<path d="M258.521 87.1085H253.736V31.5036C253.736 17.0728 241.928 5.33371 227.43 5.33371H171.509V0.573265H227.43C244.57 0.573265 258.521 14.4309 258.521 31.5036V87.1085Z" fill="white"/>
<path d="M227.432 257.112H171.511V252.352H227.432C241.93 252.352 253.738 240.612 253.738 226.182V170.552H258.523V226.182C258.523 243.229 244.596 257.112 227.432 257.112Z" fill="white"/>
</svg>
