<svg width="515" height="457" viewBox="0 0 515 457" fill="none" xmlns="http://www.w3.org/2000/svg">
<path d="M0.571289 60.7635C0.571289 27.6264 27.4342 0.76355 60.5713 0.76355H454.532C487.669 0.76355 514.532 27.6265 514.532 60.7635V396.921C514.532 430.059 487.669 456.921 454.532 456.921H60.5713C27.4342 456.921 0.571289 430.059 0.571289 396.921V60.7635Z" fill="#8EA8DD"/>
<g opacity="0.5">
<path fill-rule="evenodd" clip-rule="evenodd" d="M305.825 184.316C305.825 212.088 284.352 234.356 257.552 234.356C230.76 234.356 209.278 212.088 209.278 184.316C209.278 156.545 230.76 134.286 257.552 134.286C284.352 134.286 305.825 156.545 305.825 184.316ZM257.552 323.398C217.999 323.398 184.603 316.731 184.603 291.012C184.603 265.283 218.209 258.853 257.552 258.853C297.114 258.853 330.501 265.52 330.501 291.239C330.501 316.968 296.895 323.398 257.552 323.398Z" fill="white"/>
<path d="M133.373 187.109H128.588V131.504C128.588 114.456 142.538 100.573 159.679 100.573H215.624V105.334H159.679C145.181 105.334 133.373 117.073 133.373 131.504V187.109Z" fill="white"/>
<path d="M215.615 357.112H159.67C142.53 357.112 128.579 343.23 128.579 326.182V270.552H133.364V326.182C133.364 340.613 145.172 352.352 159.67 352.352H215.615V357.112Z" fill="white"/>
<path d="M386.521 187.108H381.736V131.504C381.736 117.073 369.928 105.334 355.43 105.334H299.509V100.573H355.43C372.57 100.573 386.521 114.431 386.521 131.504V187.108Z" fill="white"/>
<path d="M355.432 357.112H299.511V352.351H355.432C369.93 352.351 381.738 340.612 381.738 326.182V270.552H386.523V326.182C386.523 343.229 372.596 357.112 355.432 357.112Z" fill="white"/>
</g>
</svg>
