<svg width="217" height="166" viewBox="0 0 217 166" fill="none" xmlns="http://www.w3.org/2000/svg">
<g filter="url(#filter0_d_77_11637)">
<rect x="4.07312" y="0.227539" width="208.852" height="157.76" rx="10" fill="url(#paint0_radial_77_11637)"/>
</g>
<path d="M47.8644 110.856H49.8644V123.116H57.4444V124.856H47.8644V110.856ZM63.8627 124.976C62.8093 124.976 61.8627 124.743 61.0227 124.276C60.1827 123.81 59.5227 123.17 59.0427 122.356C58.576 121.53 58.3427 120.596 58.3427 119.556C58.3427 118.516 58.576 117.59 59.0427 116.776C59.5227 115.95 60.1827 115.31 61.0227 114.856C61.8627 114.39 62.8093 114.156 63.8627 114.156C64.916 114.156 65.856 114.39 66.6827 114.856C67.5227 115.31 68.176 115.95 68.6427 116.776C69.1227 117.59 69.3627 118.516 69.3627 119.556C69.3627 120.596 69.1227 121.53 68.6427 122.356C68.176 123.17 67.5227 123.81 66.6827 124.276C65.856 124.743 64.916 124.976 63.8627 124.976ZM63.8627 123.296C64.5427 123.296 65.1493 123.143 65.6827 122.836C66.2293 122.516 66.656 122.076 66.9627 121.516C67.2693 120.943 67.4227 120.29 67.4227 119.556C67.4227 118.823 67.2693 118.176 66.9627 117.616C66.656 117.043 66.2293 116.603 65.6827 116.296C65.1493 115.99 64.5427 115.836 63.8627 115.836C63.1827 115.836 62.5693 115.99 62.0227 116.296C61.4893 116.603 61.0627 117.043 60.7427 117.616C60.436 118.176 60.2827 118.823 60.2827 119.556C60.2827 120.29 60.436 120.943 60.7427 121.516C61.0627 122.076 61.4893 122.516 62.0227 122.836C62.5693 123.143 63.1827 123.296 63.8627 123.296ZM75.7803 114.156C77.247 114.156 78.367 114.516 79.1403 115.236C79.927 115.956 80.3203 117.03 80.3203 118.456V124.856H78.5003V123.456C78.1803 123.95 77.7203 124.33 77.1203 124.596C76.5337 124.85 75.8337 124.976 75.0203 124.976C73.8337 124.976 72.8803 124.69 72.1603 124.116C71.4537 123.543 71.1003 122.79 71.1003 121.856C71.1003 120.923 71.4403 120.176 72.1203 119.616C72.8003 119.043 73.8803 118.756 75.3603 118.756H78.4003V118.376C78.4003 117.55 78.1603 116.916 77.6803 116.476C77.2003 116.036 76.4937 115.816 75.5603 115.816C74.9337 115.816 74.3203 115.923 73.7203 116.136C73.1203 116.336 72.6137 116.61 72.2003 116.956L71.4003 115.516C71.947 115.076 72.6003 114.743 73.3603 114.516C74.1203 114.276 74.927 114.156 75.7803 114.156ZM75.3403 123.496C76.0737 123.496 76.707 123.336 77.2403 123.016C77.7737 122.683 78.1603 122.216 78.4003 121.616V120.136H75.4403C73.8137 120.136 73.0003 120.683 73.0003 121.776C73.0003 122.31 73.207 122.73 73.6203 123.036C74.0337 123.343 74.607 123.496 75.3403 123.496ZM89.5335 114.156C90.8801 114.156 91.9468 114.55 92.7335 115.336C93.5335 116.11 93.9335 117.25 93.9335 118.756V124.856H92.0135V118.976C92.0135 117.95 91.7668 117.176 91.2735 116.656C90.7801 116.136 90.0735 115.876 89.1535 115.876C88.1135 115.876 87.2935 116.183 86.6935 116.796C86.0935 117.396 85.7935 118.263 85.7935 119.396V124.856H83.8735V114.256H85.7135V115.856C86.1001 115.31 86.6201 114.89 87.2735 114.596C87.9401 114.303 88.6935 114.156 89.5335 114.156ZM103.138 110.856H109.038C110.518 110.856 111.831 111.15 112.978 111.736C114.124 112.323 115.011 113.15 115.638 114.216C116.278 115.27 116.598 116.483 116.598 117.856C116.598 119.23 116.278 120.45 115.638 121.516C115.011 122.57 114.124 123.39 112.978 123.976C111.831 124.563 110.518 124.856 109.038 124.856H103.138V110.856ZM108.918 123.116C110.051 123.116 111.044 122.896 111.898 122.456C112.764 122.016 113.431 121.403 113.898 120.616C114.364 119.816 114.598 118.896 114.598 117.856C114.598 116.816 114.364 115.903 113.898 115.116C113.431 114.316 112.764 113.696 111.898 113.256C111.044 112.816 110.051 112.596 108.918 112.596H105.138V123.116H108.918ZM128.961 119.616C128.961 119.763 128.948 119.956 128.921 120.196H120.321C120.441 121.13 120.848 121.883 121.541 122.456C122.248 123.016 123.121 123.296 124.161 123.296C125.428 123.296 126.448 122.87 127.221 122.016L128.281 123.256C127.801 123.816 127.201 124.243 126.481 124.536C125.775 124.83 124.981 124.976 124.101 124.976C122.981 124.976 121.988 124.75 121.121 124.296C120.255 123.83 119.581 123.183 119.101 122.356C118.635 121.53 118.401 120.596 118.401 119.556C118.401 118.53 118.628 117.603 119.081 116.776C119.548 115.95 120.181 115.31 120.981 114.856C121.795 114.39 122.708 114.156 123.721 114.156C124.735 114.156 125.635 114.39 126.421 114.856C127.221 115.31 127.841 115.95 128.281 116.776C128.735 117.603 128.961 118.55 128.961 119.616ZM123.721 115.776C122.801 115.776 122.028 116.056 121.401 116.616C120.788 117.176 120.428 117.91 120.321 118.816H127.121C127.015 117.923 126.648 117.196 126.021 116.636C125.408 116.063 124.641 115.776 123.721 115.776ZM137.587 124.236C137.307 124.476 136.961 124.663 136.547 124.796C136.134 124.916 135.707 124.976 135.267 124.976C134.201 124.976 133.374 124.69 132.787 124.116C132.201 123.543 131.907 122.723 131.907 121.656V115.836H130.107V114.256H131.907V111.936H133.827V114.256H136.867V115.836H133.827V121.576C133.827 122.15 133.967 122.59 134.247 122.896C134.541 123.203 134.954 123.356 135.487 123.356C136.074 123.356 136.574 123.19 136.987 122.856L137.587 124.236ZM143.769 114.156C145.235 114.156 146.355 114.516 147.129 115.236C147.915 115.956 148.309 117.03 148.309 118.456V124.856H146.489V123.456C146.169 123.95 145.709 124.33 145.109 124.596C144.522 124.85 143.822 124.976 143.009 124.976C141.822 124.976 140.869 124.69 140.149 124.116C139.442 123.543 139.089 122.79 139.089 121.856C139.089 120.923 139.429 120.176 140.109 119.616C140.789 119.043 141.869 118.756 143.349 118.756H146.389V118.376C146.389 117.55 146.149 116.916 145.669 116.476C145.189 116.036 144.482 115.816 143.549 115.816C142.922 115.816 142.309 115.923 141.709 116.136C141.109 116.336 140.602 116.61 140.189 116.956L139.389 115.516C139.935 115.076 140.589 114.743 141.349 114.516C142.109 114.276 142.915 114.156 143.769 114.156ZM143.329 123.496C144.062 123.496 144.695 123.336 145.229 123.016C145.762 122.683 146.149 122.216 146.389 121.616V120.136H143.429C141.802 120.136 140.989 120.683 140.989 121.776C140.989 122.31 141.195 122.73 141.609 123.036C142.022 123.343 142.595 123.496 143.329 123.496ZM151.862 114.256H153.782V124.856H151.862V114.256ZM152.822 112.216C152.448 112.216 152.135 112.096 151.882 111.856C151.642 111.616 151.522 111.323 151.522 110.976C151.522 110.63 151.642 110.336 151.882 110.096C152.135 109.843 152.448 109.716 152.822 109.716C153.195 109.716 153.502 109.836 153.742 110.076C153.995 110.303 154.122 110.59 154.122 110.936C154.122 111.296 153.995 111.603 153.742 111.856C153.502 112.096 153.195 112.216 152.822 112.216ZM157.448 110.016H159.368V124.856H157.448V110.016ZM166.074 124.976C165.207 124.976 164.374 124.863 163.574 124.636C162.774 124.396 162.147 124.096 161.694 123.736L162.494 122.216C162.96 122.55 163.527 122.816 164.194 123.016C164.86 123.216 165.534 123.316 166.214 123.316C167.894 123.316 168.734 122.836 168.734 121.876C168.734 121.556 168.62 121.303 168.394 121.116C168.167 120.93 167.88 120.796 167.534 120.716C167.2 120.623 166.72 120.523 166.094 120.416C165.24 120.283 164.54 120.13 163.994 119.956C163.46 119.783 163 119.49 162.614 119.076C162.227 118.663 162.034 118.083 162.034 117.336C162.034 116.376 162.434 115.61 163.234 115.036C164.034 114.45 165.107 114.156 166.454 114.156C167.16 114.156 167.867 114.243 168.574 114.416C169.28 114.59 169.86 114.823 170.314 115.116L169.494 116.636C168.627 116.076 167.607 115.796 166.434 115.796C165.62 115.796 165 115.93 164.574 116.196C164.147 116.463 163.934 116.816 163.934 117.256C163.934 117.603 164.054 117.876 164.294 118.076C164.534 118.276 164.827 118.423 165.174 118.516C165.534 118.61 166.034 118.716 166.674 118.836C167.527 118.983 168.214 119.143 168.734 119.316C169.267 119.476 169.72 119.756 170.094 120.156C170.467 120.556 170.654 121.116 170.654 121.836C170.654 122.796 170.24 123.563 169.414 124.136C168.6 124.696 167.487 124.976 166.074 124.976Z" fill="white"/>
<path d="M104.287 33.2275C101.96 33.2275 100.074 35.0047 100.074 37.197C100.074 39.3892 101.96 41.1664 104.287 41.1664H112.712C115.038 41.1664 116.924 39.3892 116.924 37.197C116.924 35.0047 115.038 33.2275 112.712 33.2275H104.287Z" fill="white"/>
<path fill-rule="evenodd" clip-rule="evenodd" d="M83.2235 45.1359C83.2235 40.7513 86.9956 37.197 91.6487 37.197C91.6487 43.7738 97.3069 49.1053 104.287 49.1053H112.712C119.691 49.1053 125.35 43.7738 125.35 37.197C130.003 37.197 133.775 40.7513 133.775 45.1359V88.7997C133.775 93.1842 130.003 96.7386 125.35 96.7386H91.6487C86.9956 96.7386 83.2235 93.1842 83.2235 88.7997V45.1359ZM95.8613 61.0136C93.5348 61.0136 91.6487 62.7908 91.6487 64.9831C91.6487 67.1753 93.5348 68.9525 95.8613 68.9525H95.9034C98.23 68.9525 100.116 67.1753 100.116 64.9831C100.116 62.7908 98.23 61.0136 95.9034 61.0136H95.8613ZM108.499 61.0136C106.173 61.0136 104.287 62.7908 104.287 64.9831C104.287 67.1753 106.173 68.9525 108.499 68.9525H121.137C123.463 68.9525 125.35 67.1753 125.35 64.9831C125.35 62.7908 123.463 61.0136 121.137 61.0136H108.499ZM95.8613 76.8914C93.5348 76.8914 91.6487 78.6686 91.6487 80.8608C91.6487 83.0531 93.5348 84.8303 95.8613 84.8303H95.9034C98.23 84.8303 100.116 83.0531 100.116 80.8608C100.116 78.6686 98.23 76.8914 95.9034 76.8914H95.8613ZM108.499 76.8914C106.173 76.8914 104.287 78.6686 104.287 80.8608C104.287 83.0531 106.173 84.8303 108.499 84.8303H121.137C123.463 84.8303 125.35 83.0531 125.35 80.8608C125.35 78.6686 123.463 76.8914 121.137 76.8914H108.499Z" fill="white"/>
<defs>
<filter id="filter0_d_77_11637" x="0.0731201" y="0.227539" width="216.852" height="165.76" filterUnits="userSpaceOnUse" color-interpolation-filters="sRGB">
<feFlood flood-opacity="0" result="BackgroundImageFix"/>
<feColorMatrix in="SourceAlpha" type="matrix" values="0 0 0 0 0 0 0 0 0 0 0 0 0 0 0 0 0 0 127 0" result="hardAlpha"/>
<feOffset dy="4"/>
<feGaussianBlur stdDeviation="2"/>
<feComposite in2="hardAlpha" operator="out"/>
<feColorMatrix type="matrix" values="0 0 0 0 0 0 0 0 0 0 0 0 0 0 0 0 0 0 0.25 0"/>
<feBlend mode="normal" in2="BackgroundImageFix" result="effect1_dropShadow_77_11637"/>
<feBlend mode="normal" in="SourceGraphic" in2="effect1_dropShadow_77_11637" result="shape"/>
</filter>
<radialGradient id="paint0_radial_77_11637" cx="0" cy="0" r="1" gradientUnits="userSpaceOnUse" gradientTransform="translate(110.971 -95.0955) rotate(89.4057) scale(236.913 313.615)">
<stop stop-color="#8EA8DD"/>
<stop offset="0.51875" stop-color="#3B58A8"/>
<stop offset="1" stop-color="#21093A"/>
</radialGradient>
</defs>
</svg>
