<svg width="27" height="34" viewBox="0 0 27 34" fill="none" xmlns="http://www.w3.org/2000/svg">
<path d="M26.6311 6.32007C26.6353 6.34638 26.6353 6.37321 26.6311 6.39953C26.6311 6.46171 26.6311 6.53772 26.6311 6.631C26.6311 6.8521 26.6483 7.14921 26.6621 7.52578C26.676 7.90234 26.6967 8.38601 26.6621 8.93877C26.6621 9.21515 26.6621 9.5088 26.6345 9.81973C26.6345 9.97865 26.6345 10.1376 26.6345 10.3034C26.6345 10.4692 26.6034 10.6489 26.5861 10.8112C26.517 11.5022 26.4721 12.2622 26.327 13.0672C26.2614 13.4679 26.2096 13.8894 26.1267 14.3144C26.0437 14.7393 25.9401 15.178 25.8434 15.6272C25.3871 17.569 24.7522 19.4646 23.9467 21.2895C23.1237 23.1061 22.141 24.8461 21.0102 26.4889C20.4643 27.2282 19.9738 27.9433 19.421 28.5617C19.155 28.8727 18.9131 29.187 18.654 29.4634L17.9078 30.258C17.4449 30.7762 16.9681 31.1873 16.5708 31.5708C16.367 31.7574 16.1839 31.937 16.0077 32.0925L15.524 32.4829L14.8331 33.0494L14.65 33.1945C14.6085 33.2256 14.5844 33.2395 14.5844 33.236C14.5844 33.2325 14.5843 33.2153 14.6362 33.1773L14.8089 33.0218L15.4757 32.431L15.9628 32.0061C16.139 31.8506 16.3083 31.6606 16.5156 31.4741C16.9059 31.0871 17.3723 30.6726 17.8284 30.1509L18.5642 29.3494C18.8199 29.073 19.0582 28.7586 19.3174 28.4477C19.8528 27.8328 20.3538 27.1176 20.8858 26.3749C22.0055 24.7355 22.98 23.0016 23.7982 21.1928C24.5966 19.377 25.2313 17.4936 25.6948 15.565C25.795 15.1193 25.8883 14.684 25.985 14.2625C26.0817 13.8411 26.1232 13.4196 26.1923 13.0188C26.3443 12.2173 26.3961 11.4607 26.4721 10.7732C26.4929 10.604 26.5101 10.4278 26.5274 10.2723C26.5447 10.1168 26.5274 9.94755 26.5481 9.79209C26.562 9.48116 26.5758 9.18751 26.5896 8.91113C26.6276 8.36182 26.6172 7.87471 26.6172 7.50159V6.63445V6.39953C26.6166 6.37239 26.6213 6.34539 26.6311 6.32007V6.32007Z" fill="#263238"/>
<path d="M13.845 15.3817H12.0934V5.8501C12.0626 4.79173 11.6205 3.78705 10.8609 3.04934C10.1014 2.31163 9.08427 1.89897 8.02545 1.89897C6.96663 1.89897 5.9495 2.31163 5.18997 3.04934C4.43045 3.78705 3.98834 4.79173 3.95749 5.8501V15.3817H2.20593V5.8501C2.24294 4.33122 2.87232 2.88699 3.95966 1.82582C5.04699 0.764659 6.50612 0.170654 8.02545 0.170654C9.54479 0.170654 11.0039 0.764659 12.0913 1.82582C13.1786 2.88699 13.808 4.33122 13.845 5.8501V15.3817Z" fill="#F5F5F5"/>
<path d="M13.8623 8.91467H2.19215C1.0836 8.91467 0.184937 9.81333 0.184937 10.9219V19.1995C0.184937 20.308 1.0836 21.2067 2.19215 21.2067H13.8623C14.9708 21.2067 15.8695 20.308 15.8695 19.1995V10.9219C15.8695 9.81333 14.9708 8.91467 13.8623 8.91467Z" fill="white"/>
<path d="M13.8623 21.2065C14.038 21.188 14.2122 21.158 14.384 21.1167C14.8025 20.9959 15.17 20.7414 15.4301 20.392C15.6903 20.0426 15.8288 19.6176 15.8246 19.1821C15.8246 18.7779 15.8246 18.3391 15.8246 17.8658C15.8246 16.9227 15.8246 15.8482 15.8246 14.6598C15.8246 13.4714 15.8246 12.1758 15.8246 10.7801C15.7986 10.4323 15.6789 10.0979 15.4782 9.81264C15.2774 9.52736 15.0032 9.30177 14.6845 9.15984C14.3447 9.01992 13.9763 8.96307 13.6101 8.99401H12.4493L2.19217 8.99055C1.76103 8.9904 1.34242 9.13556 1.00393 9.40259C0.665435 9.66962 0.426821 10.0429 0.326609 10.4623C0.281782 10.671 0.263211 10.8846 0.271332 11.0979V13.043C0.271332 14.7703 0.271332 16.401 0.271332 17.9729C0.302425 18.7537 0.140051 19.5586 0.540802 20.1736C0.718223 20.4756 0.974065 20.7241 1.28121 20.8925C1.58836 21.061 1.93536 21.1433 2.28545 21.1305H6.17204L11.7998 21.1616H13.3268H13.7241C13.7701 21.1573 13.8163 21.1573 13.8623 21.1616C13.8164 21.1668 13.77 21.1668 13.7241 21.1616H13.3268H11.7998L6.17204 21.1893H2.28545C2 21.2021 1.71495 21.1562 1.44792 21.0545C1.18088 20.9528 0.937538 20.7974 0.732915 20.598C0.528292 20.3986 0.366737 20.1593 0.25823 19.8949C0.149722 19.6306 0.0965679 19.3468 0.10205 19.0611V17.9729C0.10205 16.401 0.10205 14.7531 0.10205 13.043V11.1118C0.091671 10.8799 0.111412 10.6476 0.16078 10.4208C0.273035 9.96805 0.534732 9.56637 0.903551 9.28075C1.27541 8.98662 1.73533 8.82602 2.20945 8.82473H12.4286H13.5894C13.9788 8.79499 14.3698 8.85896 14.7294 9.01128C15.0731 9.16471 15.3685 9.40881 15.584 9.71738C15.7994 10.026 15.9268 10.3874 15.9524 10.7628C15.9524 12.1724 15.9524 13.4645 15.9524 14.6529C15.9524 15.8413 15.9524 16.9157 15.9524 17.8589C15.9524 18.3322 15.9524 18.7709 15.9524 19.1751C15.9528 19.5535 15.8475 19.9244 15.6484 20.2461C15.3775 20.6929 14.9421 21.0154 14.4358 21.1444C14.2502 21.2007 14.0557 21.2218 13.8623 21.2065V21.2065Z" fill="#263238"/>
<path d="M9.22945 15.3784C9.38757 15.2207 9.51293 15.0333 9.59831 14.8269C9.68369 14.6206 9.7274 14.3994 9.72693 14.1761C9.72896 13.8542 9.64101 13.5382 9.47303 13.2637C9.30504 12.9891 9.06368 12.767 8.77618 12.6223C8.48867 12.4776 8.16646 12.4161 7.84587 12.4447C7.52528 12.4734 7.21908 12.591 6.96178 12.7844C6.70448 12.9778 6.50633 13.2392 6.38967 13.5392C6.27301 13.8391 6.24249 14.1657 6.30154 14.4821C6.36059 14.7985 6.50687 15.0922 6.72387 15.3299C6.94088 15.5676 7.21998 15.7399 7.52971 15.8275L7.16005 17.465H8.80106L8.45558 15.8275C8.74232 15.7456 9.00297 15.5909 9.21217 15.3784" fill="#1A1746"/>
</svg>
