<svg width="218" height="166" viewBox="0 0 218 166" fill="none" xmlns="http://www.w3.org/2000/svg">
<g filter="url(#filter0_d_77_11633)">
<rect x="4.22119" y="0.227539" width="208.852" height="157.76" rx="10" fill="url(#paint0_radial_77_11633)"/>
</g>
<path d="M60.8198 124.856L57.7998 120.556C57.4265 120.583 57.1332 120.596 56.9198 120.596H53.4598V124.856H51.4598V110.856H56.9198C58.7332 110.856 60.1598 111.29 61.1998 112.156C62.2398 113.023 62.7598 114.216 62.7598 115.736C62.7598 116.816 62.4932 117.736 61.9598 118.496C61.4265 119.256 60.6665 119.81 59.6798 120.156L62.9998 124.856H60.8198ZM56.8598 118.896C58.1265 118.896 59.0932 118.623 59.7598 118.076C60.4265 117.53 60.7598 116.75 60.7598 115.736C60.7598 114.723 60.4265 113.95 59.7598 113.416C59.0932 112.87 58.1265 112.596 56.8598 112.596H53.4598V118.896H56.8598ZM75.2911 119.616C75.2911 119.763 75.2778 119.956 75.2511 120.196H66.6511C66.7711 121.13 67.1778 121.883 67.8711 122.456C68.5778 123.016 69.4511 123.296 70.4911 123.296C71.7578 123.296 72.7778 122.87 73.5511 122.016L74.6111 123.256C74.1311 123.816 73.5311 124.243 72.8111 124.536C72.1044 124.83 71.3111 124.976 70.4311 124.976C69.3111 124.976 68.3178 124.75 67.4511 124.296C66.5844 123.83 65.9111 123.183 65.4311 122.356C64.9644 121.53 64.7311 120.596 64.7311 119.556C64.7311 118.53 64.9578 117.603 65.4111 116.776C65.8778 115.95 66.5111 115.31 67.3111 114.856C68.1244 114.39 69.0378 114.156 70.0511 114.156C71.0644 114.156 71.9644 114.39 72.7511 114.856C73.5511 115.31 74.1711 115.95 74.6111 116.776C75.0644 117.603 75.2911 118.55 75.2911 119.616ZM70.0511 115.776C69.1311 115.776 68.3578 116.056 67.7311 116.616C67.1178 117.176 66.7578 117.91 66.6511 118.816H73.4511C73.3444 117.923 72.9778 117.196 72.3511 116.636C71.7378 116.063 70.9711 115.776 70.0511 115.776ZM83.5772 114.156C84.6039 114.156 85.5239 114.383 86.3372 114.836C87.1505 115.29 87.7839 115.923 88.2372 116.736C88.7039 117.55 88.9372 118.49 88.9372 119.556C88.9372 120.623 88.7039 121.57 88.2372 122.396C87.7839 123.21 87.1505 123.843 86.3372 124.296C85.5239 124.75 84.6039 124.976 83.5772 124.976C82.8172 124.976 82.1172 124.83 81.4772 124.536C80.8505 124.243 80.3172 123.816 79.8772 123.256V128.736H77.9572V114.256H79.7972V115.936C80.2239 115.35 80.7639 114.91 81.4172 114.616C82.0705 114.31 82.7905 114.156 83.5772 114.156ZM83.4172 123.296C84.0972 123.296 84.7039 123.143 85.2372 122.836C85.7839 122.516 86.2105 122.076 86.5172 121.516C86.8372 120.943 86.9972 120.29 86.9972 119.556C86.9972 118.823 86.8372 118.176 86.5172 117.616C86.2105 117.043 85.7839 116.603 85.2372 116.296C84.7039 115.99 84.0972 115.836 83.4172 115.836C82.7505 115.836 82.1439 115.996 81.5972 116.316C81.0639 116.623 80.6372 117.056 80.3172 117.616C80.0105 118.176 79.8572 118.823 79.8572 119.556C79.8572 120.29 80.0105 120.943 80.3172 121.516C80.6239 122.076 81.0505 122.516 81.5972 122.836C82.1439 123.143 82.7505 123.296 83.4172 123.296ZM95.3523 114.156C96.819 114.156 97.939 114.516 98.7123 115.236C99.499 115.956 99.8923 117.03 99.8923 118.456V124.856H98.0723V123.456C97.7523 123.95 97.2923 124.33 96.6923 124.596C96.1057 124.85 95.4057 124.976 94.5923 124.976C93.4057 124.976 92.4523 124.69 91.7323 124.116C91.0257 123.543 90.6723 122.79 90.6723 121.856C90.6723 120.923 91.0123 120.176 91.6923 119.616C92.3723 119.043 93.4523 118.756 94.9323 118.756H97.9723V118.376C97.9723 117.55 97.7323 116.916 97.2523 116.476C96.7723 116.036 96.0657 115.816 95.1323 115.816C94.5057 115.816 93.8923 115.923 93.2923 116.136C92.6923 116.336 92.1857 116.61 91.7723 116.956L90.9723 115.516C91.519 115.076 92.1723 114.743 92.9323 114.516C93.6923 114.276 94.499 114.156 95.3523 114.156ZM94.9123 123.496C95.6457 123.496 96.279 123.336 96.8123 123.016C97.3457 122.683 97.7323 122.216 97.9723 121.616V120.136H95.0123C93.3857 120.136 92.5723 120.683 92.5723 121.776C92.5723 122.31 92.779 122.73 93.1923 123.036C93.6057 123.343 94.179 123.496 94.9123 123.496ZM112.63 114.256L107.49 125.916C107.037 126.996 106.503 127.756 105.89 128.196C105.29 128.636 104.563 128.856 103.71 128.856C103.19 128.856 102.683 128.77 102.19 128.596C101.71 128.436 101.31 128.196 100.99 127.876L101.81 126.436C102.357 126.956 102.99 127.216 103.71 127.216C104.177 127.216 104.563 127.09 104.87 126.836C105.19 126.596 105.477 126.176 105.73 125.576L106.07 124.836L101.39 114.256H103.39L107.09 122.736L110.75 114.256H112.63ZM127.682 114.156C129.015 114.156 130.069 114.543 130.842 115.316C131.629 116.09 132.022 117.236 132.022 118.756V124.856H130.102V118.976C130.102 117.95 129.862 117.176 129.382 116.656C128.915 116.136 128.242 115.876 127.362 115.876C126.389 115.876 125.615 116.183 125.042 116.796C124.469 117.396 124.182 118.263 124.182 119.396V124.856H122.262V118.976C122.262 117.95 122.022 117.176 121.542 116.656C121.075 116.136 120.402 115.876 119.522 115.876C118.549 115.876 117.775 116.183 117.202 116.796C116.629 117.396 116.342 118.263 116.342 119.396V124.856H114.422V114.256H116.262V115.836C116.649 115.29 117.155 114.876 117.782 114.596C118.409 114.303 119.122 114.156 119.922 114.156C120.749 114.156 121.482 114.323 122.122 114.656C122.762 114.99 123.255 115.476 123.602 116.116C124.002 115.503 124.555 115.023 125.262 114.676C125.982 114.33 126.789 114.156 127.682 114.156ZM145.193 119.616C145.193 119.763 145.18 119.956 145.153 120.196H136.553C136.673 121.13 137.08 121.883 137.773 122.456C138.48 123.016 139.353 123.296 140.393 123.296C141.66 123.296 142.68 122.87 143.453 122.016L144.513 123.256C144.033 123.816 143.433 124.243 142.713 124.536C142.007 124.83 141.213 124.976 140.333 124.976C139.213 124.976 138.22 124.75 137.353 124.296C136.487 123.83 135.813 123.183 135.333 122.356C134.867 121.53 134.633 120.596 134.633 119.556C134.633 118.53 134.86 117.603 135.313 116.776C135.78 115.95 136.413 115.31 137.213 114.856C138.027 114.39 138.94 114.156 139.953 114.156C140.967 114.156 141.867 114.39 142.653 114.856C143.453 115.31 144.073 115.95 144.513 116.776C144.967 117.603 145.193 118.55 145.193 119.616ZM139.953 115.776C139.033 115.776 138.26 116.056 137.633 116.616C137.02 117.176 136.66 117.91 136.553 118.816H143.353C143.247 117.923 142.88 117.196 142.253 116.636C141.64 116.063 140.873 115.776 139.953 115.776ZM153.52 114.156C154.866 114.156 155.933 114.55 156.72 115.336C157.52 116.11 157.92 117.25 157.92 118.756V124.856H156V118.976C156 117.95 155.753 117.176 155.26 116.656C154.766 116.136 154.06 115.876 153.14 115.876C152.1 115.876 151.28 116.183 150.68 116.796C150.08 117.396 149.78 118.263 149.78 119.396V124.856H147.86V114.256H149.7V115.856C150.086 115.31 150.606 114.89 151.26 114.596C151.926 114.303 152.68 114.156 153.52 114.156ZM167.433 124.236C167.153 124.476 166.806 124.663 166.393 124.796C165.979 124.916 165.553 124.976 165.113 124.976C164.046 124.976 163.219 124.69 162.633 124.116C162.046 123.543 161.753 122.723 161.753 121.656V115.836H159.953V114.256H161.753V111.936H163.673V114.256H166.713V115.836H163.673V121.576C163.673 122.15 163.813 122.59 164.093 122.896C164.386 123.203 164.799 123.356 165.333 123.356C165.919 123.356 166.419 123.19 166.833 122.856L167.433 124.236Z" fill="white"/>
<path d="M74.4198 64.9831C74.4198 82.7945 89.7448 97.2348 108.647 97.2348C127.55 97.2348 142.875 82.7945 142.875 64.9831C142.875 47.1718 127.55 32.7314 108.647 32.7314C89.7448 32.7314 74.4198 47.1718 74.4198 64.9831ZM90.2171 75.3207C91.1139 65.7925 95.835 57.1652 110.436 57.1652V51.3785C110.438 51.1281 110.518 50.8839 110.666 50.6755C110.813 50.4671 111.021 50.3036 111.266 50.205C111.51 50.1064 111.779 50.0769 112.041 50.12C112.303 50.1632 112.546 50.2772 112.74 50.4482L126.653 62.8124C126.787 62.9312 126.894 63.0747 126.966 63.2339C127.039 63.3931 127.077 63.5646 127.077 63.738C127.077 63.9114 127.039 64.083 126.966 64.2422C126.894 64.4014 126.787 64.5449 126.653 64.6637L112.761 77.0326C112.567 77.2035 112.324 77.3175 112.062 77.3607C111.801 77.4039 111.531 77.3743 111.287 77.2757C111.043 77.1771 110.834 77.0136 110.687 76.8052C110.54 76.5969 110.46 76.3526 110.457 76.1022V70.3202C101.066 70.3202 96.5508 72.4088 92.5899 76.3178C91.6865 77.1938 90.1101 76.5224 90.2171 75.3207Z" fill="white"/>
<defs>
<filter id="filter0_d_77_11633" x="0.221191" y="0.227539" width="216.852" height="165.76" filterUnits="userSpaceOnUse" color-interpolation-filters="sRGB">
<feFlood flood-opacity="0" result="BackgroundImageFix"/>
<feColorMatrix in="SourceAlpha" type="matrix" values="0 0 0 0 0 0 0 0 0 0 0 0 0 0 0 0 0 0 127 0" result="hardAlpha"/>
<feOffset dy="4"/>
<feGaussianBlur stdDeviation="2"/>
<feComposite in2="hardAlpha" operator="out"/>
<feColorMatrix type="matrix" values="0 0 0 0 0 0 0 0 0 0 0 0 0 0 0 0 0 0 0.25 0"/>
<feBlend mode="normal" in2="BackgroundImageFix" result="effect1_dropShadow_77_11633"/>
<feBlend mode="normal" in="SourceGraphic" in2="effect1_dropShadow_77_11633" result="shape"/>
</filter>
<radialGradient id="paint0_radial_77_11633" cx="0" cy="0" r="1" gradientUnits="userSpaceOnUse" gradientTransform="translate(111.119 -95.0955) rotate(89.4057) scale(236.913 313.615)">
<stop stop-color="#8EA8DD"/>
<stop offset="0.51875" stop-color="#3B58A8"/>
<stop offset="1" stop-color="#21093A"/>
</radialGradient>
</defs>
</svg>
