<svg width="218" height="166" viewBox="0 0 218 166" fill="none" xmlns="http://www.w3.org/2000/svg">
<g filter="url(#filter0_d_77_11642)">
<rect x="4.92505" y="0.227539" width="208.852" height="157.76" rx="10" fill="url(#paint0_radial_77_11642)"/>
</g>
<path d="M58.4897 125.016C57.4363 125.016 56.4163 124.856 55.4297 124.536C54.4563 124.203 53.6897 123.776 53.1297 123.256L53.8697 121.696C54.403 122.176 55.083 122.57 55.9097 122.876C56.7497 123.17 57.6097 123.316 58.4897 123.316C59.6497 123.316 60.5163 123.123 61.0897 122.736C61.663 122.336 61.9497 121.81 61.9497 121.156C61.9497 120.676 61.7897 120.29 61.4697 119.996C61.163 119.69 60.7763 119.456 60.3097 119.296C59.8563 119.136 59.2097 118.956 58.3697 118.756C57.3163 118.503 56.463 118.25 55.8097 117.996C55.1697 117.743 54.6163 117.356 54.1497 116.836C53.6963 116.303 53.4697 115.59 53.4697 114.696C53.4697 113.95 53.663 113.276 54.0497 112.676C54.4497 112.076 55.0497 111.596 55.8497 111.236C56.6497 110.876 57.643 110.696 58.8297 110.696C59.6563 110.696 60.4697 110.803 61.2697 111.016C62.0697 111.23 62.7563 111.536 63.3297 111.936L62.6697 113.536C62.083 113.163 61.4563 112.883 60.7897 112.696C60.123 112.496 59.4697 112.396 58.8297 112.396C57.6963 112.396 56.843 112.603 56.2697 113.016C55.7097 113.43 55.4297 113.963 55.4297 114.616C55.4297 115.096 55.5897 115.49 55.9097 115.796C56.2297 116.09 56.623 116.323 57.0897 116.496C57.5697 116.656 58.2163 116.83 59.0297 117.016C60.083 117.27 60.9297 117.523 61.5697 117.776C62.2097 118.03 62.7563 118.416 63.2097 118.936C63.6763 119.456 63.9097 120.156 63.9097 121.036C63.9097 121.77 63.7097 122.443 63.3097 123.056C62.9097 123.656 62.303 124.136 61.4897 124.496C60.6763 124.843 59.6763 125.016 58.4897 125.016ZM76.1316 119.616C76.1316 119.763 76.1182 119.956 76.0916 120.196H67.4916C67.6116 121.13 68.0182 121.883 68.7116 122.456C69.4182 123.016 70.2916 123.296 71.3316 123.296C72.5982 123.296 73.6182 122.87 74.3916 122.016L75.4516 123.256C74.9716 123.816 74.3716 124.243 73.6516 124.536C72.9449 124.83 72.1516 124.976 71.2716 124.976C70.1516 124.976 69.1582 124.75 68.2916 124.296C67.4249 123.83 66.7516 123.183 66.2716 122.356C65.8049 121.53 65.5716 120.596 65.5716 119.556C65.5716 118.53 65.7982 117.603 66.2516 116.776C66.7182 115.95 67.3516 115.31 68.1516 114.856C68.9649 114.39 69.8782 114.156 70.8916 114.156C71.9049 114.156 72.8049 114.39 73.5916 114.856C74.3916 115.31 75.0116 115.95 75.4516 116.776C75.9049 117.603 76.1316 118.55 76.1316 119.616ZM70.8916 115.776C69.9716 115.776 69.1982 116.056 68.5716 116.616C67.9582 117.176 67.5982 117.91 67.4916 118.816H74.2916C74.1849 117.923 73.8182 117.196 73.1916 116.636C72.5782 116.063 71.8116 115.776 70.8916 115.776ZM84.7576 124.236C84.4776 124.476 84.131 124.663 83.7176 124.796C83.3043 124.916 82.8776 124.976 82.4376 124.976C81.371 124.976 80.5443 124.69 79.9576 124.116C79.371 123.543 79.0776 122.723 79.0776 121.656V115.836H77.2776V114.256H79.0776V111.936H80.9976V114.256H84.0376V115.836H80.9976V121.576C80.9976 122.15 81.1376 122.59 81.4176 122.896C81.711 123.203 82.1243 123.356 82.6576 123.356C83.2443 123.356 83.7443 123.19 84.1576 122.856L84.7576 124.236ZM92.785 124.236C92.505 124.476 92.1583 124.663 91.745 124.796C91.3317 124.916 90.905 124.976 90.465 124.976C89.3983 124.976 88.5717 124.69 87.985 124.116C87.3983 123.543 87.105 122.723 87.105 121.656V115.836H85.305V114.256H87.105V111.936H89.025V114.256H92.065V115.836H89.025V121.576C89.025 122.15 89.165 122.59 89.445 122.896C89.7383 123.203 90.1517 123.356 90.685 123.356C91.2717 123.356 91.7717 123.19 92.185 122.856L92.785 124.236ZM95.1062 110.016H97.0262V124.856H95.1062V110.016ZM110.272 119.616C110.272 119.763 110.259 119.956 110.232 120.196H101.632C101.752 121.13 102.159 121.883 102.852 122.456C103.559 123.016 104.432 123.296 105.472 123.296C106.739 123.296 107.759 122.87 108.532 122.016L109.592 123.256C109.112 123.816 108.512 124.243 107.792 124.536C107.086 124.83 106.292 124.976 105.412 124.976C104.292 124.976 103.299 124.75 102.432 124.296C101.566 123.83 100.892 123.183 100.412 122.356C99.9455 121.53 99.7122 120.596 99.7122 119.556C99.7122 118.53 99.9388 117.603 100.392 116.776C100.859 115.95 101.492 115.31 102.292 114.856C103.106 114.39 104.019 114.156 105.032 114.156C106.046 114.156 106.946 114.39 107.732 114.856C108.532 115.31 109.152 115.95 109.592 116.776C110.046 117.603 110.272 118.55 110.272 119.616ZM105.032 115.776C104.112 115.776 103.339 116.056 102.712 116.616C102.099 117.176 101.739 117.91 101.632 118.816H108.432C108.326 117.923 107.959 117.196 107.332 116.636C106.719 116.063 105.952 115.776 105.032 115.776ZM118.589 110.856H120.589V123.116H128.169V124.856H118.589V110.856ZM134.588 124.976C133.534 124.976 132.588 124.743 131.748 124.276C130.908 123.81 130.248 123.17 129.768 122.356C129.301 121.53 129.068 120.596 129.068 119.556C129.068 118.516 129.301 117.59 129.768 116.776C130.248 115.95 130.908 115.31 131.748 114.856C132.588 114.39 133.534 114.156 134.588 114.156C135.641 114.156 136.581 114.39 137.408 114.856C138.248 115.31 138.901 115.95 139.368 116.776C139.848 117.59 140.088 118.516 140.088 119.556C140.088 120.596 139.848 121.53 139.368 122.356C138.901 123.17 138.248 123.81 137.408 124.276C136.581 124.743 135.641 124.976 134.588 124.976ZM134.588 123.296C135.268 123.296 135.874 123.143 136.408 122.836C136.954 122.516 137.381 122.076 137.688 121.516C137.994 120.943 138.148 120.29 138.148 119.556C138.148 118.823 137.994 118.176 137.688 117.616C137.381 117.043 136.954 116.603 136.408 116.296C135.874 115.99 135.268 115.836 134.588 115.836C133.908 115.836 133.294 115.99 132.748 116.296C132.214 116.603 131.788 117.043 131.468 117.616C131.161 118.176 131.008 118.823 131.008 119.556C131.008 120.29 131.161 120.943 131.468 121.516C131.788 122.076 132.214 122.516 132.748 122.836C133.294 123.143 133.908 123.296 134.588 123.296ZM146.505 114.156C147.972 114.156 149.092 114.516 149.865 115.236C150.652 115.956 151.045 117.03 151.045 118.456V124.856H149.225V123.456C148.905 123.95 148.445 124.33 147.845 124.596C147.259 124.85 146.559 124.976 145.745 124.976C144.559 124.976 143.605 124.69 142.885 124.116C142.179 123.543 141.825 122.79 141.825 121.856C141.825 120.923 142.165 120.176 142.845 119.616C143.525 119.043 144.605 118.756 146.085 118.756H149.125V118.376C149.125 117.55 148.885 116.916 148.405 116.476C147.925 116.036 147.219 115.816 146.285 115.816C145.659 115.816 145.045 115.923 144.445 116.136C143.845 116.336 143.339 116.61 142.925 116.956L142.125 115.516C142.672 115.076 143.325 114.743 144.085 114.516C144.845 114.276 145.652 114.156 146.505 114.156ZM146.065 123.496C146.799 123.496 147.432 123.336 147.965 123.016C148.499 122.683 148.885 122.216 149.125 121.616V120.136H146.165C144.539 120.136 143.725 120.683 143.725 121.776C143.725 122.31 143.932 122.73 144.345 123.036C144.759 123.343 145.332 123.496 146.065 123.496ZM160.258 114.156C161.605 114.156 162.672 114.55 163.458 115.336C164.258 116.11 164.658 117.25 164.658 118.756V124.856H162.738V118.976C162.738 117.95 162.492 117.176 161.998 116.656C161.505 116.136 160.798 115.876 159.878 115.876C158.838 115.876 158.018 116.183 157.418 116.796C156.818 117.396 156.518 118.263 156.518 119.396V124.856H154.598V114.256H156.438V115.856C156.825 115.31 157.345 114.89 157.998 114.596C158.665 114.303 159.418 114.156 160.258 114.156Z" fill="white"/>
<path d="M92.1651 98.0626L74.2461 84.0456L84.5173 74.3674C87.2593 71.7733 90.7344 70.002 94.5152 69.2714C98.2959 68.5407 102.218 68.8826 105.798 70.2549H118.441C119.7 70.2549 120.907 70.7329 121.797 71.5839C122.687 72.4348 123.186 73.589 123.186 74.7924C123.186 75.9958 122.687 77.15 121.797 78.0009C120.907 78.8519 119.7 79.3299 118.441 79.3299H108.651C108.234 79.3299 107.835 79.4881 107.541 79.7696C107.246 80.0511 107.081 80.4329 107.081 80.831C107.081 81.2291 107.246 81.6109 107.541 81.8924C107.835 82.1739 108.234 82.3321 108.651 82.3321H119.746C120.536 82.3319 121.316 82.1718 122.037 81.8623C122.757 81.5528 123.4 81.1008 123.925 80.5363L135.887 67.4926C136.757 66.5776 137.967 66.0262 139.258 65.9575C140.549 65.8887 141.816 66.3082 142.786 67.1253C143.757 67.9423 144.352 69.0915 144.444 70.3246C144.535 71.5578 144.117 72.776 143.277 73.7163L128.34 90.3447C127.24 91.5502 125.883 92.5165 124.359 93.1786C122.836 93.8407 121.183 94.1832 119.509 94.1831H96.1933L92.1651 98.0626ZM114.241 41.5698C112.899 41.5698 111.586 41.9505 110.47 42.6637C109.354 43.377 108.484 44.3907 107.97 45.5768C107.456 46.7628 107.322 48.068 107.584 49.3271C107.846 50.5862 108.492 51.7428 109.442 52.6506C110.391 53.5584 111.6 54.1766 112.917 54.427C114.234 54.6775 115.599 54.5489 116.839 54.0577C118.079 53.5664 119.139 52.7344 119.885 51.667C120.631 50.5995 121.029 49.3446 121.029 48.0608C121.029 47.206 120.852 46.3597 120.51 45.5704C120.167 44.7811 119.664 44.0643 119.031 43.4612C118.397 42.8581 117.646 42.3806 116.819 42.056C115.992 41.7314 115.106 41.5662 114.213 41.5698H114.241ZM132.519 31.9053C133.875 31.9125 135.173 32.4328 136.129 33.3523C137.085 34.2719 137.622 35.5161 137.622 36.8129V59.3155C137.622 60.6171 137.081 61.8653 136.119 62.7857C135.156 63.7061 133.851 64.2231 132.49 64.2231H95.9352C94.5741 64.2231 93.2688 63.7061 92.3064 62.7857C91.3439 61.8653 90.8032 60.6171 90.8032 59.3155V36.8129C90.8032 35.5113 91.3439 34.2631 92.3064 33.3427C93.2688 32.4223 94.5741 31.9053 95.9352 31.9053H132.519ZM131.802 44.3046C130.072 43.9283 128.489 43.0923 127.235 41.893C125.981 40.6936 125.107 39.1797 124.713 37.5258H103.769C103.409 39.0365 102.647 40.4327 101.557 41.5794C100.467 42.7261 99.0862 43.5845 97.5479 44.0716C97.2964 44.1496 97.0771 44.3017 96.9214 44.506C96.7656 44.7103 96.6814 44.9565 96.6807 45.2094V50.9121C96.6814 51.165 96.7656 51.4112 96.9214 51.6155C97.0771 51.8199 97.2964 51.9719 97.5479 52.0499C99.0862 52.5371 100.467 53.3955 101.557 54.5422C102.647 55.6888 103.409 57.0851 103.769 58.5958H124.649C125.042 56.9419 125.916 55.428 127.171 54.2286C128.425 53.0292 130.008 52.1932 131.737 51.8169L131.802 44.3046Z" fill="white"/>
<defs>
<filter id="filter0_d_77_11642" x="0.925049" y="0.227539" width="216.852" height="165.76" filterUnits="userSpaceOnUse" color-interpolation-filters="sRGB">
<feFlood flood-opacity="0" result="BackgroundImageFix"/>
<feColorMatrix in="SourceAlpha" type="matrix" values="0 0 0 0 0 0 0 0 0 0 0 0 0 0 0 0 0 0 127 0" result="hardAlpha"/>
<feOffset dy="4"/>
<feGaussianBlur stdDeviation="2"/>
<feComposite in2="hardAlpha" operator="out"/>
<feColorMatrix type="matrix" values="0 0 0 0 0 0 0 0 0 0 0 0 0 0 0 0 0 0 0.25 0"/>
<feBlend mode="normal" in2="BackgroundImageFix" result="effect1_dropShadow_77_11642"/>
<feBlend mode="normal" in="SourceGraphic" in2="effect1_dropShadow_77_11642" result="shape"/>
</filter>
<radialGradient id="paint0_radial_77_11642" cx="0" cy="0" r="1" gradientUnits="userSpaceOnUse" gradientTransform="translate(111.823 -95.0955) rotate(89.4057) scale(236.913 313.615)">
<stop stop-color="#8EA8DD"/>
<stop offset="0.51875" stop-color="#3B58A8"/>
<stop offset="1" stop-color="#21093A"/>
</radialGradient>
</defs>
</svg>
