<svg width="142" height="117" viewBox="0 0 142 117" fill="none" xmlns="http://www.w3.org/2000/svg">
<path d="M40.6465 86.6499V72.6499H46.9265C48.5398 72.6499 49.7798 72.9766 50.6465 73.6299C51.5132 74.2699 51.9465 75.1499 51.9465 76.2699C51.9465 77.0299 51.7732 77.6699 51.4265 78.1899C51.0932 78.7099 50.6398 79.1099 50.0665 79.3899C49.4932 79.6699 48.8732 79.8099 48.2065 79.8099L48.5665 79.2099C49.3665 79.2099 50.0732 79.3499 50.6865 79.6299C51.2998 79.9099 51.7865 80.3232 52.1465 80.8699C52.5065 81.4032 52.6865 82.0699 52.6865 82.8699C52.6865 84.0699 52.2332 85.0032 51.3265 85.6699C50.4332 86.3232 49.0998 86.6499 47.3265 86.6499H40.6465ZM42.6465 85.0299H47.2465C48.3532 85.0299 49.1998 84.8432 49.7865 84.4699C50.3732 84.0966 50.6665 83.5099 50.6665 82.7099C50.6665 81.8966 50.3732 81.3032 49.7865 80.9299C49.1998 80.5566 48.3532 80.3699 47.2465 80.3699H42.4665V78.7499H46.7465C47.7598 78.7499 48.5465 78.5632 49.1065 78.1899C49.6665 77.8166 49.9465 77.2566 49.9465 76.5099C49.9465 75.7632 49.6665 75.2032 49.1065 74.8299C48.5465 74.4566 47.7598 74.2699 46.7465 74.2699H42.6465V85.0299ZM60.2232 86.7699C59.0899 86.7699 58.0899 86.5366 57.2232 86.0699C56.3699 85.6032 55.7032 84.9632 55.2232 84.1499C54.7565 83.3366 54.5232 82.4032 54.5232 81.3499C54.5232 80.2966 54.7499 79.3632 55.2032 78.5499C55.6699 77.7366 56.3032 77.1032 57.1032 76.6499C57.9165 76.1832 58.8299 75.9499 59.8432 75.9499C60.8699 75.9499 61.7765 76.1766 62.5632 76.6299C63.3499 77.0832 63.9632 77.7232 64.4032 78.5499C64.8565 79.3632 65.0832 80.3166 65.0832 81.4099C65.0832 81.4899 65.0765 81.5832 65.0632 81.6899C65.0632 81.7966 65.0565 81.8966 65.0432 81.9899H56.0232V80.6099H64.0432L63.2632 81.0899C63.2765 80.4099 63.1365 79.8032 62.8432 79.2699C62.5499 78.7366 62.1432 78.3232 61.6232 78.0299C61.1165 77.7232 60.5232 77.5699 59.8432 77.5699C59.1765 77.5699 58.5832 77.7232 58.0632 78.0299C57.5432 78.3232 57.1365 78.7432 56.8432 79.2899C56.5499 79.8232 56.4032 80.4366 56.4032 81.1299V81.4499C56.4032 82.1566 56.5632 82.7899 56.8832 83.3499C57.2165 83.8966 57.6765 84.3232 58.2632 84.6299C58.8499 84.9366 59.5232 85.0899 60.2832 85.0899C60.9099 85.0899 61.4765 84.9832 61.9832 84.7699C62.5032 84.5566 62.9565 84.2366 63.3432 83.8099L64.4032 85.0499C63.9232 85.6099 63.3232 86.0366 62.6032 86.3299C61.8965 86.6232 61.1032 86.7699 60.2232 86.7699ZM71.3893 86.7699C70.3226 86.7699 69.496 86.4832 68.9093 85.9099C68.3226 85.3366 68.0293 84.5166 68.0293 83.4499V73.7299H69.9493V83.3699C69.9493 83.9432 70.0893 84.3832 70.3693 84.6899C70.6626 84.9966 71.076 85.1499 71.6093 85.1499C72.2093 85.1499 72.7093 84.9832 73.1093 84.6499L73.7093 86.0299C73.416 86.2832 73.0626 86.4699 72.6493 86.5899C72.2493 86.7099 71.8293 86.7699 71.3893 86.7699ZM66.2293 77.6299V76.0499H72.9893V77.6299H66.2293ZM79.0706 86.7699C78.1906 86.7699 77.3506 86.6499 76.5506 86.4099C75.7639 86.1699 75.1439 85.8766 74.6906 85.5299L75.4906 84.0099C75.9439 84.3166 76.5039 84.5766 77.1706 84.7899C77.8372 85.0032 78.5172 85.1099 79.2106 85.1099C80.1039 85.1099 80.7439 84.9832 81.1306 84.7299C81.5306 84.4766 81.7306 84.1232 81.7306 83.6699C81.7306 83.3366 81.6106 83.0766 81.3706 82.8899C81.1306 82.7032 80.8106 82.5632 80.4106 82.4699C80.0239 82.3766 79.5906 82.2966 79.1106 82.2299C78.6306 82.1499 78.1506 82.0566 77.6706 81.9499C77.1906 81.8299 76.7506 81.6699 76.3506 81.4699C75.9506 81.2566 75.6306 80.9699 75.3906 80.6099C75.1506 80.2366 75.0306 79.7432 75.0306 79.1299C75.0306 78.4899 75.2106 77.9299 75.5706 77.4499C75.9306 76.9699 76.4372 76.6032 77.0906 76.3499C77.7572 76.0832 78.5439 75.9499 79.4506 75.9499C80.1439 75.9499 80.8439 76.0366 81.5506 76.2099C82.2706 76.3699 82.8572 76.6032 83.3106 76.9099L82.4906 78.4299C82.0106 78.1099 81.5106 77.8899 80.9906 77.7699C80.4706 77.6499 79.9506 77.5899 79.4306 77.5899C78.5906 77.5899 77.9639 77.7299 77.5506 78.0099C77.1372 78.2766 76.9306 78.6232 76.9306 79.0499C76.9306 79.4099 77.0506 79.6899 77.2906 79.8899C77.5439 80.0766 77.8639 80.2232 78.2506 80.3299C78.6506 80.4366 79.0906 80.5299 79.5706 80.6099C80.0506 80.6766 80.5306 80.7699 81.0106 80.8899C81.4906 80.9966 81.9239 81.1499 82.3106 81.3499C82.7106 81.5499 83.0306 81.8299 83.2706 82.1899C83.5239 82.5499 83.6506 83.0299 83.6506 83.6299C83.6506 84.2699 83.4639 84.8232 83.0906 85.2899C82.7172 85.7566 82.1906 86.1232 81.5106 86.3899C80.8306 86.6432 80.0172 86.7699 79.0706 86.7699ZM95.4012 86.8099C94.4545 86.8099 93.6145 86.6566 92.8812 86.3499C92.1478 86.0432 91.5678 85.6166 91.1412 85.0699C90.7145 84.5232 90.5012 83.8899 90.5012 83.1699C90.5012 82.5432 90.6412 81.9699 90.9212 81.4499C91.2012 80.9299 91.6478 80.4299 92.2612 79.9499C92.8745 79.4566 93.6812 78.9499 94.6812 78.4299C95.4945 78.0032 96.1278 77.6299 96.5812 77.3099C97.0478 76.9899 97.3745 76.6899 97.5612 76.4099C97.7612 76.1166 97.8612 75.8032 97.8612 75.4699C97.8612 75.0166 97.7012 74.6499 97.3812 74.3699C97.0612 74.0766 96.6012 73.9299 96.0012 73.9299C95.3745 73.9299 94.8812 74.0899 94.5212 74.4099C94.1745 74.7166 94.0012 75.1232 94.0012 75.6299C94.0012 75.8832 94.0412 76.1299 94.1212 76.3699C94.2145 76.5966 94.3745 76.8566 94.6012 77.1499C94.8412 77.4299 95.1812 77.7899 95.6212 78.2299L103.021 85.5899L101.941 86.8699L94.0812 79.0499C93.6145 78.5832 93.2478 78.1699 92.9812 77.8099C92.7145 77.4366 92.5212 77.0766 92.4012 76.7299C92.2812 76.3832 92.2212 76.0299 92.2212 75.6699C92.2212 75.0432 92.3745 74.4966 92.6812 74.0299C93.0012 73.5499 93.4412 73.1832 94.0012 72.9299C94.5745 72.6632 95.2412 72.5299 96.0012 72.5299C96.7078 72.5299 97.3212 72.6499 97.8412 72.8899C98.3612 73.1166 98.7612 73.4499 99.0412 73.8899C99.3345 74.3166 99.4812 74.8366 99.4812 75.4499C99.4812 75.9832 99.3478 76.4766 99.0812 76.9299C98.8278 77.3832 98.4145 77.8232 97.8412 78.2499C97.2678 78.6766 96.4945 79.1366 95.5212 79.6299C94.7212 80.0432 94.0945 80.4299 93.6412 80.7899C93.1878 81.1366 92.8612 81.4832 92.6612 81.8299C92.4745 82.1766 92.3812 82.5566 92.3812 82.9699C92.3812 83.4099 92.5078 83.8032 92.7612 84.1499C93.0278 84.4832 93.3945 84.7432 93.8612 84.9299C94.3412 85.1166 94.8945 85.2099 95.5212 85.2099C96.4145 85.2099 97.2212 85.0166 97.9412 84.6299C98.6612 84.2432 99.2612 83.6632 99.7412 82.8899C100.235 82.1166 100.595 81.1566 100.821 80.0099L102.361 80.5099C102.095 81.8566 101.635 82.9966 100.981 83.9299C100.341 84.8632 99.5478 85.5766 98.6012 86.0699C97.6545 86.5632 96.5878 86.8099 95.4012 86.8099ZM28.752 109.65V95.6499H30.752V107.91H38.332V109.65H28.752ZM44.7502 109.77C43.6836 109.77 42.7369 109.537 41.9102 109.07C41.0836 108.603 40.4302 107.963 39.9502 107.15C39.4702 106.323 39.2302 105.39 39.2302 104.35C39.2302 103.297 39.4702 102.363 39.9502 101.55C40.4302 100.737 41.0836 100.103 41.9102 99.6499C42.7369 99.1832 43.6836 98.9499 44.7502 98.9499C45.8036 98.9499 46.7436 99.1832 47.5702 99.6499C48.4102 100.103 49.0636 100.737 49.5302 101.55C50.0102 102.35 50.2502 103.283 50.2502 104.35C50.2502 105.403 50.0102 106.337 49.5302 107.15C49.0636 107.963 48.4102 108.603 47.5702 109.07C46.7436 109.537 45.8036 109.77 44.7502 109.77ZM44.7502 108.09C45.4302 108.09 46.0369 107.937 46.5702 107.63C47.1169 107.323 47.5436 106.89 47.8502 106.33C48.1569 105.757 48.3102 105.097 48.3102 104.35C48.3102 103.59 48.1569 102.937 47.8502 102.39C47.5436 101.83 47.1169 101.397 46.5702 101.09C46.0369 100.783 45.4302 100.63 44.7502 100.63C44.0702 100.63 43.4636 100.783 42.9302 101.09C42.3969 101.397 41.9702 101.83 41.6502 102.39C41.3302 102.937 41.1702 103.59 41.1702 104.35C41.1702 105.097 41.3302 105.757 41.6502 106.33C41.9702 106.89 42.3969 107.323 42.9302 107.63C43.4636 107.937 44.0702 108.09 44.7502 108.09ZM56.5456 109.77C55.4789 109.77 54.6522 109.483 54.0656 108.91C53.4789 108.337 53.1856 107.517 53.1856 106.45V96.7299H55.1056V106.37C55.1056 106.943 55.2456 107.383 55.5256 107.69C55.8189 107.997 56.2322 108.15 56.7656 108.15C57.3656 108.15 57.8656 107.983 58.2656 107.65L58.8656 109.03C58.5722 109.283 58.2189 109.47 57.8056 109.59C57.4056 109.71 56.9856 109.77 56.5456 109.77ZM51.3856 100.63V99.0499H58.1456V100.63H51.3856ZM64.5729 109.77C63.5062 109.77 62.6796 109.483 62.0929 108.91C61.5062 108.337 61.2129 107.517 61.2129 106.45V96.7299H63.1329V106.37C63.1329 106.943 63.2729 107.383 63.5529 107.69C63.8462 107.997 64.2596 108.15 64.7929 108.15C65.3929 108.15 65.8929 107.983 66.2929 107.65L66.8929 109.03C66.5996 109.283 66.2462 109.47 65.8329 109.59C65.4329 109.71 65.0129 109.77 64.5729 109.77ZM59.4129 100.63V99.0499H66.1729V100.63H59.4129ZM73.5826 109.77C72.4493 109.77 71.4493 109.537 70.5826 109.07C69.7293 108.603 69.0626 107.963 68.5826 107.15C68.1159 106.337 67.8826 105.403 67.8826 104.35C67.8826 103.297 68.1093 102.363 68.5626 101.55C69.0293 100.737 69.6626 100.103 70.4626 99.6499C71.2759 99.1832 72.1893 98.9499 73.2026 98.9499C74.2293 98.9499 75.1359 99.1766 75.9226 99.6299C76.7093 100.083 77.3226 100.723 77.7626 101.55C78.2159 102.363 78.4426 103.317 78.4426 104.41C78.4426 104.49 78.4359 104.583 78.4226 104.69C78.4226 104.797 78.4159 104.897 78.4026 104.99H69.3826V103.61H77.4026L76.6226 104.09C76.6359 103.41 76.4959 102.803 76.2026 102.27C75.9093 101.737 75.5026 101.323 74.9826 101.03C74.4759 100.723 73.8826 100.57 73.2026 100.57C72.5359 100.57 71.9426 100.723 71.4226 101.03C70.9026 101.323 70.4959 101.743 70.2026 102.29C69.9093 102.823 69.7626 103.437 69.7626 104.13V104.45C69.7626 105.157 69.9226 105.79 70.2426 106.35C70.5759 106.897 71.0359 107.323 71.6226 107.63C72.2093 107.937 72.8826 108.09 73.6426 108.09C74.2693 108.09 74.8359 107.983 75.3426 107.77C75.8626 107.557 76.3159 107.237 76.7026 106.81L77.7626 108.05C77.2826 108.61 76.6826 109.037 75.9626 109.33C75.2559 109.623 74.4626 109.77 73.5826 109.77ZM81.1087 109.65V99.0499H82.9487V101.93L82.7687 101.21C83.062 100.477 83.5553 99.9166 84.2487 99.5299C84.942 99.1432 85.7953 98.9499 86.8087 98.9499V100.81C86.7287 100.797 86.6487 100.79 86.5687 100.79C86.502 100.79 86.4353 100.79 86.3687 100.79C85.342 100.79 84.5287 101.097 83.9287 101.71C83.3287 102.323 83.0287 103.21 83.0287 104.37V109.65H81.1087ZM89.1751 109.65V99.0499H91.0951V109.65H89.1751ZM90.1351 97.0099C89.7618 97.0099 89.4484 96.8899 89.1951 96.6499C88.9551 96.4099 88.8351 96.1166 88.8351 95.7699C88.8351 95.4099 88.9551 95.1099 89.1951 94.8699C89.4484 94.6299 89.7618 94.5099 90.1351 94.5099C90.5084 94.5099 90.8151 94.6299 91.0551 94.8699C91.3084 95.0966 91.4351 95.3832 91.4351 95.7299C91.4351 96.0899 91.3151 96.3966 91.0751 96.6499C90.8351 96.8899 90.5218 97.0099 90.1351 97.0099ZM99.481 109.77C98.3477 109.77 97.3477 109.537 96.481 109.07C95.6277 108.603 94.961 107.963 94.481 107.15C94.0144 106.337 93.781 105.403 93.781 104.35C93.781 103.297 94.0077 102.363 94.461 101.55C94.9277 100.737 95.561 100.103 96.361 99.6499C97.1744 99.1832 98.0877 98.9499 99.101 98.9499C100.128 98.9499 101.034 99.1766 101.821 99.6299C102.608 100.083 103.221 100.723 103.661 101.55C104.114 102.363 104.341 103.317 104.341 104.41C104.341 104.49 104.334 104.583 104.321 104.69C104.321 104.797 104.314 104.897 104.301 104.99H95.281V103.61H103.301L102.521 104.09C102.534 103.41 102.394 102.803 102.101 102.27C101.808 101.737 101.401 101.323 100.881 101.03C100.374 100.723 99.781 100.57 99.101 100.57C98.4344 100.57 97.841 100.723 97.321 101.03C96.801 101.323 96.3944 101.743 96.101 102.29C95.8077 102.823 95.661 103.437 95.661 104.13V104.45C95.661 105.157 95.821 105.79 96.141 106.35C96.4744 106.897 96.9344 107.323 97.521 107.63C98.1077 107.937 98.781 108.09 99.541 108.09C100.168 108.09 100.734 107.983 101.241 107.77C101.761 107.557 102.214 107.237 102.601 106.81L103.661 108.05C103.181 108.61 102.581 109.037 101.861 109.33C101.154 109.623 100.361 109.77 99.481 109.77ZM110.047 109.77C109.167 109.77 108.327 109.65 107.527 109.41C106.74 109.17 106.12 108.877 105.667 108.53L106.467 107.01C106.92 107.317 107.48 107.577 108.147 107.79C108.814 108.003 109.494 108.11 110.187 108.11C111.08 108.11 111.72 107.983 112.107 107.73C112.507 107.477 112.707 107.123 112.707 106.67C112.707 106.337 112.587 106.077 112.347 105.89C112.107 105.703 111.787 105.563 111.387 105.47C111 105.377 110.567 105.297 110.087 105.23C109.607 105.15 109.127 105.057 108.647 104.95C108.167 104.83 107.727 104.67 107.327 104.47C106.927 104.257 106.607 103.97 106.367 103.61C106.127 103.237 106.007 102.743 106.007 102.13C106.007 101.49 106.187 100.93 106.547 100.45C106.907 99.9699 107.414 99.6032 108.067 99.3499C108.734 99.0832 109.52 98.9499 110.427 98.9499C111.12 98.9499 111.82 99.0366 112.527 99.2099C113.247 99.3699 113.834 99.6032 114.287 99.9099L113.467 101.43C112.987 101.11 112.487 100.89 111.967 100.77C111.447 100.65 110.927 100.59 110.407 100.59C109.567 100.59 108.94 100.73 108.527 101.01C108.114 101.277 107.907 101.623 107.907 102.05C107.907 102.41 108.027 102.69 108.267 102.89C108.52 103.077 108.84 103.223 109.227 103.33C109.627 103.437 110.067 103.53 110.547 103.61C111.027 103.677 111.507 103.77 111.987 103.89C112.467 103.997 112.9 104.15 113.287 104.35C113.687 104.55 114.007 104.83 114.247 105.19C114.5 105.55 114.627 106.03 114.627 106.63C114.627 107.27 114.44 107.823 114.067 108.29C113.694 108.757 113.167 109.123 112.487 109.39C111.807 109.643 110.994 109.77 110.047 109.77Z" fill="white"/>
<path d="M62.4578 0.100098L37.0428 25.5151L62.4578 50.93L87.8727 25.5151L62.4578 0.100098ZM62.4578 6.03025L81.9426 25.5151L62.4578 44.9999L42.973 25.5151L62.4578 6.03025ZM62.4578 14.9255C61.8961 14.9255 61.3574 15.1486 60.9602 15.5458C60.563 15.943 60.3399 16.4817 60.3399 17.0434C60.3399 17.6051 60.563 18.1438 60.9602 18.541C61.3574 18.9382 61.8961 19.1613 62.4578 19.1613C63.0195 19.1613 63.5582 18.9382 63.9554 18.541C64.3526 18.1438 64.5757 17.6051 64.5757 17.0434C64.5757 16.4817 64.3526 15.943 63.9554 15.5458C63.5582 15.1486 63.0195 14.9255 62.4578 14.9255ZM53.9861 23.3971C53.4244 23.3971 52.8857 23.6203 52.4885 24.0175C52.0913 24.4146 51.8682 24.9533 51.8682 25.5151C51.8682 26.0768 52.0913 26.6155 52.4885 27.0126C52.8857 27.4098 53.4244 27.633 53.9861 27.633C54.5478 27.633 55.0865 27.4098 55.4837 27.0126C55.8809 26.6155 56.104 26.0768 56.104 25.5151C56.104 24.9533 55.8809 24.4146 55.4837 24.0175C55.0865 23.6203 54.5478 23.3971 53.9861 23.3971ZM62.4578 23.3971C61.8961 23.3971 61.3574 23.6203 60.9602 24.0175C60.563 24.4146 60.3399 24.9533 60.3399 25.5151C60.3399 26.0768 60.563 26.6155 60.9602 27.0126C61.3574 27.4098 61.8961 27.633 62.4578 27.633C63.0195 27.633 63.5582 27.4098 63.9554 27.0126C64.3526 26.6155 64.5757 26.0768 64.5757 25.5151C64.5757 24.9533 64.3526 24.4146 63.9554 24.0175C63.5582 23.6203 63.0195 23.3971 62.4578 23.3971ZM70.9294 23.3971C70.3677 23.3971 69.829 23.6203 69.4318 24.0175C69.0347 24.4146 68.8115 24.9533 68.8115 25.5151C68.8115 26.0768 69.0347 26.6155 69.4318 27.0126C69.829 27.4098 70.3677 27.633 70.9294 27.633C71.4911 27.633 72.0298 27.4098 72.427 27.0126C72.8242 26.6155 73.0473 26.0768 73.0473 25.5151C73.0473 24.9533 72.8242 24.4146 72.427 24.0175C72.0298 23.6203 71.4911 23.3971 70.9294 23.3971ZM93.8029 25.5151L89.5671 29.7509H100.58V55.1658H75.1653V44.1527L70.9294 48.3885V59.4017H104.816V25.5151H93.8029ZM62.4578 31.8688C61.8961 31.8688 61.3574 32.0919 60.9602 32.4891C60.563 32.8863 60.3399 33.425 60.3399 33.9867C60.3399 34.5484 60.563 35.0871 60.9602 35.4843C61.3574 35.8815 61.8961 36.1046 62.4578 36.1046C63.0195 36.1046 63.5582 35.8815 63.9554 35.4843C64.3526 35.0871 64.5757 34.5484 64.5757 33.9867C64.5757 33.425 64.3526 32.8863 63.9554 32.4891C63.5582 32.0919 63.0195 31.8688 62.4578 31.8688ZM87.8727 40.3404C87.311 40.3404 86.7723 40.5636 86.3751 40.9608C85.978 41.358 85.7548 41.8967 85.7548 42.4584C85.7548 43.0201 85.978 43.5588 86.3751 43.956C86.7723 44.3531 87.311 44.5763 87.8727 44.5763C88.4344 44.5763 88.9731 44.3531 89.3703 43.956C89.7675 43.5588 89.9906 43.0201 89.9906 42.4584C89.9906 41.8967 89.7675 41.358 89.3703 40.9608C88.9731 40.5636 88.4344 40.3404 87.8727 40.3404Z" fill="white"/>
</svg>
