<svg width="150" height="92" viewBox="0 0 150 92" fill="none" xmlns="http://www.w3.org/2000/svg">
<path d="M11.885 82.625V68.625H18.165C19.7783 68.625 21.0183 68.9517 21.885 69.605C22.7517 70.245 23.185 71.125 23.185 72.245C23.185 73.005 23.0117 73.645 22.665 74.165C22.3317 74.685 21.8783 75.085 21.305 75.365C20.7317 75.645 20.1117 75.785 19.445 75.785L19.805 75.185C20.605 75.185 21.3117 75.325 21.925 75.605C22.5383 75.885 23.025 76.2983 23.385 76.845C23.745 77.3783 23.925 78.045 23.925 78.845C23.925 80.045 23.4717 80.9783 22.565 81.645C21.6717 82.2983 20.3383 82.625 18.565 82.625H11.885ZM13.885 81.005H18.485C19.5917 81.005 20.4383 80.8183 21.025 80.445C21.6117 80.0717 21.905 79.485 21.905 78.685C21.905 77.8717 21.6117 77.2783 21.025 76.905C20.4383 76.5317 19.5917 76.345 18.485 76.345H13.705V74.725H17.985C18.9983 74.725 19.785 74.5383 20.345 74.165C20.905 73.7917 21.185 73.2317 21.185 72.485C21.185 71.7383 20.905 71.1783 20.345 70.805C19.785 70.4317 18.9983 70.245 17.985 70.245H13.885V81.005ZM26.7417 82.625V72.025H28.6617V82.625H26.7417ZM27.7017 69.985C27.3284 69.985 27.015 69.865 26.7617 69.625C26.5217 69.385 26.4017 69.0917 26.4017 68.745C26.4017 68.385 26.5217 68.085 26.7617 67.845C27.015 67.605 27.3284 67.485 27.7017 67.485C28.075 67.485 28.3817 67.605 28.6217 67.845C28.875 68.0717 29.0017 68.3583 29.0017 68.705C29.0017 69.065 28.8817 69.3717 28.6417 69.625C28.4017 69.865 28.0884 69.985 27.7017 69.985ZM32.3277 82.625V67.785H34.2477V82.625H32.3277ZM37.9136 82.625V67.785H39.8336V82.625H37.9136ZM49.1506 82.625V68.625H54.6106C55.8373 68.625 56.884 68.8183 57.7506 69.205C58.6173 69.5917 59.284 70.1517 59.7506 70.885C60.2173 71.6183 60.4506 72.4917 60.4506 73.505C60.4506 74.5183 60.2173 75.3917 59.7506 76.125C59.284 76.845 58.6173 77.405 57.7506 77.805C56.884 78.1917 55.8373 78.385 54.6106 78.385H50.2506L51.1506 77.445V82.625H49.1506ZM51.1506 77.645L50.2506 76.645H54.5506C55.8306 76.645 56.7973 76.3717 57.4506 75.825C58.1173 75.2783 58.4506 74.505 58.4506 73.505C58.4506 72.505 58.1173 71.7317 57.4506 71.185C56.7973 70.6383 55.8306 70.365 54.5506 70.365H50.2506L51.1506 69.365V77.645ZM69.5912 82.625V80.385L69.4912 79.965V76.145C69.4912 75.3317 69.2512 74.705 68.7712 74.265C68.3046 73.8117 67.5979 73.585 66.6512 73.585C66.0246 73.585 65.4112 73.6917 64.8112 73.905C64.2112 74.105 63.7046 74.3783 63.2912 74.725L62.4912 73.285C63.0379 72.845 63.6912 72.5117 64.4512 72.285C65.2246 72.045 66.0312 71.925 66.8712 71.925C68.3246 71.925 69.4446 72.2783 70.2312 72.985C71.0179 73.6917 71.4112 74.7717 71.4112 76.225V82.625H69.5912ZM66.1112 82.745C65.3246 82.745 64.6312 82.6117 64.0312 82.345C63.4446 82.0783 62.9912 81.7117 62.6712 81.245C62.3512 80.765 62.1912 80.225 62.1912 79.625C62.1912 79.0517 62.3246 78.5317 62.5912 78.065C62.8712 77.5983 63.3179 77.225 63.9312 76.945C64.5579 76.665 65.3979 76.525 66.4512 76.525H69.8112V77.905H66.5312C65.5712 77.905 64.9246 78.065 64.5912 78.385C64.2579 78.705 64.0912 79.0917 64.0912 79.545C64.0912 80.065 64.2979 80.485 64.7112 80.805C65.1246 81.1117 65.6979 81.265 66.4312 81.265C67.1512 81.265 67.7779 81.105 68.3112 80.785C68.8579 80.465 69.2512 79.9983 69.4912 79.385L69.8712 80.705C69.6179 81.3317 69.1712 81.8317 68.5312 82.205C67.8912 82.565 67.0846 82.745 66.1112 82.745ZM75.2291 86.625C74.7224 86.625 74.2291 86.5383 73.7491 86.365C73.2691 86.205 72.8557 85.965 72.5091 85.645L73.3291 84.205C73.5957 84.4583 73.8891 84.6517 74.2091 84.785C74.5291 84.9183 74.8691 84.985 75.2291 84.985C75.6957 84.985 76.0824 84.865 76.3891 84.625C76.6957 84.385 76.9824 83.9583 77.2491 83.345L77.9091 81.885L78.1091 81.645L82.2691 72.025H84.1491L79.0091 83.685C78.7024 84.4317 78.3557 85.0183 77.9691 85.445C77.5957 85.8717 77.1824 86.1717 76.7291 86.345C76.2757 86.5317 75.7757 86.625 75.2291 86.625ZM77.7491 82.965L72.9091 72.025H74.9091L79.0291 81.465L77.7491 82.965ZM99.2009 71.925C100.054 71.925 100.808 72.0917 101.461 72.425C102.114 72.7583 102.621 73.265 102.981 73.945C103.354 74.625 103.541 75.485 103.541 76.525V82.625H101.621V76.745C101.621 75.7183 101.381 74.945 100.901 74.425C100.421 73.905 99.7476 73.645 98.8809 73.645C98.2409 73.645 97.6809 73.7783 97.2009 74.045C96.7209 74.3117 96.3476 74.705 96.0809 75.225C95.8276 75.745 95.7009 76.3917 95.7009 77.165V82.625H93.7809V76.745C93.7809 75.7183 93.5409 74.945 93.0609 74.425C92.5943 73.905 91.9209 73.645 91.0409 73.645C90.4143 73.645 89.8609 73.7783 89.3809 74.045C88.9009 74.3117 88.5276 74.705 88.2609 75.225C87.9943 75.745 87.8609 76.3917 87.8609 77.165V82.625H85.9409V72.025H87.7809V74.845L87.4809 74.125C87.8143 73.4317 88.3276 72.8917 89.0209 72.505C89.7143 72.1183 90.5209 71.925 91.4409 71.925C92.4543 71.925 93.3276 72.1783 94.0609 72.685C94.7943 73.1783 95.2743 73.9317 95.5009 74.945L94.7209 74.625C95.0409 73.8117 95.6009 73.1583 96.4009 72.665C97.2009 72.1717 98.1343 71.925 99.2009 71.925ZM111.794 82.745C110.66 82.745 109.66 82.5117 108.794 82.045C107.94 81.5783 107.274 80.9383 106.794 80.125C106.327 79.3117 106.094 78.3783 106.094 77.325C106.094 76.2717 106.32 75.3383 106.774 74.525C107.24 73.7117 107.874 73.0783 108.674 72.625C109.487 72.1583 110.4 71.925 111.414 71.925C112.44 71.925 113.347 72.1517 114.134 72.605C114.92 73.0583 115.534 73.6983 115.974 74.525C116.427 75.3383 116.654 76.2917 116.654 77.385C116.654 77.465 116.647 77.5583 116.634 77.665C116.634 77.7717 116.627 77.8717 116.614 77.965H107.594V76.585H115.614L114.834 77.065C114.847 76.385 114.707 75.7783 114.414 75.245C114.12 74.7117 113.714 74.2983 113.194 74.005C112.687 73.6983 112.094 73.545 111.414 73.545C110.747 73.545 110.154 73.6983 109.634 74.005C109.114 74.2983 108.707 74.7183 108.414 75.265C108.12 75.7983 107.974 76.4117 107.974 77.105V77.425C107.974 78.1317 108.134 78.765 108.454 79.325C108.787 79.8717 109.247 80.2983 109.834 80.605C110.42 80.9117 111.094 81.065 111.854 81.065C112.48 81.065 113.047 80.9583 113.554 80.745C114.074 80.5317 114.527 80.2117 114.914 79.785L115.974 81.025C115.494 81.585 114.894 82.0117 114.174 82.305C113.467 82.5983 112.674 82.745 111.794 82.745ZM124.98 71.925C125.847 71.925 126.607 72.0917 127.26 72.425C127.927 72.7583 128.447 73.265 128.82 73.945C129.193 74.625 129.38 75.485 129.38 76.525V82.625H127.46V76.745C127.46 75.7183 127.207 74.945 126.7 74.425C126.207 73.905 125.507 73.645 124.6 73.645C123.92 73.645 123.327 73.7783 122.82 74.045C122.313 74.3117 121.92 74.705 121.64 75.225C121.373 75.745 121.24 76.3917 121.24 77.165V82.625H119.32V72.025H121.16V74.885L120.86 74.125C121.207 73.4317 121.74 72.8917 122.46 72.505C123.18 72.1183 124.02 71.925 124.98 71.925ZM136.573 82.745C135.506 82.745 134.68 82.4583 134.093 81.885C133.506 81.3117 133.213 80.4917 133.213 79.425V69.705H135.133V79.345C135.133 79.9183 135.273 80.3583 135.553 80.665C135.846 80.9717 136.26 81.125 136.793 81.125C137.393 81.125 137.893 80.9583 138.293 80.625L138.893 82.005C138.6 82.2583 138.246 82.445 137.833 82.565C137.433 82.685 137.013 82.745 136.573 82.745ZM131.413 73.605V72.025H138.173V73.605H131.413Z" fill="white"/>
<path d="M38.6298 40.6174C38.5322 42.8805 38.4346 45.1393 38.3319 47.4024C38.3114 47.9157 39.2717 47.9157 39.2922 47.4024C39.3898 45.1393 39.4874 42.8805 39.5901 40.6174C39.6106 40.1041 38.6503 40.1041 38.6298 40.6174Z" fill="white"/>
<path d="M41.146 40.0789C40.5606 42.4276 40.2319 44.789 40.1498 47.189C40.1343 47.7024 41.0947 47.7024 41.1101 47.189C41.1871 44.8618 41.5055 42.5687 42.0704 40.2928C42.1936 39.7923 41.2693 39.5741 41.146 40.0789Z" fill="white"/>
<path d="M43.7242 40.3007C43.0874 41.6226 42.7433 42.9959 42.5379 44.4076C42.4146 45.2504 41.8806 46.6493 42.5841 47.3637C42.7279 47.5135 42.9847 47.4921 43.1644 47.4279C43.4006 47.3423 43.4879 47.2311 43.5342 47.0258C43.5701 46.8675 43.5136 46.6493 43.3133 46.5723C43.2825 46.5595 43.2517 46.5509 43.226 46.5381C42.6663 46.3327 42.1784 47.0215 42.7433 47.2268C42.7741 47.2397 42.8049 47.2482 42.8306 47.2611C42.7587 47.1113 42.6817 46.9616 42.6098 46.8076C42.6355 46.7819 42.656 46.7563 42.6817 46.7306C42.8768 46.752 43.072 46.7734 43.262 46.7948C42.9128 46.4397 43.5444 44.0312 43.6317 43.5991C43.8423 42.5381 44.1709 41.5114 44.6485 40.5104C44.8796 40.0355 43.9553 39.8301 43.7242 40.3007Z" fill="white"/>
<path d="M45.5524 40.2028C44.6948 41.4006 44.4894 42.714 44.1864 44.0615C44.0529 44.6433 43.6318 45.5931 43.8474 46.192C43.9245 46.4016 44.1812 46.5257 44.438 46.4701C44.6588 46.423 44.7615 46.2818 44.8488 46.1193C45.1005 45.653 44.2737 45.2466 44.022 45.7171C43.9091 45.8754 43.9604 45.8711 44.1812 45.7C44.3764 45.7941 44.5767 45.8883 44.7718 45.9781C44.6075 45.5246 45.0389 44.5877 45.1467 44.1214C45.4189 42.8979 45.5986 41.6958 46.3792 40.6049C46.7027 40.1643 45.8708 39.7621 45.5524 40.2028Z" fill="white"/>
<path d="M47.4627 40.921C47.0827 42.7648 46.6975 44.6086 46.3175 46.4525C46.2148 46.9573 47.1392 47.1712 47.2419 46.6664C47.6219 44.8225 48.007 42.9787 48.3871 41.1349C48.4949 40.6301 47.5705 40.4162 47.4627 40.921Z" fill="white"/>
<path d="M49.3113 40.5058C48.7875 42.2855 48.505 44.0822 48.4639 45.9175C48.4537 46.4309 49.414 46.4309 49.4243 45.9175C49.4653 44.155 49.7375 42.4309 50.2408 40.7197C50.3846 40.2192 49.4602 40.0053 49.3113 40.5058Z" fill="white"/>
<path d="M51.7812 40.3986C51.5604 42.1697 51.3447 43.9408 51.1239 45.7076C51.0623 46.221 52.0226 46.2167 52.0842 45.7076C52.305 43.9365 52.5207 42.1654 52.7416 40.3986C52.8083 39.8852 51.848 39.8895 51.7812 40.3986Z" fill="white"/>
<path d="M53.928 40.5144C53.3015 42.786 53.0139 45.0705 53.0704 47.402C53.0806 47.9153 54.041 47.9196 54.0307 47.402C53.9742 45.1432 54.2464 42.9272 54.8523 40.724C54.991 40.2277 54.0666 40.0138 53.928 40.5144Z" fill="white"/>
<path d="M55.8589 43.1587C55.7151 44.7159 55.5662 46.2731 55.4224 47.8303C55.3762 48.3437 56.3365 48.3394 56.3827 47.8303C56.5265 46.2731 56.6755 44.7159 56.8192 43.1587C56.8655 42.6453 55.9051 42.6453 55.8589 43.1587Z" fill="white"/>
<path d="M66.3763 43.0555C66.0014 44.617 65.8217 46.1913 65.8474 47.7827C65.8525 48.2234 66.6639 48.3389 66.7923 47.8897C66.8899 47.5517 66.9874 47.2138 67.085 46.8801C67.2288 46.3796 66.3044 46.1657 66.1606 46.6662C66.0631 47.0041 65.9655 47.3421 65.8679 47.6758C66.1812 47.71 66.4944 47.7485 66.8128 47.7827C66.7923 46.2598 66.9515 44.7625 67.311 43.2652C67.424 42.7646 66.4996 42.5507 66.3763 43.0555Z" fill="white"/>
<path d="M68.4253 41.255C68.3226 42.1876 68.2199 43.1202 68.1172 44.0571C68.0196 44.9298 67.6602 46.0892 67.8142 46.9448C67.9015 47.4239 68.4356 47.8432 68.9389 47.3726C69.0467 47.2742 69.1238 47.1159 69.0621 46.9833C69.0519 46.9576 69.0365 46.9319 69.0262 46.9063C68.8002 46.4314 67.8707 46.641 68.1018 47.1202C68.6975 47.0817 68.9389 46.8378 68.8259 46.3886C68.8413 46.2346 68.8619 46.0763 68.8773 45.9223C68.9389 45.379 68.9954 44.8314 69.057 44.2881C69.17 43.2785 69.2778 42.2646 69.3908 41.255C69.437 40.7416 68.4767 40.7459 68.4253 41.255Z" fill="white"/>
<path d="M71.2239 40.51C70.9517 42.1656 70.7155 43.8212 70.5255 45.4811C70.4587 46.0928 70.2995 47.1965 71.4036 47.158C72.0198 47.1366 72.025 46.3367 71.4036 46.358C71.4344 46.358 72.0866 41.126 72.1534 40.7239C72.2304 40.2191 71.306 40.0009 71.2239 40.51Z" fill="white"/>
<path d="M73.5145 41.1473C73.0112 43.0724 72.7185 45.0061 72.6363 46.974C72.6158 47.4873 73.5761 47.4873 73.5966 46.974C73.6736 45.0788 73.951 43.2136 74.4388 41.357C74.5723 40.8564 73.648 40.6425 73.5145 41.1473Z" fill="white"/>
<path d="M76.8627 40.9469C75.9692 43.1159 75.5481 45.3276 75.5892 47.6163C75.5994 48.1297 76.5597 48.134 76.5495 47.6163C76.5084 45.396 76.9244 43.257 77.7871 41.1565C77.9874 40.6731 77.063 40.4635 76.8627 40.9469Z" fill="white"/>
<path d="M78.6088 41.1484C78.0644 43.1419 77.8436 45.1526 77.9566 47.1975C77.9823 47.7109 78.9426 47.7152 78.9169 47.1975C78.8091 45.2253 79.0145 43.2874 79.5383 41.3623C79.6718 40.8618 78.7474 40.6478 78.6088 41.1484Z" fill="white"/>
<path d="M80.6476 40.8311C80.2624 43.3723 80.1495 45.9091 80.3087 48.4631C80.3395 48.9765 81.2998 48.9765 81.269 48.4631C81.1098 45.9049 81.2228 43.368 81.6079 40.8311C81.6849 40.3221 80.7246 40.3263 80.6476 40.8311Z" fill="white"/>
<path d="M83.1688 41.9956C82.7631 43.7924 82.609 45.5891 82.7323 47.4158C82.7682 47.9292 83.7285 47.9292 83.6926 47.4158C83.5745 45.6619 83.7029 43.9335 84.0932 42.2095C84.2061 41.7047 83.2818 41.4865 83.1688 41.9956Z" fill="white"/>
<path d="M85.2435 45.8141C85.1614 46.3104 85.0741 46.8023 84.9919 47.2986C84.956 47.5125 85.0535 47.7264 85.3257 47.7906C85.5517 47.8462 85.8803 47.7264 85.9163 47.5125C85.9984 47.0162 86.0857 46.5243 86.1679 46.028C86.2039 45.8141 86.1063 45.6002 85.8341 45.536C85.6082 45.4804 85.2795 45.6002 85.2435 45.8141Z" fill="white"/>
<path d="M94.6568 41.7854C94.0047 43.9159 93.8044 46.0635 94.0714 48.2538C94.133 48.7629 95.0933 48.7672 95.0317 48.2538C94.7698 46.1362 94.9496 44.0614 95.5812 41.9993C95.7353 41.5031 94.8109 41.2892 94.6568 41.7854Z" fill="white"/>
<path d="M98.9604 41.7808C98.5341 44.1851 98.113 46.5893 97.6868 48.9893C97.5995 49.4941 98.5238 49.7123 98.6111 49.2032C99.0374 46.799 99.4585 44.3947 99.8847 41.9947C99.9772 41.4899 99.0528 41.276 98.9604 41.7808Z" fill="white"/>
<path d="M101.975 40.502C101.374 43.0475 100.773 45.5886 100.177 48.134C100.059 48.6388 100.984 48.8527 101.102 48.3479C101.703 45.8025 102.303 43.2614 102.899 40.7159C103.017 40.2111 102.093 39.9972 101.975 40.502Z" fill="white"/>
<path d="M105.333 41.4645C105.153 43.8687 104.974 46.2687 104.794 48.6729C104.753 49.1863 105.718 49.1863 105.754 48.6729C105.934 46.2687 106.114 43.8687 106.294 41.4645C106.335 40.9511 105.374 40.9554 105.333 41.4645Z" fill="white"/>
<path d="M108.147 41.5751C107.572 43.3976 107.187 45.2414 106.971 47.1195C106.93 47.4703 107.521 47.6414 107.793 47.4018C108.086 47.1451 108.384 46.8842 108.676 46.6275C109.103 46.2553 108.425 45.6863 107.998 46.0628C107.706 46.3195 107.408 46.5804 107.115 46.8371C107.387 46.9312 107.659 47.0253 107.937 47.1195C108.142 45.3141 108.527 43.543 109.077 41.789C109.231 41.2885 108.301 41.0746 108.147 41.5751Z" fill="white"/>
<path d="M110.91 42.7384C110.643 44.856 110.556 46.9736 110.653 49.0998C110.679 49.6132 111.639 49.6175 111.614 49.0998C111.516 46.9736 111.598 44.856 111.87 42.7384C111.937 42.225 110.977 42.2293 110.91 42.7384Z" fill="white"/>
<path d="M96.0537 43.4665C95.7455 45.3104 95.4426 47.1499 95.1344 48.9937C95.0523 49.4985 95.9766 49.7167 96.0588 49.2076C96.3669 47.3638 96.6699 45.5243 96.978 43.6804C97.0602 43.1756 96.1358 42.9575 96.0537 43.4665Z" fill="white"/>
<path d="M54.2056 28.9766C53.8615 30.3242 53.7485 31.6718 53.8923 33.045C53.9437 33.5541 54.9091 33.5584 54.8526 33.045C54.714 31.7445 54.8013 30.4654 55.1299 29.1905C55.2634 28.6857 54.3339 28.4718 54.2056 28.9766Z" fill="white"/>
<path d="M57.9079 28.1166C57.23 29.9134 57.0297 31.7358 57.3122 33.6053C57.3892 34.1101 58.3495 34.1144 58.2725 33.6053C58.0003 31.8086 58.1852 30.0588 58.8323 28.3262C59.0223 27.8385 58.0928 27.6247 57.9079 28.1166Z" fill="white"/>
<path d="M59.6594 28.1302C59.2793 29.666 59.1458 31.2019 59.2588 32.7633C59.2948 33.2767 60.2602 33.2767 60.2191 32.7633C60.1062 31.2703 60.2243 29.8072 60.5837 28.3399C60.707 27.8436 59.7826 27.6254 59.6594 28.1302Z" fill="white"/>
<path d="M62.3194 29.2497C61.9034 30.5759 61.4926 31.9063 61.0766 33.2325C60.9226 33.7331 61.8469 33.9427 62.001 33.4464C62.417 32.1202 62.8278 30.7898 63.2438 29.4636C63.3978 28.9631 62.4735 28.7492 62.3194 29.2497Z" fill="white"/>
<path d="M63.8242 29.1813C63.0128 30.5802 62.5763 32.0561 62.5198 33.6091C62.5044 34.1224 63.4647 34.1224 63.4801 33.6091C63.5314 32.1973 63.9166 30.8583 64.651 29.5877C64.9231 29.1257 64.0912 28.7193 63.8242 29.1813Z" fill="white"/>
<path d="M65.7599 30.3929C65.5339 31.3341 65.308 32.2795 65.082 33.2207C64.9587 33.7255 65.8882 33.9394 66.0064 33.4346C66.2323 32.4934 66.4583 31.548 66.6842 30.6068C66.8075 30.102 65.8831 29.8881 65.7599 30.3929Z" fill="white"/>
<path d="M83.2974 29.8118C83.0355 31.2107 82.9738 32.5967 83.1433 34.0042C83.1947 34.4448 83.9085 34.5561 84.0882 34.1112C84.1755 33.8887 84.268 33.662 84.3553 33.4395C84.5504 32.9475 83.6209 32.7379 83.4309 33.2256C83.3436 33.4481 83.2511 33.6748 83.1638 33.8973C83.4771 33.9315 83.7904 33.97 84.1087 34.0042C83.9496 32.6737 83.9804 31.3476 84.2269 30.0257C84.3193 29.5208 83.3898 29.3027 83.2974 29.8118Z" fill="white"/>
<path d="M86.1424 27.8515C85.7778 29.0408 85.4851 30.2429 85.2951 31.4622C85.2027 32.0611 84.7199 33.2247 85.4594 33.6611C86.5379 34.2942 87.303 32.66 85.9678 32.4547C85.3619 32.3606 85.1051 33.1306 85.7111 33.2247C86.1989 33.3017 86.3735 30.7991 86.4146 30.5852C86.5892 29.7339 86.81 28.8954 87.0668 28.0612C87.2209 27.5649 86.2965 27.351 86.1424 27.8515Z" fill="white"/>
<path d="M88.4995 27.0003C88.1503 29.0109 88.0322 31.0173 88.1708 33.0451C88.2068 33.5585 89.1671 33.5585 89.1311 33.0451C88.9976 31.09 89.09 29.1478 89.429 27.2099C89.5111 26.7093 88.5868 26.4912 88.4995 27.0003Z" fill="white"/>
<path d="M91.1956 27.9541C91.0775 29.6525 90.9594 31.3466 90.8413 33.045C90.8053 33.5583 91.7656 33.5583 91.8016 33.045C91.9197 31.3466 92.0378 29.6525 92.1559 27.9541C92.1919 27.4408 91.2315 27.4408 91.1956 27.9541Z" fill="white"/>
<path d="M94.2971 28.6986C93.8092 30.213 93.5011 31.7488 93.3727 33.3145C93.3316 33.8279 94.2919 33.8279 94.333 33.3145C94.4562 31.8215 94.7541 30.3541 95.2214 28.9082C95.3806 28.4162 94.4562 28.2023 94.2971 28.6986Z" fill="white"/>
<path d="M96.3054 29.0883C96.3054 30.6925 96.3054 32.2925 96.3054 33.8968C96.3054 34.4101 97.2657 34.4144 97.2657 33.8968C97.2657 32.2925 97.2657 30.6925 97.2657 29.0883C97.2657 28.5749 96.3054 28.5706 96.3054 29.0883Z" fill="white"/>
<path d="M99.0732 30.9695C98.7445 31.6326 98.4159 32.2957 98.0872 32.9588C97.851 33.4336 98.7805 33.6433 99.0116 33.1727C99.3402 32.5096 99.6689 31.8465 100.003 31.1834C100.234 30.7086 99.3043 30.5032 99.0732 30.9695Z" fill="white"/>
<path d="M66.8336 17.96C66.3868 19.6327 66.3303 21.3012 66.6333 22.9953C66.7257 23.5044 67.6501 23.2862 67.5577 22.7814C67.2804 21.2327 67.3522 19.6969 67.7579 18.1739C67.8915 17.6734 66.9671 17.4552 66.8336 17.96Z" fill="white"/>
<path d="M68.8465 17.1096C68.3432 18.8764 68.3072 20.6432 68.7181 22.4272C68.8362 22.932 69.7605 22.7181 69.6424 22.2133C69.2624 20.5705 69.3086 18.9449 69.7708 17.3192C69.9146 16.8187 68.9902 16.6091 68.8465 17.1096Z" fill="white"/>
<path d="M71.4706 16.8144C71.1419 18.7353 71.0495 20.6475 71.2138 22.5855C71.2549 23.0946 72.2204 23.0988 72.1742 22.5855C72.015 20.7245 72.0817 18.8764 72.395 17.0283C72.4823 16.5235 71.5579 16.3054 71.4706 16.8144Z" fill="white"/>
<path d="M72.2306 17.7774C72.133 19.2918 72.1638 20.8062 72.323 22.3163C72.3744 22.8254 73.3347 22.8297 73.2834 22.3163C73.1293 20.8019 73.0985 19.2918 73.1909 17.7774C73.2217 17.264 72.2614 17.264 72.2306 17.7774Z" fill="white"/>
<path d="M75.2604 16.6473C75.0807 17.9607 74.9523 19.2783 74.9061 20.6045C74.8804 21.3788 74.598 22.4098 75.3015 23.0088C75.4556 23.1414 75.6969 23.1542 75.8818 23.0729C76.2156 22.9275 76.2618 22.7991 76.3029 22.4911C76.3286 22.3072 76.1334 22.1617 75.9486 22.1061C75.9075 22.0933 75.8664 22.0804 75.8202 22.0676C75.2399 21.8879 74.9882 22.6622 75.5634 22.8376C75.6045 22.8505 75.6456 22.8633 75.6918 22.8761C75.5737 22.7478 75.4556 22.6195 75.3375 22.4911C75.358 22.4526 75.3734 22.4184 75.3939 22.3799C75.5891 22.4013 75.7842 22.4227 75.9742 22.4441C75.435 21.982 75.8818 20.0484 75.9229 19.4366C75.9845 18.504 76.0872 17.5757 76.2156 16.6473C76.2926 16.134 75.3323 16.1383 75.2604 16.6473Z" fill="white"/>
<path d="M78.7218 16.2672C78.2442 18.1709 78.0388 20.0832 78.1055 22.0254C78.1209 22.5388 79.0813 22.5431 79.0659 22.0254C79.0042 20.1516 79.1891 18.3121 79.6513 16.4768C79.7745 15.9763 78.845 15.7624 78.7218 16.2672Z" fill="white"/>
<path d="M81.0481 17.6704C80.8221 18.988 80.5962 20.3099 80.3702 21.6276C80.2829 22.1324 81.2073 22.3505 81.2946 21.8415C81.5205 20.5238 81.7465 19.2019 81.9725 17.8843C82.0649 17.3795 81.1354 17.1613 81.0481 17.6704Z" fill="white"/>
<path d="M82.3628 19.6419C82.2498 20.1125 82.1419 20.5831 82.029 21.058C81.9108 21.5628 82.8352 21.7767 82.9533 21.2719C83.0663 20.8013 83.1742 20.3307 83.2871 19.8558C83.4104 19.351 82.486 19.1371 82.3628 19.6419Z" fill="white"/>
<path d="M37.6598 40.5385C36.5608 42.8229 35.6621 45.1459 34.9637 47.5373C34.8045 48.0849 35.2769 48.6582 35.9805 48.6496C41.3213 48.594 46.6621 48.6239 51.9977 48.7566C54.5089 48.8165 59.3927 49.9843 58.9716 46.7202C58.8381 45.6849 58.4683 44.6325 58.2218 43.6101C58.0164 42.763 57.9959 41.5139 57.4104 40.778C56.5682 39.7342 54.8017 39.6957 53.3946 39.4732C48.6752 38.7289 43.889 38.4979 39.0977 38.716C37.7471 38.7802 37.7368 40.5385 39.0977 40.4743C42.5384 40.316 45.9791 40.3716 49.4044 40.7181C50.6317 40.8422 54.6425 40.9278 55.6285 41.7406C56.3423 42.3267 56.4347 45.2144 56.6555 46.0143C56.9842 47.2122 57.205 46.9042 56.0033 47.1052C55.1919 47.2421 53.8311 47.0368 52.9991 47.0154C51.1658 46.9641 49.3273 46.9298 47.494 46.9042C43.6579 46.8486 39.8166 46.8486 35.9805 46.8871C36.3194 47.2592 36.6584 47.6314 36.9973 47.9993C37.6957 45.6079 38.5893 43.285 39.6934 41.0005C40.2018 39.9524 38.1579 39.4989 37.6598 40.5385Z" fill="white"/>
<path d="M65.226 49.3088C66.0887 47.1613 67.0901 45.0693 68.3021 43.0416C69.1751 41.5742 70.0224 41.6854 71.7993 41.7239C73.2115 41.7581 74.6237 41.7453 76.036 41.694C77.289 41.6469 78.542 41.5699 79.7951 41.4544C80.6167 41.3817 83.0201 40.7614 83.698 41.0266C84.4888 41.3389 84.571 43.1613 84.7456 43.8116C85.1205 45.1977 85.4953 46.5838 85.8702 47.9698C86.2092 47.5976 86.5481 47.2255 86.887 46.8575C83.0509 47.2682 79.2148 47.6832 75.3735 48.0383C73.6069 48.2008 71.8969 48.3078 70.1303 48.0768C68.5743 47.8714 67.1518 47.5591 65.5649 47.5805C64.2092 47.5976 64.2041 49.3602 65.5649 49.3388C67.3264 49.3131 68.9748 49.758 70.7106 49.9163C72.2717 50.0575 73.8175 49.942 75.3735 49.7965C79.2148 49.4372 83.0509 49.0222 86.887 48.6158C87.5803 48.5431 88.0733 48.1153 87.9038 47.5035C87.416 45.7025 86.9281 43.9014 86.4403 42.0961C86.1681 41.0951 86.0808 39.9229 84.838 39.4437C83.9239 39.0887 82.7941 39.3667 81.8492 39.4822C79.6102 39.7518 77.3558 39.9143 75.0962 39.9657C72.8469 40.017 68.9389 39.0801 67.3469 40.7956C65.3595 42.9346 64.2092 46.31 63.1924 48.8425C62.7559 49.9206 64.7946 50.3826 65.226 49.3088Z" fill="white"/>
<path d="M94.0099 47.1839C93.9329 47.1967 93.8558 47.2095 93.7788 47.2181C94.1742 47.355 94.5748 47.4876 94.9702 47.6245C94.5696 47.1368 95.6224 45.062 95.797 44.6213C96.2746 43.4363 96.896 42.3112 97.5995 41.2075C97.2965 41.3529 96.9935 41.4984 96.6854 41.6438C99.9002 41.6652 103.11 41.6866 106.325 41.708C108.06 41.7208 110.407 41.246 111.265 42.8331C111.819 43.8598 112.425 46.3539 112.128 47.4106C111.979 47.9368 113.052 47.7614 111.337 47.6074C110.525 47.5347 109.698 47.5475 108.882 47.5347C107.244 47.5133 105.611 47.5432 103.978 47.6288C100.819 47.7913 97.1579 48.771 94.1075 47.8084C92.8339 47.4063 92.2844 49.109 93.5477 49.5068C95.5659 50.14 97.4814 49.9603 99.5869 49.7464C102.191 49.4812 104.794 49.3058 107.418 49.2886C109.919 49.2758 114.387 50.495 114.243 47.4106C114.141 45.1475 114.033 40.9208 110.854 40.1037C108.918 39.6075 106.402 39.9497 104.404 39.9369C101.831 39.9198 99.2634 39.9027 96.6906 39.8856C96.3311 39.8813 95.9511 40.0524 95.7765 40.3219C94.7802 41.8748 93.9431 43.4876 93.3731 45.186C93.0342 46.1956 92.3512 47.5475 93.142 48.51C93.4296 48.8566 93.8404 48.9935 94.3334 48.9165C94.4104 48.9036 94.4875 48.8908 94.5645 48.8822C95.91 48.6683 95.3399 46.9742 94.0099 47.1839Z" fill="white"/>
<path d="M52.311 33.6206C51.9309 32.5768 54.7297 29.6292 55.346 28.7522C55.043 28.8977 54.74 29.0432 54.4319 29.1886C57.3539 29.0175 60.2811 28.9276 63.2134 28.9576C64.7848 28.9747 66.0892 28.6667 66.8287 29.98C67.5117 31.1907 67.8712 32.6367 68.3693 33.9115C68.5336 33.5821 68.6928 33.2484 68.8572 32.919C67.7839 33.3853 65.9762 33.1372 64.8002 33.1543C63.3007 33.1714 61.8063 33.1928 60.3068 33.2099C57.4772 33.2442 54.6527 33.2784 51.8231 33.3126C50.4674 33.3297 50.4622 35.088 51.8231 35.0709C55.3152 35.0281 58.8072 34.9853 62.3044 34.9425C64.6667 34.9126 67.7582 35.3789 69.9202 34.4377C70.3156 34.2666 70.5467 33.8003 70.4081 33.4452C69.7969 31.8838 69.3091 28.44 67.4809 27.5373C66.6746 27.1394 65.5808 27.2464 64.6821 27.225C62.8899 27.1865 61.1027 27.1822 59.3105 27.225C56.9739 27.2763 54.3446 26.7587 53.0402 28.5555C51.9463 30.057 49.5943 32.2174 50.2722 34.0955C50.6625 35.1693 52.7064 34.7072 52.311 33.6206Z" fill="white"/>
<path d="M81.8032 34.0795C81.3359 32.9544 83.4362 29.3737 84.756 28.9972C86.5431 28.4881 89.2443 28.7962 91.1136 28.7106C92.5567 28.6464 95.869 28.0047 97.1066 28.7491C97.651 29.0785 98.0464 30.2806 98.3802 30.8197C98.9348 31.7223 99.777 32.7234 100.07 33.7159C100.162 33.4292 100.249 33.1469 100.342 32.8603C99.8232 33.3736 96.6855 33.1854 95.8998 33.2282C94.2822 33.3095 92.6697 33.3907 91.052 33.4763C87.8219 33.6389 84.5917 33.8057 81.3564 33.9683C80.0058 34.0367 79.9955 35.7993 81.3564 35.7265C87.4264 35.4185 93.594 35.3501 99.6332 34.7725C100.773 34.6656 102.083 34.5244 102.124 33.3694C102.15 32.6849 101.405 31.8977 101.051 31.3202C100.357 30.1951 99.7565 28.9288 98.9297 27.8678C98.0259 26.7042 97.1272 26.6956 95.5147 26.7598C92.418 26.8839 89.3162 27.0379 86.2196 27.1791C84.3401 27.2646 82.7943 26.9951 81.8597 28.4839C81.1356 29.6389 80.6323 31.0079 80.0828 32.2357C79.6874 33.1212 79.3844 33.656 79.7593 34.5586C80.2112 35.611 82.25 35.1533 81.8032 34.0795Z" fill="white"/>
<path d="M64.6819 22.9988C66.4793 23.833 69.0264 23.6576 71.0292 23.6704C73.9513 23.6875 76.8733 23.4736 79.7748 23.2127C80.997 23.1014 83.6109 23.2939 84.2323 22.1175C84.5507 21.5143 84.145 20.8212 83.9345 20.2565C83.4825 19.0544 83.0358 17.848 82.5428 16.6587C81.9984 15.3454 81.4695 14.986 79.7337 14.9989C76.8168 15.0203 73.8383 15.3924 70.9317 15.585C69.3192 15.6919 66.4279 15.3454 65.1749 16.355C64.5689 16.847 64.4919 17.8737 64.2968 18.5026C63.9219 19.709 63.5419 20.9111 63.167 22.1175C62.8229 23.2127 64.8617 23.6832 65.2057 22.5838C65.596 21.3389 65.9041 18.1646 67.5166 17.5742C68.1483 17.3432 69.7557 17.4245 70.449 17.3774C71.589 17.3004 72.7291 17.2277 73.8743 17.1507C75.0143 17.0737 76.1544 17.001 77.2995 16.924C78.0442 16.8726 79.7697 16.4791 80.3602 16.7272C80.7967 16.9111 82.3014 21.3517 82.2038 21.6512C82.4503 21.4458 82.6968 21.2405 82.9433 21.0352C80.504 21.8351 77.0274 21.7196 74.4391 21.8351C72.1025 21.9421 67.8761 22.464 65.7603 21.4801C64.5587 20.9282 63.4905 22.4469 64.6819 22.9988Z" fill="white"/>
<path d="M53.6306 11.9314C52.4957 10.3443 51.3607 8.75713 50.2258 7.16998C50.2258 7.46516 50.2258 7.76035 50.2258 8.05981C50.5802 7.49939 51.8075 9.84374 51.8948 10.0405C52.3005 10.956 52.5316 11.8245 52.1875 12.7785C51.7973 13.8651 53.836 14.3314 54.2263 13.2448C54.7809 11.6876 54.2828 10.2202 53.5381 8.76996C52.963 7.6534 52.1978 6.26304 50.5185 6.19459C49.4607 6.15181 48.0382 6.81063 48.2949 7.84591C48.4747 8.56462 49.3734 9.41594 49.8201 10.0405C50.4826 10.9646 51.1451 11.8929 51.8075 12.817C52.5008 13.7924 54.329 12.9068 53.6306 11.9314Z" fill="white"/>
<path d="M75.9748 6.54574C75.9594 6.5928 75.9388 6.64414 75.9234 6.6912C76.1699 6.48585 76.4164 6.28051 76.6629 6.07516C76.7194 6.07944 76.7708 6.08372 76.8273 6.08799C77.0378 6.22489 77.2484 6.35751 77.4589 6.49441C77.1559 6.01099 77.4743 4.86876 77.4897 4.30406C77.5103 3.45273 77.5308 2.60569 77.5514 1.75436C77.3768 2.00676 77.2022 2.25917 77.0275 2.51585C78.0649 2.01532 77.5976 4.36395 77.5051 4.69336C77.2997 5.42062 76.894 6.75109 75.6564 6.47302C74.3417 6.17783 73.782 7.8762 75.0966 8.17139C77.5668 8.72325 79.0458 6.93504 79.5439 5.16394C80.0061 3.52546 80.1601 1.05276 77.5205 0.719079C76.6732 0.612128 75.6718 0.890197 75.4561 1.63885C75.1377 2.75969 75.374 4.20567 75.3483 5.36501C75.3277 6.16928 75.0915 7.30295 76.1391 7.74359C76.9402 8.08155 77.7722 7.68369 78.0135 7.01632C78.409 5.92971 76.3702 5.4634 75.9748 6.54574Z" fill="white"/>
<path d="M101.857 13.1978C102.514 11.4737 103.362 9.83525 104.409 8.24811C103.803 8.24811 103.192 8.24811 102.586 8.24811C104.086 9.95076 103.331 12.1753 100.814 12.7657C101.261 13.048 101.708 13.3304 102.15 13.6127C102.175 13.3946 102.206 13.1721 102.232 12.9539C102.371 11.8288 100.26 11.8374 100.121 12.9539C100.096 13.1721 100.065 13.3946 100.039 13.6127C99.9671 14.1903 100.768 14.6052 101.374 14.4598C105.082 13.5871 106.73 9.99354 104.409 7.35828C103.962 6.85347 103.002 6.72941 102.586 7.35828C101.451 9.07376 100.532 10.862 99.8234 12.7272C99.4074 13.8095 101.446 14.2758 101.857 13.1978Z" fill="white"/>
</svg>
