<svg width="25" height="25" viewBox="0 0 25 25" fill="none" xmlns="http://www.w3.org/2000/svg">
<path fill-rule="evenodd" clip-rule="evenodd" d="M21.8575 12.5434C21.8575 17.8453 17.5594 22.1434 12.2575 22.1434C6.95554 22.1434 2.65747 17.8453 2.65747 12.5434C2.65747 7.24143 6.95554 2.94336 12.2575 2.94336C17.5594 2.94336 21.8575 7.24143 21.8575 12.5434ZM16.4294 18.4122C15.2524 19.2504 13.8125 19.7434 12.2575 19.7434C8.28102 19.7434 5.05747 16.5198 5.05747 12.5434C5.05747 10.9883 5.55044 9.54843 6.38863 8.37143L16.4294 18.4122ZM18.1264 16.7151L8.08571 6.6744C9.26268 5.83628 10.7025 5.34336 12.2575 5.34336C16.2339 5.34336 19.4575 8.56691 19.4575 12.5434C19.4575 14.0983 18.9645 15.5381 18.1264 16.7151Z" fill="#3B58A8"/>
</svg>
