<svg width="21" height="21" viewBox="0 0 21 21" fill="none" xmlns="http://www.w3.org/2000/svg">
<path fill-rule="evenodd" clip-rule="evenodd" d="M0.0322266 15.1719V7.55896H20.0322V15.2329C20.0322 18.3719 17.8368 20.3019 14.3242 20.3019H5.72926C2.24957 20.3019 0.0322266 18.3319 0.0322266 15.1719ZM5.54314 12.712C5.0382 12.733 4.62108 12.372 4.59912 11.913C4.59912 11.453 4.99429 11.073 5.49923 11.052C5.99319 11.052 6.39934 11.403 6.41032 11.852C6.43227 12.313 6.0371 12.693 5.54314 12.712ZM10.0539 12.712C9.54894 12.733 9.13182 12.372 9.10986 11.913C9.10986 11.453 9.50503 11.073 10.01 11.052C10.5039 11.052 10.9101 11.403 10.9211 11.852C10.943 12.313 10.5478 12.693 10.0539 12.712ZM14.5329 16.3919C14.0279 16.3819 13.6218 16.0019 13.6218 15.5419C13.6108 15.0819 14.017 14.7029 14.5219 14.6929H14.5329C15.0488 14.6929 15.4659 15.0729 15.4659 15.5419C15.4659 16.0119 15.0488 16.3919 14.5329 16.3919ZM9.10986 15.5419C9.13182 16.0019 9.54894 16.3629 10.0539 16.3419C10.5478 16.3229 10.943 15.9429 10.9211 15.4829C10.9101 15.0329 10.5039 14.6819 10.01 14.6819C9.50503 14.7029 9.10986 15.0819 9.10986 15.5419ZM4.5874 15.5419C4.60936 16.0019 5.02648 16.3629 5.53142 16.3419C6.02538 16.3229 6.42055 15.9429 6.3986 15.4829C6.38762 15.0329 5.98147 14.6819 5.48751 14.6819C4.98257 14.7029 4.5874 15.0819 4.5874 15.5419ZM13.6333 11.9027C13.6333 11.4428 14.0285 11.0728 14.5334 11.0628C15.0274 11.0628 15.4225 11.4218 15.4445 11.8628C15.4555 12.3227 15.0603 12.7027 14.5663 12.7117C14.0614 12.7217 13.6443 12.3717 13.6333 11.9127V11.9027Z" fill="#8EA8DD"/>
<path opacity="0.4" d="M0.0356445 7.55861C0.0499146 6.97161 0.104799 5.80661 0.207983 5.43162C0.734876 3.32262 2.52412 1.98263 5.08175 1.79163H14.983C17.5186 1.99263 19.3298 3.34162 19.8567 5.43162C19.9588 5.79661 20.0137 6.97061 20.028 7.55861H0.0356445Z" fill="#8EA8DD"/>
<path d="M5.92628 4.89187C6.40927 4.89187 6.77151 4.56287 6.77151 4.12187V1.07288C6.77151 0.631879 6.40927 0.30188 5.92628 0.30188C5.44329 0.30188 5.08105 0.631879 5.08105 1.07288V4.12187C5.08105 4.56287 5.44329 4.89187 5.92628 4.89187Z" fill="#8EA8DD"/>
<path d="M14.1377 4.89187C14.6097 4.89187 14.9829 4.56287 14.9829 4.12187V1.07288C14.9829 0.631879 14.6097 0.30188 14.1377 0.30188C13.6547 0.30188 13.2925 0.631879 13.2925 1.07288V4.12187C13.2925 4.56287 13.6547 4.89187 14.1377 4.89187Z" fill="#8EA8DD"/>
</svg>
