<svg width="95" height="114" viewBox="0 0 95 114" fill="none" xmlns="http://www.w3.org/2000/svg">
<path d="M19.0497 89.2621C17.9831 89.2621 16.9964 89.0887 16.0897 88.7421C15.1964 88.3821 14.4164 87.8821 13.7497 87.2421C13.0964 86.5887 12.5831 85.8287 12.2097 84.9621C11.8364 84.0954 11.6497 83.1421 11.6497 82.1021C11.6497 81.0621 11.8364 80.1087 12.2097 79.2421C12.5831 78.3754 13.1031 77.6221 13.7697 76.9821C14.4364 76.3287 15.2164 75.8287 16.1097 75.482C17.0164 75.1221 18.0031 74.9421 19.0697 74.9421C20.1497 74.9421 21.1431 75.1287 22.0497 75.5021C22.9697 75.862 23.7497 76.402 24.3897 77.1221L23.0897 78.3821C22.5564 77.8221 21.9564 77.4087 21.2897 77.142C20.6231 76.8621 19.9097 76.7221 19.1497 76.7221C18.3631 76.7221 17.6297 76.8554 16.9497 77.1221C16.2831 77.3887 15.7031 77.762 15.2097 78.242C14.7164 78.7221 14.3297 79.2954 14.0497 79.9621C13.7831 80.6154 13.6497 81.3287 13.6497 82.1021C13.6497 82.8754 13.7831 83.5954 14.0497 84.2621C14.3297 84.9154 14.7164 85.4821 15.2097 85.9621C15.7031 86.4421 16.2831 86.8154 16.9497 87.0821C17.6297 87.3487 18.3631 87.4821 19.1497 87.4821C19.9097 87.4821 20.6231 87.3487 21.2897 87.0821C21.9564 86.8021 22.5564 86.3754 23.0897 85.8021L24.3897 87.0621C23.7497 87.7821 22.9697 88.3287 22.0497 88.7021C21.1431 89.0754 20.1431 89.2621 19.0497 89.2621ZM33.4061 89.1021V86.8621L33.3061 86.4421V82.6221C33.3061 81.8087 33.0661 81.1821 32.5861 80.7421C32.1195 80.2887 31.4128 80.0621 30.4661 80.0621C29.8395 80.0621 29.2261 80.1687 28.6261 80.3821C28.0261 80.5821 27.5195 80.8554 27.1061 81.2021L26.3061 79.7621C26.8528 79.3221 27.5061 78.9887 28.2661 78.7621C29.0395 78.5221 29.8461 78.4021 30.6861 78.4021C32.1395 78.4021 33.2595 78.7554 34.0461 79.4621C34.8328 80.1687 35.2261 81.2487 35.2261 82.7021V89.1021H33.4061ZM29.9261 89.2221C29.1395 89.2221 28.4461 89.0887 27.8461 88.8221C27.2595 88.5554 26.8061 88.1887 26.4861 87.7221C26.1661 87.2421 26.0061 86.7021 26.0061 86.1021C26.0061 85.5287 26.1395 85.0087 26.4061 84.5421C26.6861 84.0754 27.1328 83.7021 27.7461 83.4221C28.3728 83.1421 29.2128 83.0021 30.2661 83.0021H33.6261V84.3821H30.3461C29.3861 84.3821 28.7395 84.5421 28.4061 84.8621C28.0728 85.1821 27.9061 85.5687 27.9061 86.0221C27.9061 86.5421 28.1128 86.9621 28.5261 87.2821C28.9395 87.5887 29.5128 87.7421 30.2461 87.7421C30.9661 87.7421 31.5928 87.5821 32.1261 87.2621C32.6728 86.9421 33.0661 86.4754 33.3061 85.8621L33.6861 87.1821C33.4328 87.8087 32.9861 88.3087 32.3461 88.6821C31.7061 89.0421 30.8995 89.2221 29.9261 89.2221ZM44.3993 89.2221C43.5193 89.2221 42.7126 89.0221 41.9793 88.6221C41.2593 88.2087 40.6793 87.6021 40.2393 86.8021C39.8126 86.0021 39.5993 85.0021 39.5993 83.8021C39.5993 82.6021 39.8059 81.6021 40.2193 80.8021C40.6459 80.0021 41.2193 79.4021 41.9393 79.0021C42.6726 78.6021 43.4926 78.4021 44.3993 78.4021C45.4393 78.4021 46.3593 78.6287 47.1593 79.082C47.9593 79.5354 48.5926 80.1687 49.0593 80.9821C49.5259 81.7821 49.7593 82.7221 49.7593 83.8021C49.7593 84.8821 49.5259 85.8287 49.0593 86.6421C48.5926 87.4554 47.9593 88.0887 47.1593 88.5421C46.3593 88.9954 45.4393 89.2221 44.3993 89.2221ZM38.7793 92.9821V78.5021H40.6193V81.3621L40.4993 83.8221L40.6993 86.2821V92.9821H38.7793ZM44.2393 87.5421C44.9193 87.5421 45.5259 87.3887 46.0593 87.0821C46.6059 86.7754 47.0326 86.3421 47.3393 85.7821C47.6593 85.2087 47.8193 84.5487 47.8193 83.8021C47.8193 83.0421 47.6593 82.3887 47.3393 81.8421C47.0326 81.2821 46.6059 80.8487 46.0593 80.5421C45.5259 80.2354 44.9193 80.0821 44.2393 80.0821C43.5726 80.0821 42.9659 80.2354 42.4193 80.5421C41.8859 80.8487 41.4593 81.2821 41.1393 81.8421C40.8326 82.3887 40.6793 83.0421 40.6793 83.8021C40.6793 84.5487 40.8326 85.2087 41.1393 85.7821C41.4593 86.3421 41.8859 86.7754 42.4193 87.0821C42.9659 87.3887 43.5726 87.5421 44.2393 87.5421ZM52.4121 89.1021V78.5021H54.3321V89.1021H52.4121ZM53.3721 76.4621C52.9987 76.4621 52.6854 76.3421 52.4321 76.1021C52.1921 75.862 52.0721 75.5687 52.0721 75.2221C52.0721 74.8621 52.1921 74.5621 52.4321 74.3221C52.6854 74.0821 52.9987 73.9621 53.3721 73.9621C53.7454 73.9621 54.0521 74.0821 54.2921 74.3221C54.5454 74.5487 54.6721 74.8354 54.6721 75.182C54.6721 75.5421 54.5521 75.8487 54.3121 76.1021C54.0721 76.3421 53.7587 76.4621 53.3721 76.4621ZM60.778 89.1021L56.138 78.5021H58.138L62.258 88.1021H61.298L65.498 78.5021H67.378L62.738 89.1021H60.778ZM75.4179 89.1021V86.8621L75.3179 86.4421V82.6221C75.3179 81.8087 75.0779 81.1821 74.5979 80.7421C74.1312 80.2887 73.4245 80.0621 72.4779 80.0621C71.8512 80.0621 71.2379 80.1687 70.6379 80.3821C70.0379 80.5821 69.5312 80.8554 69.1179 81.2021L68.3179 79.7621C68.8645 79.3221 69.5179 78.9887 70.2779 78.7621C71.0512 78.5221 71.8579 78.4021 72.6979 78.4021C74.1512 78.4021 75.2712 78.7554 76.0579 79.4621C76.8445 80.1687 77.2379 81.2487 77.2379 82.7021V89.1021H75.4179ZM71.9379 89.2221C71.1512 89.2221 70.4579 89.0887 69.8579 88.8221C69.2712 88.5554 68.8179 88.1887 68.4979 87.7221C68.1779 87.2421 68.0179 86.7021 68.0179 86.1021C68.0179 85.5287 68.1512 85.0087 68.4179 84.5421C68.6979 84.0754 69.1445 83.7021 69.7579 83.4221C70.3845 83.1421 71.2245 83.0021 72.2779 83.0021H75.6379V84.3821H72.3579C71.3979 84.3821 70.7512 84.5421 70.4179 84.8621C70.0845 85.1821 69.9179 85.5687 69.9179 86.0221C69.9179 86.5421 70.1245 86.9621 70.5379 87.2821C70.9512 87.5887 71.5245 87.7421 72.2579 87.7421C72.9779 87.7421 73.6045 87.5821 74.1379 87.2621C74.6845 86.9421 75.0779 86.4754 75.3179 85.8621L75.6979 87.1821C75.4445 87.8087 74.9979 88.3087 74.3579 88.6821C73.7179 89.0421 72.9112 89.2221 71.9379 89.2221ZM80.791 89.1021V74.262H82.711V89.1021H80.791ZM23.6012 95.102H25.6012V109.102H23.6012V95.102ZM15.5612 109.102H13.5612V95.102H15.5612V109.102ZM23.7812 102.862H15.3612V101.122H23.7812V102.862ZM34.0517 109.222C32.985 109.222 32.0384 108.989 31.2117 108.522C30.385 108.055 29.7317 107.415 29.2517 106.602C28.7717 105.775 28.5317 104.842 28.5317 103.802C28.5317 102.749 28.7717 101.815 29.2517 101.002C29.7317 100.189 30.385 99.5554 31.2117 99.1021C32.0384 98.6354 32.985 98.4021 34.0517 98.4021C35.105 98.4021 36.045 98.6354 36.8717 99.1021C37.7117 99.5554 38.365 100.189 38.8317 101.002C39.3117 101.802 39.5517 102.735 39.5517 103.802C39.5517 104.855 39.3117 105.789 38.8317 106.602C38.365 107.415 37.7117 108.055 36.8717 108.522C36.045 108.989 35.105 109.222 34.0517 109.222ZM34.0517 107.542C34.7317 107.542 35.3384 107.389 35.8717 107.082C36.4184 106.775 36.845 106.342 37.1517 105.782C37.4584 105.209 37.6117 104.549 37.6117 103.802C37.6117 103.042 37.4584 102.389 37.1517 101.842C36.845 101.282 36.4184 100.849 35.8717 100.542C35.3384 100.235 34.7317 100.082 34.0517 100.082C33.3717 100.082 32.765 100.235 32.2317 100.542C31.6984 100.849 31.2717 101.282 30.9517 101.842C30.6317 102.389 30.4717 103.042 30.4717 103.802C30.4717 104.549 30.6317 105.209 30.9517 105.782C31.2717 106.342 31.6984 106.775 32.2317 107.082C32.765 107.389 33.3717 107.542 34.0517 107.542ZM55.467 98.4021C56.3203 98.4021 57.0737 98.5687 57.727 98.902C58.3803 99.2354 58.887 99.7421 59.247 100.422C59.6203 101.102 59.807 101.962 59.807 103.002V109.102H57.887V103.222C57.887 102.195 57.647 101.422 57.167 100.902C56.687 100.382 56.0137 100.122 55.147 100.122C54.507 100.122 53.947 100.255 53.467 100.522C52.987 100.789 52.6137 101.182 52.347 101.702C52.0937 102.222 51.967 102.869 51.967 103.642V109.102H50.047V103.222C50.047 102.195 49.807 101.422 49.327 100.902C48.8603 100.382 48.187 100.122 47.307 100.122C46.6803 100.122 46.127 100.255 45.647 100.522C45.167 100.789 44.7937 101.182 44.527 101.702C44.2603 102.222 44.127 102.869 44.127 103.642V109.102H42.207V98.5021H44.047V101.322L43.747 100.602C44.0803 99.9087 44.5937 99.3687 45.287 98.982C45.9803 98.5954 46.787 98.4021 47.707 98.4021C48.7203 98.4021 49.5937 98.6554 50.327 99.1621C51.0603 99.6554 51.5403 100.409 51.767 101.422L50.987 101.102C51.307 100.289 51.867 99.6354 52.667 99.1421C53.467 98.6487 54.4003 98.4021 55.467 98.4021ZM68.0598 109.222C66.9265 109.222 65.9265 108.989 65.0598 108.522C64.2065 108.055 63.5398 107.415 63.0598 106.602C62.5931 105.789 62.3598 104.855 62.3598 103.802C62.3598 102.749 62.5865 101.815 63.0398 101.002C63.5065 100.189 64.1398 99.5554 64.9398 99.1021C65.7531 98.6354 66.6665 98.4021 67.6798 98.4021C68.7065 98.4021 69.6131 98.6287 70.3998 99.082C71.1865 99.5354 71.7998 100.175 72.2398 101.002C72.6931 101.815 72.9198 102.769 72.9198 103.862C72.9198 103.942 72.9131 104.035 72.8998 104.142C72.8998 104.249 72.8931 104.349 72.8798 104.442H63.8598V103.062H71.8798L71.0998 103.542C71.1131 102.862 70.9731 102.255 70.6798 101.722C70.3865 101.189 69.9798 100.775 69.4598 100.482C68.9531 100.175 68.3598 100.022 67.6798 100.022C67.0131 100.022 66.4198 100.175 65.8998 100.482C65.3798 100.775 64.9731 101.195 64.6798 101.742C64.3865 102.275 64.2398 102.889 64.2398 103.582V103.902C64.2398 104.609 64.3998 105.242 64.7198 105.802C65.0531 106.349 65.5131 106.775 66.0998 107.082C66.6865 107.389 67.3598 107.542 68.1198 107.542C68.7465 107.542 69.3131 107.435 69.8198 107.222C70.3398 107.009 70.7931 106.689 71.1798 106.262L72.2398 107.502C71.7598 108.062 71.1598 108.489 70.4398 108.782C69.7331 109.075 68.9398 109.222 68.0598 109.222ZM78.6259 109.222C77.7459 109.222 76.9059 109.102 76.1059 108.862C75.3192 108.622 74.6992 108.329 74.2459 107.982L75.0459 106.462C75.4992 106.769 76.0592 107.029 76.7259 107.242C77.3926 107.455 78.0726 107.562 78.7659 107.562C79.6592 107.562 80.2992 107.435 80.6859 107.182C81.0859 106.929 81.2859 106.575 81.2859 106.122C81.2859 105.789 81.1659 105.529 80.9259 105.342C80.6859 105.155 80.3659 105.015 79.9659 104.922C79.5792 104.829 79.1459 104.749 78.6659 104.682C78.1859 104.602 77.7059 104.509 77.2259 104.402C76.7459 104.282 76.3059 104.122 75.9059 103.922C75.5059 103.709 75.1859 103.422 74.9459 103.062C74.7059 102.689 74.5859 102.195 74.5859 101.582C74.5859 100.942 74.7659 100.382 75.1259 99.9021C75.4859 99.4221 75.9926 99.0554 76.6459 98.802C77.3126 98.5354 78.0992 98.4021 79.0059 98.4021C79.6992 98.4021 80.3992 98.4887 81.1059 98.6621C81.8259 98.8221 82.4126 99.0554 82.8659 99.3621L82.0459 100.882C81.5659 100.562 81.0659 100.342 80.5459 100.222C80.0259 100.102 79.5059 100.042 78.9859 100.042C78.1459 100.042 77.5192 100.182 77.1059 100.462C76.6926 100.729 76.4859 101.075 76.4859 101.502C76.4859 101.862 76.6059 102.142 76.8459 102.342C77.0992 102.529 77.4192 102.675 77.8059 102.782C78.2059 102.889 78.6459 102.982 79.1259 103.062C79.6059 103.129 80.0859 103.222 80.5659 103.342C81.0459 103.449 81.4792 103.602 81.8659 103.802C82.2659 104.002 82.5859 104.282 82.8259 104.642C83.0792 105.002 83.2059 105.482 83.2059 106.082C83.2059 106.722 83.0192 107.275 82.6459 107.742C82.2726 108.209 81.7459 108.575 81.0659 108.842C80.3859 109.095 79.5726 109.222 78.6259 109.222Z" fill="white"/>
<path d="M48.961 11.4142C46.722 9.99805 43.1786 11.4709 43.1426 14.3136C43.1067 17.1099 46.6501 19.2316 48.9456 17.4395C51.2719 15.6216 50.6659 12.0682 48.0777 10.9199C45.13 9.61696 40.9344 10.7911 41.2785 14.6689C41.5661 17.9081 45.4792 19.3037 47.9545 17.4858C49.1715 16.5949 50.0703 14.9727 49.6492 13.4432C49.2332 11.9241 47.4512 10.9199 46.0493 10.5079C44.6062 10.0856 42.8242 10.1474 41.7355 11.3164C40.7444 12.3772 40.8111 14.0097 41.525 15.2045C42.6907 17.1511 47.9031 19.0102 48.7248 15.8327C49.5618 12.609 44.4779 10.9405 42.4134 12.8407C40.0152 15.05 42.701 18.0162 45.3868 17.0017C46.5679 16.5537 48.0675 15.4877 47.8569 14.0561C47.6566 12.6811 46.1263 11.749 44.8527 11.6305C41.8229 11.3421 40.955 15.3796 43.5997 16.6413C46.039 17.8051 50.6506 14.6534 47.8621 12.3412C46.152 10.9199 41.7406 11.5327 42.1001 14.4011C42.4647 17.3056 47.4872 18.0832 48.1753 14.9882C48.8018 12.1661 44.3956 10.992 43.9078 13.9016C43.4096 16.8782 48.0726 16.8833 47.708 14.1127C47.2817 10.8581 42.3774 12.2897 43.8564 14.7255C45.4638 17.3725 48.2626 13.1549 45.6384 12.6347C44.6473 12.439 43.687 13.3197 44.031 14.3187C44.334 15.1993 45.5768 15.637 46.2238 14.8543C46.8555 14.0921 46.3317 13.0004 45.4741 12.7532C45.2738 12.6965 45.0324 12.7892 44.9297 12.9746C44.5189 13.7214 44.3546 14.4011 44.4162 15.2508C44.4624 15.8636 45.4227 15.8688 45.3765 15.2508C45.3251 14.5762 45.4228 14.0612 45.7566 13.4587C45.5768 13.5308 45.3971 13.6081 45.2122 13.6802C45.3457 13.9376 45.4792 14.2003 45.6128 14.4577C46.3317 15.5237 46.0801 15.5547 44.8579 14.5505C44.6216 13.8707 45.1557 13.5823 45.6384 13.4072C45.8541 13.33 46.0749 13.2527 46.2906 13.1703C46.6039 13.469 46.9172 13.7677 47.2304 14.0664C47.482 14.6174 46.8966 15.5495 46.5371 15.7812C45.0786 16.7339 41.8537 14.7513 43.4816 13.1806C44.18 12.506 46.1622 12.2125 46.9634 12.8922C47.0763 13.1188 47.1893 13.3402 47.3074 13.5668C47.749 13.9582 47.7696 14.3342 47.3742 14.6895C47.1841 15.086 46.876 15.3641 46.496 15.5804C45.6384 16.0696 44.3032 16.1829 43.5226 15.4465C42.9577 14.9109 42.7626 13.9788 43.158 13.3094C43.6099 12.5472 44.6319 12.4545 45.4228 12.7326C46.3831 13.0673 47.0969 14.0355 46.5628 15.0757C46.3009 15.5855 45.1917 16.0954 44.6576 16.2138C42.2542 16.77 41.7509 13.6801 43.9745 13.057C44.6113 12.8768 45.3714 12.9849 45.9876 13.1909C46.7733 13.4536 48.2575 14.5195 47.7799 15.565C46.4704 18.4591 39.5941 14.5865 42.5315 11.8365C44.7706 9.73542 50.1011 12.7171 48.2883 15.7246C46.7117 18.3407 42.1361 17.5476 42.1977 14.2518C42.2645 10.7911 47.4718 10.3328 49.074 12.918C50.6814 15.5186 47.2971 18.4797 44.9965 16.3014C42.5212 13.9582 45.8439 10.5851 48.4526 12.2331C49.0021 12.5781 49.4848 11.7438 48.961 11.4142Z" fill="white"/>
<path d="M27.4124 25.3027C27.0016 24.7259 27.0016 24.6745 26.2878 24.5612C25.9592 24.5097 25.7126 24.6899 25.6818 25.0246C25.5894 26.0134 25.497 26.997 25.4046 27.9857C25.3481 28.6037 26.2981 28.5934 26.3649 27.9857C26.4676 27.0176 26.5754 26.0495 26.6781 25.0762C26.7449 24.4582 25.7897 24.4685 25.7178 25.0762C25.4354 27.5377 25.0451 29.9632 24.5367 32.3836C24.4083 32.9913 25.2659 33.2282 25.4611 32.6411C26.257 30.2207 27.166 27.8621 28.1982 25.5293C27.9003 25.4469 27.6025 25.3697 27.3046 25.2873C27.1557 27.4193 26.8475 29.5049 26.3854 31.5906C26.6935 31.6781 27.0016 31.7605 27.3098 31.848C27.6641 29.7058 28.1365 27.6098 28.7322 25.519C28.419 25.4778 28.1057 25.4315 27.7873 25.3903C28.0851 27.6665 27.9671 29.7985 27.3919 32.0283C27.2636 32.533 28.0441 32.914 28.2701 32.3991C28.9325 30.8747 29.2817 29.4225 29.3742 27.7643C29.405 27.203 28.5935 27.1412 28.4292 27.6356C27.0684 31.7347 26.3392 35.906 26.2108 40.2215C26.1902 40.8446 27.1351 40.8395 27.1711 40.2215C27.3303 37.2501 27.4946 34.2736 27.6538 31.3022C27.6847 30.7666 26.8167 30.6379 26.7089 31.1734C25.9591 34.8555 24.9629 38.4603 23.7099 42.0033C24.0231 42.0445 24.3364 42.0909 24.6548 42.1321C24.8294 38.3728 25.3532 34.6804 26.2262 31.0241C25.913 30.9829 25.5997 30.9365 25.2813 30.8954C25.3069 35.3859 25.3326 39.8713 25.3583 44.3619C25.3634 44.9078 26.1441 45.0108 26.3032 44.4906C27.4741 40.5665 28.4344 36.6013 29.1893 32.5742C28.876 32.533 28.5627 32.4866 28.2444 32.4454C27.9414 36.8691 27.6435 41.2978 27.3405 45.7214C27.3046 46.2828 28.1263 46.3497 28.2855 45.8502C28.9479 43.7594 29.1893 41.751 29.0404 39.5623C28.9993 38.9495 28.1057 38.9392 28.08 39.5623C27.9003 43.8212 27.5306 48.0543 26.9759 52.277C27.2943 52.277 27.6179 52.277 27.9362 52.277C27.7925 48.8885 27.2635 45.5978 26.3135 42.338C26.1491 41.7767 25.4405 41.957 25.3686 42.4668C24.891 46.0613 24.5623 49.6661 24.3877 53.2915C24.3569 53.9095 25.3172 53.9095 25.348 53.2915C25.5534 49.2181 25.7589 45.1395 25.9592 41.0661C25.99 40.4327 25.0759 40.4687 24.9989 41.0661C24.4442 45.3816 23.8896 49.6919 23.335 54.0074C23.2683 54.5378 23.9872 54.5841 24.2286 54.2494C26.6986 50.8506 25.0759 46.396 27.0273 42.817C26.7294 42.7346 26.4316 42.6573 26.1337 42.5749C26.1081 46.8338 26.0772 51.0926 26.0516 55.3566C26.0464 55.887 26.8784 56.0261 26.9965 55.4853C27.5049 53.0804 27.813 50.6703 27.9208 48.2139C27.9465 47.5908 27.0016 47.6011 26.9605 48.2139C26.7448 51.5355 26.524 54.8571 26.3083 58.1838C26.2724 58.74 27.0992 58.8172 27.2533 58.3125C27.8849 56.232 27.8798 54.2648 27.2481 52.1895C27.1146 51.7466 26.4419 51.7157 26.3237 52.1895C25.6972 54.6511 25.0708 57.1127 24.4443 59.5742C24.7524 59.5742 25.0605 59.5742 25.3686 59.5742C25.0348 57.4319 25.1272 55.4235 25.6254 53.3121C25.3172 53.2246 25.0092 53.1422 24.701 53.0546C24.4237 54.3833 24.0797 55.681 23.6688 56.9787C23.9359 56.9066 24.2029 56.8346 24.4699 56.7676C24.2285 56.3917 23.9923 56.0209 23.751 55.645C23.5969 55.094 22.8626 55.2536 22.8061 55.7737C22.7239 56.5256 22.6469 57.2826 22.5647 58.0345C22.498 58.6524 23.4583 58.6473 23.525 58.0345C23.6072 57.2826 23.6842 56.5256 23.7664 55.7737C23.4531 55.8149 23.1399 55.8613 22.8215 55.9025C23.0115 56.5874 23.2529 56.9839 23.7869 57.4474C24.0642 57.6894 24.475 57.5916 24.588 57.2362C24.9988 55.9436 25.3429 54.6459 25.6202 53.3121C25.7486 52.7096 24.8397 52.4521 24.6959 53.0546C24.1567 55.3257 24.0797 57.5195 24.4391 59.8266C24.5162 60.3106 25.2556 60.2591 25.3634 59.8266C25.99 57.365 26.6165 54.9034 27.243 52.4418C26.9349 52.4418 26.6267 52.4418 26.3186 52.4418C26.9143 54.3884 26.9092 56.1188 26.3237 58.055C26.637 58.0962 26.9503 58.1426 27.2687 58.1838C27.4844 54.8622 27.7051 51.5406 27.9208 48.2139C27.6024 48.2139 27.2789 48.2139 26.9605 48.2139C26.8527 50.5879 26.56 52.9105 26.067 55.233C26.3802 55.2742 26.6935 55.3206 27.0119 55.3618C27.0376 51.1029 27.0684 46.8441 27.094 42.5801C27.0992 42.1115 26.4316 41.9158 26.2005 42.338C24.244 45.9171 25.8257 50.4334 23.4018 53.7705C23.6996 53.8529 23.9975 53.9301 24.2953 54.0125C24.8499 49.697 25.4045 45.3867 25.9592 41.0712C25.6408 41.0712 25.3172 41.0712 24.9989 41.0712C24.7934 45.1447 24.588 49.2233 24.3877 53.2967C24.7061 53.2967 25.0296 53.2967 25.348 53.2967C25.5226 49.6713 25.8513 46.0665 26.3289 42.4719C26.0156 42.5131 25.7024 42.5595 25.384 42.6007C26.3032 45.7729 26.8321 48.9761 26.9708 52.2822C26.9965 52.9208 27.8541 52.8796 27.9311 52.2822C28.4857 48.0594 28.8555 43.8212 29.0352 39.5675C28.7168 39.5675 28.3933 39.5675 28.0749 39.5675C28.2187 41.6531 27.9876 43.6049 27.356 45.603C27.6692 45.6442 27.9824 45.6905 28.3008 45.7317C28.6038 41.3081 28.9017 36.8793 29.2047 32.4557C29.2406 31.9201 28.3625 31.7914 28.2598 32.327C27.5049 36.3489 26.5446 40.3194 25.3737 44.2435C25.687 44.2847 26.0002 44.331 26.3186 44.3722C26.2929 39.8816 26.2673 35.3962 26.2416 30.9056C26.2365 30.3701 25.4251 30.2413 25.2967 30.7769C24.4031 34.5207 23.8691 38.2955 23.6945 42.1424C23.6688 42.714 24.4647 42.7603 24.6393 42.2711C25.8924 38.7281 26.8887 35.1284 27.6384 31.4412C27.3252 31.4 27.0119 31.3537 26.6935 31.3125C26.5343 34.2839 26.37 37.2604 26.2108 40.2318C26.5292 40.2318 26.8527 40.2318 27.1711 40.2318C27.2995 36.0039 28.0236 31.915 29.3536 27.8982C29.0403 27.857 28.7271 27.8107 28.4087 27.7695C28.3266 29.3607 28.0749 30.4576 27.4381 31.9201C27.7308 32.0437 28.0235 32.1673 28.3163 32.2909C28.9068 29.9941 29.0557 27.754 28.7476 25.3954C28.6808 24.8908 27.9671 24.7054 27.8027 25.2667C27.2019 27.3575 26.7294 29.4483 26.3802 31.5957C26.2827 32.1931 27.1711 32.466 27.3046 31.8532C27.7873 29.68 28.1057 27.512 28.2598 25.2924C28.2906 24.8341 27.5562 24.6127 27.3662 25.0504C26.3032 27.4553 25.3583 29.8911 24.5315 32.3888C24.8396 32.4763 25.1478 32.5587 25.4559 32.6462C25.9797 30.1435 26.3803 27.6252 26.6678 25.0813C26.3494 25.0813 26.0259 25.0813 25.7075 25.0813C25.6048 26.0494 25.497 27.0176 25.3943 27.9909C25.7127 27.9909 26.0362 27.9909 26.3546 27.9909C26.447 27.0021 26.5394 26.0185 26.6319 25.0298C26.4316 25.1843 26.2262 25.3388 26.0259 25.4933C26.2108 25.5911 26.3905 25.689 26.5754 25.7919C26.94 26.2915 27.7719 25.8074 27.4124 25.3027Z" fill="white"/>
<path d="M36.8876 24.1216C36.9184 26.8562 36.7437 29.5546 36.3483 32.2582C36.6616 32.2994 36.9748 32.3458 37.2932 32.387C37.4832 29.534 38.0841 26.8665 39.1163 24.2041C38.803 24.1629 38.4898 24.1165 38.1714 24.0753C37.6887 27.7368 37.2111 31.3931 36.7283 35.0545C36.6564 35.5901 37.5602 35.7085 37.6732 35.1833C38.4743 31.4394 39.3474 27.711 40.2923 24.0032C39.9842 24.0032 39.676 24.0032 39.3679 24.0032C40.0098 27.7934 40.0201 31.5321 39.3936 35.3275C39.7069 35.3687 40.0201 35.415 40.3385 35.4562C40.6004 32.5363 40.8623 29.6113 41.1242 26.6914C40.8059 26.6914 40.4823 26.6914 40.1639 26.6914C40.6929 31.8411 40.5593 36.9497 39.7274 42.0633C40.0406 42.1045 40.3539 42.1509 40.6723 42.1921C40.6056 38.8293 40.2769 35.5129 39.6915 32.2016C39.5939 31.6403 38.7774 31.8154 38.7466 32.3303C38.4949 36.7591 38.0173 41.1518 37.3035 45.5291C37.6167 45.5703 37.93 45.6166 38.2484 45.6578C37.9557 40.8634 37.7914 36.069 37.7554 31.2643C37.437 31.2643 37.1135 31.2643 36.7951 31.2643C37.0313 36.136 36.6924 40.9355 35.7526 45.7248C36.0659 45.766 36.3792 45.8123 36.6975 45.8535C37.0776 40.5339 38.0636 35.3378 39.6401 30.2447C39.332 30.2447 39.0238 30.2447 38.7157 30.2447C39.3268 34.7816 39.4552 39.3237 39.1214 43.8863C39.4398 43.8863 39.7634 43.8863 40.0817 43.8863C40.1845 39.7459 40.6004 35.6519 41.3399 31.5785C41.0266 31.5373 40.7134 31.4909 40.395 31.4497C40.7956 38.4894 40.8161 45.5291 40.4566 52.5688C40.4258 53.1919 41.3656 53.1816 41.4169 52.5688C41.6942 49.2575 41.7199 45.9668 41.4888 42.6504C41.4478 42.0376 40.5337 42.0221 40.5285 42.6504C40.5028 47.1049 39.9071 51.4668 38.7311 55.7668C39.0444 55.808 39.3576 55.8543 39.676 55.8955C39.5322 51.0857 39.3936 46.2758 39.2498 41.4608C39.2293 40.8377 38.3255 40.8428 38.2895 41.4608C38.0635 45.4827 37.8376 49.5047 37.6116 53.5215C37.93 53.5215 38.2535 53.5215 38.5719 53.5215C38.1354 50.0506 37.7041 46.5745 37.2676 43.1036C37.1905 42.5062 36.3278 42.465 36.3073 43.1036C36.1327 48.3099 36.4151 53.4854 37.1392 58.6455C37.2059 59.1141 37.9813 59.0935 38.0635 58.6455C38.8441 54.4587 39.6709 50.3132 41.2526 46.3479C40.9394 46.3067 40.6261 46.2604 40.3077 46.2192C40.0047 50.7818 39.7068 55.3393 39.4038 59.902C39.3679 60.4376 40.2358 60.5612 40.3488 60.0308C40.8983 57.3477 41.4477 54.6699 41.9972 51.9869C41.6891 51.9869 41.381 51.9869 41.0728 51.9869C41.3604 53.403 41.2885 54.6029 40.8828 55.9676C40.7082 56.565 41.6326 56.8173 41.8072 56.2251C42.2694 54.6647 42.3156 53.3258 41.9972 51.7345C41.9048 51.2762 41.1653 51.2762 41.0728 51.7345C40.5234 54.4175 39.9739 57.0954 39.4244 59.7784C39.7377 59.8196 40.0509 59.866 40.3693 59.9072C40.6723 55.3445 40.9701 50.787 41.2731 46.2243C41.3142 45.6372 40.5182 45.6321 40.3282 46.0956C38.7414 50.0609 37.9146 54.2116 37.1392 58.3931C37.4473 58.3931 37.7554 58.3931 38.0635 58.3931C37.3497 53.3206 37.093 48.2276 37.2624 43.1087C36.944 43.1087 36.6205 43.1087 36.3021 43.1087C36.7386 46.5796 37.17 50.0557 37.6065 53.5267C37.6835 54.1292 38.5309 54.1601 38.5668 53.5267C38.7928 49.5047 39.0187 45.4827 39.2447 41.466C38.9263 41.466 38.6028 41.466 38.2844 41.466C38.4282 46.2758 38.5668 51.0857 38.7106 55.9007C38.726 56.4363 39.5066 56.565 39.6555 56.0294C40.8521 51.6418 41.458 47.2079 41.4837 42.6607C41.1653 42.6607 40.8418 42.6607 40.5234 42.6607C40.7545 45.972 40.7288 49.2678 40.4515 52.5791C40.7699 52.5791 41.0934 52.5791 41.4118 52.5791C41.7713 45.5394 41.7507 38.4997 41.3502 31.46C41.3194 30.9502 40.508 30.77 40.4053 31.3313C39.6504 35.4923 39.219 39.6687 39.1163 43.8966C39.1009 44.5198 40.0304 44.5095 40.0766 43.8966C40.4155 39.2361 40.2564 34.6271 39.635 29.9975C39.5682 29.4928 38.8338 29.5855 38.7106 29.9975C37.1083 35.173 36.1224 40.4566 35.7372 45.8587C35.6962 46.3943 36.5743 46.5179 36.6821 45.9874C37.6373 41.1209 38.0019 36.2235 37.7605 31.2695C37.7297 30.6567 36.7951 30.6464 36.8002 31.2695C36.8362 36.0742 37.0005 40.8686 37.2932 45.663C37.324 46.1677 38.1457 46.3582 38.2382 45.7917C38.9674 41.3321 39.4604 36.8518 39.712 32.3355C39.3988 32.3767 39.0855 32.423 38.7671 32.4642C39.3371 35.6931 39.6453 38.9271 39.712 42.2024C39.7223 42.7225 40.5645 42.8873 40.6569 42.3311C41.4991 37.1402 41.6686 31.9338 41.1294 26.7017C41.0678 26.0888 40.2256 26.0785 40.1691 26.7017C39.9072 29.6216 39.6452 32.5466 39.3833 35.4665C39.3371 36.0021 40.2358 36.1308 40.3282 35.5953C40.9804 31.63 40.9753 27.7213 40.3025 23.7612C40.2204 23.2822 39.486 23.3234 39.3782 23.7612C38.4333 27.469 37.5603 31.1974 36.7592 34.9412C37.0724 34.9824 37.3857 35.0288 37.7041 35.07C38.1868 31.4085 38.6643 27.7522 39.1471 24.0907C39.2241 23.514 38.3819 23.4985 38.2022 23.962C37.1443 26.6965 36.5383 29.4774 36.3432 32.4024C36.3072 32.938 37.2059 33.0719 37.2881 32.5312C37.6938 29.74 37.889 26.9592 37.8582 24.1371C37.8427 23.5037 36.8824 23.4985 36.8876 24.1216Z" fill="white"/>
<path d="M54.1423 23.0977C54.2552 27.1093 54.0806 31.0952 53.6133 35.076C53.5517 35.6115 54.4812 35.7403 54.5582 35.2047C55.0615 31.5638 55.5596 27.9281 56.0629 24.2873C55.7548 24.2873 55.4466 24.2873 55.1385 24.2873C55.6264 27.5831 55.4723 30.7965 54.6917 34.0357C55.005 34.0769 55.3183 34.1233 55.6367 34.1645C55.3286 31.5329 54.7996 28.9735 54.0242 26.4347C53.8598 25.8991 53.1203 26.0279 53.0792 26.5634C52.8686 29.3288 52.653 32.0891 52.4424 34.8545C52.7608 34.8545 53.0843 34.8545 53.4027 34.8545C52.997 31.6205 52.8225 28.3916 52.8687 25.137C52.5503 25.137 52.2268 25.137 51.9084 25.137C52.0213 28.5204 51.7697 31.8419 51.1329 35.1738C51.4462 35.215 51.7594 35.2614 52.0778 35.3026C52.047 32.1303 52.0111 28.9581 51.9803 25.7858C51.9751 25.4408 51.6772 25.276 51.3743 25.3224C48.9966 25.6571 49.7669 31.1004 49.7104 32.6144C49.5974 35.9205 48.709 41.0497 50.7323 43.9541C50.9994 44.3403 51.6105 44.2116 51.6259 43.7121C51.7491 39.8755 52.2524 36.111 53.1408 32.3826C52.8276 32.3414 52.5143 32.2951 52.1959 32.2539C52.1548 37.4036 52.1138 42.5534 52.0727 47.7031C52.0675 48.2438 52.8841 48.3623 53.0176 47.8318C54.3374 42.5585 54.9947 37.1719 55.611 31.7801C55.2926 31.7801 54.9691 31.7801 54.6507 31.7801C54.8561 36.4612 54.8663 41.1372 54.6814 45.8183C54.6558 46.4517 55.5751 46.4208 55.6418 45.8183C55.8832 43.7224 55.9397 41.6625 55.8216 39.5562C55.7856 38.9383 54.8253 38.9383 54.8612 39.5562C54.9794 41.6625 54.9228 43.7224 54.6814 45.8183C54.9998 45.8183 55.3234 45.8183 55.6418 45.8183C55.8267 41.1372 55.8164 36.4612 55.611 31.7801C55.5853 31.1467 54.7226 31.1776 54.6507 31.7801C54.0447 37.0895 53.3925 42.3834 52.0881 47.5744C52.4014 47.6156 52.7146 47.6619 53.033 47.7031C53.0741 42.5534 53.1152 37.4036 53.1562 32.2539C53.1614 31.7183 52.3397 31.5896 52.2113 32.1251C51.3024 35.9411 50.7888 39.788 50.6604 43.7121C50.9583 43.6297 51.2561 43.5524 51.554 43.47C49.9723 41.199 50.5629 37.2543 50.6142 34.6125C50.6348 33.4383 50.3215 26.4347 51.6207 26.2493C51.4205 26.0948 51.2151 25.9403 51.0148 25.7858C51.0456 28.9581 51.0815 32.1303 51.1123 35.3026C51.1175 35.8278 51.9494 35.9823 52.0572 35.4313C52.7094 32.0222 52.9868 28.613 52.8687 25.1421C52.8481 24.5241 51.9186 24.519 51.9084 25.1421C51.8621 28.4019 52.0418 31.6308 52.4424 34.8597C52.5194 35.4674 53.3565 35.4931 53.4027 34.8597C53.6133 32.0943 53.829 29.334 54.0395 26.5686C53.7263 26.6098 53.413 26.6561 53.0946 26.6973C53.8495 29.1538 54.3734 31.6102 54.6764 34.1696C54.7329 34.6691 55.4826 34.87 55.6213 34.2984C56.4429 30.8892 56.5867 27.511 56.0681 24.0401C56.0013 23.5818 55.2053 23.5766 55.1436 24.0401C54.6404 27.681 54.1423 31.3166 53.639 34.9575C53.9523 34.9987 54.2655 35.045 54.5839 35.0862C55.0461 31.1004 55.2207 27.1145 55.1129 23.108C55.0821 22.4797 54.1217 22.4746 54.1423 23.0977Z" fill="white"/>
<path d="M54.2709 39.1454C53.896 41.0611 53.4492 42.951 52.8895 44.8204C52.5402 45.9894 52.1911 46.8236 50.9996 45.9327C50.1112 45.2684 49.9058 42.5442 49.839 41.5606C49.5976 41.6997 49.3562 41.8387 49.1149 41.9777C50.4552 42.9407 50.2909 48.1625 50.4758 49.8414C50.7223 52.0763 50.9688 54.3062 51.2153 56.5411C51.282 57.154 52.1141 57.1643 52.1757 56.5411C52.6481 51.7159 53.1155 46.8854 53.5879 42.0601C53.2695 42.0601 52.9459 42.0601 52.6275 42.0601C52.3194 45.3508 52.0062 48.6466 51.698 51.9373C51.5029 54.0281 50.6093 56.8965 51.9702 58.7298C52.1911 59.0285 52.7611 59.0645 52.8484 58.6165C53.7933 53.6779 54.7383 48.7342 55.6832 43.7956C55.3699 43.7544 55.0567 43.7081 54.7383 43.6669C54.5534 48.1162 54.3685 52.5604 54.1836 57.0097C54.1579 57.6329 55.0926 57.6174 55.144 57.0097C55.4932 52.8694 55.8475 48.729 56.1968 44.5938C55.8784 44.5938 55.5548 44.5938 55.2364 44.5938C55.0002 49.0792 54.7691 53.5646 54.5329 58.05C54.502 58.668 55.4624 58.668 55.4932 58.05C55.7294 53.5646 55.9605 49.0792 56.1968 44.5938C56.2276 43.9707 55.2878 43.981 55.2364 44.5938C54.8872 48.7342 54.5328 52.8745 54.1836 57.0097C54.502 57.0097 54.8255 57.0097 55.144 57.0097C55.3288 52.5604 55.5137 48.1162 55.6986 43.6669C55.7192 43.1313 54.8564 43.0025 54.7536 43.5381C53.8087 48.4767 52.8638 53.4204 51.9189 58.359C52.2116 58.3229 52.5043 58.2817 52.7971 58.2457C51.4053 56.3712 52.643 52.1072 52.8433 49.9649C53.0898 47.3283 53.3414 44.6968 53.5879 42.0601C53.6444 41.4422 52.6892 41.4473 52.6275 42.0601C52.1551 46.8854 51.6877 51.7159 51.2153 56.5411C51.5337 56.5411 51.8573 56.5411 52.1757 56.5411C51.8059 53.1938 51.4361 49.8414 51.0664 46.494C50.8764 44.7586 51.164 42.2764 49.5976 41.1486C49.3101 40.9426 48.8478 41.2156 48.8735 41.5658C48.9762 42.9871 49.7928 48.6621 52.1294 48.2964C52.9922 48.1625 53.1873 47.0142 53.4133 46.3705C54.2093 44.1149 54.7382 41.7512 55.1953 39.408C55.3134 38.7952 54.3891 38.5377 54.2709 39.1454Z" fill="white"/>
<path d="M59.6011 24.6952C59.9041 28.4442 60.4228 32.152 61.1623 35.8392C61.2496 36.2872 62.025 36.313 62.0866 35.8392C62.6258 31.946 63.052 28.0425 63.3499 24.1236C63.0315 24.1236 62.708 24.1236 62.3896 24.1236C62.6823 28.9128 62.6567 33.6918 62.3126 38.481C62.631 38.481 62.9545 38.481 63.2729 38.481C63.3551 36.1739 63.4372 33.8668 63.5142 31.5598C63.5913 29.3248 63.2421 26.5543 64.3513 24.5613C64.0586 24.5253 63.7659 24.4841 63.4732 24.448C64.3308 29.5874 64.6184 34.7372 64.3616 39.9384C64.68 39.9384 65.0035 39.9384 65.3219 39.9384C65.2551 35.7362 65.3681 31.5392 65.6506 27.3473C65.3373 27.3885 65.024 27.4349 64.7056 27.4761C65.6762 32.6927 66.159 37.9351 66.1692 43.2342C66.1692 43.8573 67.0987 43.8521 67.1296 43.2342C67.2836 39.9178 67.4376 36.6013 67.5917 33.2849C67.2733 33.2849 66.9498 33.2849 66.6314 33.2849C66.96 39.3049 66.7649 45.3044 66.0511 51.2883C66.3695 51.2883 66.693 51.2883 67.0114 51.2883C67.1295 46.5763 66.7803 41.9159 65.9792 37.2708C65.8816 36.7044 65.0754 36.8897 65.0343 37.3996C64.644 42.6162 64.5362 47.8329 64.7108 53.0598C65.0292 53.0598 65.3527 53.0598 65.6711 53.0598C65.3373 46.6896 64.7159 40.3503 63.8275 34.0368C63.7505 33.4909 62.8826 33.6351 62.8826 34.1655C62.8775 40.8962 62.8723 47.6217 62.8672 54.3524C63.1856 54.3524 63.5091 54.3524 63.8275 54.3524C63.7453 48.7186 63.658 43.0848 63.5759 37.451C63.5656 36.8331 62.6258 36.8331 62.6156 37.451C62.4666 44.81 62.9494 52.1277 64.0381 59.4043C64.11 59.8678 64.8854 59.8575 64.9624 59.4043C65.4913 56.4381 66.0152 53.4718 66.5441 50.5056C66.2309 50.4644 65.9176 50.418 65.5992 50.3768C65.8867 53.3122 65.8303 56.1857 65.404 59.1004C65.7173 59.1416 66.0306 59.188 66.349 59.2292C66.6263 57.0457 66.9036 54.8622 67.1809 52.6736C66.8676 52.7148 66.5543 52.7612 66.2359 52.8024C66.6827 54.5378 66.5852 55.9334 65.933 57.607C65.707 58.1838 66.6365 58.4361 66.8574 57.8645C67.5609 56.0724 67.6431 54.4091 67.1603 52.5449C67.0114 51.9784 66.2822 52.1689 66.2154 52.6736C65.9381 54.8571 65.6608 57.0406 65.3835 59.2292C65.3168 59.7648 66.2462 59.8935 66.3284 59.3579C66.7649 56.3556 66.8522 53.3946 66.5595 50.3768C66.5133 49.8825 65.7173 49.6713 65.6146 50.2481C65.0856 53.2143 64.5619 56.1806 64.0329 59.1468C64.341 59.1468 64.6491 59.1468 64.9572 59.1468C63.8788 51.9578 63.4218 44.7173 63.5656 37.451C63.2472 37.451 62.9237 37.451 62.6053 37.451C62.6874 43.0848 62.7747 48.7186 62.8569 54.3524C62.8672 54.9704 63.8172 54.9755 63.8172 54.3524C63.8223 47.6217 63.8275 40.8962 63.8326 34.1655C63.5194 34.2067 63.2061 34.2531 62.8877 34.2943C63.7659 40.5254 64.3667 46.7823 64.7005 53.065C64.7313 53.6778 65.6813 53.6881 65.6608 53.065C65.4862 47.838 65.594 42.6213 65.9843 37.4047C65.6711 37.4459 65.3578 37.4922 65.0394 37.5334C65.8251 42.0961 66.1538 46.669 66.0357 51.2935C66.0203 51.9269 66.9241 51.8909 66.996 51.2935C67.7098 45.3095 67.8999 39.3101 67.5763 33.2901C67.5404 32.6721 66.6468 32.667 66.616 33.2901C66.462 36.6065 66.3079 39.9229 66.1538 43.2393C66.4722 43.2393 66.7957 43.2393 67.1141 43.2393C67.1039 37.8527 66.6006 32.5176 65.6146 27.2237C65.5119 26.6624 64.7056 26.8375 64.6697 27.3525C64.3821 31.5495 64.2743 35.7414 64.341 39.9435C64.3513 40.5666 65.2705 40.5615 65.3013 39.9435C65.5632 34.6599 65.25 29.4123 64.3769 24.1957C64.3051 23.7786 63.6888 23.7425 63.4988 24.0824C62.5488 25.7869 62.6669 27.6872 62.6001 29.5874C62.4974 32.5537 62.3896 35.5199 62.2869 38.4861C62.2663 39.1093 63.201 39.099 63.2472 38.4861C63.5913 33.6969 63.617 28.918 63.3242 24.1287C63.2883 23.5056 62.4101 23.5108 62.3639 24.1287C62.0712 27.9601 61.6604 31.7812 61.1314 35.5869C61.4395 35.5869 61.7477 35.5869 62.0558 35.5869C61.3369 31.9821 60.8284 28.3618 60.5306 24.7003C60.5152 24.0824 59.5497 24.0772 59.6011 24.6952Z" fill="white"/>
<path d="M15.9196 25.3131C20.7726 21.5692 25.6204 17.8202 30.4734 14.0764C32.8973 12.2019 35.3263 10.3325 37.7502 8.458C39.0956 7.41776 40.4462 6.37751 41.7917 5.33726C42.9061 4.47726 44.3954 2.82933 45.787 2.81388C47.2352 2.79843 48.6937 4.34335 49.8594 5.19306C51.1022 6.09426 52.345 6.99547 53.5877 7.89667C56.0733 9.69908 58.5536 11.5015 61.0391 13.3039C66.1437 17.0117 71.2534 20.7144 76.358 24.4222C77.4621 25.2204 78.5148 23.3871 77.4261 22.594C71.9056 18.5875 66.3851 14.581 60.8645 10.5745C58.1068 8.57129 55.344 6.56805 52.5863 4.5648C51.2049 3.56575 49.8338 2.54609 48.4472 1.55734C47.6666 1.00117 46.8398 0.249315 45.8127 0.244165C44.7754 0.239015 43.9126 1.05783 43.1526 1.6346C41.7969 2.66455 40.4565 3.71509 39.111 4.75534C36.5485 6.73284 33.9911 8.71035 31.4285 10.6879C25.9029 14.9518 20.3772 19.221 14.8515 23.4849C13.7936 24.3037 14.8412 26.1474 15.9196 25.3131Z" fill="white"/>
<path d="M20.3256 25.0051C37.7449 23.7949 55.2206 23.8464 72.6347 25.1596C73.9904 25.2626 73.9853 23.141 72.6347 23.0431C55.2206 21.73 37.7449 21.6785 20.3256 22.8886C18.9802 22.9813 18.9699 25.1029 20.3256 25.0051Z" fill="white"/>
<path d="M24.8292 24.9674C24.1205 32.7847 23.4991 40.6071 22.9702 48.4398C22.8418 50.3143 22.7237 52.1837 22.6056 54.0582C22.5286 55.2735 22.0458 57.3488 22.4104 58.5075C23.1243 60.7631 26.1438 60.552 28.0644 60.3666C28.3315 60.3408 28.5318 60.1657 28.5472 59.8877C29.0196 48.0999 29.492 36.3174 29.9696 24.5296C29.9953 23.9117 29.035 23.9117 29.0093 24.5296C28.7731 30.4209 28.5369 36.3174 28.3006 42.2086C28.1877 45.0719 28.0696 47.9351 27.9566 50.7932C27.895 52.3072 27.8334 53.8213 27.7717 55.3404C27.7307 56.4064 28.0901 58.8423 27.1093 59.4963C26.7139 59.7589 24.67 59.4087 24.3773 59.2182C23.4427 58.6208 23.4992 57.5085 23.417 56.6176C23.2835 55.1499 23.607 53.502 23.6994 52.0189C23.8843 49.1247 24.0794 46.2306 24.29 43.3364C24.7316 37.2083 25.24 31.0904 25.7946 24.9725C25.8408 24.3494 24.8806 24.3546 24.8292 24.9674Z" fill="white"/>
<path d="M36.2402 24.7258C35.8705 32.7439 35.7524 40.7672 35.9219 48.7956C35.9629 50.6752 36.0143 52.5497 36.0862 54.4294C36.1375 55.7529 35.7729 58.0239 36.3481 59.1929C37.2108 60.9489 39.7836 60.1559 41.3652 60.0889C41.6323 60.0786 41.8325 59.8778 41.8479 59.61C42.3666 47.4258 42.305 35.2312 41.6631 23.0521C41.6323 22.4341 40.672 22.4341 40.7028 23.0521C41.0263 29.1391 41.2112 35.2312 41.242 41.3285C41.2574 44.3771 41.2369 47.4258 41.1752 50.4693C41.1393 52.282 41.8223 58.5801 40.1328 59.1774C39.7887 59.2959 38.8438 59.3165 38.4844 59.2444C37.3289 59.0126 37.3751 58.6213 37.1748 57.4986C36.9129 56.0412 37.0413 54.3624 36.99 52.8896C36.8873 49.8152 36.8256 46.746 36.8051 43.6716C36.764 37.3529 36.9027 31.0342 37.1954 24.7258C37.2262 24.1026 36.2659 24.1078 36.2402 24.7258Z" fill="white"/>
<path d="M49.5768 23.599C49.4176 35.397 49.6127 47.195 50.1519 58.9827C50.1622 59.2454 50.3625 59.4617 50.6347 59.4617C52.2369 59.4668 55.01 60.229 55.9087 58.4935C56.5198 57.3142 56.1809 55.105 56.2631 53.7867C56.3812 51.7628 56.489 49.7441 56.5815 47.7203C56.9512 39.6249 57.1002 31.5244 57.0539 23.4239C57.0488 22.8059 56.0884 22.8008 56.0936 23.4239C56.1295 29.5006 56.0576 35.5773 55.8574 41.6488C55.7598 44.6871 55.6314 47.7203 55.4722 50.7535C55.39 52.2727 55.3079 53.7867 55.2103 55.3007C55.1589 56.1658 55.1949 56.8765 54.7379 57.6593C54.137 58.6892 53.798 58.648 52.4988 58.4987C50.8092 58.303 51.0506 57.5511 50.9839 55.9444C50.9222 54.4304 50.8658 52.9112 50.8144 51.3972C50.7117 48.364 50.6346 45.3308 50.5781 42.2976C50.4652 36.0613 50.4601 29.825 50.5422 23.5887C50.5474 22.981 49.587 22.9759 49.5768 23.599Z" fill="white"/>
<path d="M60.6949 22.5267C60.5665 35.1229 61.157 47.7088 62.4512 60.238C62.4871 60.5625 62.7285 60.7685 63.0572 60.7015C64.7929 60.3513 66.7444 61.9941 67.6277 59.7797C68.2234 58.2863 67.9975 55.8453 68.0899 54.2438C68.2131 52.1118 68.2901 49.9798 68.3107 47.8427C68.4083 39.4126 67.6945 31.0082 66.2771 22.7017C66.1744 22.0941 65.2448 22.3516 65.3527 22.9592C66.5903 30.21 67.2785 37.5329 67.3555 44.8867C67.3915 48.337 67.2939 51.7874 67.073 55.2274C67.0217 56.0462 66.9601 56.865 66.8882 57.6838C66.77 59.0124 66.8882 59.9239 65.2808 59.9548C64.3769 59.9703 63.7504 59.584 62.8055 59.7746C63.0058 59.929 63.2112 60.0835 63.4115 60.238C62.1122 47.7088 61.5268 35.1229 61.6552 22.5267C61.6603 21.9035 60.7 21.9035 60.6949 22.5267Z" fill="white"/>
<path d="M20.4489 61.2059C37.3699 59.1718 54.4348 58.8989 71.4072 60.3923C72.7629 60.5107 72.7526 58.3942 71.4072 58.2757C54.4296 56.7823 37.3699 57.0553 20.4489 59.0894C19.1137 59.249 19.0983 61.3656 20.4489 61.2059Z" fill="white"/>
<path d="M15.3135 64.3269C26.0772 64.1364 36.841 63.9407 47.6047 63.7502C58.3325 63.5596 69.2246 62.818 79.937 63.5081C81.2928 63.5957 81.2876 61.474 79.937 61.3916C69.2195 60.7066 58.3325 61.4431 47.6047 61.6336C36.841 61.8242 26.0772 62.0198 15.3135 62.2104C13.9577 62.231 13.9526 64.3527 15.3135 64.3269Z" fill="white"/>
</svg>
