<svg width="141" height="103" viewBox="0 0 141 103" fill="none" xmlns="http://www.w3.org/2000/svg">
<path d="M12.8573 93.9167V79.9167H18.7573C20.2506 79.9167 21.564 80.2101 22.6973 80.7967C23.844 81.3834 24.7306 82.2034 25.3573 83.2567C25.9973 84.3101 26.3173 85.5301 26.3173 86.9167C26.3173 88.3034 25.9973 89.5234 25.3573 90.5767C24.7306 91.6301 23.844 92.4501 22.6973 93.0367C21.564 93.6234 20.2506 93.9167 18.7573 93.9167H12.8573ZM14.8573 92.1767H18.6373C19.7973 92.1767 20.7973 91.9567 21.6373 91.5167C22.4906 91.0767 23.1506 90.4634 23.6173 89.6767C24.084 88.8767 24.3173 87.9567 24.3173 86.9167C24.3173 85.8634 24.084 84.9434 23.6173 84.1567C23.1506 83.3701 22.4906 82.7567 21.6373 82.3167C20.7973 81.8767 19.7973 81.6567 18.6373 81.6567H14.8573V92.1767ZM33.8207 94.0367C32.6874 94.0367 31.6874 93.8034 30.8207 93.3367C29.9674 92.8701 29.3007 92.2301 28.8207 91.4167C28.3541 90.6034 28.1207 89.6701 28.1207 88.6167C28.1207 87.5634 28.3474 86.6301 28.8007 85.8167C29.2674 85.0034 29.9007 84.3701 30.7007 83.9167C31.5141 83.4501 32.4274 83.2167 33.4407 83.2167C34.4674 83.2167 35.3741 83.4434 36.1607 83.8967C36.9474 84.3501 37.5607 84.9901 38.0007 85.8167C38.4541 86.6301 38.6807 87.5834 38.6807 88.6767C38.6807 88.7567 38.6741 88.8501 38.6607 88.9567C38.6607 89.0634 38.6541 89.1634 38.6407 89.2567H29.6207V87.8767H37.6407L36.8607 88.3567C36.8741 87.6767 36.7341 87.0701 36.4407 86.5367C36.1474 86.0034 35.7407 85.5901 35.2207 85.2967C34.7141 84.9901 34.1207 84.8367 33.4407 84.8367C32.7741 84.8367 32.1807 84.9901 31.6607 85.2967C31.1407 85.5901 30.7341 86.0101 30.4407 86.5567C30.1474 87.0901 30.0007 87.7034 30.0007 88.3967V88.7167C30.0007 89.4234 30.1607 90.0567 30.4807 90.6167C30.8141 91.1634 31.2741 91.5901 31.8607 91.8967C32.4474 92.2034 33.1207 92.3567 33.8807 92.3567C34.5074 92.3567 35.0741 92.2501 35.5807 92.0367C36.1007 91.8234 36.5541 91.5034 36.9407 91.0767L38.0007 92.3167C37.5207 92.8767 36.9207 93.3034 36.2007 93.5967C35.4941 93.8901 34.7007 94.0367 33.8207 94.0367ZM46.9668 94.0367C46.0602 94.0367 45.2402 93.8367 44.5068 93.4367C43.7868 93.0234 43.2135 92.4167 42.7868 91.6167C42.3735 90.8167 42.1668 89.8167 42.1668 88.6167C42.1668 87.4167 42.3802 86.4167 42.8068 85.6167C43.2468 84.8167 43.8268 84.2167 44.5468 83.8167C45.2802 83.4167 46.0868 83.2167 46.9668 83.2167C48.0068 83.2167 48.9268 83.4434 49.7268 83.8967C50.5268 84.3501 51.1602 84.9834 51.6268 85.7967C52.0935 86.5967 52.3268 87.5367 52.3268 88.6167C52.3268 89.6967 52.0935 90.6434 51.6268 91.4567C51.1602 92.2701 50.5268 92.9034 49.7268 93.3567C48.9268 93.8101 48.0068 94.0367 46.9668 94.0367ZM41.3468 93.9167V79.0767H43.2668V86.1367L43.0668 88.5967L43.1868 91.0567V93.9167H41.3468ZM46.8068 92.3567C47.4868 92.3567 48.0935 92.2034 48.6268 91.8967C49.1735 91.5901 49.6002 91.1567 49.9068 90.5967C50.2268 90.0234 50.3868 89.3634 50.3868 88.6167C50.3868 87.8567 50.2268 87.2034 49.9068 86.6567C49.6002 86.0967 49.1735 85.6634 48.6268 85.3567C48.0935 85.0501 47.4868 84.8967 46.8068 84.8967C46.1402 84.8967 45.5335 85.0501 44.9868 85.3567C44.4535 85.6634 44.0268 86.0967 43.7068 86.6567C43.4002 87.2034 43.2468 87.8567 43.2468 88.6167C43.2468 89.3634 43.4002 90.0234 43.7068 90.5967C44.0268 91.1567 44.4535 91.5901 44.9868 91.8967C45.5335 92.2034 46.1402 92.3567 46.8068 92.3567ZM54.9797 93.9167V83.3167H56.8997V93.9167H54.9797ZM55.9397 81.2767C55.5663 81.2767 55.253 81.1567 54.9997 80.9167C54.7597 80.6767 54.6397 80.3834 54.6397 80.0367C54.6397 79.6767 54.7597 79.3767 54.9997 79.1367C55.253 78.8967 55.5663 78.7767 55.9397 78.7767C56.313 78.7767 56.6197 78.8967 56.8597 79.1367C57.113 79.3634 57.2397 79.6501 57.2397 79.9967C57.2397 80.3567 57.1197 80.6634 56.8797 80.9167C56.6397 81.1567 56.3263 81.2767 55.9397 81.2767ZM64.2056 94.0367C63.1389 94.0367 62.3123 93.7501 61.7256 93.1767C61.1389 92.6034 60.8456 91.7834 60.8456 90.7167V80.9967H62.7656V90.6367C62.7656 91.2101 62.9056 91.6501 63.1856 91.9567C63.4789 92.2634 63.8923 92.4167 64.4256 92.4167C65.0256 92.4167 65.5256 92.2501 65.9256 91.9167L66.5256 93.2967C66.2323 93.5501 65.8789 93.7367 65.4656 93.8567C65.0656 93.9767 64.6456 94.0367 64.2056 94.0367ZM59.0456 84.8967V83.3167H65.8056V84.8967H59.0456ZM80.7579 94.0767C79.6913 94.0767 78.7046 93.9034 77.7979 93.5567C76.9046 93.1967 76.1246 92.6967 75.4579 92.0567C74.8046 91.4034 74.2913 90.6434 73.9179 89.7767C73.5446 88.9101 73.3579 87.9567 73.3579 86.9167C73.3579 85.8767 73.5446 84.9234 73.9179 84.0567C74.2913 83.1901 74.8113 82.4367 75.4779 81.7967C76.1446 81.1434 76.9246 80.6434 77.8179 80.2967C78.7246 79.9367 79.7113 79.7567 80.7779 79.7567C81.8579 79.7567 82.8513 79.9434 83.7579 80.3167C84.6779 80.6767 85.4579 81.2167 86.0979 81.9367L84.7979 83.1967C84.2646 82.6367 83.6646 82.2234 82.9979 81.9567C82.3313 81.6767 81.6179 81.5367 80.8579 81.5367C80.0713 81.5367 79.3379 81.6701 78.6579 81.9367C77.9913 82.2034 77.4113 82.5767 76.9179 83.0567C76.4246 83.5367 76.0379 84.1101 75.7579 84.7767C75.4913 85.4301 75.3579 86.1434 75.3579 86.9167C75.3579 87.6901 75.4913 88.4101 75.7579 89.0767C76.0379 89.7301 76.4246 90.2967 76.9179 90.7767C77.4113 91.2567 77.9913 91.6301 78.6579 91.8967C79.3379 92.1634 80.0713 92.2967 80.8579 92.2967C81.6179 92.2967 82.3313 92.1634 82.9979 91.8967C83.6646 91.6167 84.2646 91.1901 84.7979 90.6167L86.0979 91.8767C85.4579 92.5967 84.6779 93.1434 83.7579 93.5167C82.8513 93.8901 81.8513 94.0767 80.7579 94.0767ZM95.1143 93.9167V91.6767L95.0143 91.2567V87.4367C95.0143 86.6234 94.7743 85.9967 94.2943 85.5567C93.8277 85.1034 93.121 84.8767 92.1743 84.8767C91.5477 84.8767 90.9343 84.9834 90.3343 85.1967C89.7343 85.3967 89.2277 85.6701 88.8143 86.0167L88.0143 84.5767C88.561 84.1367 89.2143 83.8034 89.9743 83.5767C90.7477 83.3367 91.5543 83.2167 92.3943 83.2167C93.8477 83.2167 94.9677 83.5701 95.7543 84.2767C96.541 84.9834 96.9343 86.0634 96.9343 87.5167V93.9167H95.1143ZM91.6343 94.0367C90.8477 94.0367 90.1543 93.9034 89.5543 93.6367C88.9677 93.3701 88.5143 93.0034 88.1943 92.5367C87.8743 92.0567 87.7143 91.5167 87.7143 90.9167C87.7143 90.3434 87.8477 89.8234 88.1143 89.3567C88.3943 88.8901 88.841 88.5167 89.4543 88.2367C90.081 87.9567 90.921 87.8167 91.9743 87.8167H95.3343V89.1967H92.0543C91.0943 89.1967 90.4477 89.3567 90.1143 89.6767C89.781 89.9967 89.6143 90.3834 89.6143 90.8367C89.6143 91.3567 89.821 91.7767 90.2343 92.0967C90.6477 92.4034 91.221 92.5567 91.9543 92.5567C92.6743 92.5567 93.301 92.3967 93.8343 92.0767C94.381 91.7567 94.7743 91.2901 95.0143 90.6767L95.3943 91.9967C95.141 92.6234 94.6943 93.1234 94.0543 93.4967C93.4143 93.8567 92.6077 94.0367 91.6343 94.0367ZM100.487 93.9167V83.3167H102.327V86.1967L102.147 85.4767C102.441 84.7434 102.934 84.1834 103.627 83.7967C104.321 83.4101 105.174 83.2167 106.187 83.2167V85.0767C106.107 85.0634 106.027 85.0567 105.947 85.0567C105.881 85.0567 105.814 85.0567 105.747 85.0567C104.721 85.0567 103.907 85.3634 103.307 85.9767C102.707 86.5901 102.407 87.4767 102.407 88.6367V93.9167H100.487ZM112.836 94.0367C111.81 94.0367 110.89 93.8101 110.076 93.3567C109.276 92.9034 108.643 92.2701 108.176 91.4567C107.71 90.6434 107.476 89.6967 107.476 88.6167C107.476 87.5367 107.71 86.5967 108.176 85.7967C108.643 84.9834 109.276 84.3501 110.076 83.8967C110.89 83.4434 111.81 83.2167 112.836 83.2167C113.73 83.2167 114.536 83.4167 115.256 83.8167C115.976 84.2167 116.55 84.8167 116.976 85.6167C117.416 86.4167 117.636 87.4167 117.636 88.6167C117.636 89.8167 117.423 90.8167 116.996 91.6167C116.583 92.4167 116.016 93.0234 115.296 93.4367C114.576 93.8367 113.756 94.0367 112.836 94.0367ZM112.996 92.3567C113.663 92.3567 114.263 92.2034 114.796 91.8967C115.343 91.5901 115.77 91.1567 116.076 90.5967C116.396 90.0234 116.556 89.3634 116.556 88.6167C116.556 87.8567 116.396 87.2034 116.076 86.6567C115.77 86.0967 115.343 85.6634 114.796 85.3567C114.263 85.0501 113.663 84.8967 112.996 84.8967C112.316 84.8967 111.71 85.0501 111.176 85.3567C110.643 85.6634 110.216 86.0967 109.896 86.6567C109.576 87.2034 109.416 87.8567 109.416 88.6167C109.416 89.3634 109.576 90.0234 109.896 90.5967C110.216 91.1567 110.643 91.5901 111.176 91.8967C111.71 92.2034 112.316 92.3567 112.996 92.3567ZM116.616 93.9167V91.0567L116.736 88.5967L116.536 86.1367V79.0767H118.456V93.9167H116.616ZM125.129 94.0367C124.249 94.0367 123.409 93.9167 122.609 93.6767C121.822 93.4367 121.202 93.1434 120.749 92.7967L121.549 91.2767C122.002 91.5834 122.562 91.8434 123.229 92.0567C123.896 92.2701 124.576 92.3767 125.269 92.3767C126.162 92.3767 126.802 92.2501 127.189 91.9967C127.589 91.7434 127.789 91.3901 127.789 90.9367C127.789 90.6034 127.669 90.3434 127.429 90.1567C127.189 89.9701 126.869 89.8301 126.469 89.7367C126.082 89.6434 125.649 89.5634 125.169 89.4967C124.689 89.4167 124.209 89.3234 123.729 89.2167C123.249 89.0967 122.809 88.9367 122.409 88.7367C122.009 88.5234 121.689 88.2367 121.449 87.8767C121.209 87.5034 121.089 87.0101 121.089 86.3967C121.089 85.7567 121.269 85.1967 121.629 84.7167C121.989 84.2367 122.496 83.8701 123.149 83.6167C123.816 83.3501 124.602 83.2167 125.509 83.2167C126.202 83.2167 126.902 83.3034 127.609 83.4767C128.329 83.6367 128.916 83.8701 129.369 84.1767L128.549 85.6967C128.069 85.3767 127.569 85.1567 127.049 85.0367C126.529 84.9167 126.009 84.8567 125.489 84.8567C124.649 84.8567 124.022 84.9967 123.609 85.2767C123.196 85.5434 122.989 85.8901 122.989 86.3167C122.989 86.6767 123.109 86.9567 123.349 87.1567C123.602 87.3434 123.922 87.4901 124.309 87.5967C124.709 87.7034 125.149 87.7967 125.629 87.8767C126.109 87.9434 126.589 88.0367 127.069 88.1567C127.549 88.2634 127.982 88.4167 128.369 88.6167C128.769 88.8167 129.089 89.0967 129.329 89.4567C129.582 89.8167 129.709 90.2967 129.709 90.8967C129.709 91.5367 129.522 92.0901 129.149 92.5567C128.776 93.0234 128.249 93.3901 127.569 93.6567C126.889 93.9101 126.076 94.0367 125.129 94.0367Z" fill="white"/>
<path d="M104.34 38.5163C102.374 38.2393 100.337 39.7791 100.487 41.8823C100.66 44.2907 103.511 44.4221 104.86 42.8776C106.269 41.2579 105.669 38.7651 103.652 37.9952C101.676 37.2393 99.4756 38.9435 99.6816 41.0608C99.8876 43.2109 102.364 44.3611 104.167 43.2532C104.902 42.7978 105.52 41.9668 105.51 41.0702C105.501 39.9153 104.424 39.2205 103.474 38.812C101.564 37.9905 99.4008 38.7369 99.0075 40.9293C98.6845 42.7274 99.9579 44.3048 101.802 44.2719C103.656 44.2391 105.15 42.61 104.696 40.7321C104.228 38.8026 101.896 37.8496 100.272 39.0937C98.75 40.258 98.9607 42.8682 100.796 43.5912C102.514 44.2719 104.583 43.1077 104.63 41.1922C104.682 39.2158 102.697 37.352 100.716 38.1501C98.9045 38.8824 98.6049 41.7086 100.075 42.9246C101.746 44.3001 104.312 42.7837 104.574 40.826C104.841 38.8214 102.575 37.0797 100.871 38.4881C99.1198 39.9341 101.119 42.9809 102.968 41.5725C104.635 40.3002 102.669 37.7604 101.236 39.197C99.6629 40.7744 103.207 42.657 103.483 40.2204C103.572 39.4176 102.86 38.7134 102.06 39.0092C100.899 39.4364 101.245 40.7885 101.625 41.6288C101.859 42.1405 102.612 41.6946 102.378 41.1875C102.289 40.9904 101.802 39.6571 102.046 39.7228C102.163 39.8402 102.28 39.9575 102.397 40.0749C102.903 40.3519 102.86 40.5678 102.275 40.7134C102.116 40.8073 101.962 40.9058 101.802 40.9997C101.578 40.8213 101.353 40.6429 101.133 40.4645C100.946 39.9904 101.11 39.3519 101.531 39.0796C102.772 38.2721 104.017 39.7791 103.642 41.0044C103.31 42.0842 101.84 43.0278 100.763 42.3518C99.7893 41.7368 99.7846 39.9669 100.613 39.2299C102.58 37.4787 105.197 41.4974 102.767 42.6851C100.534 43.779 98.9653 40.4129 101.269 39.5444C103.492 38.7087 104.925 41.9762 102.903 43.0936C101.395 43.9292 99.5646 42.8964 99.8689 41.1077C100.014 40.2486 100.571 39.5491 101.447 39.3754C102.378 39.1876 104.56 39.8308 104.635 41.0702C104.705 42.2532 103.169 42.9809 102.196 42.7743C100.885 42.502 100.154 41.0091 100.805 39.8167C102.247 37.1689 106.072 39.7979 104.293 42.1781C103.324 43.4785 101.067 43.225 101.4 41.3002C101.61 40.0749 102.898 39.1923 104.106 39.3613C104.658 39.4411 104.897 38.5961 104.34 38.5163Z" fill="white"/>
<path d="M99.1105 39.4235C97.5375 38.2873 95.1733 38.0761 93.9514 39.8601C93.001 41.2497 93.6096 43.4421 95.4027 43.7473C97.3175 44.0712 98.7922 41.7192 98.8624 40.0432C98.942 38.0949 97.1068 37.4658 95.4964 37.9916C93.8578 38.5268 92.1397 40.2028 92.8606 42.0806C93.6752 44.1933 96.3297 43.7895 97.8278 42.7614C99.1995 41.8224 100.407 39.8413 99.0918 38.3202C97.8699 36.9118 95.6181 37.7193 94.5554 38.8882C93.3147 40.2544 93.5769 42.3013 95.2202 43.2355C96.84 44.1557 98.8905 43.1276 99.56 41.4891C100.328 39.6019 98.1789 38.4657 96.531 38.6676C94.7754 38.8789 93.2772 40.6628 93.6424 42.4703C93.9935 44.198 96.1096 44.7144 97.5188 43.9351C99.0122 43.1135 99.3118 41.1042 98.2913 39.7803C97.2519 38.4235 94.8831 38.3578 94.0498 39.9868C93.3007 41.4469 94.2744 43.1745 95.927 43.1557C97.1677 43.1417 100.009 41.2732 98.441 39.907C97.1536 38.785 94.6631 39.8413 95.1031 41.6581C95.5104 43.3341 97.8699 43.3576 98.001 41.5314C98.1321 39.7192 95.7023 39.6723 95.1312 41.137C94.9814 41.522 95.4683 41.7896 95.7726 41.6347C96.6012 41.2121 97.1162 40.5596 97.3596 39.6629C97.5094 39.1183 96.662 38.8836 96.5169 39.4281C96.3297 40.123 95.9645 40.5502 95.3325 40.8788C95.5479 41.0431 95.7632 41.2074 95.9739 41.3764C97.4626 41.5736 97.4861 41.6816 96.0348 41.7004C95.7819 41.0478 95.9832 40.6206 96.648 40.4093C97.6218 40.0713 98.1555 40.7614 97.5141 41.5595C96.7697 42.4797 94.6958 42.6863 94.6583 41.0948C94.6209 39.3624 96.9711 39.2732 97.7248 40.5173C98.3849 41.6112 97.8793 43.0149 96.6386 43.3576C95.3091 43.7238 94.1387 42.7004 94.5647 41.3107C94.972 39.9727 96.3952 39.2216 97.7248 39.6582C99.354 40.1934 98.825 41.7379 97.6405 42.4187C96.428 43.1088 94.7052 42.4281 94.6068 40.9258C94.5226 39.6253 96.03 38.5174 97.2285 38.4798C98.9045 38.4282 99.0684 40.2732 98.1695 41.3389C97.4111 42.2356 95.9645 43.0431 94.7707 42.7097C92.9964 42.2168 93.5114 40.2263 94.6677 39.4C95.487 38.8131 97.5001 38.0479 97.9448 39.522C98.2491 40.522 97.3971 42.1088 96.5544 42.6581C95.707 43.2074 94.6677 42.7379 94.3962 41.7943C94.1762 41.0243 94.6115 40.2497 95.2342 39.8178C96.339 39.0573 97.6733 39.4892 98.6658 40.2028C99.1293 40.5126 99.5647 39.7521 99.1105 39.4235Z" fill="white"/>
<path d="M43.7789 3.735C42.557 10.9883 40.586 18.0631 38.5823 25.1333C38.8632 25.2131 39.1441 25.2882 39.425 25.3681C41.1104 18.5326 43.1328 11.7958 45.4876 5.1622C45.2442 5.22792 45.0008 5.28894 44.7574 5.35467C46.0916 6.56589 45.0617 9.56579 44.7574 11.0775C44.4437 12.6408 44.0738 14.1901 43.6525 15.7252C42.8473 18.6594 41.8314 21.5231 40.6563 24.3259C40.9419 24.3634 41.2274 24.4057 41.5177 24.4432C42.0888 18.1289 43.8397 12.0774 46.7283 6.43913C46.4567 6.36402 46.1852 6.29361 45.9137 6.2185C45.4736 12.3169 44.0972 18.2228 41.8126 23.8892C42.0561 23.8235 42.2995 23.7578 42.543 23.6968C41.1432 22.1663 42.9315 17.5186 43.3576 15.7581C43.8491 13.73 44.322 9.07284 46.3491 8.0494C46.1291 7.92265 45.909 7.79589 45.689 7.66914C45.6281 12.8943 44.556 17.9599 42.4821 22.7484C42.7536 22.8235 43.0252 22.894 43.2967 22.9691C43.1328 16.8144 44.4062 10.8427 47.0841 5.30303C46.8172 5.27017 46.5504 5.2326 46.2836 5.19973C47.3182 8.00245 46.5878 11.1244 46.012 13.9647C45.4736 16.6219 44.7246 19.2133 43.8257 21.7673C44.1113 21.8048 44.3969 21.8471 44.6871 21.8846C44.5701 15.1618 45.9559 8.62215 48.8116 2.53316C48.5401 2.45805 48.2685 2.38764 47.997 2.31253C48.2451 9.68316 46.8828 16.913 43.9381 23.6686C44.2096 23.7437 44.4811 23.8141 44.7527 23.8892C44.3454 20.7767 44.5513 17.7204 45.0757 14.6313C45.3004 13.2934 45.5813 11.9648 45.8669 10.6409C46.0822 9.63621 46.2602 7.76774 46.939 6.95087C47.248 6.57999 48.0251 6.02131 48.5494 6.61283C48.8163 6.91329 48.6665 8.14331 48.6384 8.62217C48.5495 10.0869 48.2732 11.5563 47.9549 12.9882C47.2901 15.9975 46.2227 18.8706 44.8556 21.6264C45.1272 21.7015 45.3987 21.7719 45.6702 21.8471C45.2583 15.6783 46.6768 9.70663 49.8275 4.39226C49.5747 4.39226 49.3219 4.39226 49.0738 4.39226C50.6468 7.34052 49.0972 12.0023 48.3107 15.0726C47.4727 18.3401 46.3163 21.4997 44.9071 24.5606C45.1787 24.6357 45.4502 24.7061 45.7217 24.7812C45.7124 17.143 47.496 9.49538 52.3274 3.43456C52.084 3.36883 51.8406 3.30309 51.5971 3.24206C52.9454 9.53762 51.9576 15.9505 48.8023 21.556C49.0738 21.6311 49.3453 21.7015 49.6168 21.7766C49.2095 16.7298 49.8322 11.6361 51.6814 6.9086C51.8172 6.53772 51.967 6.17623 52.1309 5.81943C52.2011 5.00725 52.51 4.88991 53.0437 5.45796C53.952 5.87579 53.8115 6.70673 53.8864 7.6175C53.9848 8.78178 53.9614 9.96013 53.835 11.1244C53.5307 13.9177 52.5569 16.5468 51.1196 18.9457C51.3865 18.9786 51.6533 19.0162 51.9201 19.049C51.4145 16.0961 51.4473 13.1197 52.1355 10.1949C52.4305 8.9367 52.7675 7.24194 53.5072 6.16216C53.6243 5.92274 53.7366 5.68329 53.8536 5.44387C54.8883 4.64108 55.3705 4.75844 55.2909 5.79127C55.614 6.65978 55.3986 8.12921 55.2628 8.932C54.3359 14.3731 51.6393 19.7344 48.7929 24.3963C49.0597 24.4291 49.3266 24.4667 49.5934 24.4996C48.5681 19.9739 48.9427 15.2229 50.9183 10.9977C51.1009 10.608 51.6627 9.15737 52.0372 8.92263C53.451 8.64565 54.0597 8.96956 53.8724 9.8991C53.8068 10.6409 53.7085 11.3732 53.5774 12.1056C53.2591 13.899 52.7535 15.6642 52.0747 17.3542C51.6487 18.4105 51.1571 19.4293 50.6 20.4152C50.1318 21.2461 49.3406 23.5888 48.0672 21.9926C47.6786 21.5043 47.997 19.3589 48.0251 18.7392C48.0766 17.6923 48.1842 16.65 48.3575 15.6172C48.9661 11.9413 50.5297 5.18096 54.804 4.32183C54.6214 4.18099 54.4342 4.04017 54.2516 3.89933C54.8275 8.27476 54.7338 12.6831 53.8209 17.0068C53.5915 18.0913 53.3153 19.1664 52.9923 20.2274C52.7863 20.9034 52.4679 22.6827 51.9763 23.0301C50.7591 23.8986 50.937 21.0631 50.8808 20.3072C50.82 19.4058 50.8153 18.4998 50.8622 17.5937C50.9698 15.4435 51.3771 13.2934 52.0981 11.2606C52.6458 9.71133 55.1879 3.86644 56.6954 8.19024C58.0624 12.1056 55.937 17.3167 53.6196 20.3588C53.8864 20.3917 54.1533 20.4293 54.4202 20.4621C53.4745 18.0209 52.9782 15.4717 53.1046 12.8427C53.1701 11.4765 53.2919 9.57049 53.9145 8.29823C53.9988 8.04942 54.0831 7.80059 54.172 7.55177C54.8836 7.34051 55.5999 7.12925 56.3115 6.9133C56.7047 7.05414 56.6533 8.9367 56.6954 9.34984C57.2338 14.7581 56.1944 20.1617 53.849 25.0441C54.1158 25.077 54.3827 25.1146 54.6496 25.1474C52.7769 17.4998 53.966 9.53761 57.9828 2.7679C57.716 2.73503 57.4492 2.69749 57.1823 2.66463C57.7441 6.19033 57.7816 9.75358 57.1823 13.2793C56.672 16.2698 55.9416 20.2884 53.2216 22.063C53.4417 22.1898 53.6617 22.3165 53.8818 22.4433C53.526 19.4716 53.5774 16.4951 54.158 13.5516C54.4108 12.2652 54.7572 10.9977 55.1879 9.75357C55.4314 9.05876 56.4519 5.44856 57.2619 5.20913C59.1579 4.65516 59.5559 13.3591 59.5699 14.5046C59.612 17.4387 59.6354 21.3823 56.7328 23.0348C56.9482 23.124 57.1635 23.2085 57.3742 23.2977C55.9276 16.6688 56.7984 9.87563 59.8648 3.8289C59.6355 3.85706 59.406 3.88993 59.1766 3.9181C61.9013 6.32646 61.892 10.5798 61.5643 13.9365C61.1944 17.7674 59.8929 21.3729 57.8799 24.6357C58.1467 24.6686 58.4135 24.7061 58.6804 24.739C57.7207 21.0255 57.3461 17.2228 57.6738 13.3966C57.9547 10.1432 58.5446 4.0918 61.7047 2.30783C61.4893 2.21863 61.274 2.13413 61.0633 2.04493C62.0418 5.73963 62.3227 9.52353 61.7749 13.3074C61.5689 14.7299 61.3302 17.528 60.3986 18.6922C60.2487 19.664 59.6542 19.7391 58.6148 18.9176C58.5212 18.5044 58.4416 18.0913 58.3761 17.6782C58.1935 16.6078 58.0765 15.5327 58.0203 14.4482C57.9126 12.3826 58.025 10.3076 58.3667 8.26537C58.4463 7.8006 59.1532 3.43923 59.6448 3.3782C60.8854 3.22797 61.4519 7.51421 61.583 8.3123C61.8873 10.1761 61.9856 12.0915 61.8639 13.9741C61.7469 15.8613 61.4472 17.7486 60.9041 19.5607C60.7075 20.2133 60.23 22.8188 58.8209 21.6076C58.5353 21.3635 58.2965 18.5843 58.2918 18.5279C57.922 15.0679 58.2403 11.5423 59.2282 8.20903C59.3452 7.80999 59.6261 6.16684 60.0287 5.91333C61.6298 4.89928 61.7983 6.7208 62.0043 7.6034C62.3414 9.07753 62.4303 10.7113 62.4631 12.223C62.538 15.7487 61.8732 19.2368 59.3171 21.8189C59.5605 21.8846 59.804 21.9456 60.0474 22.0114C59.2375 19.3307 58.774 16.5796 58.7881 13.7722C58.7927 12.9413 59.2328 5.42509 60.6466 5.97437C61.1008 6.15276 61.377 9.57518 61.4191 9.93667C61.5549 11.1761 61.597 12.4296 61.5502 13.6736C61.4425 16.5703 60.8105 19.3589 59.7806 22.063C60.0614 22.063 60.3424 22.063 60.6233 22.063C59.1767 16.2182 59.8461 10.2137 62.5568 4.84296C62.3274 4.87113 62.0979 4.90399 61.8685 4.93216C63.7786 6.46732 63.2028 11.777 63.0764 14.0022C62.9079 16.9317 62.3882 19.7955 61.6064 22.617C61.8732 22.5841 62.1401 22.5466 62.4069 22.5137C60.6747 18.4246 60.3096 13.8849 61.4893 9.58927C61.6626 8.95079 62.2384 6.31239 62.7862 6.18563C64.1251 5.87109 64.2187 8.06818 64.3545 8.87097C64.729 11.0869 64.8461 13.3638 64.7711 15.6078C64.7243 17.0022 64.5979 18.3918 64.3825 19.7673C64.2702 20.495 64.2 22.5982 63.685 23.1334C63.17 23.8705 62.9547 23.7531 63.0389 22.7766C62.9219 21.9832 62.833 21.1898 62.7674 20.3917C62.6972 19.5561 62.655 18.7157 62.641 17.88C62.5942 15.4013 62.7721 12.9178 63.1888 10.4766C63.376 9.37332 63.6101 8.27944 63.8863 7.19497C64.0549 6.5471 64.2375 4.84294 64.7243 4.38286C64.8227 3.68805 65.1363 3.79135 65.67 4.68803C65.8385 5.18566 65.9837 5.68798 66.1148 6.195C66.4284 7.4297 66.6251 8.68788 66.714 9.96014C66.8591 12.1479 66.6719 14.3497 66.1569 16.481C65.9415 17.373 65.6747 18.2509 65.347 19.1101C64.4996 21.3212 63.9238 20.3588 63.5586 18.7533C63.0717 16.6078 62.9219 14.2182 62.8798 12.0164C62.8376 9.8146 63.0343 7.57524 63.7927 5.4955C63.9893 3.97912 64.921 3.42046 66.5829 3.8242C66.728 4.34531 66.8544 4.87113 66.9715 5.40163C67.2196 6.55652 67.3928 7.72547 67.4958 8.89914C67.8891 13.3544 67.2196 17.7721 65.6793 21.955C65.9462 21.9222 66.2131 21.8846 66.4799 21.8518C64.2796 16.805 64.5745 11.2418 65.1784 5.88986C65.3283 4.54719 65.8526 2.01207 66.6017 4.66456C67.0043 6.08705 67.2898 7.54237 67.449 9.0118C67.7533 11.8521 67.5988 14.7487 66.9808 17.5373C66.8685 18.0397 66.8029 18.6781 66.5735 19.1429C66.4846 19.7485 66.096 20.1523 65.4125 20.3542C65.361 20.0584 65.3095 19.7626 65.258 19.4669C64.6588 18.265 64.8179 15.9928 64.7524 14.6548C64.6026 11.6502 64.5511 8.27006 65.2674 5.3312C65.4734 4.48616 66.0867 3.96034 66.8685 4.85233C67.1587 5.18565 67.2618 6.45791 67.3554 6.93677C67.6503 8.43906 67.8189 9.96484 67.8657 11.4953C67.964 14.6126 67.5193 17.6829 66.6625 20.6781C66.9434 20.6781 67.2243 20.6781 67.5052 20.6781C66.5876 15.7675 66.2693 10.8287 66.5361 5.83823C66.3535 5.97907 66.1662 6.11989 65.9837 6.26073C67.6082 6.82879 67.5005 11.8286 67.5099 13.1713C67.5192 14.1149 67.5941 18.7579 66.9293 18.9598C64.715 19.6405 64.317 13.1948 64.2562 12.1713C64.1813 10.946 63.7599 6.68795 64.6962 5.99783C64.8086 5.2373 65.155 5.36405 65.7355 6.3734C65.9368 6.88981 66.1241 7.41093 66.3067 7.93674C66.5736 8.72544 66.817 9.51885 67.0323 10.3216C67.5614 12.2934 67.9406 14.3027 68.1559 16.3355C68.2449 17.1852 68.9518 21.002 68.3479 21.7344C66.5829 23.8845 65.6981 20.7109 65.5014 19.9363C65.1316 18.4716 64.9912 17.1524 65.7449 15.7815C65.4921 15.7815 65.2393 15.7815 64.9912 15.7815C65.6419 17.0867 67.3554 20.8002 66.6203 22.387C65.2486 25.3446 64.2936 22.2038 64.0268 21.4011C63.6242 20.1992 63.4978 18.9692 63.5025 17.7063C63.5071 17.143 62.6316 17.143 62.6269 17.7063C62.6176 19.2509 63.5212 26.3352 66.4097 24.7672C69.1765 23.2696 66.6859 17.2275 65.7402 15.3402C65.5904 15.0445 65.1363 15.0633 64.9865 15.3402C63.8254 17.4388 64.3217 20.1241 65.3329 22.2179C65.9509 23.4996 67.6082 24.8798 68.7786 23.3541C69.434 22.4996 69.2514 21.0771 69.242 20.0725C69.228 18.3683 69.1016 16.6688 68.8675 14.9787C68.3619 11.3498 67.3367 7.86161 65.8994 4.49553C65.8432 4.36408 65.6606 4.2749 65.5202 4.2796C62.95 4.37818 63.3151 9.24186 63.3386 10.9038C63.3666 13.0445 63.6569 15.1853 64.2093 17.2557C64.4809 18.2697 64.8647 20.2274 66.1381 20.5372C69.1156 21.2602 69.5885 6.58466 66.2177 5.4063C65.9368 5.30771 65.6794 5.56593 65.6653 5.82883C65.3938 10.8944 65.7355 15.9177 66.6672 20.9034C66.7514 21.3447 67.3975 21.2978 67.5099 20.9034C68.6288 16.9975 69.0267 12.9694 68.5538 8.9273C68.3947 7.57993 68.2636 2.97917 66.1288 3.01673C63.9612 3.05428 64.0736 7.50013 63.9706 8.78647C63.6195 13.0398 63.9284 17.2838 64.743 21.4668C64.7758 21.6452 64.9865 21.8001 65.1644 21.7907C67.8235 21.6123 68.0201 17.1383 68.2636 15.2041C68.802 10.8803 68.2542 6.55181 66.8076 2.45806C66.7514 2.29375 66.5829 2.11535 66.3863 2.13413C63.6335 2.45336 64.1016 7.60811 63.9752 9.52354C63.6897 13.9084 63.9519 18.2228 65.7262 22.2884C65.8901 22.6686 66.4097 22.4949 66.5267 22.1851C68.1419 17.805 68.8067 13.1478 68.3385 8.4907C68.17 6.82409 67.8938 0.537921 64.8461 2.3219C61.892 4.05423 61.8967 9.90381 62.0277 12.8192C62.1261 14.9412 62.3133 17.1758 62.7627 19.2603C63.0249 20.4621 63.4556 21.4433 64.6869 21.8001C64.8601 21.8518 65.0989 21.7673 65.1831 21.5982C66.9153 18.0913 67.7954 14.2699 67.6082 10.3498C67.5052 8.16678 67.3975 3.41576 64.8414 2.65053C64.6026 2.58011 64.3826 2.73974 64.303 2.95569C61.7656 9.94606 61.1569 17.3402 62.4772 24.6592C62.524 24.9127 62.8002 24.9972 63.0155 24.9643C64.3826 24.7625 64.5792 23.2507 64.832 22.1006C65.361 19.6828 65.6466 17.2087 65.67 14.7346C65.6934 12.1572 66.1241 5.83353 62.8798 4.86173C62.7019 4.81009 62.4725 4.89459 62.3835 5.0636C59.4295 10.669 59.1813 17.1148 61.6532 22.9456C61.8077 23.3071 62.3601 23.1756 62.4537 22.8423C63.4088 19.3964 63.9612 15.8801 64.0127 12.3028C64.0455 10.0259 64.4949 5.91334 62.4912 4.30306C62.2852 4.13875 61.9435 4.11528 61.803 4.39226C58.9847 9.97892 58.2731 16.2134 59.7806 22.2884C59.8929 22.7437 60.4828 22.6686 60.6233 22.2884C62.7628 16.6735 62.9734 10.6878 61.2553 4.93683C61.1897 4.71149 60.951 4.56597 60.7169 4.6317C58.3901 5.29834 58.3059 8.84752 58.0858 10.8005C57.6551 14.6736 58.0858 18.5138 59.2047 22.2367C59.2984 22.5513 59.7009 22.6686 59.935 22.4292C62.6503 19.6875 63.4181 15.9693 63.3386 12.2136C63.2824 9.51883 63.3573 5.06361 60.3798 3.87586C60.216 3.81013 59.9584 3.91811 59.8835 4.07773C58.0437 8.10576 57.098 12.4577 57.2993 16.8989C57.3602 18.2791 57.318 24.354 60.024 22.9644C61.391 22.2649 61.7656 19.8565 62.0652 18.5795C62.5848 16.3918 62.8236 14.1384 62.7768 11.8896C62.73 9.64089 62.4069 7.39685 61.7937 5.2373C61.4004 3.84768 61.068 2.55664 59.6355 2.03553C59.3967 1.95102 59.1766 2.13413 59.0971 2.34069C57.5896 6.34055 56.8827 10.5751 57.1636 14.852C57.2572 16.2416 57.201 21.3306 59.6448 20.8283C61.8873 20.3682 62.4022 15.1196 62.6457 13.4717C63.2215 9.55169 62.9266 5.61756 61.9154 1.7961C61.8405 1.51911 61.5175 1.39705 61.274 1.53319C58.1139 3.31717 57.4585 8.32641 57.0137 11.561C56.3958 16.0585 56.7141 20.5654 57.8471 24.9549C57.9454 25.3305 58.451 25.3728 58.6476 25.0582C60.8807 21.4339 62.2477 17.3777 62.5146 13.115C62.7299 9.71603 62.5287 5.6833 59.804 3.27493C59.6074 3.10123 59.2515 3.09653 59.1157 3.36413C55.9369 9.63152 55.0381 16.6407 56.5362 23.509C56.5971 23.7906 56.9435 23.9033 57.1776 23.7719C60.3798 21.9456 60.4969 17.7674 60.45 14.4811C60.4126 12.054 60.1317 9.61275 59.5933 7.24663C59.2609 5.79128 58.9098 4.41104 57.407 3.86176C57.2244 3.79604 57.0044 3.90401 56.9107 4.06363C53.6009 9.62212 52.2432 15.9834 53.011 22.4104C53.0484 22.7156 53.3621 22.9879 53.6711 22.7907C56.4379 20.9879 57.2666 17.3965 57.8752 14.3403C58.6664 10.3827 58.6663 6.37811 58.0343 2.40173C57.9735 2.01207 57.4117 1.99797 57.2338 2.29843C53.1046 9.26532 51.8874 17.4857 53.8162 25.354C53.9005 25.7014 54.4529 25.8047 54.6167 25.4573C56.274 22.0067 57.3274 18.3354 57.6317 14.5093C57.8003 12.392 57.7581 10.2324 57.4444 8.12923C57.3087 7.23255 57.201 5.98376 56.4192 5.36406C54.0784 3.49558 52.9829 8.16678 52.6739 9.5611C51.8453 13.2934 52.2151 17.1148 53.5915 20.664C53.7366 21.0349 54.158 21.0771 54.392 20.7673C56.5456 17.9411 57.7862 14.5468 57.8237 10.9742C57.8424 9.30759 57.8564 4.91337 55.1692 5.38753C52.5007 5.857 51.2648 10.716 50.717 12.8474C49.7573 16.589 49.7807 20.4527 50.6374 24.2085C50.6749 24.3775 50.8762 24.5512 51.0588 24.5324C53.8162 24.2179 54.3452 18.8753 54.7619 16.7909C55.614 12.5187 55.7122 8.17147 55.1458 3.85706C55.1083 3.5613 54.8977 3.37353 54.5934 3.43456C51.8078 3.99323 50.4315 6.57059 49.3968 8.99774C48.086 12.0634 47.3322 15.3637 47.1731 18.6969C47.1122 19.9504 46.5176 23.7015 48.6477 23.7343C50.5953 23.7625 52.0653 19.5842 52.6178 18.3213C53.0578 17.312 56.995 5.11525 52.393 7.2748C50.2395 8.28415 49.0878 13.0023 48.643 15.0914C47.9642 18.2885 48.0485 21.5184 48.7694 24.6967C48.8537 25.077 49.3828 25.1098 49.57 24.8C51.8032 21.1428 53.6477 17.2745 55.0054 13.2042C55.6327 11.3169 56.2694 9.34513 56.3302 7.3405C56.3583 6.41565 56.3911 4.53779 55.5156 3.88523C53.554 2.42988 52.2198 6.90391 51.8547 8.00247C50.6421 11.6455 50.4595 15.4717 51.1056 19.2415C51.1711 19.6312 51.7282 19.6452 51.9061 19.3448C53.6945 16.3543 54.7525 13.0164 54.8461 9.52354C54.8789 8.33109 55.1271 3.78195 52.9876 3.67866C50.9558 3.58008 50.0522 8.89445 49.7245 10.1667C48.7367 13.9459 48.4558 17.8472 48.7694 21.7391C48.8022 22.1522 49.3593 22.3635 49.584 21.9597C52.8565 16.1477 53.863 9.49536 52.4679 2.96976C52.4024 2.6693 51.9389 2.51909 51.7376 2.77729C46.7611 9.0259 44.865 16.8566 44.8791 24.7437C44.8791 25.1521 45.5064 25.3775 45.6937 24.9643C47.3697 21.3166 48.7039 17.5374 49.584 13.6126C50.2488 10.6409 51.3818 6.75836 49.865 3.9087C49.7058 3.61293 49.2704 3.63641 49.1112 3.9087C45.8856 9.34513 44.4109 15.4951 44.8323 21.8048C44.8604 22.2038 45.4409 22.4433 45.6469 22.0255C47.3041 18.6922 48.526 15.1853 49.1627 11.5141C49.556 9.23246 50.1599 6.52364 48.4605 4.65516C48.3388 4.51902 48.0813 4.48145 47.9315 4.58473C45.6235 6.19031 45.3097 9.11509 44.7807 11.6878C43.9521 15.7158 43.3809 19.7344 43.9193 23.8423C43.9661 24.2085 44.5373 24.5183 44.7339 24.063C47.7442 17.1571 49.1674 9.79584 48.9146 2.26089C48.9006 1.85715 48.2966 1.6224 48.1 2.04023C45.1787 8.26536 43.7367 14.9553 43.8538 21.833C43.8631 22.3447 44.5514 22.4104 44.7152 21.9503C45.806 18.8566 46.6628 15.7017 47.2152 12.4671C47.6459 9.95076 48.0813 7.37337 47.1731 4.91336C47.056 4.59413 46.5504 4.43922 46.3725 4.8101C43.6291 10.4906 42.2995 16.6078 42.468 22.9175C42.4774 23.3165 43.1001 23.5653 43.2826 23.1381C45.4268 18.1946 46.5457 13.0023 46.6112 7.6128C46.6159 7.2607 46.2414 7.087 45.9511 7.23253C43.4184 8.50949 43.0205 13.4905 42.4493 15.9036C41.9296 18.096 40.1694 22.2931 41.9671 24.2601C42.2106 24.5277 42.5851 24.3493 42.6974 24.0676C45.0101 18.326 46.3865 12.3356 46.8313 6.16683C46.864 5.73492 46.2086 5.56593 46.0167 5.9462C43.0579 11.7253 41.2695 17.927 40.6843 24.3963C40.6375 24.9361 41.3726 24.9268 41.5458 24.5136C43.1703 20.6358 44.4717 16.65 45.3753 12.5422C45.8341 10.4578 47.3556 6.44853 45.4175 4.68803C45.1647 4.45799 44.7995 4.56596 44.6871 4.8805C42.3323 11.5141 40.3099 18.2509 38.6245 25.0864C38.4887 25.6357 39.3126 25.8657 39.4671 25.3211C41.4662 18.2556 43.4371 11.1761 44.6637 3.9228C44.7152 3.41577 43.8725 3.17633 43.7789 3.735Z" fill="white"/>
<path d="M70.0282 2.83673C69.7286 5.52678 69.958 8.06659 70.7117 10.6627C70.8428 11.1087 71.4046 11.0477 71.5544 10.6627C72.6733 7.82716 72.2005 4.92585 70.3466 2.53156C70.1453 2.27336 69.6771 2.4236 69.6162 2.72406C68.7548 6.8366 68.9374 10.9069 70.1874 14.9208C70.3185 15.3386 70.899 15.3386 71.0301 14.9208C72.3082 10.8599 71.6153 6.61123 69.106 3.17473C68.8766 2.86019 68.4411 2.90715 68.3054 3.27803C66.7323 7.56896 66.606 12.0477 67.9215 16.4231C68.0339 16.794 68.516 16.8456 68.722 16.5264C71.2454 12.5922 71.9477 7.96801 70.7211 3.45643C70.6228 3.09494 70.1078 3.02451 69.9205 3.35313C67.8138 7.02437 67.856 11.3623 70.0423 14.9865C70.2483 15.3293 70.7164 15.226 70.8428 14.8833C72.2988 10.935 72.7155 6.86944 72.1396 2.70527C72.0741 2.22641 71.428 2.35316 71.2969 2.70527C69.5132 7.38586 69.6537 12.3294 71.6247 16.9255C71.7277 17.1696 72.149 17.2212 72.3128 17.0147C75.4916 12.9115 76.0394 7.51732 73.7173 2.8649C73.5769 2.57852 73.104 2.57852 72.9636 2.8649C70.8288 7.23094 70.6088 12.0806 72.3971 16.6062C72.5376 16.963 72.9729 17.0381 73.1977 16.7095C75.9645 12.6298 76.5731 7.61592 74.8456 2.99166C74.7286 2.68181 74.2135 2.5081 74.045 2.88836C71.9055 7.73796 71.7464 13.0101 73.6752 17.9583C73.8063 18.2963 74.2744 18.4137 74.4757 18.0616C77.3549 13.0711 77.8231 7.184 75.7304 1.8086C75.5853 1.43772 74.9907 1.34852 74.8877 1.8086C73.6096 7.50323 73.8952 13.2777 75.7538 18.8127C75.8989 19.2446 76.442 19.2117 76.5965 18.8127C78.6985 13.3997 78.7547 7.57364 76.7697 2.11843C76.6199 1.70999 76.0721 1.69591 75.927 2.11843C73.8905 8.07128 74.2791 14.4091 76.9804 20.085C77.1302 20.3995 77.5702 20.3385 77.7341 20.085C79.6255 17.1743 80.7256 13.8598 80.7771 10.3717C80.7959 9.00553 80.9363 5.26857 78.8671 5.12303C76.5731 4.95872 76.3062 9.13228 76.2688 10.6064C76.1939 13.78 77.2613 16.8175 79.1808 19.3244C79.4102 19.6249 79.8502 19.6014 79.9813 19.2211C81.7509 14.01 83.4691 7.93515 80.206 2.9541C79.9953 2.63486 79.5225 2.69118 79.4055 3.05737C77.4907 8.95388 77.4532 15.1415 79.2884 21.0615C79.3914 21.3948 79.9204 21.5262 80.089 21.1647C82.4813 16.0241 83.0899 10.4562 81.8586 4.92117C81.7556 4.46578 81.1517 4.54559 81.0159 4.92117C79.3118 9.52664 79.2884 14.3997 80.9457 19.0193C81.0955 19.4371 81.6386 19.4324 81.7884 19.0193C83.2584 15.0757 83.9606 10.921 83.7031 6.70514C83.6001 5.01975 83.4503 1.50813 80.9691 1.77573C80.7865 1.79451 80.5899 1.89779 80.5477 2.09966C79.3867 7.7943 79.9813 13.4936 82.2612 18.8362C82.4251 19.2258 82.94 19.038 83.0618 18.7329C85.0234 13.7284 86.9475 7.55488 83.2116 2.90246C83.0009 2.63956 82.5562 2.79917 82.4813 3.09493C81.1704 8.06659 81.4607 13.1368 83.3614 17.916C83.5018 18.2728 83.9372 18.3479 84.1619 18.0193C87.2845 13.5312 87.3829 7.63468 84.4194 3.0386C84.1994 2.70058 83.7593 2.79916 83.6189 3.14187C81.3436 8.78017 81.8024 15.0194 84.8361 20.2774C85 20.5591 85.4307 20.5638 85.5898 20.2774C87.2097 17.4418 88.0851 14.2776 87.9353 10.9914C87.8651 9.4703 87.617 6.34365 85.5852 6.00094C83.6891 5.6817 83.6376 8.14641 83.5299 9.43744C83.2163 13.1697 83.8904 16.855 85.309 20.3056C85.4447 20.6389 85.9035 20.7657 86.1095 20.4089C88.9091 15.5968 89.0823 9.87404 86.6105 4.8883C86.4325 4.52681 85.9269 4.66294 85.8099 4.99157C84.0777 10.0008 84.6956 15.3574 87.5187 19.8362C87.6872 20.1038 88.1132 20.1366 88.2724 19.8362C90.5804 15.4513 90.7162 10.489 88.689 5.97277C88.5205 5.5972 88.0009 5.76149 87.8885 6.07604C86.044 11.2355 86.4138 16.7236 88.8904 21.606C89.073 21.9675 89.5739 21.8314 89.6909 21.5028C91.5823 16.0851 93.4503 9.09474 88.3146 4.8132C88.0524 4.59255 87.7012 4.68173 87.5842 5.00567C85.7162 10.0665 86.0814 15.4795 88.5626 20.2634C88.7218 20.5685 89.1525 20.5263 89.3164 20.2634C92.439 15.3386 92.5139 9.15106 89.5224 4.14653C89.3445 3.84607 88.7921 3.86487 88.7219 4.24983C87.7574 9.70035 88.1928 15.1368 90.0514 20.3526C90.1638 20.6671 90.6834 20.8314 90.8519 20.4558C93.2396 15.179 93.6188 9.40928 91.8959 3.87426C91.7789 3.49869 91.1188 3.41419 91.0533 3.87426C90.0701 10.7942 90.8098 17.6907 93.277 24.2304C93.4034 24.5684 93.8763 24.6857 94.0776 24.3336C97.5607 18.1742 97.4811 10.644 93.8622 4.56437C93.675 4.25452 93.1459 4.29206 93.0616 4.66764C91.6057 11.0524 91.7274 17.5592 93.4315 23.883C93.5345 24.2632 94.0307 24.2961 94.232 23.9862C98.1412 18.0569 98.3987 10.4327 94.939 4.23573C94.7657 3.93058 94.204 3.95876 94.1384 4.33903C93.0242 11.0759 93.3519 17.8409 95.1356 24.4322C95.2246 24.7609 95.7817 24.9017 95.9361 24.5355C98.7451 17.8644 98.6842 10.5501 95.7536 3.9306C95.6037 3.58789 95.0233 3.68177 94.953 4.03387C93.4877 11.32 94.1103 18.7282 96.8069 25.6528C96.9286 25.958 97.439 26.1411 97.6075 25.7561C100.445 19.3902 99.4099 12.4702 97.5935 5.97277C97.453 5.46574 96.7882 5.62067 96.7321 6.09014C95.9221 13.0993 96.512 20.0943 98.4736 26.8641C98.5719 27.1974 99.1103 27.3288 99.2741 26.9673C102.317 20.2258 102.21 12.6298 98.9652 5.98217C98.8107 5.66293 98.2161 5.71456 98.1646 6.08544C97.233 12.6533 97.7526 19.2071 99.7423 25.5402C99.8827 25.9862 100.426 25.9251 100.585 25.5402C103.357 18.8456 103.108 11.4186 99.9717 4.90237C99.8031 4.55496 99.2648 4.65826 99.1711 5.00567C97.453 11.5031 97.968 18.1883 100.618 24.3571C100.782 24.7421 101.301 24.5637 101.418 24.2538C103.614 18.4184 103.694 12.1557 101.648 6.26384C101.517 5.88826 100.889 5.80376 100.805 6.26384C99.555 12.8692 99.7797 19.5404 101.484 26.0378C101.573 26.3852 102.116 26.4885 102.284 26.1411C105.248 20.038 105.224 13.0711 102.209 6.99151C102.032 6.63471 101.521 6.76148 101.409 7.0948C99.4474 13.0899 99.9296 19.4371 102.739 25.0801C102.879 25.3618 103.361 25.3759 103.492 25.0801C106.128 19.3291 106.058 12.888 103.286 7.20277C103.127 6.87414 102.556 6.94458 102.486 7.30607C101.25 13.6157 101.938 19.9535 104.489 25.85C104.653 26.2256 105.178 26.0613 105.29 25.7467C107.429 19.6061 107.462 13.0758 105.384 6.9117C105.257 6.53613 104.625 6.45632 104.541 6.9117C103.305 13.4655 103.656 20.0803 105.613 26.4556C105.711 26.7843 106.25 26.9251 106.414 26.5589C109.059 20.5591 109.204 13.9162 106.737 7.82717C106.596 7.48446 105.964 7.34362 105.894 7.82717C104.976 14.118 105.58 20.376 107.724 26.3617C107.87 26.7655 108.436 26.7936 108.567 26.3617C110.472 20.2258 110.107 13.8082 107.565 7.91637C107.415 7.56896 106.84 7.67223 106.765 8.01964C105.594 13.5453 105.899 19.1272 107.692 24.4886C107.832 24.9064 108.394 24.9017 108.534 24.4886C110.351 19.2258 110.135 13.7049 107.973 8.58301C107.813 8.20743 107.275 8.36707 107.172 8.6863C106.194 11.7191 106.517 14.7236 108.099 17.4841C108.253 17.7564 108.708 17.7846 108.853 17.4841C110.688 13.827 110.369 9.61583 107.93 6.31547C107.734 6.05257 107.195 6.00564 107.13 6.41877C106.788 8.5924 107.2 10.4984 108.497 12.2965C108.726 12.6157 109.157 12.5594 109.297 12.1932C109.878 10.6581 110.543 8.69568 109.354 7.25911C108.726 6.50326 107.729 6.03849 106.774 6.3765C105.566 6.80841 105.089 8.32949 104.695 9.42804C103.886 11.6909 103.689 14.0617 103.923 16.4419C103.974 16.9395 104.602 17.0334 104.784 16.5593C105.927 13.5594 105.028 10.2872 102.49 8.31541C102.27 8.1464 101.961 8.13701 101.802 8.40461C99.3444 12.611 98.3331 17.3198 98.8809 22.1694C98.9324 22.6436 99.5831 22.7844 99.7423 22.2868C100.538 19.7939 100.81 17.24 100.398 14.6438C100.206 13.442 99.85 10.8552 98.1505 10.7379C96.6337 10.6346 96.0532 12.5124 95.7021 13.6298C94.7704 16.6156 94.424 19.7422 94.4755 22.8595C94.4849 23.3477 95.2105 23.4651 95.3369 22.9769C95.8566 20.9488 95.5055 19.0991 94.2227 17.4372C94.0682 17.24 93.7311 17.1038 93.5345 17.348C92.0411 19.2024 91.5776 21.3056 92.2002 23.6107C92.3032 23.9909 92.7948 24.0191 93.0008 23.7139C94.3116 21.7563 93.8341 19.4042 91.9802 18.0099C91.8304 17.8972 91.5729 17.9489 91.4512 18.0803C89.4334 20.2586 89.4522 23.4698 91.5027 25.6153C91.7461 25.8688 92.1254 25.7186 92.233 25.4228C93.1975 22.7281 93.4502 20.0521 93.057 17.2165C93.0055 16.8503 92.4109 16.7846 92.2564 17.1132C91.2265 19.315 90.3463 23.1975 92.0973 25.3242C93.5111 27.0378 95.7255 25.4979 96.1 23.7374C96.4792 21.93 96.1188 17.963 93.5111 18.132C90.1263 18.3526 90.8145 22.5121 91.5542 24.5965C91.6946 24.9956 92.2705 25.0331 92.3969 24.5965C93.0804 22.2445 92.3079 20.0662 90.3791 18.6061C90.2152 18.4841 89.9858 18.5592 89.8501 18.6766C87.8979 20.3385 87.4765 22.9346 88.7312 25.1552C88.9137 25.4791 89.4428 25.4181 89.5318 25.0519C89.9063 23.498 90.8192 16.0334 86.9896 18.4606C85 19.7235 84.4101 24.9064 87.1863 25.5965C87.4391 25.6575 87.631 25.512 87.7247 25.2914C88.8202 22.6905 88.5299 19.9864 86.9335 17.6625C86.8024 17.47 86.5495 17.3714 86.3342 17.5029C83.8295 19.0803 83.3567 22.4558 85.3043 24.681C85.5383 24.9486 85.9316 24.7749 86.0346 24.4886C86.5917 22.9863 87.5046 18.2446 84.4897 18.7611C81.6667 19.2446 82.6451 22.5215 83.5205 24.2257C83.6704 24.5167 84.1198 24.5026 84.2743 24.2257C85.1592 22.6389 86.25 18.6953 83.0899 18.747C80.1077 18.7939 81.3109 23.4886 82.2519 24.9158C82.4344 25.1881 82.8324 25.2115 83.0056 24.9158C84.3867 22.6013 84.0449 19.8972 82.1395 18.0005C81.9991 17.8597 81.7837 17.8409 81.6105 17.9301C78.8905 19.376 78.3006 23.0191 80.3465 25.296C80.5478 25.5214 80.8802 25.4228 81.0347 25.2068C82.8183 22.6623 81.5871 19.1179 78.6845 18.1273C78.4504 18.0475 78.221 18.2212 78.1461 18.4324C77.4766 20.3385 77.4953 22.1459 78.1976 24.0379C78.3287 24.3947 78.7828 24.4698 78.9982 24.1412C80.3512 22.0943 80.6554 19.8596 79.9064 17.5217C79.8174 17.24 79.3914 17.0475 79.1761 17.3292C77.2847 19.7798 77.7716 23.1647 80.3043 24.958C80.4588 25.066 80.7069 25.0191 80.8333 24.8876C82.8511 22.8219 83.3333 20.0146 82.1957 17.3715C82.0552 17.0475 81.6011 17.1273 81.4419 17.3715C80.089 19.4324 79.9953 21.761 81.1329 23.944C81.2406 24.1553 81.5356 24.2163 81.7322 24.1036C83.8015 22.8924 84.7238 20.8173 84.3118 18.4606C84.0449 18.5733 83.7781 18.6859 83.5112 18.7986C84.4476 20.5967 87.0224 23.5308 89.0121 20.991C90.7958 18.7094 87.2471 17.4606 85.6366 16.9677C82.8558 16.118 78.8109 15.6062 76.4888 17.7987C74.8362 19.362 74.8222 22.1037 76.7791 23.3759C76.9945 23.5168 77.2379 23.3994 77.3783 23.2163C78.6376 21.5685 77.912 19.3807 76.0675 18.6061C75.8755 18.5263 75.6789 18.6672 75.5712 18.808C74.4757 20.2775 74.4008 21.9065 75.2903 23.498C75.4589 23.8031 75.8662 23.7609 76.0441 23.498C76.9429 22.1788 78.2912 18.146 75.2154 18.2869C72.2566 18.4183 73.7688 22.1835 74.7192 23.437C74.9158 23.6905 75.4589 23.7515 75.5197 23.3337C76.0815 19.4653 74.9486 15.8175 72.2613 12.9866C72.0179 12.7284 71.6387 12.8833 71.531 13.1791C70.2295 16.6578 70.4308 20.268 72.0506 23.606C72.2145 23.944 72.767 23.8548 72.8512 23.5027C73.6331 20.2023 74.1949 15.5828 70.6368 13.7284C70.3887 13.5969 70.0704 13.7049 69.9955 13.9913C69.1996 16.8597 69.5694 19.6296 71.105 22.1835C71.2642 22.4464 71.7136 22.4886 71.8587 22.1835C72.7389 20.3573 72.9683 18.3244 72.1631 16.409C71.6294 15.1415 70.3185 13.334 68.8531 14.5452C67.5938 15.5922 67.4018 18.1273 67.561 19.6108C67.7764 21.6389 68.7174 23.3994 70.2014 24.7702C70.3981 24.9533 70.7538 24.9392 70.8896 24.681C72.1443 22.3055 72.4018 19.8315 71.6527 17.2541C71.5684 16.9677 71.2641 16.8644 71.0113 16.9912C67.9355 18.5451 67.856 23.2304 70.8475 24.9158C71.0488 25.0284 71.3297 24.9674 71.4468 24.7562C72.8231 22.268 73.0619 19.6014 72.1115 16.9114C71.9617 16.4841 71.428 16.5123 71.2689 16.9114C70.0142 20.0333 70.3325 23.3102 72.1349 26.1458C72.3128 26.4274 72.7154 26.4321 72.8887 26.1458C74.1152 24.174 74.6256 22.0849 74.4383 19.7704C74.3915 19.2164 73.5488 19.1977 73.5628 19.7704C73.6097 21.9441 73.9514 24.0191 74.6162 26.0894C74.7379 26.465 75.2014 26.5026 75.4167 26.1927C76.9008 24.066 77.6639 21.7609 77.7669 19.1648C77.7856 18.7517 77.1302 18.5404 76.9523 18.9442C76.2594 20.5028 75.4074 23.5637 77.8793 24.1224C79.3352 24.451 80.4167 22.8783 79.6208 21.6389C79.4616 21.3854 79.0075 21.3197 78.8671 21.6389C78.3193 22.8595 78.324 23.8736 78.8905 25.0848C78.9701 25.2585 79.2088 25.3336 79.3867 25.2867C81.985 24.5965 81.7743 20.6812 82.0599 18.6155C82.3408 16.5874 82.6217 14.564 82.9026 12.5359C83.1554 10.7191 83.2537 8.76611 84.0075 7.06664C84.7237 5.45167 85.3558 5.12774 87.1067 4.86953C87.6731 4.78503 88.1038 4.8789 88.5673 4.49394C88.9372 4.18409 89.3023 3.62544 89.0823 3.10903C88.6563 2.11376 87.3642 2.51748 87.2846 3.4705C87.2612 3.78035 87.5842 3.93998 87.837 3.89303C93.4175 2.92123 97.4577 7.53608 99.5831 12.1228C101.755 16.8128 103.352 21.822 105.164 26.6575C105.253 26.9016 105.557 27.0988 105.805 26.9204C107.303 25.8641 107.392 26.1693 108.459 27.5824C108.708 27.911 109.269 27.8312 109.274 27.3617C109.311 24.282 109.349 21.2023 109.386 18.1273C109.391 17.5592 108.548 17.5686 108.511 18.1273C108.356 20.4699 108.459 22.7703 108.806 25.0942C108.881 25.5918 109.667 25.4604 109.667 24.9768C109.653 21.3995 109.447 17.8362 108.993 14.287C108.703 12.0242 108.633 9.15107 107.298 7.21687C105.945 5.2545 103.249 4.76154 101.077 4.3531C97.9586 3.77096 94.8032 3.7428 91.6618 4.15593C91.2218 4.21227 91.0111 4.90706 91.5448 5.01974C94.5364 5.63474 97.5326 5.98686 100.59 6.07137C101.161 6.08545 101.142 5.24511 100.59 5.19347C90.8192 4.25923 81.0206 3.69117 71.2127 3.51746C66.3064 3.43296 61.4 3.43766 56.4984 3.55033C53.3383 3.62075 50.3749 3.81321 48.2915 6.49387C46.0116 9.42335 46.0397 13.2871 46.2879 16.8081C46.4845 19.6531 46.8637 22.3947 49.8365 23.5355C53.4647 24.9252 58.1557 24.5214 61.9665 24.559C66.6856 24.6059 71.3999 24.4322 76.1143 24.282C86.896 23.9299 97.7479 23.7046 108.31 26.2585C108.516 26.3101 108.815 26.1927 108.848 25.9533C109.19 23.4557 109.063 21.0755 108.422 18.6343C108.277 18.0897 107.434 18.3197 107.579 18.869C107.86 19.93 109.063 24.3759 107.687 25.2068C107.256 25.465 105.285 24.6904 104.686 24.5778C103.539 24.3665 102.387 24.1834 101.236 24.0285C97.2938 23.4933 93.3192 23.2586 89.3445 23.1975C80.9504 23.0661 72.5656 23.6623 64.1762 23.6905C60.0096 23.7045 55.417 23.9487 51.3253 23.0473C48.3244 22.3853 47.491 20.5216 47.2242 17.6297C47.0182 15.3903 46.8871 13.0711 47.3225 10.8505C47.7064 8.87878 48.6848 6.88355 50.3655 5.71927C52.4301 4.29209 55.019 4.46108 57.4207 4.41413C61.7137 4.32963 66.0067 4.32024 70.2997 4.38597C80.4167 4.54089 90.5243 5.11363 100.599 6.07604C100.599 5.78497 100.599 5.48921 100.599 5.19814C97.6262 5.11363 94.7002 4.77562 91.7883 4.1747C91.7508 4.46108 91.7087 4.74746 91.6712 5.03853C94.1946 4.70521 96.7039 4.64886 99.232 4.9634C102.261 5.33898 106.133 5.84601 107.233 9.16984C108.829 14.0054 108.782 19.9253 108.801 24.9768C109.087 24.9392 109.372 24.897 109.663 24.8594C109.326 22.606 109.246 20.3995 109.4 18.1273C109.11 18.1273 108.815 18.1273 108.525 18.1273C108.488 21.207 108.45 24.2867 108.413 27.3617C108.684 27.2866 108.956 27.2162 109.227 27.1411C108.717 26.465 108.207 25.789 107.696 25.1083C107.565 24.9299 107.308 24.8031 107.097 24.9486C106.526 25.3524 105.95 25.7561 105.379 26.1599C105.594 26.2491 105.81 26.3336 106.02 26.4228C103.871 20.6906 102.209 14.2542 98.9324 9.04308C96.4792 5.13711 92.3782 2.21234 87.6123 3.0433C87.7949 3.18414 87.9821 3.32496 88.1647 3.4658C88.1179 4.05263 86.0861 3.98691 85.618 4.14183C85.0562 4.32493 84.5645 4.67236 84.1666 5.10427C83.1882 6.16996 82.7669 7.71918 82.5141 9.10881C82.088 11.4561 81.8493 13.8457 81.5216 16.2072C81.339 17.5123 81.1611 18.8127 80.9785 20.1178C80.8895 20.7563 80.9129 21.5309 80.6929 22.1271C80.6695 22.3149 80.6274 22.4933 80.5759 22.6764C80.4963 23.329 80.1779 23.1271 79.6255 22.0802C79.3727 22.0802 79.1199 22.0802 78.8718 22.0802C77.177 21.4793 76.7931 20.5826 77.7154 19.3855C77.4439 19.3103 77.1724 19.2399 76.9008 19.1648C76.8025 21.6107 76.0675 23.7468 74.6677 25.7467C74.9345 25.7796 75.2014 25.8172 75.4682 25.85C74.8268 23.8501 74.4897 21.8736 74.4476 19.7657C74.1574 19.7657 73.8624 19.7657 73.5722 19.7657C73.7501 21.9628 73.3053 23.8266 72.1396 25.6998C72.3924 25.6998 72.6452 25.6998 72.8934 25.6998C71.2127 23.052 70.9505 20.0474 72.1162 17.1414C71.8353 17.1414 71.5544 17.1414 71.2735 17.1414C71.6574 18.2306 71.8868 19.3338 71.8447 20.4981C71.8119 21.4981 71.5404 24.2585 70.3091 23.3525C68.4318 21.9675 69.8316 18.5639 71.4561 17.7423C71.2408 17.6531 71.0254 17.5686 70.8148 17.4794C71.5029 19.8455 71.2876 22.0567 70.1406 24.2304C70.37 24.2022 70.5994 24.1693 70.8288 24.1412C69.0544 22.5027 68.1509 20.2211 68.4786 17.8034C68.5441 17.3292 68.6144 16.5217 68.9327 16.1274C69.0311 15.4091 69.4336 15.3339 70.1359 15.9114C70.8662 15.8551 71.2735 16.1555 71.3578 16.8034C72.1958 18.24 71.7792 20.3432 71.1097 21.7281C71.3625 21.7281 71.6153 21.7281 71.8634 21.7281C70.4449 19.3714 70.0984 16.8691 70.8428 14.2119C70.6275 14.3011 70.4121 14.3856 70.2014 14.4748C73.3568 16.1226 72.6967 20.376 72.0132 23.2586C72.2801 23.2257 72.5469 23.1881 72.8137 23.1553C71.2922 20.0239 71.1612 16.6672 72.3831 13.4044C72.1396 13.4702 71.8962 13.5312 71.6527 13.5969C74.1106 16.1884 75.2014 19.5451 74.6864 23.0942C74.9532 23.0614 75.2201 23.0238 75.487 22.991C75.3465 22.8032 75.2061 22.6201 75.0609 22.4323C74.4242 21.8783 74.5694 21.5873 75.487 21.5591C77.1958 20.5967 75.6134 22.5919 75.295 23.0567C75.5478 23.0567 75.8006 23.0567 76.0487 23.0567C75.4682 22.2539 75.3606 21.437 75.7257 20.6061C75.7866 19.3479 76.2407 19.4324 77.0787 20.8549C77.0225 21.3666 76.971 21.8783 76.9148 22.39C76.3109 21.8971 76.0768 21.2962 76.2126 20.5873C76.1377 18.1226 78.8343 17.2306 80.8755 17.1602C82.3876 17.1085 83.9606 17.3574 85.4026 17.8081C85.7256 17.9066 87.9306 18.5216 87.9868 18.8831C86.9756 19.1085 85.9644 19.3338 84.9531 19.5639C84.7003 19.1742 84.471 18.7704 84.2697 18.3526C84.0262 17.8832 83.3895 18.2306 83.4691 18.6907C83.6001 19.4324 82.926 23.9721 81.4092 22.4229C80.4261 21.4182 81.6292 18.6812 82.2004 17.8127C81.9476 17.8127 81.6948 17.8127 81.4466 17.8127C81.8399 18.7282 82.0459 19.6718 81.9569 20.6671C81.882 21.5544 81.3764 23.8595 80.3137 23.6858C78.015 23.3055 79.0122 18.9676 79.794 17.9536C79.5506 17.8879 79.3072 17.8221 79.0637 17.7611C79.7425 19.8878 79.471 21.8455 78.2444 23.7046C78.5113 23.7374 78.7781 23.775 79.045 23.8078C78.6564 22.7562 77.7716 17.7048 80.014 19.9535C81.3015 21.2446 81.2687 23.3618 80.2809 24.7702C80.5103 24.7421 80.7397 24.7092 80.9691 24.681C79.8034 23.3806 79.4054 20.5356 81.1236 19.4089C81.4747 18.7517 81.8633 18.7798 82.2893 19.4934C82.631 19.9864 82.8324 20.5216 82.8932 21.1084C83.1367 22.3384 82.9026 23.39 82.2565 24.4745C82.5093 24.4745 82.7621 24.4745 83.0103 24.4745C82.7247 24.0379 81.1283 20.8267 82.1582 20.653C82.8933 21.099 83.6283 21.545 84.3633 21.9863C84.1479 22.6154 83.8717 23.2163 83.5252 23.7844C83.778 23.7844 84.0308 23.7844 84.279 23.7844C83.9747 23.2961 83.7734 22.7703 83.6704 22.2023C82.9494 20.8032 83.647 20.5356 85.7677 21.3995C86.1001 22.0239 85.4073 23.6717 85.1919 24.2585C85.4354 24.1928 85.6788 24.1271 85.9222 24.066C84.9999 23.0144 84.2275 19.7047 86.0065 18.8362C87.4391 18.1414 87.7715 22.7515 87.3548 23.7468C86.7743 25.1317 86.353 23.4792 86.2593 22.5262C86.2172 22.1225 86.3436 20.6108 86.6432 20.3713C87.4625 20.3479 88.2864 20.3291 89.1057 20.3056C89.1432 20.6953 89.1525 21.0849 89.1432 21.4746C89.1385 22.6154 88.9606 23.7186 88.6937 24.8219C88.9606 24.789 89.2274 24.7515 89.4943 24.7186C89.0308 23.897 88.8061 23.0755 88.9231 22.1271C88.9934 21.5732 89.3491 19.8408 90.0186 19.6953C90.6038 19.5685 91.4419 21.1225 91.5823 21.5497C91.9007 22.5027 91.8351 23.4323 91.5636 24.3712C91.8445 24.3712 92.1254 24.3712 92.4063 24.3712C91.9943 23.2069 91.4231 21.2446 92.027 20.0662C94.4053 19.5451 95.4914 20.2164 95.2948 22.0802C95.5897 23.0473 95.1122 23.4933 93.8716 23.4276C92.7902 24.3759 92.2424 24.3055 92.2284 23.2163C92.102 22.6201 92.0457 22.0239 92.0691 21.4183C92.0879 20.0239 92.4296 18.8174 93.0195 17.5639C92.7527 17.5311 92.4858 17.4935 92.219 17.4606C92.5888 20.1319 92.3033 22.667 91.395 25.2022C91.6385 25.1364 91.8819 25.0707 92.1253 25.0097C90.983 23.8125 90.5055 22.1318 90.983 20.5216C91.2124 19.7469 91.7414 19.1273 92.5467 19.8878C93.3706 20.6671 92.762 22.5262 92.2517 23.282C92.5186 23.3149 92.7855 23.3525 93.0523 23.3853C92.5186 21.4136 92.8791 19.5685 94.1572 17.9771C93.9278 17.9489 93.6983 17.916 93.4689 17.8879C94.6159 19.3808 94.9624 20.9159 94.4942 22.7515C94.7798 22.7891 95.0654 22.8313 95.3556 22.8689C95.3275 21.2023 95.4071 19.5591 95.6506 17.9066C95.7817 17.0099 96.0251 13.658 96.8069 13.0758C97.5794 13.0383 98.3519 12.996 99.129 12.9584C99.2461 13.3387 99.3397 13.719 99.4146 14.1086C99.5972 14.9725 99.7048 15.8551 99.7282 16.7377C99.775 18.5639 99.4567 20.3291 98.9043 22.0614C99.1899 22.099 99.4755 22.1412 99.7657 22.1788C99.2367 17.4747 100.182 12.9444 102.57 8.85531C102.341 8.88347 102.111 8.91634 101.882 8.94451C104.185 10.7379 104.995 13.5875 103.951 16.3339C104.237 16.3715 104.522 16.4137 104.812 16.4513C104.611 14.4138 104.709 12.3763 105.313 10.4092C105.515 9.74729 105.819 8.35766 106.353 7.87411C108.862 7.54548 109.733 8.42809 108.97 10.5266C108.829 11.0149 108.661 11.4937 108.469 11.9632C108.736 11.9303 109.002 11.8927 109.269 11.8599C108.118 10.259 107.682 8.62055 107.991 6.66287C107.724 6.69573 107.458 6.73331 107.191 6.76617C109.438 9.80362 109.812 13.658 108.113 17.0475C108.366 17.0475 108.619 17.0475 108.867 17.0475C107.401 14.4983 107.125 11.719 108.029 8.92571C107.762 8.95857 107.495 8.99614 107.228 9.02901C109.293 13.9256 109.433 19.2446 107.701 24.2585C107.982 24.2585 108.263 24.2585 108.544 24.2585C106.797 19.0474 106.474 13.6392 107.617 8.25907C107.35 8.29194 107.083 8.32951 106.816 8.36237C109.265 14.0335 109.564 20.2352 107.729 26.1317C108.01 26.1317 108.291 26.1317 108.572 26.1317C106.488 20.3103 105.852 14.1885 106.741 8.0619C106.46 8.0619 106.179 8.0619 105.899 8.0619C108.267 13.9115 108.211 20.3338 105.66 26.1176C105.927 26.1505 106.194 26.188 106.46 26.2209C104.55 19.9958 104.18 13.5406 105.388 7.14174C105.107 7.14174 104.827 7.14174 104.546 7.14174C106.577 13.1697 106.545 19.5028 104.452 25.5073C104.719 25.4744 104.986 25.4369 105.253 25.404C102.804 19.7423 102.149 13.5922 103.338 7.5361C103.071 7.56897 102.804 7.60651 102.537 7.63937C105.159 13.0195 105.238 19.1883 102.743 24.6294C102.996 24.6294 103.249 24.6294 103.497 24.6294C100.791 19.1977 100.365 13.0852 102.256 7.32014C101.989 7.353 101.723 7.39057 101.456 7.42344C104.321 13.2026 104.349 19.8878 101.531 25.6857C101.798 25.7186 102.064 25.7561 102.331 25.789C100.665 19.4418 100.431 12.9303 101.652 6.4798C101.372 6.4798 101.091 6.4798 100.81 6.4798C102.809 12.2402 102.724 18.2963 100.58 24.005C100.847 23.9721 101.114 23.9346 101.381 23.9017C98.8294 17.9583 98.3706 11.4749 100.023 5.2263C99.7563 5.25917 99.4895 5.29674 99.2226 5.3296C102.261 11.6439 102.425 18.8221 99.747 25.2914C100.028 25.2914 100.309 25.2914 100.59 25.2914C98.6515 19.1226 98.1084 12.7096 99.012 6.3061C98.7451 6.33896 98.4782 6.37651 98.2114 6.40937C101.301 12.7472 101.423 20.0803 98.5204 26.5073C98.7873 26.5401 99.0541 26.5777 99.3209 26.6106C97.3828 19.9066 96.8116 13.0007 97.6122 6.07137C97.3266 6.10892 97.041 6.15118 96.7507 6.18873C98.497 12.4327 99.5878 19.1648 96.8538 25.296C97.1206 25.3289 97.3875 25.3665 97.6543 25.3993C95.0139 18.6249 94.3679 11.3763 95.8004 4.24513C95.5336 4.278 95.2667 4.31554 94.9998 4.3484C97.7854 10.6393 97.8556 17.7235 95.1824 24.066C95.4493 24.0989 95.7161 24.1365 95.983 24.1693C94.2414 17.7376 93.895 11.1228 94.9858 4.5456C94.719 4.57846 94.4521 4.616 94.1852 4.64887C97.4998 10.5829 97.2142 17.8409 93.4783 23.5121C93.7452 23.5449 94.0121 23.5825 94.2789 23.6154C92.6123 17.4372 92.4858 11.1088 93.909 4.86953C93.6422 4.90239 93.3754 4.93994 93.1085 4.9728C96.5682 10.7848 96.6571 17.9677 93.3238 23.8548C93.5907 23.8877 93.8575 23.9252 94.1244 23.9581C91.718 17.5827 90.9456 10.8224 91.9006 4.07143C91.6197 4.07143 91.3389 4.07143 91.058 4.07143C92.7059 9.37172 92.3922 14.9114 90.1029 19.977C90.3698 20.0099 90.6366 20.0474 90.9034 20.0803C89.0963 15.0241 88.6329 9.7332 89.5739 4.447C89.307 4.47986 89.0402 4.51741 88.7733 4.55027C91.6104 9.29189 91.5261 15.118 88.5673 19.7798C88.8201 19.7798 89.0729 19.7798 89.3211 19.7798C86.9428 15.2025 86.6479 10.0337 88.4316 5.19814C88.1882 5.26386 87.9447 5.3296 87.7012 5.39063C92.5888 9.46092 90.6366 16.1039 88.8529 21.2258C89.1197 21.1929 89.3866 21.1554 89.6535 21.1225C87.2846 16.4466 86.9803 11.1979 88.7405 6.26854C88.4737 6.3014 88.2069 6.33894 87.94 6.3718C89.8361 10.597 89.6769 15.2541 87.5233 19.3479C87.7761 19.3479 88.0289 19.3479 88.2771 19.3479C85.5758 15.0523 85 9.97263 86.6573 5.17937C86.3904 5.21223 86.1236 5.2498 85.8567 5.28267C88.1882 9.98203 87.9962 15.3903 85.3558 19.916C85.6226 19.9488 85.8894 19.9864 86.1563 20.0192C85.3089 17.9583 84.6956 15.8363 84.4569 13.611C84.3679 12.7707 84.3258 11.9209 84.3305 11.0759C84.3352 10.5125 84.3586 9.94917 84.4054 9.38581C84.0449 8.09477 84.4007 7.5455 85.4775 7.74737C86.3249 7.39527 86.7603 7.7145 86.7884 8.70507C86.9335 9.44214 87.0271 10.1886 87.0599 10.9397C87.0973 11.7284 87.0739 12.5218 86.9943 13.3058C86.7556 15.6203 85.9831 17.7658 84.8361 19.7798C85.0889 19.7798 85.3417 19.7798 85.5898 19.7798C82.6638 14.7048 82.2706 8.74731 84.4616 3.32027C84.1947 3.35313 83.9279 3.3907 83.661 3.42356C86.4653 7.77553 86.3576 13.2683 83.4035 17.517C83.6704 17.5498 83.9373 17.5874 84.2041 17.6203C82.3596 12.9772 82.0506 8.10415 83.324 3.26863C83.0805 3.33436 82.837 3.3954 82.5936 3.46113C86.0908 7.81309 84.0356 13.8035 82.2191 18.4371C82.486 18.4043 82.7528 18.3667 83.0196 18.3339C81.9476 15.8222 81.2359 13.212 80.9457 10.489C80.8193 9.30129 80.7819 8.09945 80.8193 6.90231C80.8521 5.96337 80.7819 2.99634 81.6948 3.1231C83.3895 3.35783 82.9073 9.18861 82.809 10.5078C82.5936 13.3387 81.9335 16.0757 80.9457 18.7282C81.2266 18.7282 81.5075 18.7282 81.7884 18.7282C80.1826 14.2354 80.206 9.56889 81.8586 5.09487C81.5777 5.09487 81.2968 5.09487 81.0159 5.09487C82.191 10.3858 81.6199 15.7518 79.3352 20.6624C79.6021 20.6953 79.8689 20.7328 80.1358 20.7657C78.3427 14.9819 78.3848 8.98207 80.2528 3.2264C79.986 3.25926 79.7191 3.2968 79.4523 3.32967C82.5796 8.10415 80.8286 13.9396 79.1386 18.9207C79.4054 18.8878 79.6723 18.8503 79.9392 18.8174C78.6658 17.1555 77.7576 15.3011 77.3643 13.226C77.1958 12.3434 77.1255 11.4374 77.1442 10.5407C77.1583 9.83648 77.1068 7.74735 77.692 7.19807C80.5056 4.56436 79.7566 12.4139 79.5927 13.273C79.1527 15.5499 78.2304 17.639 76.9757 19.5732C77.2285 19.5732 77.4813 19.5732 77.7294 19.5732C75.1311 14.1039 74.8081 8.00557 76.765 2.28276C76.4841 2.28276 76.2032 2.28276 75.9223 2.28276C77.8605 7.60652 77.7997 13.2307 75.7491 18.5123C76.03 18.5123 76.3109 18.5123 76.5918 18.5123C74.78 13.1228 74.4804 7.5267 75.7257 1.9729C75.4448 1.9729 75.1639 1.9729 74.883 1.9729C76.8914 7.13704 76.4888 12.7472 73.7173 17.5498C73.9842 17.5827 74.251 17.6203 74.5179 17.6531C72.6827 12.9397 72.7576 7.89758 74.8034 3.26393C74.5366 3.23107 74.2697 3.19353 74.0029 3.16066C75.6555 7.58774 75.0937 12.2918 72.4439 16.2025C72.7108 16.2353 72.9776 16.2729 73.2445 16.3058C71.5357 11.9913 71.6808 7.41873 73.722 3.24047C73.4692 3.24047 73.2164 3.24047 72.9683 3.24047C75.0984 7.50792 74.6255 12.55 71.6995 16.3245C71.9289 16.3527 72.1584 16.3856 72.3878 16.4137C70.5058 12.0242 70.4543 7.32485 72.149 2.8743C71.8681 2.8743 71.5872 2.8743 71.3063 2.8743C71.8587 6.87416 71.4046 10.8036 70.0095 14.5875C70.2763 14.5546 70.5432 14.5171 70.8101 14.4842C68.7829 11.1228 68.7361 7.14174 70.6883 3.7381C70.4215 3.70524 70.1546 3.66769 69.8877 3.63483C71.0581 7.93985 70.384 12.2777 67.9777 16.0288C68.2445 16.0616 68.5114 16.0992 68.7782 16.1321C67.5001 11.8881 67.6359 7.61121 69.1621 3.45173C68.8953 3.48459 68.6284 3.52214 68.3615 3.555C70.7538 6.82249 71.414 10.7566 70.1967 14.625C70.4776 14.625 70.7586 14.625 71.0395 14.625C69.8363 10.7613 69.6396 6.86007 70.4683 2.89776C70.2248 2.96349 69.9814 3.0292 69.738 3.09023C71.414 5.25448 71.7136 7.84594 70.7211 10.367C71.002 10.367 71.2829 10.367 71.5638 10.367C70.8335 7.85533 70.6228 5.37185 70.9084 2.7757C70.9645 2.27806 70.0891 2.28276 70.0282 2.83673Z" fill="white"/>
<path d="M39.9588 45.6099C39.4157 31.385 40.6236 17.1789 43.587 3.25454C43.2781 3.48927 42.9691 3.72868 42.6601 3.96341C60.497 1.56443 78.6428 1.55974 96.4657 4.11834C98.6848 4.43758 100.899 4.79439 103.104 5.18874C104.794 5.49389 107.655 5.56899 109.134 6.51731C111.091 7.77549 110.281 12.5265 110.286 14.4936C110.29 16.6391 110.295 18.7845 110.3 20.9347C110.309 25.5354 110.319 30.1362 110.328 34.7323C110.333 36.8778 110.337 39.0232 110.342 41.1734C110.342 42.286 110.899 49.5159 108.287 48.0558C107.201 47.4502 106.232 49.1168 107.313 49.7224C113.863 53.3796 112.261 38.5491 112.257 36.1126C112.238 27.3805 112.388 18.6249 112.201 9.89278C112.144 7.15109 111.475 5.12302 108.657 4.31084C104.776 3.18881 100.529 2.7569 96.5312 2.19354C88.3057 1.02926 80.0145 0.376704 71.7141 0.264032C61.9998 0.127886 52.2901 0.738175 42.6601 2.0339C42.2528 2.09024 41.8268 2.29212 41.7332 2.74281C38.7322 16.8315 37.4869 31.216 38.0347 45.6099C38.0768 46.8493 40.0056 46.854 39.9588 45.6099Z" fill="white"/>
<path d="M40.9466 47.952C43.9803 47.83 46.8408 48.6609 49.8042 49.1539C52.2106 49.5529 54.645 49.7313 57.0841 49.8017C62.8518 49.9754 68.6383 49.8721 74.4107 49.8862C85.9555 49.9144 97.5003 49.9379 109.045 49.9661C110.286 49.9707 110.286 48.0365 109.045 48.0365C97.5003 48.0084 85.9555 47.9849 74.4107 47.9567C68.7881 47.9426 63.1514 48.0319 57.5289 47.8863C54.6731 47.8112 51.8313 47.5999 49.0224 47.0601C46.3304 46.539 43.7181 45.9146 40.956 46.0272C39.7107 46.0695 39.706 47.999 40.9466 47.952Z" fill="white"/>
<path d="M39.3127 25.1929C51.1759 25.4464 63.0391 25.7 74.9069 25.9582C86.9807 26.2258 99.0827 26.606 111.011 28.6623C111.564 28.7562 111.798 27.9112 111.245 27.8173C99.5415 25.7986 87.6689 25.3666 75.8198 25.099C63.6523 24.8267 51.4849 24.5732 39.3174 24.315C38.7462 24.3056 38.7462 25.1835 39.3127 25.1929Z" fill="white"/>
<path d="M47.613 13.4472C48.6898 13.4472 49.7666 13.4472 50.8434 13.4472C51.4052 13.4472 51.4098 12.5693 50.8434 12.5693C49.7666 12.5693 48.6898 12.5693 47.613 12.5693C47.0512 12.5693 47.0512 13.4472 47.613 13.4472Z" fill="white"/>
<path d="M55.801 13.8509C59.0406 14.0059 62.2569 13.9026 65.4778 13.5364C66.0302 13.4754 66.0396 12.5928 65.4778 12.6585C62.2569 13.0247 59.0406 13.128 55.801 12.973C55.2392 12.9449 55.2392 13.8228 55.801 13.8509Z" fill="white"/>
<path d="M48.2827 17.1569C51.2321 17.4152 54.1767 17.678 57.1261 17.9363C58.5213 18.0583 59.9211 18.1804 61.3162 18.3072C62.4913 18.4104 65.5905 18.1569 66.4331 18.9879C66.8358 19.3869 67.4538 18.7672 67.0511 18.3682C66.4519 17.772 65.8807 17.833 65.038 17.7579C63.1748 17.5888 61.3162 17.4292 59.4529 17.2649C55.7311 16.9363 52.0045 16.6077 48.2827 16.279C47.7209 16.2274 47.7209 17.1053 48.2827 17.1569Z" fill="white"/>
<path d="M41.6488 5.00018C38.9101 5.17389 33.8961 4.2913 32.7818 7.59165C32.0702 9.71364 31.9626 12.2628 31.6302 14.4693C31.3025 16.6758 31.0028 18.8917 30.7407 21.1076C29.5796 30.8537 29.0927 40.6656 29.2191 50.4822C29.2285 51.0502 29.6592 51.3882 30.1836 51.4493C52.8893 54.0454 75.684 55.8341 98.5162 56.8106C98.9657 56.8294 99.3027 56.4914 99.4432 56.1017C100.267 53.8623 100.262 51.6746 99.4292 49.44C98.9985 48.2851 97.1351 48.7874 97.5705 49.9517C98.2821 51.8624 98.2868 53.6652 97.5846 55.5853C97.8936 55.3505 98.2025 55.1111 98.5115 54.8764C75.6794 53.8999 52.8847 52.1112 30.1789 49.5151C30.5019 49.839 30.8202 50.1582 31.1433 50.4822C31.0356 42.3557 31.3446 34.2292 32.1218 26.1403C32.5244 21.9527 33.044 17.7791 33.6901 13.6196C33.8539 12.5586 34.0272 11.5023 34.2051 10.4413C34.3174 9.77468 34.2706 8.63855 34.6311 8.10336C35.6376 6.60575 40.1086 7.02358 41.6394 6.92969C42.8801 6.85457 42.8848 4.92507 41.6488 5.00018Z" fill="white"/>
<path d="M32.8098 13.8597C34.2939 11.6438 36.2461 9.86927 38.5775 8.58293C38.3621 8.41861 38.1468 8.2543 37.9361 8.08529C37.7348 8.63457 37.5289 9.17915 37.3275 9.72843C37.1309 10.2589 37.9783 10.489 38.1702 9.96316C38.3715 9.41389 38.5775 8.8693 38.7788 8.32003C38.9193 7.94445 38.4464 7.65339 38.1375 7.82239C35.6703 9.17915 33.6244 11.0758 32.0561 13.4137C31.7377 13.8832 32.4961 14.3245 32.8098 13.8597Z" fill="white"/>
<path d="M32.5989 19.5706C34.9538 15.9839 37.9547 12.9699 41.5268 10.6038C41.3489 10.3738 41.171 10.1437 40.9978 9.91369C40.5671 10.3268 40.141 10.7446 39.7103 11.1578C39.303 11.5521 39.9257 12.1718 40.3283 11.7775C40.759 11.3643 41.1851 10.9465 41.6158 10.5334C41.9669 10.1954 41.5081 9.56627 41.0867 9.84326C37.3882 12.2939 34.2796 15.4111 31.8451 19.1246C31.5314 19.5988 32.2899 20.0401 32.5989 19.5706Z" fill="white"/>
<path d="M32.323 23.0277C34.5093 20.1311 36.9952 17.5068 39.7527 15.1501C39.5046 15.0468 39.2565 14.9435 39.0037 14.8403C38.9803 15.2252 38.9615 15.6149 38.9381 15.9998C38.9054 16.5632 39.7808 16.5632 39.8136 15.9998C39.837 15.6149 39.8557 15.2252 39.8791 14.8403C39.9026 14.4318 39.4016 14.3004 39.1301 14.5304C36.3117 16.934 33.7977 19.6241 31.5645 22.5817C31.2275 23.0324 31.9859 23.4737 32.323 23.0277Z" fill="white"/>
<path d="M32.6787 26.2903C33.5636 25.0321 34.5046 23.8162 35.5158 22.6613C35.9512 22.1637 36.4006 21.6754 36.8594 21.1966C37.0888 20.9571 37.3182 20.7224 37.5569 20.4877C37.7442 20.2999 38.5869 19.0746 38.5026 19.1215C38.0064 19.3891 38.4464 20.145 38.9427 19.8774C38.9942 19.8492 39.0457 19.821 39.0972 19.7976C39.233 19.7224 39.3079 19.5675 39.3125 19.4173C39.3781 17.4925 37.1356 19.6661 36.7611 20.0417C34.9821 21.835 33.381 23.788 31.925 25.849C31.5973 26.3091 32.3557 26.7457 32.6787 26.2903Z" fill="white"/>
<path d="M31.9953 29.5062C33.8773 26.8725 36.1291 24.5581 38.7134 22.6145C38.5121 22.4126 38.3154 22.2154 38.1141 22.0136C37.9783 22.314 37.8426 22.6098 37.7068 22.9103C37.4774 23.422 38.2311 23.868 38.4605 23.3516C38.5963 23.0511 38.7321 22.7553 38.8678 22.4549C39.027 22.1075 38.6619 21.5582 38.2686 21.854C35.558 23.8961 33.2125 26.2951 31.2368 29.0602C30.9091 29.5203 31.6676 29.9616 31.9953 29.5062Z" fill="white"/>
<path d="M29.9915 35.4304C31.3726 33.9046 32.7536 32.3836 34.1394 30.8578C34.7527 30.1818 35.366 29.5057 35.984 28.825C36.3679 28.4025 36.7517 27.98 37.1356 27.5575C37.2901 27.3885 37.4446 27.2195 37.5944 27.0505C37.894 26.8768 37.9128 26.6467 37.66 26.3697C37.4212 26.8767 38.1749 27.3227 38.4137 26.811C38.4418 26.75 38.4699 26.689 38.5027 26.6279C38.5869 26.4495 38.5776 26.243 38.4324 26.0974C38.3763 26.0411 38.3201 25.9801 38.2592 25.9237C38.1515 25.8158 37.983 25.7688 37.8332 25.8111C37.3323 25.9566 37.0982 26.2993 36.7424 26.6843C35.8903 27.6091 35.0523 28.548 34.2096 29.4776C32.5992 31.2569 30.984 33.0314 29.3736 34.8107C28.9944 35.2285 29.6123 35.8482 29.9915 35.4304Z" fill="white"/>
<path d="M29.8044 39.1029C32.8896 35.3284 36.2744 31.8497 39.9635 28.6667C39.7575 28.4601 39.5515 28.2536 39.3455 28.047C38.8212 28.6808 38.2969 29.3192 37.7772 29.953C37.4214 30.3849 38.0347 31.0093 38.3952 30.5727C38.9195 29.9389 39.4439 29.3005 39.9682 28.6667C40.324 28.2348 39.7809 27.6714 39.3502 28.047C35.6611 31.23 32.2716 34.7087 29.1911 38.4832C28.8306 38.9151 29.4439 39.5395 29.8044 39.1029Z" fill="white"/>
<path d="M29.3408 42.553C32.0748 39.14 35.057 35.9571 38.2873 33.0088C38.0392 32.9055 37.7911 32.8022 37.5383 32.6989C37.3791 33.2154 37.2199 33.7318 37.0561 34.2482C36.7658 34.7317 37.5196 35.173 37.8098 34.6895C38.2171 34.0088 38.3669 33.4876 38.409 32.6989C38.4278 32.2999 37.9269 32.145 37.66 32.3891C34.4297 35.3374 31.4475 38.5203 28.7134 41.9333C28.3717 42.3699 28.9896 42.9943 29.3408 42.553Z" fill="white"/>
<path d="M30.2071 46.1318C32.3091 43.0849 34.7295 40.3198 37.4636 37.8316C37.2342 37.6532 37.0048 37.4748 36.7754 37.3011C36.546 37.7988 36.3166 38.2917 36.0919 38.7893C35.8578 39.3011 36.6116 39.7471 36.8456 39.2306C37.075 38.733 37.3044 38.2401 37.5291 37.7424C37.7351 37.2964 37.2248 36.8598 36.8409 37.2119C34.0507 39.7517 31.5881 42.5826 29.4486 45.6905C29.1303 46.1553 29.8887 46.5966 30.2071 46.1318Z" fill="white"/>
<path d="M30.497 49.186C32.7535 46.5007 35.1177 43.9139 37.5895 41.421C37.9875 41.022 37.3695 40.3976 36.9716 40.8013C34.4997 43.2895 32.1355 45.881 29.879 48.5663C29.5138 48.9982 30.1318 49.6226 30.497 49.186Z" fill="white"/>
<path d="M32.6882 49.6188C33.9382 47.4639 35.5674 45.6001 37.5524 44.1025C37.9972 43.7692 37.5618 43.0039 37.1123 43.3466C35.0009 44.9428 33.2594 46.8865 31.9298 49.1775C31.6489 49.6657 32.4026 50.107 32.6882 49.6188Z" fill="white"/>
<path d="M34.6497 49.9658C36.1244 47.8579 37.9596 46.088 40.1178 44.689C40.5906 44.3838 40.1506 43.6233 39.6778 43.9332C37.3931 45.4167 35.4596 47.2898 33.8959 49.5245C33.5682 49.9846 34.3267 50.4212 34.6497 49.9658Z" fill="white"/>
<path d="M36.0731 51.5818C37.6976 49.6429 39.3221 47.7087 40.9466 45.7698C41.3071 45.3378 40.6891 44.7134 40.3287 45.1501C38.7042 47.089 37.0796 49.0232 35.4551 50.9621C35.0947 51.3893 35.7079 52.0137 36.0731 51.5818Z" fill="white"/>
<path d="M38.4091 51.6436C39.7715 49.9206 41.3398 48.3996 43.1141 47.1085C43.5636 46.7799 43.1281 46.0194 42.674 46.3527C40.8389 47.6907 39.205 49.2399 37.7959 51.0239C37.4448 51.4605 38.058 52.0849 38.4091 51.6436Z" fill="white"/>
<path d="M41.3303 51.1927C42.4305 49.5073 43.8069 48.0472 45.4314 46.8642C45.8808 46.5355 45.4454 45.775 44.9913 46.1083C43.2404 47.3853 41.7657 48.9345 40.5766 50.7514C40.2629 51.2209 41.0213 51.6622 41.3303 51.1927Z" fill="white"/>
<path d="M43.5164 51.2704C44.3872 50.2 45.258 49.1249 46.1288 48.0545C46.4799 47.6179 45.8666 46.9936 45.5108 47.4349C44.64 48.5052 43.7693 49.5803 42.8985 50.6507C42.5474 51.0826 43.1606 51.707 43.5164 51.2704Z" fill="white"/>
<path d="M46.8407 50.8771C47.6553 49.6471 48.7039 48.6143 49.9399 47.8162C50.4127 47.511 49.9726 46.7505 49.4998 47.0604C48.1328 47.943 46.9858 49.0791 46.0869 50.4358C45.7733 50.9053 46.527 51.3466 46.8407 50.8771Z" fill="white"/>
<path d="M48.9895 51.5705C50.216 50.2044 51.4473 48.8429 52.6738 47.4767C53.0483 47.0589 52.435 46.4345 52.0558 46.857C50.8293 48.2232 49.5981 49.5846 48.3715 50.9508C47.9923 51.3687 48.6103 51.9884 48.9895 51.5705Z" fill="white"/>
<path d="M52.0134 52.0094C53.2774 50.7935 54.5461 49.5776 55.8101 48.3617C56.2174 47.972 55.5994 47.3476 55.1921 47.742C53.9281 48.9579 52.6594 50.1738 51.3954 51.3897C50.9881 51.7794 51.6061 52.3991 52.0134 52.0094Z" fill="white"/>
<path d="M54.8697 52.277C56.0588 51.3522 57.0513 50.2301 57.8472 48.9485C58.1468 48.4696 57.3884 48.0283 57.0935 48.5072C56.335 49.7278 55.3847 50.7747 54.2564 51.6573C53.807 52.0047 54.4296 52.6197 54.8697 52.277Z" fill="white"/>
<path d="M59.0784 53.5832C60.1505 52.2827 61.2226 50.9823 62.29 49.6818C62.6458 49.2499 62.0278 48.6256 61.672 49.0622C60.6 50.3626 59.5279 51.663 58.4605 52.9635C58.1047 53.3954 58.718 54.0198 59.0784 53.5832Z" fill="white"/>
<path d="M61.4147 53.6606C62.5336 52.6137 63.6478 51.5715 64.7668 50.5245C65.1787 50.1396 64.5607 49.5199 64.1487 49.9049C63.0298 50.9518 61.9156 51.994 60.7967 53.0409C60.3847 53.4258 61.0027 54.0455 61.4147 53.6606Z" fill="white"/>
<path d="M64.3264 54.3081C65.5015 53.1485 66.5595 51.8951 67.5145 50.5477C67.8422 50.0876 67.0838 49.6463 66.7608 50.1064C65.8479 51.3927 64.832 52.5805 63.7132 53.6884C63.3059 54.0874 63.9238 54.7071 64.3264 54.3081Z" fill="white"/>
<path d="M66.7798 54.1836C68.0719 52.5639 69.3687 50.9443 70.6609 49.3246C71.012 48.888 70.3941 48.2636 70.0429 48.7049C68.7508 50.3246 67.4539 51.9442 66.1618 53.5639C65.8106 54.0005 66.424 54.6249 66.7798 54.1836Z" fill="white"/>
<path d="M70.1361 53.4923C70.9882 51.9619 72.0181 50.5723 73.2447 49.3188C73.638 48.9151 73.02 48.2954 72.6268 48.6991C71.3534 50.0042 70.2672 51.4549 69.3824 53.0511C69.1061 53.544 69.8646 53.9853 70.1361 53.4923Z" fill="white"/>
<path d="M73.0341 52.7176C73.3712 51.774 73.9985 50.9805 74.8319 50.4266C75.3 50.1167 74.8599 49.3561 74.3918 49.6707C73.3571 50.3561 72.608 51.3186 72.1914 52.4876C71.9994 53.0181 72.8422 53.2481 73.0341 52.7176Z" fill="white"/>
<path d="M76.4187 54.3476C77.5095 52.6951 78.7641 51.1787 80.1779 49.7985C80.5806 49.4041 79.9626 48.7844 79.5599 49.1788C78.0946 50.6154 76.7932 52.1928 75.6649 53.9063C75.3513 54.3805 76.1097 54.8171 76.4187 54.3476Z" fill="white"/>
<path d="M78.4647 54.7459C79.4666 53.1262 80.6511 51.6662 82.0275 50.3517C82.4348 49.962 81.8168 49.3423 81.4095 49.732C79.9816 51.0934 78.7503 52.6239 77.711 54.2999C77.4114 54.7834 78.1698 55.2247 78.4647 54.7459Z" fill="white"/>
<path d="M81.0534 54.8812C82.6733 53.0503 84.2931 51.2147 85.9129 49.3838C86.2875 48.9612 85.6695 48.3369 85.2949 48.7641C83.6751 50.595 82.0553 52.4306 80.4354 54.2615C80.0609 54.6794 80.6789 55.3038 81.0534 54.8812Z" fill="white"/>
<path d="M84.5277 54.4868C85.8525 52.8953 87.1774 51.3038 88.5023 49.7124C88.8628 49.2805 88.2448 48.6561 87.8844 49.0927C86.5595 50.6842 85.2346 52.2757 83.9097 53.8671C83.5492 54.2943 84.1625 54.9187 84.5277 54.4868Z" fill="white"/>
<path d="M87.8189 54.8639C89.2234 53.3522 90.6232 51.8452 92.0277 50.3336C92.4116 49.9204 91.7936 49.296 91.4097 49.7139C90.0052 51.2255 88.6054 52.7325 87.2009 54.2442C86.817 54.6574 87.435 55.2771 87.8189 54.8639Z" fill="white"/>
<path d="M89.8085 54.9197C91.6812 53.3376 93.3853 51.5865 94.9162 49.671C95.2673 49.2344 94.6493 48.61 94.2982 49.0513C92.7673 50.9667 91.0632 52.7179 89.1906 54.3C88.7599 54.6662 89.3825 55.2859 89.8085 54.9197Z" fill="white"/>
<path d="M92.3689 55.2104C93.7546 53.5767 95.1357 51.9429 96.5215 50.3092C96.882 49.882 96.2687 49.2576 95.9035 49.6895C94.5178 51.3232 93.1367 52.957 91.7509 54.5907C91.3858 55.018 92.0037 55.6424 92.3689 55.2104Z" fill="white"/>
<path d="M94.1765 55.3936C95.1971 54.4781 96.2177 53.5626 97.2383 52.6472C97.6597 52.2716 97.0371 51.6519 96.6204 52.0275C95.5998 52.9429 94.5792 53.8584 93.5586 54.7739C93.1372 55.1494 93.7599 55.7691 94.1765 55.3936Z" fill="white"/>
<path d="M96.2223 55.1869C97.3272 53.8912 98.2354 52.4734 98.933 50.9147C99.1624 50.403 98.4086 49.957 98.1792 50.4734C97.5145 51.9617 96.6624 53.3278 95.6043 54.5672C95.2392 54.9944 95.8524 55.6188 96.2223 55.1869Z" fill="white"/>
</svg>
