<svg width="22" height="30" viewBox="0 0 22 30" fill="none" xmlns="http://www.w3.org/2000/svg">
<path d="M9.31543 0.93457C8.33868 0.93457 7.54688 1.72638 7.54688 2.70312C7.54688 3.67987 8.33868 4.47168 9.31543 4.47168H12.8525C13.8293 4.47168 14.6211 3.67987 14.6211 2.70312C14.6211 1.72638 13.8293 0.93457 12.8525 0.93457H9.31543Z" fill="#3B58A8"/>
<path fill-rule="evenodd" clip-rule="evenodd" d="M0.472656 6.24023C0.472656 4.28674 2.05627 2.70312 4.00977 2.70312C4.00977 5.63336 6.38519 8.00879 9.31543 8.00879H12.8525C15.7828 8.00879 18.1582 5.63336 18.1582 2.70312C20.1117 2.70312 21.6953 4.28674 21.6953 6.24023V25.6943C21.6953 27.6478 20.1117 29.2314 18.1582 29.2314H4.00977C2.05627 29.2314 0.472656 27.6478 0.472656 25.6943V6.24023ZM5.77832 13.3145C4.80157 13.3145 4.00977 14.1063 4.00977 15.083C4.00977 16.0598 4.80157 16.8516 5.77832 16.8516H5.79601C6.77275 16.8516 7.56456 16.0598 7.56456 15.083C7.56456 14.1063 6.77275 13.3145 5.79601 13.3145H5.77832ZM11.084 13.3145C10.1072 13.3145 9.31543 14.1063 9.31543 15.083C9.31543 16.0598 10.1072 16.8516 11.084 16.8516H16.3896C17.3664 16.8516 18.1582 16.0598 18.1582 15.083C18.1582 14.1063 17.3664 13.3145 16.3896 13.3145H11.084ZM5.77832 20.3887C4.80157 20.3887 4.00977 21.1805 4.00977 22.1572C4.00977 23.134 4.80157 23.9258 5.77832 23.9258H5.79601C6.77275 23.9258 7.56456 23.134 7.56456 22.1572C7.56456 21.1805 6.77275 20.3887 5.79601 20.3887H5.77832ZM11.084 20.3887C10.1072 20.3887 9.31543 21.1805 9.31543 22.1572C9.31543 23.134 10.1072 23.9258 11.084 23.9258H16.3896C17.3664 23.9258 18.1582 23.134 18.1582 22.1572C18.1582 21.1805 17.3664 20.3887 16.3896 20.3887H11.084Z" fill="#3B58A8"/>
</svg>
