<svg width="141" height="110" viewBox="0 0 141 110" fill="none" xmlns="http://www.w3.org/2000/svg">
<path d="M8.78347 100.542V86.5422H15.0635C16.6768 86.5422 17.9168 86.8689 18.7835 87.5222C19.6501 88.1622 20.0835 89.0422 20.0835 90.1622C20.0835 90.9222 19.9101 91.5622 19.5635 92.0822C19.2301 92.6022 18.7768 93.0022 18.2035 93.2822C17.6301 93.5622 17.0101 93.7022 16.3435 93.7022L16.7035 93.1022C17.5035 93.1022 18.2101 93.2422 18.8235 93.5222C19.4368 93.8022 19.9235 94.2156 20.2835 94.7622C20.6435 95.2956 20.8235 95.9622 20.8235 96.7622C20.8235 97.9622 20.3701 98.8956 19.4635 99.5622C18.5701 100.216 17.2368 100.542 15.4635 100.542H8.78347ZM10.7835 98.9222H15.3835C16.4901 98.9222 17.3368 98.7356 17.9235 98.3622C18.5101 97.9889 18.8035 97.4022 18.8035 96.6022C18.8035 95.7889 18.5101 95.1956 17.9235 94.8222C17.3368 94.4489 16.4901 94.2622 15.3835 94.2622H10.6035V92.6422H14.8835C15.8968 92.6422 16.6835 92.4556 17.2435 92.0822C17.8035 91.7089 18.0835 91.1489 18.0835 90.4022C18.0835 89.6556 17.8035 89.0956 17.2435 88.7222C16.6835 88.3489 15.8968 88.1622 14.8835 88.1622H10.7835V98.9222ZM28.1802 100.662C27.1135 100.662 26.1669 100.429 25.3402 99.9622C24.5135 99.4956 23.8602 98.8556 23.3802 98.0422C22.9002 97.2156 22.6602 96.2822 22.6602 95.2422C22.6602 94.1889 22.9002 93.2556 23.3802 92.4422C23.8602 91.6289 24.5135 90.9956 25.3402 90.5422C26.1669 90.0756 27.1135 89.8422 28.1802 89.8422C29.2335 89.8422 30.1735 90.0756 31.0002 90.5422C31.8402 90.9956 32.4935 91.6289 32.9602 92.4422C33.4402 93.2422 33.6802 94.1756 33.6802 95.2422C33.6802 96.2956 33.4402 97.2289 32.9602 98.0422C32.4935 98.8556 31.8402 99.4956 31.0002 99.9622C30.1735 100.429 29.2335 100.662 28.1802 100.662ZM28.1802 98.9822C28.8602 98.9822 29.4669 98.8289 30.0002 98.5222C30.5469 98.2156 30.9735 97.7822 31.2802 97.2222C31.5869 96.6489 31.7402 95.9889 31.7402 95.2422C31.7402 94.4822 31.5869 93.8289 31.2802 93.2822C30.9735 92.7222 30.5469 92.2889 30.0002 91.9822C29.4669 91.6756 28.8602 91.5222 28.1802 91.5222C27.5002 91.5222 26.8935 91.6756 26.3602 91.9822C25.8269 92.2889 25.4002 92.7222 25.0802 93.2822C24.7602 93.8289 24.6002 94.4822 24.6002 95.2422C24.6002 95.9889 24.7602 96.6489 25.0802 97.2222C25.4002 97.7822 25.8269 98.2156 26.3602 98.5222C26.8935 98.8289 27.5002 98.9822 28.1802 98.9822ZM40.8755 100.662C39.8088 100.662 38.8622 100.429 38.0355 99.9622C37.2088 99.4956 36.5555 98.8556 36.0755 98.0422C35.5955 97.2156 35.3555 96.2822 35.3555 95.2422C35.3555 94.1889 35.5955 93.2556 36.0755 92.4422C36.5555 91.6289 37.2088 90.9956 38.0355 90.5422C38.8622 90.0756 39.8088 89.8422 40.8755 89.8422C41.9288 89.8422 42.8688 90.0756 43.6955 90.5422C44.5355 90.9956 45.1888 91.6289 45.6555 92.4422C46.1355 93.2422 46.3755 94.1756 46.3755 95.2422C46.3755 96.2956 46.1355 97.2289 45.6555 98.0422C45.1888 98.8556 44.5355 99.4956 43.6955 99.9622C42.8688 100.429 41.9288 100.662 40.8755 100.662ZM40.8755 98.9822C41.5555 98.9822 42.1622 98.8289 42.6955 98.5222C43.2422 98.2156 43.6688 97.7822 43.9755 97.2222C44.2822 96.6489 44.4355 95.9889 44.4355 95.2422C44.4355 94.4822 44.2822 93.8289 43.9755 93.2822C43.6688 92.7222 43.2422 92.2889 42.6955 91.9822C42.1622 91.6756 41.5555 91.5222 40.8755 91.5222C40.1955 91.5222 39.5888 91.6756 39.0555 91.9822C38.5222 92.2889 38.0955 92.7222 37.7755 93.2822C37.4555 93.8289 37.2955 94.4822 37.2955 95.2422C37.2955 95.9889 37.4555 96.6489 37.7755 97.2222C38.0955 97.7822 38.5222 98.2156 39.0555 98.5222C39.5888 98.8289 40.1955 98.9822 40.8755 98.9822ZM50.5908 97.9822L50.6308 95.5222L56.7308 89.9422H59.0508L54.3708 94.5422L53.3308 95.4222L50.5908 97.9822ZM49.0308 100.542V85.7022H50.9508V100.542H49.0308ZM57.1308 100.542L52.9708 95.3822L54.2108 93.8422L59.4908 100.542H57.1308ZM68.8061 93.1622H76.0261V94.8822H68.8061V93.1622ZM69.0061 100.542H67.0061V86.5422H76.8861V88.2822H69.0061V100.542ZM79.4214 100.542V85.7022H81.3414V100.542H79.4214ZM85.0074 100.542V89.9422H86.9274V100.542H85.0074ZM85.9674 87.9022C85.594 87.9022 85.2807 87.7822 85.0274 87.5422C84.7874 87.3022 84.6674 87.0089 84.6674 86.6622C84.6674 86.3022 84.7874 86.0022 85.0274 85.7622C85.2807 85.5222 85.594 85.4022 85.9674 85.4022C86.3407 85.4022 86.6474 85.5222 86.8874 85.7622C87.1407 85.9889 87.2674 86.2756 87.2674 86.6222C87.2674 86.9822 87.1474 87.2889 86.9074 87.5422C86.6674 87.7822 86.354 87.9022 85.9674 87.9022ZM95.2333 104.542C94.26 104.542 93.3133 104.402 92.3933 104.122C91.4866 103.856 90.7466 103.469 90.1733 102.962L91.0933 101.482C91.5866 101.909 92.1933 102.242 92.9133 102.482C93.6333 102.736 94.3866 102.862 95.1733 102.862C96.4266 102.862 97.3466 102.569 97.9333 101.982C98.52 101.396 98.8133 100.502 98.8133 99.3022V97.0622L99.0133 94.9622L98.9133 92.8422V89.9422H100.733V99.1022C100.733 100.969 100.267 102.342 99.3333 103.222C98.4 104.102 97.0333 104.542 95.2333 104.542ZM94.9933 100.102C93.9666 100.102 93.0466 99.8889 92.2333 99.4622C91.4333 99.0222 90.7933 98.4156 90.3133 97.6422C89.8466 96.8689 89.6133 95.9756 89.6133 94.9622C89.6133 93.9356 89.8466 93.0422 90.3133 92.2822C90.7933 91.5089 91.4333 90.9089 92.2333 90.4822C93.0466 90.0556 93.9666 89.8422 94.9933 89.8422C95.9 89.8422 96.7266 90.0289 97.4733 90.4022C98.22 90.7622 98.8133 91.3222 99.2533 92.0822C99.7066 92.8422 99.9333 93.8022 99.9333 94.9622C99.9333 96.1089 99.7066 97.0622 99.2533 97.8222C98.8133 98.5822 98.22 99.1556 97.4733 99.5422C96.7266 99.9156 95.9 100.102 94.9933 100.102ZM95.2133 98.4222C95.92 98.4222 96.5466 98.2756 97.0933 97.9822C97.64 97.6889 98.0666 97.2822 98.3733 96.7622C98.6933 96.2422 98.8533 95.6422 98.8533 94.9622C98.8533 94.2822 98.6933 93.6822 98.3733 93.1622C98.0666 92.6422 97.64 92.2422 97.0933 91.9622C96.5466 91.6689 95.92 91.5222 95.2133 91.5222C94.5066 91.5222 93.8733 91.6689 93.3133 91.9622C92.7666 92.2422 92.3333 92.6422 92.0133 93.1622C91.7066 93.6822 91.5533 94.2822 91.5533 94.9622C91.5533 95.6422 91.7066 96.2422 92.0133 96.7622C92.3333 97.2822 92.7666 97.6889 93.3133 97.9822C93.8733 98.2756 94.5066 98.4222 95.2133 98.4222ZM110.062 89.8422C110.929 89.8422 111.689 90.0089 112.342 90.3422C113.009 90.6756 113.529 91.1822 113.902 91.8622C114.275 92.5422 114.462 93.4022 114.462 94.4422V100.542H112.542V94.6622C112.542 93.6356 112.289 92.8622 111.782 92.3422C111.289 91.8222 110.589 91.5622 109.682 91.5622C109.002 91.5622 108.409 91.6956 107.902 91.9622C107.395 92.2289 107.002 92.6222 106.722 93.1422C106.455 93.6622 106.322 94.3089 106.322 95.0822V100.542H104.402V85.7022H106.322V92.8022L105.942 92.0422C106.289 91.3489 106.822 90.8089 107.542 90.4222C108.262 90.0356 109.102 89.8422 110.062 89.8422ZM121.655 100.662C120.589 100.662 119.762 100.376 119.175 99.8022C118.589 99.2289 118.295 98.4089 118.295 97.3422V87.6222H120.215V97.2622C120.215 97.8356 120.355 98.2756 120.635 98.5822C120.929 98.8889 121.342 99.0422 121.875 99.0422C122.475 99.0422 122.975 98.8756 123.375 98.5422L123.975 99.9222C123.682 100.176 123.329 100.362 122.915 100.482C122.515 100.602 122.095 100.662 121.655 100.662ZM116.495 91.5222V89.9422H123.255V91.5222H116.495ZM129.336 100.662C128.456 100.662 127.616 100.542 126.816 100.302C126.03 100.062 125.41 99.7689 124.956 99.4222L125.756 97.9022C126.21 98.2089 126.77 98.4689 127.436 98.6822C128.103 98.8956 128.783 99.0022 129.476 99.0022C130.37 99.0022 131.01 98.8756 131.396 98.6222C131.796 98.3689 131.996 98.0156 131.996 97.5622C131.996 97.2289 131.876 96.9689 131.636 96.7822C131.396 96.5956 131.076 96.4556 130.676 96.3622C130.29 96.2689 129.856 96.1889 129.376 96.1222C128.896 96.0422 128.416 95.9489 127.936 95.8422C127.456 95.7222 127.016 95.5622 126.616 95.3622C126.216 95.1489 125.896 94.8622 125.656 94.5022C125.416 94.1289 125.296 93.6356 125.296 93.0222C125.296 92.3822 125.476 91.8222 125.836 91.3422C126.196 90.8622 126.703 90.4956 127.356 90.2422C128.023 89.9756 128.81 89.8422 129.716 89.8422C130.41 89.8422 131.11 89.9289 131.816 90.1022C132.536 90.2622 133.123 90.4956 133.576 90.8022L132.756 92.3222C132.276 92.0022 131.776 91.7822 131.256 91.6622C130.736 91.5422 130.216 91.4822 129.696 91.4822C128.856 91.4822 128.23 91.6222 127.816 91.9022C127.403 92.1689 127.196 92.5156 127.196 92.9422C127.196 93.3022 127.316 93.5822 127.556 93.7822C127.81 93.9689 128.13 94.1156 128.516 94.2222C128.916 94.3289 129.356 94.4222 129.836 94.5022C130.316 94.5689 130.796 94.6622 131.276 94.7822C131.756 94.8889 132.19 95.0422 132.576 95.2422C132.976 95.4422 133.296 95.7222 133.536 96.0822C133.79 96.4422 133.916 96.9222 133.916 97.5222C133.916 98.1622 133.73 98.7156 133.356 99.1822C132.983 99.6489 132.456 100.016 131.776 100.282C131.096 100.536 130.283 100.662 129.336 100.662Z" fill="white"/>
<path d="M65.3748 18.4116C65.6692 21.515 66.173 24.5844 66.8914 27.6367C66.9762 28.0076 67.7294 28.0289 67.7893 27.6367C68.3131 24.4139 68.7271 21.1825 69.0164 17.9384C68.7072 17.9384 68.3929 17.9384 68.0836 17.9384C68.3679 21.903 68.343 25.8591 68.0088 29.8237C68.3181 29.8237 68.6324 29.8237 68.9417 29.8237C69.0215 27.9138 69.1013 26.004 69.1761 24.0942C69.2509 22.244 68.9117 19.9505 69.9892 18.3007C69.7049 18.2709 69.4206 18.2368 69.1362 18.2069C69.9693 22.4614 70.2487 26.7245 69.9992 31.0301C70.3085 31.0301 70.6228 31.0301 70.9321 31.0301C70.8672 27.5515 70.977 24.0771 71.2514 20.607C70.9471 20.6411 70.6427 20.6795 70.3334 20.7136C71.2763 25.032 71.7452 29.3718 71.7552 33.7584C71.7552 34.2742 72.6581 34.27 72.6881 33.7584C72.8377 31.013 72.9873 28.2677 73.137 25.5223C72.8277 25.5223 72.5134 25.5223 72.2041 25.5223C72.5234 30.5057 72.3338 35.4722 71.6404 40.4258C71.9497 40.4258 72.264 40.4258 72.5733 40.4258C72.688 36.5251 72.3488 32.6671 71.5706 28.8219C71.4758 28.3529 70.6926 28.5064 70.6527 28.9284C70.2736 33.2469 70.1688 37.5653 70.3384 41.8923C70.6477 41.8923 70.962 41.8923 71.2713 41.8923C70.947 36.6189 70.3434 31.3711 69.4804 26.1447C69.4056 25.6928 68.5625 25.8122 68.5625 26.2513C68.5575 31.823 68.5525 37.3905 68.5476 42.9623C68.8568 42.9623 69.1711 42.9623 69.4804 42.9623C69.4006 38.2985 69.3158 33.6348 69.236 28.9711C69.226 28.4595 68.3131 28.4595 68.3031 28.9711C68.1585 35.0629 68.6274 41.1207 69.685 47.1443C69.7548 47.528 70.508 47.5194 70.5829 47.1443C71.0967 44.6888 71.6055 42.2333 72.1194 39.7778C71.8151 39.7437 71.5107 39.7053 71.2014 39.6712C71.4808 42.1011 71.4259 44.4799 71.0119 46.8928C71.3162 46.9269 71.6205 46.9652 71.9298 46.9993C72.1992 45.1918 72.4686 43.3843 72.7379 41.5725C72.4336 41.6066 72.1293 41.645 71.82 41.6791C72.254 43.1157 72.1592 44.271 71.5257 45.6565C71.3062 46.134 72.2092 46.3429 72.4237 45.8697C73.1071 44.3861 73.1869 43.0092 72.718 41.466C72.5733 40.997 71.8649 41.1548 71.8001 41.5725C71.5307 43.3801 71.2613 45.1876 70.992 46.9993C70.9271 47.4427 71.83 47.5493 71.9098 47.1059C72.3339 44.6206 72.4186 42.1694 72.1343 39.6712C72.0894 39.262 71.3162 39.0872 71.2164 39.5646C70.7026 42.0201 70.1938 44.4757 69.68 46.9312C69.9793 46.9312 70.2786 46.9312 70.5779 46.9312C69.5303 40.98 69.0863 34.9862 69.226 28.9711C68.9167 28.9711 68.6024 28.9711 68.2931 28.9711C68.3729 33.6348 68.4577 38.2985 68.5376 42.9623C68.5475 43.4738 69.4704 43.4781 69.4704 42.9623C69.4754 37.3905 69.4804 31.823 69.4854 26.2513C69.1811 26.2854 68.8768 26.3237 68.5675 26.3578C69.4206 31.5161 70.0042 36.6957 70.3284 41.8965C70.3584 42.4038 71.2812 42.4124 71.2613 41.8965C71.0917 37.5696 71.1964 33.2511 71.5756 28.9327C71.2713 28.9668 70.967 29.0052 70.6577 29.0393C71.4209 32.8163 71.7402 36.6019 71.6255 40.4301C71.6105 40.9544 72.4885 40.9246 72.5584 40.4301C73.2518 35.4764 73.4363 30.51 73.1221 25.5265C73.0871 25.015 72.2191 25.0107 72.1892 25.5265C72.0396 28.2719 71.8899 31.0173 71.7402 33.7627C72.0495 33.7627 72.3638 33.7627 72.6731 33.7627C72.6631 29.3036 72.1742 24.8871 71.2164 20.5047C71.1166 20.0401 70.3335 20.185 70.2985 20.6113C70.0192 24.0857 69.9144 27.5558 69.9793 31.0344C69.9892 31.5502 70.8822 31.5459 70.9121 31.0344C71.1665 26.6605 70.8622 22.3165 70.0142 17.9981C69.9443 17.6528 69.3457 17.6229 69.1611 17.9043C68.2383 19.3153 68.353 20.8884 68.2881 22.4614C68.1884 24.9169 68.0836 27.3724 67.9838 29.8279C67.9639 30.3438 68.8718 30.3352 68.9167 29.8279C69.2509 25.8633 69.2759 21.9072 68.9915 17.9426C68.9566 17.4268 68.1036 17.4311 68.0587 17.9426C67.7743 21.1143 67.3752 24.2775 66.8614 27.4279C67.1607 27.4279 67.4601 27.4279 67.7594 27.4279C67.061 24.4437 66.5671 21.4468 66.2777 18.4158C66.2628 17.9043 65.325 17.9 65.3748 18.4116Z" fill="white"/>
<path d="M63.9398 10.5813C63.9398 15.551 63.9398 20.5284 63.9398 25.4981C63.9398 26.4184 66.8059 26.426 66.8059 25.4981C66.8059 20.5284 66.8059 15.551 66.8059 10.5813C66.8059 9.66104 63.9398 9.66104 63.9398 10.5813Z" fill="white"/>
<path d="M73.7853 10.5813C73.7853 15.551 73.7853 20.5284 73.7853 25.4981C73.7853 26.4184 76.6514 26.426 76.6514 25.4981C76.6514 20.5284 76.6514 15.551 76.6514 10.5813C76.6514 9.66104 73.7853 9.66104 73.7853 10.5813Z" fill="white"/>
<path d="M69.3613 3.54776C70.8826 6.31563 72.4062 9.08778 73.9275 11.8557C74.2092 12.3682 76.7232 10.9919 76.4391 10.4751C74.9179 7.7072 73.3942 4.93505 71.873 2.16718C71.5913 1.65461 69.0796 3.03519 69.3613 3.54776Z" fill="white"/>
<path d="M100.759 36.7287C101.104 40.4247 101.449 44.1265 101.793 47.8225C101.857 48.507 104.711 48.2468 104.647 47.5566C104.302 43.8606 103.957 40.1588 103.613 36.4627C103.549 35.7783 100.695 36.0442 100.759 36.7287Z" fill="white"/>
<path d="M40.4205 36.588C40.076 40.2841 39.7311 43.9859 39.3866 47.6819C39.3228 48.3664 36.4686 48.1061 36.5329 47.416C36.8774 43.7199 37.2223 40.0182 37.5668 36.3221C37.6305 35.6377 40.4842 35.9036 40.4205 36.588Z" fill="white"/>
<path d="M71.9599 2.21926C70.2062 5.40982 68.4498 8.60531 66.6961 11.7959C66.3714 12.3867 63.857 11.0111 64.1845 10.4153C65.9381 7.22478 67.6945 4.02929 69.4482 0.838734C69.7729 0.247889 72.2846 1.62841 71.9599 2.21926Z" fill="white"/>
<path d="M69.6388 57.5448C66.7128 58.2262 63.7823 58.9087 60.8563 59.5901C60.3144 59.7162 59.6599 56.9259 60.2063 56.7987C63.1322 56.1173 66.0627 55.4349 68.9887 54.7535C69.5306 54.6273 70.1806 57.4186 69.6388 57.5448Z" fill="white"/>
<path d="M72.0132 57.2663C74.9392 57.9477 77.8697 58.6301 80.7957 59.3115C81.3375 59.4377 81.9921 56.6474 81.4457 56.5201C78.5197 55.8387 75.5892 55.1563 72.6632 54.4749C72.1214 54.3487 71.4713 57.1401 72.0132 57.2663Z" fill="white"/>
<path d="M71.2333 63.7724C67.7996 64.572 64.3607 65.3729 60.9271 66.1725C60.2912 66.3206 59.6359 63.5304 60.277 63.3811C63.7107 62.5815 67.1496 61.7807 70.5832 60.9811C71.2191 60.833 71.8691 63.6244 71.2333 63.7724Z" fill="white"/>
<path d="M70.5731 63.5303C72.7466 64.0364 74.9234 64.5433 77.0969 65.0495C77.4994 65.1432 78.1528 62.3526 77.7469 62.2581C75.5735 61.752 73.3966 61.245 71.2232 60.7389C70.8207 60.6452 70.1706 63.4365 70.5731 63.5303Z" fill="white"/>
<path d="M79.0031 56.8262C79.1016 59.7442 79.2002 62.6668 79.2986 65.5848C79.3169 66.1252 82.1814 66.0331 82.1631 65.4882C82.0646 62.5701 81.966 59.6476 81.8675 56.7295C81.8493 56.1892 78.9849 56.2858 79.0031 56.8262Z" fill="white"/>
<path d="M62.1615 57.2984C62.0631 60.2164 61.9645 63.139 61.866 66.057C61.8478 66.5974 58.9832 66.5052 59.0016 65.9604C59.1 63.0423 59.1986 60.1198 59.2971 57.2017C59.3153 56.6613 62.1798 56.758 62.1615 57.2984Z" fill="white"/>
<path d="M76.9799 27.7491C84.8884 29.2304 92.8462 32.1778 100.784 36.5538C103.561 38.0836 104.746 35.8894 101.968 34.3596C93.3098 29.5945 84.4051 26.2874 75.7907 24.6675C73.0664 24.1514 74.2028 27.2197 76.9799 27.7491Z" fill="white"/>
<path d="M76.9799 38.9144C84.8884 40.3957 92.8462 43.3431 100.784 47.7191C103.561 49.2489 104.746 47.0547 101.968 45.5249C93.3098 40.7598 84.4051 37.4527 75.7907 35.8328C73.0664 35.3167 74.2028 38.385 76.9799 38.9144Z" fill="white"/>
<path d="M74.6753 37.7327C75.2307 43.4087 74.4257 49.121 72.2786 54.8197C71.5286 56.8139 73.8733 57.6623 74.6233 55.6681C76.9576 49.4519 77.8667 43.0598 77.2679 36.8772C77.082 34.922 74.489 35.7396 74.6753 37.7327Z" fill="white"/>
<path d="M66.9766 37.7327C66.4212 43.4087 67.2262 49.121 69.3733 54.8197C70.1233 56.8139 67.7786 57.6623 67.0286 55.6681C64.6943 49.4519 63.7851 43.0598 64.384 36.8772C64.5699 34.922 67.1629 35.7396 66.9766 37.7327Z" fill="white"/>
<path d="M64.2704 27.7489C56.3618 29.2301 48.404 32.1776 40.4666 36.5536C37.689 38.0834 36.5045 35.8892 39.2821 34.3594C47.9404 29.5943 56.8452 26.2871 65.4596 24.6672C68.1838 24.1512 67.0474 27.2194 64.2704 27.7489Z" fill="white"/>
<path d="M64.3915 38.1117C57.5108 39.3368 50.6036 41.8615 43.7302 45.6533C41.3249 46.9789 40.2673 45.0197 42.6726 43.6941C50.1703 39.5653 57.8994 36.7322 65.3941 35.3921C67.7642 34.965 66.8075 37.6733 64.3915 38.1117Z" fill="white"/>
</svg>
