<svg width="119" height="95" viewBox="0 0 119 95" fill="none" xmlns="http://www.w3.org/2000/svg">
<path d="M45.7059 47.693C52.4977 47.693 57.5074 42.6832 57.5074 35.8914C57.5074 29.0996 52.4977 24.0898 45.7059 24.0898C38.9141 24.0898 33.9043 29.0996 33.9043 35.8914C33.9043 42.6832 38.9082 47.693 45.7059 47.693Z" fill="#3B58A8"/>
<path d="M106.396 0.486328H11.9832C5.47464 0.486328 0.181641 5.44889 0.181641 11.5503V83.8349C0.181641 89.9363 5.47464 94.8988 11.9832 94.8988H106.396C112.904 94.8988 118.197 89.9363 118.197 83.8349V11.5503C118.197 5.44889 112.904 0.486328 106.396 0.486328ZM106.396 83.0973L11.9832 83.0324V12.2879L106.396 12.3528V83.0973Z" fill="#3B58A8"/>
<path d="M70.9904 29.9902H94.5936V41.7918H70.9904V29.9902ZM76.8912 53.5934H94.5936V65.3949H76.8912V53.5934ZM67.627 68.5577C67.627 60.4501 57.7373 52.1182 45.7056 52.1182C33.6739 52.1182 23.7842 60.4501 23.7842 68.5577V71.2957H67.627V68.5577Z" fill="#3B58A8"/>
</svg>
