<svg width="39" height="39" viewBox="0 0 39 39" fill="none" xmlns="http://www.w3.org/2000/svg">
<circle cx="19.6809" cy="19.9461" r="19.0135" fill="#AE1F24"/>
<path d="M20.8723 28.0805L20.8723 14.7023L26.7171 20.547C27.1842 21.0141 27.9507 21.0141 28.4178 20.547C28.5288 20.4362 28.6169 20.3046 28.677 20.1597C28.7371 20.0148 28.7681 19.8595 28.7681 19.7027C28.7681 19.5458 28.7371 19.3905 28.677 19.2456C28.6169 19.1007 28.5288 18.9691 28.4178 18.8583L20.525 10.9655C20.4142 10.8545 20.2826 10.7664 20.1377 10.7063C19.9928 10.6462 19.8375 10.6152 19.6806 10.6152C19.5238 10.6152 19.3685 10.6462 19.2236 10.7063C19.0787 10.7664 18.9471 10.8545 18.8363 10.9655L10.9435 18.8583C10.8326 18.9692 10.7446 19.1008 10.6846 19.2457C10.6246 19.3906 10.5937 19.5458 10.5937 19.7027C10.5937 19.8595 10.6246 20.0148 10.6846 20.1596C10.7446 20.3045 10.8326 20.4361 10.9435 20.547C11.0543 20.6579 11.186 20.7459 11.3309 20.8059C11.4757 20.8659 11.631 20.8968 11.7878 20.8968C11.9447 20.8968 12.0999 20.8659 12.2448 20.8059C12.3897 20.7459 12.5213 20.6579 12.6322 20.547L18.477 14.7023L18.477 28.0805C18.477 28.7393 19.0159 29.2782 19.6746 29.2782C20.3334 29.2782 20.8723 28.7393 20.8723 28.0805Z" fill="white"/>
</svg>
