<svg width="40" height="39" viewBox="0 0 40 39" fill="none" xmlns="http://www.w3.org/2000/svg">
<circle cx="19.9886" cy="19.9744" r="19.0135" fill="#246362"/>
<path d="M21.18 11.8394L21.18 25.2176L27.0247 19.3729C27.4918 18.9058 28.2583 18.9058 28.7254 19.3729C28.8365 19.4837 28.9245 19.6153 28.9846 19.7602C29.0447 19.9051 29.0757 20.0604 29.0757 20.2173C29.0757 20.3741 29.0447 20.5294 28.9846 20.6743C28.9245 20.8192 28.8365 20.9508 28.7254 21.0616L20.8326 28.9544C20.7218 29.0655 20.5902 29.1535 20.4453 29.2136C20.3004 29.2738 20.1451 29.3047 19.9883 29.3047C19.8314 29.3047 19.6761 29.2738 19.5312 29.2136C19.3863 29.1535 19.2547 29.0655 19.1439 28.9544L11.2511 21.0616C11.1402 20.9507 11.0522 20.8191 10.9922 20.6742C10.9322 20.5294 10.9013 20.3741 10.9013 20.2173C10.9013 20.0604 10.9322 19.9052 10.9922 19.7603C11.0522 19.6154 11.1402 19.4838 11.2511 19.3729C11.362 19.262 11.4936 19.174 11.6385 19.114C11.7834 19.054 11.9386 19.0231 12.0955 19.0231C12.2523 19.0231 12.4075 19.054 12.5524 19.114C12.6973 19.174 12.8289 19.262 12.9398 19.3729L18.7846 25.2176L18.7846 11.8394C18.7846 11.1807 19.3235 10.6417 19.9823 10.6417C20.641 10.6417 21.18 11.1807 21.18 11.8394Z" fill="white"/>
</svg>
