<svg width="24" height="24" viewBox="0 0 24 24" fill="none" xmlns="http://www.w3.org/2000/svg">
<path fill-rule="evenodd" clip-rule="evenodd" d="M2.40156 4.80005C2.18939 4.80005 1.98591 4.88433 1.83588 5.03436C1.68585 5.18439 1.60156 5.38788 1.60156 5.60005C1.60156 5.81222 1.68585 6.0157 1.83588 6.16573C1.98591 6.31576 2.18939 6.40005 2.40156 6.40005H21.6016C21.8137 6.40005 22.0172 6.31576 22.1672 6.16573C22.3173 6.0157 22.4016 5.81222 22.4016 5.60005C22.4016 5.38788 22.3173 5.18439 22.1672 5.03436C22.0172 4.88433 21.8137 4.80005 21.6016 4.80005H2.40156ZM1.60156 12C1.60156 11.7879 1.68585 11.5844 1.83588 11.4344C1.98591 11.2843 2.18939 11.2 2.40156 11.2H21.6016C21.8137 11.2 22.0172 11.2843 22.1672 11.4344C22.3173 11.5844 22.4016 11.7879 22.4016 12C22.4016 12.2122 22.3173 12.4157 22.1672 12.5657C22.0172 12.7158 21.8137 12.8 21.6016 12.8H2.40156C2.18939 12.8 1.98591 12.7158 1.83588 12.5657C1.68585 12.4157 1.60156 12.2122 1.60156 12ZM1.60156 18.4C1.60156 18.1879 1.68585 17.9844 1.83588 17.8344C1.98591 17.6843 2.18939 17.6 2.40156 17.6H21.6016C21.8137 17.6 22.0172 17.6843 22.1672 17.8344C22.3173 17.9844 22.4016 18.1879 22.4016 18.4C22.4016 18.6122 22.3173 18.8157 22.1672 18.9657C22.0172 19.1158 21.8137 19.2 21.6016 19.2H2.40156C2.18939 19.2 1.98591 19.1158 1.83588 18.9657C1.68585 18.8157 1.60156 18.6122 1.60156 18.4Z" fill="black" fill-opacity="0.8"/>
</svg>
