<svg width="16" height="14" viewBox="0 0 16 14" fill="none" xmlns="http://www.w3.org/2000/svg">
<path opacity="0.4" fill-rule="evenodd" clip-rule="evenodd" d="M7.67432 0.625H7.68164C8.72798 0.625 9.74506 0.880972 10.6816 1.36205L8.23774 3.87735C8.06213 3.84724 7.87189 3.82465 7.68164 3.82465C6.06457 3.82465 4.75481 5.17227 4.75481 6.83609C4.75481 7.03183 4.77676 7.22758 4.80603 7.40826L2.09871 10.1938C1.36701 9.32052 0.730421 8.26577 0.225543 7.05442C0.167006 6.9189 0.167006 6.75327 0.225543 6.61023C1.7914 2.86099 4.5792 0.625 7.67432 0.625ZM12.5036 2.66577C13.5646 3.65955 14.4646 4.99964 15.1378 6.61076C15.1963 6.7538 15.1963 6.91943 15.1378 7.05494C13.5719 10.8042 10.7841 13.0477 7.68167 13.0477H7.67436C6.26216 13.0477 4.9085 12.5734 3.71582 11.7076L6.03533 9.32105C6.50362 9.64403 7.07436 9.84052 7.68167 9.84052C9.29143 9.84052 10.6012 8.4929 10.6012 6.83661C10.6012 6.21174 10.4109 5.62451 10.0963 5.14268L12.5036 2.66577Z" fill="#3B58A8"/>
<path fill-rule="evenodd" clip-rule="evenodd" d="M12.504 2.66401L13.8357 1.29381C14.0552 1.07548 14.0552 0.714107 13.8357 0.495778C13.6235 0.277449 13.2796 0.277449 13.0601 0.495778L12.3723 1.20347C12.3649 1.21852 12.3503 1.23358 12.3357 1.24864C12.3283 1.26369 12.3137 1.27875 12.2991 1.29381L11.6479 1.96461L9.32835 4.35117L1.47713 12.4286L1.45518 12.4587C1.30884 12.677 1.3381 12.9789 1.52103 13.1672C1.62347 13.2793 1.76981 13.332 1.90884 13.332C2.04786 13.332 2.18688 13.2793 2.29664 13.1672L10.0966 5.14092L12.504 2.66401ZM7.68203 8.71034C8.68447 8.71034 9.50398 7.86714 9.50398 6.83572C9.50398 6.51952 9.43081 6.21837 9.29911 5.9624L6.83325 8.49954C7.08203 8.63505 7.37472 8.71034 7.68203 8.71034Z" fill="#3B58A8"/>
</svg>
