<svg width="141" height="117" viewBox="0 0 141 117" fill="none" xmlns="http://www.w3.org/2000/svg">
<path d="M16.4129 91.9963V79.7363H11.6129V77.9963H23.1929V79.7363H18.3929V91.9963H16.4129ZM24.8373 91.9963V81.3963H26.6773V84.2763L26.4973 83.5563C26.7907 82.823 27.284 82.263 27.9773 81.8763C28.6707 81.4897 29.524 81.2963 30.5373 81.2963V83.1563C30.4573 83.143 30.3773 83.1363 30.2973 83.1363C30.2307 83.1363 30.164 83.1363 30.0973 83.1363C29.0707 83.1363 28.2573 83.443 27.6573 84.0563C27.0573 84.6697 26.7573 85.5563 26.7573 86.7163V91.9963H24.8373ZM38.7025 91.9963V89.7563L38.6025 89.3363V85.5163C38.6025 84.703 38.3625 84.0763 37.8825 83.6363C37.4158 83.183 36.7091 82.9563 35.7625 82.9563C35.1358 82.9563 34.5225 83.063 33.9225 83.2763C33.3225 83.4763 32.8158 83.7497 32.4025 84.0963L31.6025 82.6563C32.1491 82.2163 32.8025 81.883 33.5625 81.6563C34.3358 81.4163 35.1425 81.2963 35.9825 81.2963C37.4358 81.2963 38.5558 81.6497 39.3425 82.3563C40.1291 83.063 40.5225 84.143 40.5225 85.5963V91.9963H38.7025ZM35.2225 92.1163C34.4358 92.1163 33.7425 91.983 33.1425 91.7163C32.5558 91.4497 32.1025 91.083 31.7825 90.6163C31.4625 90.1363 31.3025 89.5963 31.3025 88.9963C31.3025 88.423 31.4358 87.903 31.7025 87.4363C31.9825 86.9697 32.4291 86.5963 33.0425 86.3163C33.6691 86.0363 34.5091 85.8963 35.5625 85.8963H38.9225V87.2763H35.6425C34.6825 87.2763 34.0358 87.4363 33.7025 87.7563C33.3691 88.0763 33.2025 88.463 33.2025 88.9163C33.2025 89.4363 33.4091 89.8563 33.8225 90.1763C34.2358 90.483 34.8091 90.6363 35.5425 90.6363C36.2625 90.6363 36.8891 90.4763 37.4225 90.1563C37.9691 89.8363 38.3625 89.3697 38.6025 88.7563L38.9825 90.0763C38.7291 90.703 38.2825 91.203 37.6425 91.5763C37.0025 91.9363 36.1958 92.1163 35.2225 92.1163ZM49.7356 81.2963C50.6023 81.2963 51.3623 81.463 52.0156 81.7963C52.6823 82.1297 53.2023 82.6363 53.5756 83.3163C53.9489 83.9963 54.1356 84.8563 54.1356 85.8963V91.9963H52.2156V86.1163C52.2156 85.0897 51.9623 84.3163 51.4556 83.7963C50.9623 83.2763 50.2623 83.0163 49.3556 83.0163C48.6756 83.0163 48.0823 83.1497 47.5756 83.4163C47.0689 83.683 46.6756 84.0763 46.3956 84.5963C46.1289 85.1163 45.9956 85.763 45.9956 86.5363V91.9963H44.0756V81.3963H45.9156V84.2563L45.6156 83.4963C45.9623 82.803 46.4956 82.263 47.2156 81.8763C47.9356 81.4897 48.7756 81.2963 49.7356 81.2963ZM60.7289 92.1163C59.8489 92.1163 59.0089 91.9963 58.2089 91.7563C57.4222 91.5163 56.8022 91.223 56.3489 90.8763L57.1489 89.3563C57.6022 89.663 58.1622 89.923 58.8289 90.1363C59.4955 90.3497 60.1755 90.4563 60.8689 90.4563C61.7622 90.4563 62.4022 90.3297 62.7889 90.0763C63.1889 89.823 63.3889 89.4697 63.3889 89.0163C63.3889 88.683 63.2689 88.423 63.0289 88.2363C62.7889 88.0497 62.4689 87.9097 62.0689 87.8163C61.6822 87.723 61.2489 87.643 60.7689 87.5763C60.2889 87.4963 59.8089 87.403 59.3289 87.2963C58.8489 87.1763 58.4089 87.0163 58.0089 86.8163C57.6089 86.603 57.2889 86.3163 57.0489 85.9563C56.8089 85.583 56.6889 85.0897 56.6889 84.4763C56.6889 83.8363 56.8689 83.2763 57.2289 82.7963C57.5889 82.3163 58.0955 81.9497 58.7489 81.6963C59.4155 81.4297 60.2022 81.2963 61.1089 81.2963C61.8022 81.2963 62.5022 81.383 63.2089 81.5563C63.9289 81.7163 64.5155 81.9497 64.9689 82.2563L64.1489 83.7763C63.6689 83.4563 63.1689 83.2363 62.6489 83.1163C62.1289 82.9963 61.6089 82.9363 61.0889 82.9363C60.2489 82.9363 59.6222 83.0763 59.2089 83.3563C58.7955 83.623 58.5889 83.9697 58.5889 84.3963C58.5889 84.7563 58.7089 85.0363 58.9489 85.2363C59.2022 85.423 59.5222 85.5697 59.9089 85.6763C60.3089 85.783 60.7489 85.8763 61.2289 85.9563C61.7089 86.023 62.1889 86.1163 62.6689 86.2363C63.1489 86.343 63.5822 86.4963 63.9689 86.6963C64.3689 86.8963 64.6889 87.1763 64.9289 87.5363C65.1822 87.8963 65.3089 88.3763 65.3089 88.9763C65.3089 89.6163 65.1222 90.1697 64.7489 90.6363C64.3755 91.103 63.8489 91.4697 63.1689 91.7363C62.4889 91.9897 61.6755 92.1163 60.7289 92.1163ZM74.2884 91.9963V89.7563L74.1884 89.3363V85.5163C74.1884 84.703 73.9484 84.0763 73.4684 83.6363C73.0017 83.183 72.2951 82.9563 71.3484 82.9563C70.7217 82.9563 70.1084 83.063 69.5084 83.2763C68.9084 83.4763 68.4017 83.7497 67.9884 84.0963L67.1884 82.6563C67.7351 82.2163 68.3884 81.883 69.1484 81.6563C69.9217 81.4163 70.7284 81.2963 71.5684 81.2963C73.0217 81.2963 74.1417 81.6497 74.9284 82.3563C75.7151 83.063 76.1084 84.143 76.1084 85.5963V91.9963H74.2884ZM70.8084 92.1163C70.0217 92.1163 69.3284 91.983 68.7284 91.7163C68.1417 91.4497 67.6884 91.083 67.3684 90.6163C67.0484 90.1363 66.8884 89.5963 66.8884 88.9963C66.8884 88.423 67.0217 87.903 67.2884 87.4363C67.5684 86.9697 68.0151 86.5963 68.6284 86.3163C69.2551 86.0363 70.0951 85.8963 71.1484 85.8963H74.5084V87.2763H71.2284C70.2684 87.2763 69.6217 87.4363 69.2884 87.7563C68.9551 88.0763 68.7884 88.463 68.7884 88.9163C68.7884 89.4363 68.9951 89.8563 69.4084 90.1763C69.8217 90.483 70.3951 90.6363 71.1284 90.6363C71.8484 90.6363 72.4751 90.4763 73.0084 90.1563C73.5551 89.8363 73.9484 89.3697 74.1884 88.7563L74.5684 90.0763C74.3151 90.703 73.8684 91.203 73.2284 91.5763C72.5884 91.9363 71.7817 92.1163 70.8084 92.1163ZM84.2815 92.1163C83.2015 92.1163 82.2349 91.883 81.3815 91.4163C80.5415 90.9497 79.8815 90.3097 79.4015 89.4963C78.9215 88.683 78.6815 87.7497 78.6815 86.6963C78.6815 85.643 78.9215 84.7097 79.4015 83.8963C79.8815 83.083 80.5415 82.4497 81.3815 81.9963C82.2349 81.5297 83.2015 81.2963 84.2815 81.2963C85.2415 81.2963 86.0949 81.4897 86.8415 81.8763C87.6015 82.2497 88.1882 82.8097 88.6015 83.5563L87.1415 84.4963C86.7949 83.9763 86.3682 83.5963 85.8615 83.3563C85.3682 83.103 84.8349 82.9763 84.2615 82.9763C83.5682 82.9763 82.9482 83.1297 82.4015 83.4363C81.8549 83.743 81.4215 84.1763 81.1015 84.7363C80.7815 85.283 80.6215 85.9363 80.6215 86.6963C80.6215 87.4563 80.7815 88.1163 81.1015 88.6763C81.4215 89.2363 81.8549 89.6697 82.4015 89.9763C82.9482 90.283 83.5682 90.4363 84.2615 90.4363C84.8349 90.4363 85.3682 90.3163 85.8615 90.0763C86.3682 89.823 86.7949 89.4363 87.1415 88.9163L88.6015 89.8363C88.1882 90.5697 87.6015 91.1363 86.8415 91.5363C86.0949 91.923 85.2415 92.1163 84.2815 92.1163ZM94.864 92.1163C93.7974 92.1163 92.9707 91.8297 92.384 91.2563C91.7974 90.683 91.504 89.863 91.504 88.7963V79.0763H93.424V88.7163C93.424 89.2897 93.564 89.7297 93.844 90.0363C94.1374 90.343 94.5507 90.4963 95.084 90.4963C95.684 90.4963 96.184 90.3297 96.584 89.9963L97.184 91.3763C96.8907 91.6297 96.5374 91.8163 96.124 91.9363C95.724 92.0563 95.304 92.1163 94.864 92.1163ZM89.704 82.9763V81.3963H96.464V82.9763H89.704ZM99.5053 91.9963V81.3963H101.425V91.9963H99.5053ZM100.465 79.3563C100.092 79.3563 99.7786 79.2363 99.5253 78.9963C99.2853 78.7563 99.1653 78.463 99.1653 78.1163C99.1653 77.7563 99.2853 77.4563 99.5253 77.2163C99.7786 76.9763 100.092 76.8563 100.465 76.8563C100.839 76.8563 101.145 76.9763 101.385 77.2163C101.639 77.443 101.765 77.7297 101.765 78.0763C101.765 78.4363 101.645 78.743 101.405 78.9963C101.165 79.2363 100.852 79.3563 100.465 79.3563ZM109.631 92.1163C108.565 92.1163 107.618 91.883 106.791 91.4163C105.965 90.9497 105.311 90.3097 104.831 89.4963C104.351 88.6697 104.111 87.7363 104.111 86.6963C104.111 85.643 104.351 84.7097 104.831 83.8963C105.311 83.083 105.965 82.4497 106.791 81.9963C107.618 81.5297 108.565 81.2963 109.631 81.2963C110.685 81.2963 111.625 81.5297 112.451 81.9963C113.291 82.4497 113.945 83.083 114.411 83.8963C114.891 84.6963 115.131 85.6297 115.131 86.6963C115.131 87.7497 114.891 88.683 114.411 89.4963C113.945 90.3097 113.291 90.9497 112.451 91.4163C111.625 91.883 110.685 92.1163 109.631 92.1163ZM109.631 90.4363C110.311 90.4363 110.918 90.283 111.451 89.9763C111.998 89.6697 112.425 89.2363 112.731 88.6763C113.038 88.103 113.191 87.443 113.191 86.6963C113.191 85.9363 113.038 85.283 112.731 84.7363C112.425 84.1763 111.998 83.743 111.451 83.4363C110.918 83.1297 110.311 82.9763 109.631 82.9763C108.951 82.9763 108.345 83.1297 107.811 83.4363C107.278 83.743 106.851 84.1763 106.531 84.7363C106.211 85.283 106.051 85.9363 106.051 86.6963C106.051 87.443 106.211 88.103 106.531 88.6763C106.851 89.2363 107.278 89.6697 107.811 89.9763C108.345 90.283 108.951 90.4363 109.631 90.4363ZM123.447 81.2963C124.313 81.2963 125.073 81.463 125.727 81.7963C126.393 82.1297 126.913 82.6363 127.287 83.3163C127.66 83.9963 127.847 84.8563 127.847 85.8963V91.9963H125.927V86.1163C125.927 85.0897 125.673 84.3163 125.167 83.7963C124.673 83.2763 123.973 83.0163 123.067 83.0163C122.387 83.0163 121.793 83.1497 121.287 83.4163C120.78 83.683 120.387 84.0763 120.107 84.5963C119.84 85.1163 119.707 85.763 119.707 86.5363V91.9963H117.787V81.3963H119.627V84.2563L119.327 83.4963C119.673 82.803 120.207 82.263 120.927 81.8763C121.647 81.4897 122.487 81.2963 123.447 81.2963ZM46.6319 97.9963H48.6319V111.996H46.6319V97.9963ZM38.5919 111.996H36.5919V97.9963H38.5919V111.996ZM46.8119 105.756H38.3919V104.016H46.8119V105.756ZM52.5424 111.996V101.396H54.4624V111.996H52.5424ZM53.5024 99.3563C53.1291 99.3563 52.8157 99.2363 52.5624 98.9963C52.3224 98.7563 52.2024 98.463 52.2024 98.1163C52.2024 97.7563 52.3224 97.4563 52.5624 97.2163C52.8157 96.9763 53.1291 96.8563 53.5024 96.8563C53.8757 96.8563 54.1824 96.9763 54.4224 97.2163C54.6757 97.443 54.8024 97.7297 54.8024 98.0763C54.8024 98.4363 54.6824 98.743 54.4424 98.9963C54.2024 99.2363 53.8891 99.3563 53.5024 99.3563ZM61.1683 112.116C60.2883 112.116 59.4483 111.996 58.6483 111.756C57.8617 111.516 57.2417 111.223 56.7883 110.876L57.5883 109.356C58.0417 109.663 58.6017 109.923 59.2683 110.136C59.935 110.35 60.615 110.456 61.3083 110.456C62.2017 110.456 62.8417 110.33 63.2283 110.076C63.6283 109.823 63.8283 109.47 63.8283 109.016C63.8283 108.683 63.7083 108.423 63.4683 108.236C63.2283 108.05 62.9083 107.91 62.5083 107.816C62.1217 107.723 61.6883 107.643 61.2083 107.576C60.7283 107.496 60.2483 107.403 59.7683 107.296C59.2883 107.176 58.8483 107.016 58.4483 106.816C58.0483 106.603 57.7283 106.316 57.4883 105.956C57.2483 105.583 57.1283 105.09 57.1283 104.476C57.1283 103.836 57.3083 103.276 57.6683 102.796C58.0283 102.316 58.535 101.95 59.1883 101.696C59.855 101.43 60.6417 101.296 61.5483 101.296C62.2417 101.296 62.9417 101.383 63.6483 101.556C64.3683 101.716 64.955 101.95 65.4083 102.256L64.5883 103.776C64.1083 103.456 63.6083 103.236 63.0883 103.116C62.5683 102.996 62.0483 102.936 61.5283 102.936C60.6883 102.936 60.0617 103.076 59.6483 103.356C59.235 103.623 59.0283 103.97 59.0283 104.396C59.0283 104.756 59.1483 105.036 59.3883 105.236C59.6417 105.423 59.9617 105.57 60.3483 105.676C60.7483 105.783 61.1883 105.876 61.6683 105.956C62.1483 106.023 62.6283 106.116 63.1083 106.236C63.5883 106.343 64.0217 106.496 64.4083 106.696C64.8083 106.896 65.1283 107.176 65.3683 107.536C65.6217 107.896 65.7483 108.376 65.7483 108.976C65.7483 109.616 65.5617 110.17 65.1883 110.636C64.815 111.103 64.2883 111.47 63.6083 111.736C62.9283 111.99 62.115 112.116 61.1683 112.116ZM71.7879 112.116C70.7212 112.116 69.8945 111.83 69.3079 111.256C68.7212 110.683 68.4279 109.863 68.4279 108.796V99.0763H70.3479V108.716C70.3479 109.29 70.4879 109.73 70.7679 110.036C71.0612 110.343 71.4745 110.496 72.0079 110.496C72.6079 110.496 73.1079 110.33 73.5079 109.996L74.1079 111.376C73.8145 111.63 73.4612 111.816 73.0479 111.936C72.6479 112.056 72.2279 112.116 71.7879 112.116ZM66.6279 102.976V101.396H73.3879V102.976H66.6279ZM80.6176 112.116C79.5509 112.116 78.6042 111.883 77.7776 111.416C76.9509 110.95 76.2976 110.31 75.8176 109.496C75.3376 108.67 75.0976 107.736 75.0976 106.696C75.0976 105.643 75.3376 104.71 75.8176 103.896C76.2976 103.083 76.9509 102.45 77.7776 101.996C78.6042 101.53 79.5509 101.296 80.6176 101.296C81.6709 101.296 82.6109 101.53 83.4376 101.996C84.2776 102.45 84.9309 103.083 85.3976 103.896C85.8776 104.696 86.1176 105.63 86.1176 106.696C86.1176 107.75 85.8776 108.683 85.3976 109.496C84.9309 110.31 84.2776 110.95 83.4376 111.416C82.6109 111.883 81.6709 112.116 80.6176 112.116ZM80.6176 110.436C81.2976 110.436 81.9042 110.283 82.4376 109.976C82.9842 109.67 83.4109 109.236 83.7176 108.676C84.0242 108.103 84.1776 107.443 84.1776 106.696C84.1776 105.936 84.0242 105.283 83.7176 104.736C83.4109 104.176 82.9842 103.743 82.4376 103.436C81.9042 103.13 81.2976 102.976 80.6176 102.976C79.9376 102.976 79.3309 103.13 78.7976 103.436C78.2642 103.743 77.8376 104.176 77.5176 104.736C77.1976 105.283 77.0376 105.936 77.0376 106.696C77.0376 107.443 77.1976 108.103 77.5176 108.676C77.8376 109.236 78.2642 109.67 78.7976 109.976C79.3309 110.283 79.9376 110.436 80.6176 110.436ZM88.7729 111.996V101.396H90.6129V104.276L90.4329 103.556C90.7262 102.823 91.2195 102.263 91.9129 101.876C92.6062 101.49 93.4595 101.296 94.4729 101.296V103.156C94.3929 103.143 94.3129 103.136 94.2329 103.136C94.1662 103.136 94.0995 103.136 94.0329 103.136C93.0062 103.136 92.1929 103.443 91.5929 104.056C90.9929 104.67 90.6929 105.556 90.6929 106.716V111.996H88.7729ZM97.729 115.996C97.2223 115.996 96.729 115.91 96.249 115.736C95.769 115.576 95.3556 115.336 95.009 115.016L95.829 113.576C96.0956 113.83 96.389 114.023 96.709 114.156C97.029 114.29 97.369 114.356 97.729 114.356C98.1956 114.356 98.5823 114.236 98.889 113.996C99.1956 113.756 99.4823 113.33 99.749 112.716L100.409 111.256L100.609 111.016L104.769 101.396H106.649L101.509 113.056C101.202 113.803 100.856 114.39 100.469 114.816C100.096 115.243 99.6823 115.543 99.229 115.716C98.7756 115.903 98.2756 115.996 97.729 115.996ZM100.249 112.336L95.409 101.396H97.409L101.529 110.836L100.249 112.336Z" fill="white"/>
<path d="M68.5964 40.626C67.7795 39.9505 66.9361 39.3069 66.0609 38.7111C65.6366 38.4186 64.0399 37.0569 63.5148 37.2537C63.6368 37.0942 63.7588 36.9346 63.8808 36.775C63.8861 36.8229 63.8914 36.8654 63.8967 36.9133C63.9657 37.5463 62.9738 37.5463 62.9048 36.9133C62.8995 36.8654 62.8942 36.8229 62.8889 36.775C62.8624 36.5463 63.0639 36.3708 63.2549 36.2963C64.1832 35.9399 65.3501 37.0463 66.0768 37.525C67.196 38.2644 68.2622 39.0728 69.2965 39.9239C69.7898 40.3335 69.0844 41.0303 68.5964 40.626Z" fill="white"/>
<path d="M68.8881 43.9417C67.7848 42.463 66.3845 41.2928 64.7508 40.4418C64.1832 40.1439 64.6871 39.2876 65.2494 39.5854C67.0369 40.5216 68.5328 41.8247 69.7421 43.4417C70.124 43.9577 69.2648 44.4523 68.8881 43.9417Z" fill="white"/>
<path d="M68.6178 45.3914C67.6895 44.2744 66.5809 43.3914 65.292 42.7372C64.7245 42.4499 65.2231 41.5882 65.7906 41.8808C67.1485 42.567 68.342 43.5191 69.318 44.6893C69.7264 45.1786 69.0262 45.8861 68.6178 45.3914Z" fill="white"/>
<path d="M71.6334 39.2724C71.5952 36.1724 72.3972 33.4254 73.9662 31.4335C74.8665 30.3003 73.3917 28.0895 72.4874 29.2421C70.5583 31.6874 69.5178 35.0711 69.567 38.8984C69.5994 40.6709 71.6563 41.0506 71.6334 39.2724Z" fill="white"/>
<path d="M78.558 42.2762C76.0039 42.1164 73.7962 40.9636 72.2611 38.9333C71.3883 37.769 69.4705 39.4058 70.359 40.5762C72.2432 43.0722 74.9591 44.5558 78.1126 44.7508C79.5736 44.8295 80.0231 42.3668 78.558 42.2762Z" fill="white"/>
<path d="M41.9883 45.6244C47.5505 57.5589 62.3745 62.4866 67.1704 62.3895L71.7828 62.3896C80.1516 62.3898 87.6356 57.1794 90.5401 49.3308L92.4349 44.2108C93.4679 41.4194 93.8648 38.4327 93.5968 35.4684L93.2072 31.1607C92.9313 28.1091 91.9579 25.1617 90.3621 22.546L89.1334 20.5318C86.9081 16.8841 83.5115 14.0199 79.5554 12.4053V12.4053C76.9125 11.3268 74.029 10.8099 71.1767 10.9213L69.0244 11.0055C60.7714 11.328 53.5655 16.6906 50.8867 24.5034L49.2417 29.3011" stroke="white" stroke-width="3"/>
<path d="M44.116 16.7053L49.2628 31.0924L61.1942 23.4892" stroke="white" stroke-width="3"/>
<path d="M58.1012 52.1697C57.691 52.9335 57.2809 53.696 56.8707 54.4598C56.7813 54.6231 57.7279 54.6936 57.8173 54.529C58.2274 53.7652 58.6376 53.0027 59.0478 52.2389C59.1372 52.0756 58.1906 52.0051 58.1012 52.1697Z" fill="white"/>
<path d="M53.6082 38.3557C54.0183 39.6202 54.4285 40.8824 54.8387 42.1469C54.9281 42.4172 53.9815 42.534 53.8921 42.2614C53.4819 40.9969 53.0718 39.7347 52.6616 38.4703C52.5722 38.2 53.5188 38.0831 53.6082 38.3557Z" fill="white"/>
<path d="M75.7147 52.1697C76.1249 52.9335 76.535 53.696 76.9452 54.4598C77.0346 54.6231 76.0881 54.6936 75.9987 54.529C75.5885 53.7652 75.1783 53.0027 74.7682 52.2389C74.6788 52.0756 75.6253 52.0051 75.7147 52.1697Z" fill="white"/>
<path d="M85.1596 42.5103C84.7494 43.2741 84.3392 44.0365 83.929 44.8003C83.8396 44.9636 84.7862 45.0342 84.8756 44.8695C85.2858 44.1057 85.6959 43.3433 86.1061 42.5795C86.1955 42.4162 85.249 42.3456 85.1596 42.5103Z" fill="white"/>
<path d="M82.9705 23.9922C82.5603 24.7561 82.1501 25.5185 81.74 26.2823C81.6506 26.4456 82.5971 26.5161 82.6865 26.3515C83.0967 25.5877 83.5069 24.8252 83.917 24.0614C84.0064 23.8982 83.0599 23.8276 82.9705 23.9922Z" fill="white"/>
<path d="M68.6015 18.9026C69.0117 19.6665 69.4218 20.4289 69.832 21.1927C69.9214 21.356 68.9748 21.4265 68.8854 21.2619C68.4753 20.4981 68.0651 19.7356 67.6549 18.9718C67.5655 18.8086 68.5121 18.738 68.6015 18.9026Z" fill="white"/>
</svg>
