<svg width="20" height="20" viewBox="0 0 20 20" fill="none" xmlns="http://www.w3.org/2000/svg">
<path d="M6.98516 17.8626V15.0033C6.98516 14.2734 7.65583 13.6817 8.48316 13.6817H11.5074C11.9047 13.6817 12.2857 13.8209 12.5667 14.0688C12.8476 14.3166 13.0054 14.6528 13.0054 15.0033V17.8626C13.0029 18.1661 13.1378 18.4579 13.3801 18.6732C13.6225 18.8886 13.9522 19.0097 14.2962 19.0097H16.3594C17.3231 19.0119 18.2481 18.6757 18.9304 18.0754C19.6126 17.475 19.9961 16.6597 19.9961 15.8096V7.66374C19.9961 6.97698 19.651 6.32556 19.054 5.88495L12.035 0.939272C10.8141 0.0721251 9.06469 0.100123 7.88019 1.00577L1.02142 5.88495C0.396112 6.31257 0.0223751 6.96592 0.00390625 7.66374V15.8013C0.00390625 17.5732 1.63209 19.0097 3.64056 19.0097H5.65674C6.37113 19.0097 6.95171 18.5012 6.95689 17.871L6.98516 17.8626Z" fill="#8EA8DD"/>
</svg>
