<svg width="25" height="25" viewBox="0 0 25 25" fill="none" xmlns="http://www.w3.org/2000/svg">
<path d="M12.4809 7.38616C9.92689 7.38616 7.85789 9.45616 7.85789 12.0092C7.85789 14.5632 9.92689 16.6332 12.4809 16.6332C15.0329 16.6332 17.1039 14.5632 17.1039 12.0092C17.1039 9.45616 15.0329 7.38616 12.4809 7.38616ZM12.4809 15.0132C10.8219 15.0132 9.47689 13.6682 9.47689 12.0102C9.47689 10.3512 10.8219 9.00716 12.4809 9.00716C14.1399 9.00716 15.4829 10.3512 15.4829 12.0102C15.4829 13.6682 14.1399 15.0132 12.4809 15.0132Z" fill="#3B58A8"/>
<path d="M17.2879 8.29416C17.8832 8.29416 18.3659 7.81152 18.3659 7.21616C18.3659 6.6208 17.8832 6.13816 17.2879 6.13816C16.6925 6.13816 16.2099 6.6208 16.2099 7.21616C16.2099 7.81152 16.6925 8.29416 17.2879 8.29416Z" fill="#3B58A8"/>
<path d="M21.0149 6.12016C20.5459 4.91116 19.5909 3.95516 18.3819 3.48816C17.6829 3.22516 16.9439 3.08416 16.1959 3.06816C15.2329 3.02616 14.9279 3.01416 12.4859 3.01416C10.0439 3.01416 9.73089 3.01416 8.77589 3.06816C8.02989 3.08316 7.29089 3.22416 6.59189 3.48816C5.38189 3.95516 4.42689 4.91116 3.95889 6.12016C3.69589 6.82016 3.55489 7.55816 3.53989 8.30616C3.49689 9.26816 3.48389 9.57316 3.48389 12.0162C3.48389 14.4582 3.48389 14.7692 3.53989 15.7262C3.55489 16.4742 3.69589 17.2122 3.95889 17.9132C4.42789 19.1212 5.38289 20.0772 6.59289 20.5452C7.28889 20.8172 8.02789 20.9712 8.77789 20.9952C9.74089 21.0372 10.0459 21.0502 12.4879 21.0502C14.9299 21.0502 15.2429 21.0502 16.1979 20.9952C16.9449 20.9802 17.6839 20.8382 18.3839 20.5762C19.5929 20.1072 20.5479 19.1522 21.0169 17.9432C21.2799 17.2432 21.4209 16.5052 21.4359 15.7572C21.4789 14.7952 21.4919 14.4902 21.4919 12.0472C21.4919 9.60416 21.4919 9.29416 21.4359 8.33716C21.4229 7.57916 21.2829 6.82816 21.0149 6.12016ZM19.7969 15.6522C19.7899 16.2282 19.6859 16.7992 19.4859 17.3402C19.1809 18.1272 18.5599 18.7492 17.7739 19.0512C17.2389 19.2502 16.6749 19.3542 16.1039 19.3622C15.1539 19.4062 14.8859 19.4172 12.4499 19.4172C10.0119 19.4172 9.76289 19.4172 8.79489 19.3622C8.22589 19.3552 7.65989 19.2502 7.12589 19.0512C6.33689 18.7502 5.71189 18.1282 5.40689 17.3402C5.21089 16.8062 5.10489 16.2412 5.09589 15.6712C5.05289 14.7212 5.04289 14.4532 5.04289 12.0172C5.04289 9.58016 5.04289 9.33116 5.09589 8.36216C5.10289 7.78616 5.20689 7.21616 5.40689 6.67516C5.71189 5.88616 6.33689 5.26516 7.12589 4.96316C7.65989 4.76516 8.22589 4.66016 8.79489 4.65216C9.74589 4.60916 10.0129 4.59716 12.4499 4.59716C14.8869 4.59716 15.1369 4.59716 16.1039 4.65216C16.6749 4.65916 17.2389 4.76416 17.7739 4.96316C18.5599 5.26616 19.1809 5.88816 19.4859 6.67516C19.6819 7.20916 19.7879 7.77416 19.7969 8.34416C19.8399 9.29516 19.8509 9.56216 19.8509 11.9992C19.8509 14.4352 19.8509 14.6972 19.8079 15.6532H19.7969V15.6522Z" fill="#3B58A8"/>
</svg>
