<svg width="141" height="110" viewBox="0 0 141 110" fill="none" xmlns="http://www.w3.org/2000/svg">
<path d="M9.55929 100.458V86.4575H11.5593V100.458H9.55929ZM21.1307 89.7575C21.9974 89.7575 22.7574 89.9242 23.4107 90.2575C24.0774 90.5909 24.5974 91.0975 24.9707 91.7775C25.344 92.4575 25.5307 93.3175 25.5307 94.3575V100.458H23.6107V94.5775C23.6107 93.5509 23.3574 92.7775 22.8507 92.2575C22.3574 91.7375 21.6574 91.4775 20.7507 91.4775C20.0707 91.4775 19.4774 91.6109 18.9707 91.8775C18.464 92.1442 18.0707 92.5375 17.7907 93.0575C17.524 93.5775 17.3907 94.2242 17.3907 94.9975V100.458H15.4707V89.8575H17.3107V92.7175L17.0107 91.9575C17.3574 91.2642 17.8907 90.7242 18.6107 90.3375C19.3307 89.9509 20.1707 89.7575 21.1307 89.7575ZM31.6687 100.458L27.0287 89.8575H29.0287L33.1487 99.4575H32.1887L36.3887 89.8575H38.2687L33.6287 100.458H31.6687ZM44.4876 100.578C43.3542 100.578 42.3542 100.344 41.4876 99.8775C40.6342 99.4109 39.9676 98.7709 39.4876 97.9575C39.0209 97.1442 38.7876 96.2109 38.7876 95.1575C38.7876 94.1042 39.0142 93.1709 39.4676 92.3575C39.9342 91.5442 40.5676 90.9109 41.3676 90.4575C42.1809 89.9909 43.0942 89.7575 44.1076 89.7575C45.1342 89.7575 46.0409 89.9842 46.8276 90.4375C47.6142 90.8909 48.2276 91.5309 48.6676 92.3575C49.1209 93.1709 49.3476 94.1242 49.3476 95.2175C49.3476 95.2975 49.3409 95.3909 49.3276 95.4975C49.3276 95.6042 49.3209 95.7042 49.3076 95.7975H40.2876V94.4175H48.3076L47.5276 94.8975C47.5409 94.2175 47.4009 93.6109 47.1076 93.0775C46.8142 92.5442 46.4076 92.1309 45.8876 91.8375C45.3809 91.5309 44.7876 91.3775 44.1076 91.3775C43.4409 91.3775 42.8476 91.5309 42.3276 91.8375C41.8076 92.1309 41.4009 92.5509 41.1076 93.0975C40.8142 93.6309 40.6676 94.2442 40.6676 94.9375V95.2575C40.6676 95.9642 40.8276 96.5975 41.1476 97.1575C41.4809 97.7042 41.9409 98.1309 42.5276 98.4375C43.1142 98.7442 43.7876 98.8975 44.5476 98.8975C45.1742 98.8975 45.7409 98.7909 46.2476 98.5775C46.7676 98.3642 47.2209 98.0442 47.6076 97.6175L48.6676 98.8575C48.1876 99.4175 47.5876 99.8442 46.8676 100.138C46.1609 100.431 45.3676 100.578 44.4876 100.578ZM55.0537 100.578C54.1737 100.578 53.3337 100.458 52.5337 100.218C51.747 99.9775 51.127 99.6842 50.6737 99.3375L51.4737 97.8175C51.927 98.1242 52.487 98.3842 53.1537 98.5975C53.8203 98.8109 54.5003 98.9175 55.1937 98.9175C56.087 98.9175 56.727 98.7909 57.1137 98.5375C57.5137 98.2842 57.7137 97.9309 57.7137 97.4775C57.7137 97.1442 57.5937 96.8842 57.3537 96.6975C57.1137 96.5109 56.7937 96.3709 56.3937 96.2775C56.007 96.1842 55.5737 96.1042 55.0937 96.0375C54.6137 95.9575 54.1337 95.8642 53.6537 95.7575C53.1737 95.6375 52.7337 95.4775 52.3337 95.2775C51.9337 95.0642 51.6137 94.7775 51.3737 94.4175C51.1337 94.0442 51.0137 93.5509 51.0137 92.9375C51.0137 92.2975 51.1937 91.7375 51.5537 91.2575C51.9137 90.7775 52.4203 90.4109 53.0737 90.1575C53.7403 89.8909 54.527 89.7575 55.4337 89.7575C56.127 89.7575 56.827 89.8442 57.5337 90.0175C58.2537 90.1775 58.8403 90.4109 59.2937 90.7175L58.4737 92.2375C57.9937 91.9175 57.4937 91.6975 56.9737 91.5775C56.4537 91.4575 55.9337 91.3975 55.4137 91.3975C54.5737 91.3975 53.947 91.5375 53.5337 91.8175C53.1203 92.0842 52.9137 92.4309 52.9137 92.8575C52.9137 93.2175 53.0337 93.4975 53.2737 93.6975C53.527 93.8842 53.847 94.0309 54.2337 94.1375C54.6337 94.2442 55.0737 94.3375 55.5537 94.4175C56.0337 94.4842 56.5137 94.5775 56.9937 94.6975C57.4737 94.8042 57.907 94.9575 58.2937 95.1575C58.6937 95.3575 59.0137 95.6375 59.2537 95.9975C59.507 96.3575 59.6337 96.8375 59.6337 97.4375C59.6337 98.0775 59.447 98.6309 59.0737 99.0975C58.7003 99.5642 58.1737 99.9309 57.4937 100.198C56.8137 100.451 56.0003 100.578 55.0537 100.578ZM65.6732 100.578C64.6065 100.578 63.7799 100.291 63.1932 99.7175C62.6065 99.1442 62.3132 98.3242 62.3132 97.2575V87.5375H64.2332V97.1775C64.2332 97.7509 64.3732 98.1909 64.6532 98.4975C64.9465 98.8042 65.3599 98.9575 65.8932 98.9575C66.4932 98.9575 66.9932 98.7909 67.3932 98.4575L67.9932 99.8375C67.6999 100.091 67.3465 100.278 66.9332 100.398C66.5332 100.518 66.1132 100.578 65.6732 100.578ZM60.5132 91.4375V89.8575H67.2732V91.4375H60.5132ZM83.5744 89.7575C84.4278 89.7575 85.1811 89.9242 85.8344 90.2575C86.4878 90.5909 86.9944 91.0975 87.3544 91.7775C87.7278 92.4575 87.9144 93.3175 87.9144 94.3575V100.458H85.9944V94.5775C85.9944 93.5509 85.7544 92.7775 85.2744 92.2575C84.7944 91.7375 84.1211 91.4775 83.2544 91.4775C82.6144 91.4775 82.0544 91.6109 81.5744 91.8775C81.0944 92.1442 80.7211 92.5375 80.4544 93.0575C80.2011 93.5775 80.0744 94.2242 80.0744 94.9975V100.458H78.1544V94.5775C78.1544 93.5509 77.9144 92.7775 77.4344 92.2575C76.9678 91.7375 76.2944 91.4775 75.4144 91.4775C74.7878 91.4775 74.2344 91.6109 73.7544 91.8775C73.2744 92.1442 72.9011 92.5375 72.6344 93.0575C72.3678 93.5775 72.2344 94.2242 72.2344 94.9975V100.458H70.3144V89.8575H72.1544V92.6775L71.8544 91.9575C72.1878 91.2642 72.7011 90.7242 73.3944 90.3375C74.0878 89.9509 74.8944 89.7575 75.8144 89.7575C76.8278 89.7575 77.7011 90.0109 78.4344 90.5175C79.1678 91.0109 79.6478 91.7642 79.8744 92.7775L79.0944 92.4575C79.4144 91.6442 79.9744 90.9909 80.7744 90.4975C81.5744 90.0042 82.5078 89.7575 83.5744 89.7575ZM96.1673 100.578C95.0339 100.578 94.0339 100.344 93.1673 99.8775C92.3139 99.4109 91.6473 98.7709 91.1673 97.9575C90.7006 97.1442 90.4673 96.2109 90.4673 95.1575C90.4673 94.1042 90.6939 93.1709 91.1473 92.3575C91.6139 91.5442 92.2473 90.9109 93.0473 90.4575C93.8606 89.9909 94.7739 89.7575 95.7873 89.7575C96.8139 89.7575 97.7206 89.9842 98.5073 90.4375C99.2939 90.8909 99.9073 91.5309 100.347 92.3575C100.801 93.1709 101.027 94.1242 101.027 95.2175C101.027 95.2975 101.021 95.3909 101.007 95.4975C101.007 95.6042 101.001 95.7042 100.987 95.7975H91.9673V94.4175H99.9873L99.2073 94.8975C99.2206 94.2175 99.0806 93.6109 98.7873 93.0775C98.4939 92.5442 98.0873 92.1309 97.5673 91.8375C97.0606 91.5309 96.4673 91.3775 95.7873 91.3775C95.1206 91.3775 94.5273 91.5309 94.0073 91.8375C93.4873 92.1309 93.0806 92.5509 92.7873 93.0975C92.4939 93.6309 92.3473 94.2442 92.3473 94.9375V95.2575C92.3473 95.9642 92.5073 96.5975 92.8273 97.1575C93.1606 97.7042 93.6206 98.1309 94.2073 98.4375C94.7939 98.7442 95.4673 98.8975 96.2273 98.8975C96.8539 98.8975 97.4206 98.7909 97.9273 98.5775C98.4473 98.3642 98.9006 98.0442 99.2873 97.6175L100.347 98.8575C99.8673 99.4175 99.2673 99.8442 98.5473 100.138C97.8406 100.431 97.0473 100.578 96.1673 100.578ZM109.353 89.7575C110.22 89.7575 110.98 89.9242 111.633 90.2575C112.3 90.5909 112.82 91.0975 113.193 91.7775C113.567 92.4575 113.753 93.3175 113.753 94.3575V100.458H111.833V94.5775C111.833 93.5509 111.58 92.7775 111.073 92.2575C110.58 91.7375 109.88 91.4775 108.973 91.4775C108.293 91.4775 107.7 91.6109 107.193 91.8775C106.687 92.1442 106.293 92.5375 106.013 93.0575C105.747 93.5775 105.613 94.2242 105.613 94.9975V100.458H103.693V89.8575H105.533V92.7175L105.233 91.9575C105.58 91.2642 106.113 90.7242 106.833 90.3375C107.553 89.9509 108.393 89.7575 109.353 89.7575ZM120.947 100.578C119.88 100.578 119.053 100.291 118.467 99.7175C117.88 99.1442 117.587 98.3242 117.587 97.2575V87.5375H119.507V97.1775C119.507 97.7509 119.647 98.1909 119.927 98.4975C120.22 98.8042 120.633 98.9575 121.167 98.9575C121.767 98.9575 122.267 98.7909 122.667 98.4575L123.267 99.8375C122.973 100.091 122.62 100.278 122.207 100.398C121.807 100.518 121.387 100.578 120.947 100.578ZM115.787 91.4375V89.8575H122.547V91.4375H115.787ZM128.628 100.578C127.748 100.578 126.908 100.458 126.108 100.218C125.321 99.9775 124.701 99.6842 124.248 99.3375L125.048 97.8175C125.501 98.1242 126.061 98.3842 126.728 98.5975C127.395 98.8109 128.075 98.9175 128.768 98.9175C129.661 98.9175 130.301 98.7909 130.688 98.5375C131.088 98.2842 131.288 97.9309 131.288 97.4775C131.288 97.1442 131.168 96.8842 130.928 96.6975C130.688 96.5109 130.368 96.3709 129.968 96.2775C129.581 96.1842 129.148 96.1042 128.668 96.0375C128.188 95.9575 127.708 95.8642 127.228 95.7575C126.748 95.6375 126.308 95.4775 125.908 95.2775C125.508 95.0642 125.188 94.7775 124.948 94.4175C124.708 94.0442 124.588 93.5509 124.588 92.9375C124.588 92.2975 124.768 91.7375 125.128 91.2575C125.488 90.7775 125.995 90.4109 126.648 90.1575C127.315 89.8909 128.101 89.7575 129.008 89.7575C129.701 89.7575 130.401 89.8442 131.108 90.0175C131.828 90.1775 132.415 90.4109 132.868 90.7175L132.048 92.2375C131.568 91.9175 131.068 91.6975 130.548 91.5775C130.028 91.4575 129.508 91.3975 128.988 91.3975C128.148 91.3975 127.521 91.5375 127.108 91.8175C126.695 92.0842 126.488 92.4309 126.488 92.8575C126.488 93.2175 126.608 93.4975 126.848 93.6975C127.101 93.8842 127.421 94.0309 127.808 94.1375C128.208 94.2442 128.648 94.3375 129.128 94.4175C129.608 94.4842 130.088 94.5775 130.568 94.6975C131.048 94.8042 131.481 94.9575 131.868 95.1575C132.268 95.3575 132.588 95.6375 132.828 95.9975C133.081 96.3575 133.208 96.8375 133.208 97.4375C133.208 98.0775 133.021 98.6309 132.648 99.0975C132.275 99.5642 131.748 99.9309 131.068 100.198C130.388 100.451 129.575 100.578 128.628 100.578Z" fill="white"/>
<path d="M44.3022 74.6459C49.11 74.3757 53.865 73.913 58.5935 73.2534C59.168 73.1755 59.2011 72.4839 58.5935 72.4289C53.6008 71.9479 48.5949 71.5678 43.5692 71.3021C43.5692 71.5861 43.5692 71.8747 43.5692 72.1587C49.711 71.8976 55.8396 71.9204 61.9814 72.2273C61.9814 71.9433 61.9814 71.6548 61.9814 71.3708C59.0228 71.2975 56.0641 71.2242 53.1055 71.1555C50.2393 71.0868 46.6863 71.3983 44.1306 70.4088C44.0843 70.6699 44.0315 70.931 43.9852 71.1921C50.5761 70.4271 57.1802 70.1706 63.8504 70.3997C63.8504 70.1157 63.8504 69.8271 63.8504 69.5431C58.4614 69.6026 53.0791 69.5018 47.7033 69.2499C47.7562 69.5293 47.8156 69.8088 47.8684 70.0928C54.5584 69.227 61.2813 68.7964 68.0769 68.7873C68.876 68.7873 68.8694 67.9582 68.0769 67.9307C63.8239 67.7933 59.5709 67.6559 55.3178 67.5185C55.3178 67.8025 55.3178 68.091 55.3178 68.375C63.038 68.0819 70.7318 68.256 78.4058 68.8927C78.4058 68.6087 78.4058 68.3201 78.4058 68.0361C72.363 67.9307 66.3863 68.2422 60.4294 68.9568C59.703 69.0438 59.9407 69.763 60.5945 69.7996C67.2845 70.1478 73.9744 70.2439 80.6776 70.0882C80.6776 69.8042 80.6776 69.5156 80.6776 69.2316C72.5083 69.5294 64.3787 70.0836 56.2821 70.8761C55.582 70.9448 55.7669 71.7189 56.4472 71.7189C65.0787 71.7235 73.7036 71.7281 82.3352 71.7326C82.3352 71.4486 82.3352 71.1601 82.3352 70.8761C75.1103 70.9494 67.8854 71.0272 60.6606 71.1005C59.8681 71.1097 59.8681 71.9479 60.6606 71.9571C70.0978 72.0899 79.4822 71.6593 88.8138 70.6882C89.4082 70.6241 89.395 69.9325 88.8138 69.8638C85.0098 69.392 81.2059 68.9247 77.4019 68.4529C77.3491 68.7323 77.2896 69.0118 77.2368 69.2958C81.0011 69.0392 84.6862 69.0896 88.4241 69.4698C88.477 69.1904 88.5364 68.9109 88.5892 68.6269C85.7891 68.3796 82.989 68.1322 80.1823 67.8849C80.2351 68.1643 80.2945 68.4438 80.3474 68.7278C82.5729 68.3292 84.3627 68.4163 86.509 68.998C87.2486 69.1996 87.5722 68.3704 86.8392 68.1735C84.541 67.5459 82.4078 67.4726 80.0172 67.9032C79.2907 68.0361 79.5351 68.6865 80.1823 68.746C82.9824 68.9934 85.7825 69.2408 88.5892 69.4881C89.2761 69.5477 89.4412 68.7186 88.7544 68.6453C84.9042 68.2559 81.1068 68.1781 77.2368 68.4392C76.6028 68.4804 76.3321 69.1904 77.0717 69.282C80.8757 69.7538 84.6796 70.221 88.4836 70.6928C88.4836 70.418 88.4836 70.1432 88.4836 69.8683C79.2643 70.8303 69.9789 71.2379 60.6606 71.1097C60.6606 71.3937 60.6606 71.6823 60.6606 71.9663C67.8854 71.893 75.1103 71.8151 82.3352 71.7418C83.1277 71.7327 83.1343 70.8852 82.3352 70.8852C73.7036 70.8807 65.0787 70.8761 56.4472 70.8715C56.5 71.1509 56.5594 71.4303 56.6123 71.7143C64.6032 70.931 72.6272 70.3951 80.6842 70.0974C81.4701 70.0699 81.4833 69.2225 80.6842 69.2408C73.981 69.3965 67.2911 69.3003 60.6011 68.9522C60.6539 69.2316 60.7134 69.511 60.7662 69.795C66.6174 69.0942 72.4819 68.801 78.4124 68.9064C79.2247 68.9201 79.1784 68.1139 78.4124 68.0498C70.7384 67.4131 63.0446 67.2436 55.3245 67.5322C54.532 67.5642 54.5254 68.3613 55.3245 68.3887C59.5775 68.5262 63.8305 68.6636 68.0836 68.801C68.0836 68.517 68.0836 68.2284 68.0836 67.9444C61.1757 67.9536 54.3339 68.4025 47.5449 69.282C46.825 69.3736 47.0495 70.0928 47.71 70.1248C53.0923 70.3813 58.468 70.4776 63.857 70.418C64.6561 70.4088 64.6495 69.5889 63.857 69.5614C57.0812 69.3278 50.3516 69.6072 43.6616 70.386C43.1267 70.4501 43.0805 70.9998 43.5163 71.1692C45.7023 72.0167 48.1392 71.9113 50.5761 71.9709C54.3801 72.0625 58.184 72.1587 61.988 72.2503C62.7871 72.2686 62.7739 71.4349 61.988 71.3937C55.8462 71.0868 49.7176 71.0639 43.5758 71.325C42.7767 71.357 42.7833 72.1403 43.5758 72.1815C48.4892 72.4426 53.3895 72.8091 58.2699 73.2809C58.2699 73.0061 58.2699 72.7312 58.2699 72.4564C53.647 73.0977 49.0043 73.5512 44.3088 73.8169C43.5163 73.8306 43.5097 74.6917 44.3022 74.6459Z" fill="white"/>
<path d="M44.0307 59.8207C43.6092 62.7238 43.3802 65.6315 43.3665 68.5667C43.3619 69.784 45.2445 69.784 45.2491 68.5667C45.2628 65.8014 45.4506 63.0545 45.8492 60.3214C46.0186 59.1363 44.2047 58.6218 44.0307 59.8207Z" fill="white"/>
<path d="M53.6364 50.9331C53.5815 54.8145 53.5265 58.7006 53.4715 62.5821C53.444 64.3736 53.4211 66.165 53.3937 67.9565C53.3799 68.8752 53.1096 70.0098 53.7876 70.7493C54.1403 71.1352 54.7587 71.0892 55.1206 70.7493C55.1572 70.7172 55.1939 70.6804 55.2259 70.6483C55.6153 70.2854 55.5557 69.6836 55.2259 69.3116C55.203 69.284 55.1801 69.2564 55.1526 69.2289C54.3464 68.3194 53.018 69.6607 53.8197 70.5656C53.8426 70.5931 53.8655 70.6207 53.8929 70.6483C53.8929 70.2027 53.8929 69.7571 53.8929 69.3116C53.8563 69.3437 53.8196 69.3805 53.7876 69.4126C54.2319 69.4126 54.6762 69.4126 55.1206 69.4126C55.258 69.8995 55.3038 69.8628 55.258 69.3024C55.2626 68.8522 55.2717 68.4066 55.2763 67.9565C55.2855 67.2077 55.2992 66.4636 55.3084 65.7149C55.3313 64.0704 55.3542 62.4305 55.3771 60.7861C55.4229 57.5017 55.4687 54.2128 55.5145 50.9285C55.5374 49.7158 53.6547 49.7158 53.6364 50.9331Z" fill="white"/>
<path d="M64.9829 36.6605C64.4653 47.818 64.0256 58.9756 63.6683 70.1377C63.627 71.355 65.5143 71.355 65.5509 70.1377C65.9082 58.9756 66.348 47.818 66.8656 36.6605C66.9205 35.4478 65.0379 35.4478 64.9829 36.6605Z" fill="white"/>
<path d="M79.5353 26.0421C79.0818 40.6355 78.6329 55.2336 78.1794 69.8271C78.1428 71.0443 80.0254 71.0443 80.0621 69.8271C80.5156 55.2336 80.9645 40.6355 81.418 26.0421C81.4592 24.8248 79.5765 24.8294 79.5353 26.0421Z" fill="white"/>
<path d="M96.6031 16.7522C94.5006 35.1583 92.8241 53.6056 91.5644 72.0897C91.4819 73.3024 93.3646 73.2978 93.4471 72.0897C94.7067 53.6056 96.3833 35.1583 98.4858 16.7522C98.6232 15.5441 96.736 15.5533 96.6031 16.7522Z" fill="white"/>
<path d="M42.5923 46.3986C43.7146 45.4662 44.8415 44.5337 45.9637 43.6012C46.3897 43.2475 45.7805 42.6458 45.3591 42.9949C44.2368 43.9274 43.11 44.8598 41.9877 45.7923C41.5617 46.146 42.1663 46.7477 42.5923 46.3986Z" fill="white"/>
<path d="M43.2371 47.2336C44.3594 46.3011 45.4862 45.3686 46.6085 44.4362C47.0345 44.0825 46.4253 43.4808 46.0038 43.8299C44.8816 44.7623 43.7547 45.6948 42.6325 46.6272C42.2065 46.9809 42.8111 47.5827 43.2371 47.2336Z" fill="white"/>
<path d="M55.6519 37.1376C56.5543 36.3246 57.4613 35.5161 58.3637 34.7031C58.776 34.3356 58.1667 33.7292 57.7591 34.0967C56.8567 34.9098 55.9497 35.7183 55.0473 36.5313C54.635 36.8988 55.2397 37.5051 55.6519 37.1376Z" fill="white"/>
<path d="M56.2968 37.9721C57.1992 37.1591 58.1062 36.3506 59.0085 35.5375C59.4208 35.1701 58.8116 34.5637 58.4039 34.9312C57.5015 35.7442 56.5945 36.5527 55.6921 37.3658C55.2799 37.7333 55.8845 38.3396 56.2968 37.9721Z" fill="white"/>
<path d="M70.443 25.4282C72.0738 24.3626 73.6083 23.1637 75.0329 21.8362C75.436 21.4595 74.8313 20.8532 74.4282 21.2299C73.054 22.5114 71.5836 23.6644 70.0124 24.6887C69.5498 24.9873 69.9804 25.7314 70.443 25.4282Z" fill="white"/>
<path d="M71.0879 26.2634C72.7186 25.1978 74.2531 23.9989 75.6777 22.6714C76.0808 22.2947 75.4762 21.6884 75.0731 22.0651C73.6988 23.3466 72.2285 24.4996 70.6573 25.5239C70.1946 25.8225 70.6252 26.5666 71.0879 26.2634Z" fill="white"/>
<path d="M87.5289 13.5555C88.7474 12.545 89.9613 11.5344 91.1797 10.5238C91.6057 10.1701 90.9965 9.5684 90.5751 9.91751C89.3566 10.9281 88.1427 11.9386 86.9243 12.9492C86.4983 13.3029 87.1075 13.9046 87.5289 13.5555Z" fill="white"/>
<path d="M88.1738 14.39C89.3922 13.3794 90.6061 12.3689 91.8245 11.3583C92.2505 11.0046 91.6413 10.4029 91.2199 10.752C90.0014 11.7625 88.7876 12.7731 87.5691 13.7837C87.1431 14.1374 87.7523 14.7391 88.1738 14.39Z" fill="white"/>
<path d="M92.4943 4.95215C92.9799 4.80976 94.3174 6.12806 94.6656 6.40367C95.2427 6.85842 95.8199 7.31315 96.4016 7.76791C96.6535 7.96542 97.0108 7.91031 97.1162 7.57959C97.7804 5.48957 98.5362 3.43171 99.379 1.406C99.489 1.14877 99.2187 0.854793 98.9668 0.86398C97.0383 0.919101 95.1923 1.53002 93.6761 2.74728C92.0821 4.03344 92.8516 4.51576 94.235 5.59522C94.6152 5.89379 95.119 5.5355 94.9083 5.07616C94.6701 4.56169 94.3815 4.12531 94.0242 3.69353C93.8227 3.89564 93.6212 4.09775 93.4196 4.29986C94.0655 5.04859 94.7846 5.66872 95.6092 6.21075C95.9665 6.44502 96.4245 5.98106 96.1955 5.62278C95.7328 4.9062 95.2656 4.18963 94.803 3.47305C94.5052 3.00911 93.7998 3.41793 94.0655 3.90483C94.5877 4.87405 95.2244 5.68708 96.0443 6.42203C96.3146 6.66548 96.7726 6.50472 96.7772 6.11888C96.7818 5.07157 96.5436 4.1391 96.0489 3.22042C95.8199 2.79323 95.1236 3.0826 95.2656 3.55113C95.4214 4.0656 95.655 4.45604 96.0535 4.81892C96.3741 5.1175 96.8551 4.81894 96.7681 4.40093C96.5986 3.5833 96.2779 2.98156 95.7237 2.36145C95.3847 1.98478 94.8396 2.4625 95.0503 2.88051C95.316 3.40416 95.6321 3.74865 96.1039 4.09775C96.3512 4.28149 96.7818 4.03804 96.7497 3.72568C96.6856 3.18366 96.6261 2.64624 96.5619 2.10421C96.3833 2.24202 96.2001 2.3798 96.0214 2.51761C96.507 2.6646 96.9925 2.807 97.4781 2.95399C97.8674 3.06883 98.1102 2.64623 97.9636 2.32469C97.9361 2.16851 97.9087 2.01233 97.8812 1.85615C97.6384 1.95721 97.3956 2.05828 97.1483 2.15933C97.9316 2.8805 99.237 2.21903 98.3942 1.33709C98.1881 1.1212 97.8812 1.20847 97.7208 1.42437C96.8643 2.58191 96.2276 3.82674 95.7603 5.18639C96.0397 5.22314 96.3192 5.26448 96.6032 5.30123C96.6902 4.52953 96.9055 3.86808 97.2765 3.18366C97.0108 3.11017 96.7452 3.04128 96.4795 2.96778C96.507 3.56493 96.4428 4.10235 96.2734 4.67653C96.5528 4.71328 96.8322 4.75462 97.1162 4.79136C97.0795 4.35499 97.1712 3.95078 97.391 3.57412C97.5193 3.31229 97.3727 2.89428 97.02 2.92643C96.2596 3.00452 95.6 3.18368 94.9129 3.5144C94.409 3.75326 94.8488 4.47443 95.3435 4.25394C96.3512 3.80838 97.3544 3.35823 98.3621 2.91266C98.1468 2.78864 97.9316 2.66462 97.7163 2.5406C97.7437 3.7303 97.4552 4.74084 96.8047 5.73761C96.5024 6.20155 97.2445 6.63333 97.5422 6.1694C98.2705 5.05778 98.6049 3.8681 98.5729 2.5406C98.5637 2.19149 98.2201 2.03991 97.927 2.16853C96.9192 2.61409 95.9161 3.06424 94.9083 3.50981C95.0503 3.75785 95.1969 4.00589 95.3389 4.24934C95.9161 3.97374 96.3787 3.84054 97.0154 3.77623C96.8917 3.56034 96.7681 3.34443 96.6444 3.12854C96.3787 3.67057 96.255 4.17124 96.255 4.78217C96.255 5.26907 96.9605 5.36094 97.0979 4.89701C97.2949 4.23555 97.3681 3.6476 97.3361 2.95859C97.3177 2.55436 96.7498 2.34767 96.539 2.74271C96.0993 3.56034 95.8519 4.37337 95.7512 5.29206C95.6962 5.79734 96.4428 5.83868 96.594 5.4069C97.0383 4.10695 97.6567 2.94941 98.4675 1.85158C98.243 1.87914 98.0186 1.9113 97.7941 1.93886C97.7804 1.80565 97.7712 1.67701 97.7575 1.5438C97.4827 1.29116 97.0383 1.47032 97.0246 1.84698C97.0108 2.28795 97.0383 2.34765 97.2216 2.74728C97.3819 2.53598 97.5422 2.32468 97.7071 2.11798C97.2216 1.97099 96.736 1.82859 96.2505 1.6816C96.0077 1.6081 95.6779 1.81482 95.7099 2.09502C95.7741 2.63704 95.8336 3.17449 95.8977 3.71652C96.113 3.59249 96.3283 3.46847 96.5436 3.34445C96.2001 3.11018 95.9481 2.81159 95.8015 2.43493C95.5771 2.60948 95.3526 2.78403 95.1282 2.95399C95.5863 3.46386 95.8153 3.95535 95.9527 4.61221C96.1909 4.47441 96.4291 4.33203 96.6673 4.19422C96.365 3.96915 96.1772 3.67057 96.0993 3.3031C95.8382 3.41334 95.5771 3.52357 95.316 3.63381C95.742 4.42847 95.9298 5.2002 95.9298 6.10051C96.1726 5.99946 96.4154 5.89839 96.6627 5.79733C95.9023 5.11291 95.3068 4.355 94.8167 3.45469C94.5694 3.59708 94.322 3.74407 94.0792 3.88647C94.5419 4.60305 95.0091 5.31962 95.4717 6.0362C95.6687 5.83868 95.8611 5.64574 96.0581 5.44822C95.2931 4.94754 94.6381 4.36877 94.0426 3.67056C93.6807 3.24797 93.0898 3.8589 93.4379 4.2769C93.7677 4.67653 93.9739 5.03023 94.1846 5.48498C94.409 5.31043 94.6335 5.13588 94.8579 4.96592C94.5877 4.75462 93.6944 4.25852 93.6349 3.9278C93.5845 3.643 94.9266 2.88509 95.2061 2.72432C96.3741 2.05367 97.6476 1.73674 98.9851 1.69999C98.8477 1.52084 98.7103 1.33711 98.5729 1.15797C97.7254 3.18367 96.9742 5.24154 96.31 7.33155C96.5482 7.26724 96.7864 7.20292 97.0246 7.1432C95.9985 6.33476 94.9679 5.52633 93.9418 4.71788C93.4104 4.29988 92.9799 3.90024 92.2836 4.10695C91.7385 4.2769 91.9629 5.10833 92.4943 4.95215Z" fill="white"/>
</svg>
