<svg width="31" height="31" viewBox="0 0 31 31" fill="none" xmlns="http://www.w3.org/2000/svg">
<path fill-rule="evenodd" clip-rule="evenodd" d="M21.6519 13.5755C21.139 13.5755 20.7227 13.1592 20.7227 12.6463V9.9864C20.7227 7.38964 18.6104 5.2773 16.0136 5.2773H15.9938C14.7388 5.2773 13.563 5.76048 12.6747 6.64134C11.7803 7.52592 11.2859 8.70661 11.281 9.96534V12.6463C11.281 13.1592 10.8647 13.5755 10.3518 13.5755C9.83888 13.5755 9.42261 13.1592 9.42261 12.6463V9.9864C9.43004 8.20237 10.1201 6.55586 11.3652 5.3219C12.6116 4.08671 14.2568 3.37186 16.0173 3.41894C19.6349 3.41894 22.5811 6.36507 22.5811 9.9864V12.6463C22.5811 13.1592 22.1648 13.5755 21.6519 13.5755" fill="#3B58A8"/>
<path fill-rule="evenodd" clip-rule="evenodd" d="M11.2687 13.4873C9.18984 13.4873 7.49997 15.1771 7.49997 17.256V22.5697C7.49997 24.6486 9.18984 26.3385 11.2687 26.3385H20.7352C22.8129 26.3385 24.504 24.6486 24.504 22.5697V17.256C24.504 15.1771 22.8129 13.4873 20.7352 13.4873H11.2687ZM20.7352 28.1969H11.2687C8.16526 28.1969 5.6416 25.6732 5.6416 22.5697V17.256C5.6416 14.1526 8.16526 11.6289 11.2687 11.6289H20.7352C23.8387 11.6289 26.3624 14.1526 26.3624 17.256V22.5697C26.3624 25.6732 23.8387 28.1969 20.7352 28.1969V28.1969Z" fill="#3B58A8"/>
<path fill-rule="evenodd" clip-rule="evenodd" d="M16.0017 22.2177C15.4888 22.2177 15.0725 21.8014 15.0725 21.2885V18.5368C15.0725 18.0239 15.4888 17.6077 16.0017 17.6077C16.5146 17.6077 16.9309 18.0239 16.9309 18.5368V21.2885C16.9309 21.8014 16.5146 22.2177 16.0017 22.2177" fill="#3B58A8"/>
</svg>
