<svg width="103" height="120" viewBox="0 0 103 120" fill="none" xmlns="http://www.w3.org/2000/svg">
<path d="M19.1991 94.658V80.658H20.8391L27.1191 91.238H26.2391L32.4391 80.658H34.0791L34.0991 94.658H32.1791L32.1591 83.678H32.6191L27.0991 92.958H26.1791L20.6191 83.678H21.1191V94.658H19.1991ZM42.5606 94.778C41.494 94.778 40.5473 94.5446 39.7206 94.078C38.894 93.6113 38.2406 92.9713 37.7606 92.158C37.2806 91.3313 37.0406 90.398 37.0406 89.358C37.0406 88.3046 37.2806 87.3713 37.7606 86.558C38.2406 85.7446 38.894 85.1113 39.7206 84.658C40.5473 84.1913 41.494 83.958 42.5606 83.958C43.614 83.958 44.554 84.1913 45.3806 84.658C46.2206 85.1113 46.874 85.7446 47.3406 86.558C47.8206 87.358 48.0606 88.2913 48.0606 89.358C48.0606 90.4113 47.8206 91.3446 47.3406 92.158C46.874 92.9713 46.2206 93.6113 45.3806 94.078C44.554 94.5446 43.614 94.778 42.5606 94.778ZM42.5606 93.098C43.2406 93.098 43.8473 92.9446 44.3806 92.638C44.9273 92.3313 45.354 91.898 45.6606 91.338C45.9673 90.7646 46.1206 90.1046 46.1206 89.358C46.1206 88.598 45.9673 87.9446 45.6606 87.398C45.354 86.838 44.9273 86.4046 44.3806 86.098C43.8473 85.7913 43.2406 85.638 42.5606 85.638C41.8806 85.638 41.274 85.7913 40.7406 86.098C40.2073 86.4046 39.7806 86.838 39.4606 87.398C39.1406 87.9446 38.9806 88.598 38.9806 89.358C38.9806 90.1046 39.1406 90.7646 39.4606 91.338C39.7806 91.898 40.2073 92.3313 40.7406 92.638C41.274 92.9446 41.8806 93.098 42.5606 93.098ZM56.336 94.778C55.4293 94.778 54.6093 94.578 53.876 94.178C53.156 93.7646 52.5826 93.158 52.156 92.358C51.7426 91.558 51.536 90.558 51.536 89.358C51.536 88.158 51.7493 87.158 52.176 86.358C52.616 85.558 53.196 84.958 53.916 84.558C54.6493 84.158 55.456 83.958 56.336 83.958C57.376 83.958 58.296 84.1846 59.096 84.638C59.896 85.0913 60.5293 85.7246 60.996 86.538C61.4626 87.338 61.696 88.278 61.696 89.358C61.696 90.438 61.4626 91.3846 60.996 92.198C60.5293 93.0113 59.896 93.6446 59.096 94.098C58.296 94.5513 57.376 94.778 56.336 94.778ZM50.716 94.658V79.818H52.636V86.878L52.436 89.338L52.556 91.798V94.658H50.716ZM56.176 93.098C56.856 93.098 57.4626 92.9446 57.996 92.638C58.5426 92.3313 58.9693 91.898 59.276 91.338C59.596 90.7646 59.756 90.1046 59.756 89.358C59.756 88.598 59.596 87.9446 59.276 87.398C58.9693 86.838 58.5426 86.4046 57.996 86.098C57.4626 85.7913 56.856 85.638 56.176 85.638C55.5093 85.638 54.9026 85.7913 54.356 86.098C53.8226 86.4046 53.396 86.838 53.076 87.398C52.7693 87.9446 52.616 88.598 52.616 89.358C52.616 90.1046 52.7693 90.7646 53.076 91.338C53.396 91.898 53.8226 92.3313 54.356 92.638C54.9026 92.9446 55.5093 93.098 56.176 93.098ZM64.3488 94.658V84.058H66.2688V94.658H64.3488ZM65.3088 82.018C64.9354 82.018 64.6221 81.898 64.3688 81.658C64.1288 81.418 64.0088 81.1246 64.0088 80.778C64.0088 80.418 64.1288 80.118 64.3688 79.878C64.6221 79.638 64.9354 79.518 65.3088 79.518C65.6821 79.518 65.9888 79.638 66.2288 79.878C66.4821 80.1046 66.6088 80.3913 66.6088 80.738C66.6088 81.098 66.4888 81.4046 66.2488 81.658C66.0088 81.898 65.6954 82.018 65.3088 82.018ZM69.9347 94.658V79.818H71.8547V94.658H69.9347ZM80.2406 94.778C79.1073 94.778 78.1073 94.5446 77.2406 94.078C76.3873 93.6113 75.7206 92.9713 75.2406 92.158C74.774 91.3446 74.5406 90.4113 74.5406 89.358C74.5406 88.3046 74.7673 87.3713 75.2206 86.558C75.6873 85.7446 76.3206 85.1113 77.1206 84.658C77.934 84.1913 78.8473 83.958 79.8606 83.958C80.8873 83.958 81.794 84.1846 82.5806 84.638C83.3673 85.0913 83.9806 85.7313 84.4206 86.558C84.874 87.3713 85.1006 88.3246 85.1006 89.418C85.1006 89.498 85.094 89.5913 85.0806 89.698C85.0806 89.8046 85.074 89.9046 85.0606 89.998H76.0406V88.618H84.0606L83.2806 89.098C83.294 88.418 83.154 87.8113 82.8606 87.278C82.5673 86.7446 82.1606 86.3313 81.6406 86.038C81.134 85.7313 80.5406 85.578 79.8606 85.578C79.194 85.578 78.6006 85.7313 78.0806 86.038C77.5606 86.3313 77.154 86.7513 76.8606 87.298C76.5673 87.8313 76.4206 88.4446 76.4206 89.138V89.458C76.4206 90.1646 76.5806 90.798 76.9006 91.358C77.234 91.9046 77.694 92.3313 78.2806 92.638C78.8673 92.9446 79.5406 93.098 80.3006 93.098C80.9273 93.098 81.494 92.9913 82.0006 92.778C82.5206 92.5646 82.974 92.2446 83.3606 91.818L84.4206 93.058C83.9406 93.618 83.3406 94.0446 82.6206 94.338C81.914 94.6313 81.1206 94.778 80.2406 94.778ZM20.4068 114.658V102.398H15.6068V100.658H27.1868V102.398H22.3868V114.658H20.4068ZM32.5313 114.778C31.4647 114.778 30.518 114.545 29.6913 114.078C28.8647 113.611 28.2113 112.971 27.7313 112.158C27.2513 111.331 27.0113 110.398 27.0113 109.358C27.0113 108.305 27.2513 107.371 27.7313 106.558C28.2113 105.745 28.8647 105.111 29.6913 104.658C30.518 104.191 31.4647 103.958 32.5313 103.958C33.5847 103.958 34.5247 104.191 35.3513 104.658C36.1913 105.111 36.8447 105.745 37.3113 106.558C37.7913 107.358 38.0313 108.291 38.0313 109.358C38.0313 110.411 37.7913 111.345 37.3113 112.158C36.8447 112.971 36.1913 113.611 35.3513 114.078C34.5247 114.545 33.5847 114.778 32.5313 114.778ZM32.5313 113.098C33.2113 113.098 33.818 112.945 34.3513 112.638C34.898 112.331 35.3247 111.898 35.6313 111.338C35.938 110.765 36.0913 110.105 36.0913 109.358C36.0913 108.598 35.938 107.945 35.6313 107.398C35.3247 106.838 34.898 106.405 34.3513 106.098C33.818 105.791 33.2113 105.638 32.5313 105.638C31.8513 105.638 31.2447 105.791 30.7113 106.098C30.178 106.405 29.7513 106.838 29.4313 107.398C29.1113 107.945 28.9513 108.598 28.9513 109.358C28.9513 110.105 29.1113 110.765 29.4313 111.338C29.7513 111.898 30.178 112.331 30.7113 112.638C31.2447 112.945 31.8513 113.098 32.5313 113.098ZM46.3067 114.778C45.4267 114.778 44.62 114.578 43.8867 114.178C43.1667 113.765 42.5867 113.158 42.1467 112.358C41.72 111.558 41.5067 110.558 41.5067 109.358C41.5067 108.158 41.7133 107.158 42.1267 106.358C42.5533 105.558 43.1267 104.958 43.8467 104.558C44.58 104.158 45.4 103.958 46.3067 103.958C47.3467 103.958 48.2667 104.185 49.0667 104.638C49.8667 105.091 50.5 105.725 50.9667 106.538C51.4333 107.338 51.6667 108.278 51.6667 109.358C51.6667 110.438 51.4333 111.385 50.9667 112.198C50.5 113.011 49.8667 113.645 49.0667 114.098C48.2667 114.551 47.3467 114.778 46.3067 114.778ZM40.6867 118.538V104.058H42.5267V106.918L42.4067 109.378L42.6067 111.838V118.538H40.6867ZM46.1467 113.098C46.8267 113.098 47.4333 112.945 47.9667 112.638C48.5133 112.331 48.94 111.898 49.2467 111.338C49.5667 110.765 49.7267 110.105 49.7267 109.358C49.7267 108.598 49.5667 107.945 49.2467 107.398C48.94 106.838 48.5133 106.405 47.9667 106.098C47.4333 105.791 46.8267 105.638 46.1467 105.638C45.48 105.638 44.8733 105.791 44.3267 106.098C43.7933 106.405 43.3667 106.838 43.0467 107.398C42.74 107.945 42.5867 108.598 42.5867 109.358C42.5867 110.105 42.74 110.765 43.0467 111.338C43.3667 111.898 43.7933 112.331 44.3267 112.638C44.8733 112.945 45.48 113.098 46.1467 113.098ZM53.8348 109.998V108.338H59.2148V109.998H53.8348ZM66.631 114.778C65.7244 114.778 64.9244 114.611 64.231 114.278C63.551 113.945 63.0177 113.438 62.631 112.758C62.2577 112.065 62.071 111.198 62.071 110.158V104.058H63.991V109.938C63.991 110.978 64.2377 111.758 64.731 112.278C65.2377 112.798 65.9444 113.058 66.851 113.058C67.5177 113.058 68.0977 112.925 68.591 112.658C69.0844 112.378 69.4644 111.978 69.731 111.458C69.9977 110.925 70.131 110.285 70.131 109.538V104.058H72.051V114.658H70.231V111.798L70.531 112.558C70.1844 113.265 69.6644 113.811 68.971 114.198C68.2777 114.585 67.4977 114.778 66.631 114.778ZM81.3262 114.778C80.4462 114.778 79.6395 114.578 78.9062 114.178C78.1862 113.765 77.6062 113.158 77.1662 112.358C76.7395 111.558 76.5262 110.558 76.5262 109.358C76.5262 108.158 76.7329 107.158 77.1462 106.358C77.5729 105.558 78.1462 104.958 78.8662 104.558C79.5995 104.158 80.4195 103.958 81.3262 103.958C82.3662 103.958 83.2862 104.185 84.0862 104.638C84.8862 105.091 85.5195 105.725 85.9862 106.538C86.4529 107.338 86.6862 108.278 86.6862 109.358C86.6862 110.438 86.4529 111.385 85.9862 112.198C85.5195 113.011 84.8862 113.645 84.0862 114.098C83.2862 114.551 82.3662 114.778 81.3262 114.778ZM75.7062 118.538V104.058H77.5462V106.918L77.4262 109.378L77.6262 111.838V118.538H75.7062ZM81.1662 113.098C81.8462 113.098 82.4529 112.945 82.9862 112.638C83.5329 112.331 83.9595 111.898 84.2662 111.338C84.5862 110.765 84.7462 110.105 84.7462 109.358C84.7462 108.598 84.5862 107.945 84.2662 107.398C83.9595 106.838 83.5329 106.405 82.9862 106.098C82.4529 105.791 81.8462 105.638 81.1662 105.638C80.4995 105.638 79.8929 105.791 79.3462 106.098C78.8129 106.405 78.3862 106.838 78.0662 107.398C77.7595 107.945 77.6062 108.598 77.6062 109.358C77.6062 110.105 77.7595 110.765 78.0662 111.338C78.3862 111.898 78.8129 112.331 79.3462 112.638C79.8929 112.945 80.4995 113.098 81.1662 113.098Z" fill="white"/>
<path d="M28.0854 13.649C31.7063 26.9113 30.1143 40.7212 31.8272 54.2182C32.1788 57.0016 32.6723 59.776 33.39 62.4904C33.9742 64.7068 34.1096 65.2479 36.3108 65.3181C43.3339 65.552 50.4076 65.5976 57.4203 65.1646C60.375 64.9795 63.3279 64.6978 66.2623 64.2754C68.2393 63.9932 71.4716 64.1801 72.0076 61.7315C72.579 59.1279 72.1849 56.0065 72.0163 53.3682C71.8006 49.9079 71.3733 46.4655 70.9651 43.0228C70.1405 36.0522 69.3069 29.0841 68.3441 22.136C67.8867 18.8327 67.3956 15.5287 66.8641 12.2355C66.5012 9.98407 66.7042 8.15849 64.2709 7.67016C57.5475 6.31266 49.9834 5.78215 43.2165 6.98878C39.6068 7.63573 36.1913 8.95367 32.8358 10.406C31.0183 11.1938 27.8476 11.99 27.8726 14.4872C27.88 15.053 28.7467 15.0586 28.7406 14.4973C28.7213 12.775 31.2366 12.0622 32.4357 11.5322C34.0786 10.8105 35.7296 10.1013 37.422 9.49251C40.4071 8.41606 43.471 7.6873 46.6406 7.42516C51.9581 6.98055 57.3216 7.58634 62.5939 8.31846C63.9362 8.50227 64.8878 8.28613 65.5787 9.77029C65.7726 10.189 65.8125 11.1634 65.8777 11.5681C66.1248 13.0644 66.3585 14.5643 66.5865 16.0609C67.0436 19.0586 67.4693 22.0647 67.8714 25.0723C68.6913 31.1998 69.4223 37.3365 70.1488 43.4744C70.7856 48.8648 71.92 54.8207 71.2446 60.2473C70.9317 62.7574 69.8097 62.8396 67.7695 63.1728C66.2225 63.4272 64.6634 63.6363 63.1048 63.8113C60.1978 64.1389 57.2749 64.335 54.3549 64.4526C48.6389 64.6837 42.9133 64.5922 37.194 64.47C35.1533 64.4248 34.7587 64.2976 34.2266 62.2759C33.9084 61.0704 33.635 59.8529 33.3988 58.6303C32.7955 55.5358 32.4373 52.4049 32.2017 49.2653C31.2966 37.294 32.1212 25.1406 28.922 13.4345C28.774 12.8821 27.9354 13.1069 28.0854 13.649Z" fill="white"/>
<path d="M43.321 13.9463C43.2253 14.7187 43.2518 15.4441 43.3898 16.206C43.4277 16.4092 43.7674 16.4154 43.8015 16.2072C43.9101 15.5451 43.9395 14.9137 43.8846 14.2409C43.7453 14.2593 43.6054 14.2755 43.4639 14.2944C43.5871 14.9394 43.6436 15.5738 43.6417 16.2286C43.6401 16.5136 44.0326 16.4961 44.0684 16.2328C44.1631 15.5365 44.2573 14.838 44.3521 14.1418C44.2128 14.1601 44.0729 14.1763 43.9314 14.1952C44.0786 14.912 44.154 15.6172 44.1651 16.3468C44.1701 16.6299 44.5565 16.6165 44.5918 16.351C44.6887 15.6186 44.7856 14.8862 44.8825 14.1537C44.74 14.1516 44.5982 14.1517 44.4558 14.1495C44.5287 14.8981 44.6038 15.6461 44.6768 16.3946C44.7032 16.6696 45.0727 16.6726 45.1034 16.3988C45.1914 15.5977 45.2765 14.7949 45.3644 13.9938C45.222 13.9916 45.0802 13.9917 44.9378 13.9896C45.0027 14.6644 45.0705 15.3408 45.1355 16.0157C45.1565 16.2352 45.5117 16.3345 45.5553 16.0739C45.6841 15.2926 45.8134 14.5136 45.9421 13.7323C45.8022 13.7129 45.6622 13.6935 45.5223 13.6741C45.5716 14.5286 45.6208 15.383 45.6707 16.2397C45.6877 16.5149 46.0839 16.5201 46.0974 16.2439C46.1417 15.4213 46.2201 14.6108 46.3421 13.7958C46.2022 13.7764 46.0622 13.757 45.9223 13.7376C46.0055 14.5688 46.0527 15.3977 46.0618 16.2345C46.0655 16.5132 46.4688 16.5095 46.4884 16.2387C46.5477 15.4808 46.6657 14.7475 46.8417 14.0104C46.7018 13.991 46.5618 13.9716 46.4219 13.9522C46.4888 14.7048 46.5578 15.4567 46.6253 16.2115C46.6453 16.4361 46.9931 16.5254 47.0452 16.2697C47.2424 15.2852 47.4368 14.299 47.634 13.3145C47.494 13.2951 47.3541 13.2757 47.2141 13.2563C47.2809 14.1938 47.3449 15.1297 47.4117 16.0672C47.4303 16.3396 47.8421 16.3501 47.8384 16.0714C47.8288 15.1446 47.9733 14.2809 48.2782 13.4074C48.1383 13.388 47.9983 13.3686 47.8584 13.3492C47.8989 14.206 47.9387 15.0607 47.9792 15.9175C47.9909 16.1467 48.3502 16.2258 48.399 15.9757C48.5653 15.1227 48.7309 14.2676 48.8972 13.4146C48.7572 13.3952 48.6173 13.3758 48.4773 13.3564C48.4694 14.2357 48.4908 15.1095 48.5416 15.9873C48.555 16.2136 48.9232 16.2999 48.9615 16.0454C49.1112 15.0428 49.2604 14.038 49.408 13.0359C49.2681 13.0165 49.1281 12.9971 48.9882 12.9777C49.0119 13.8604 49.0357 14.743 49.0566 15.6241C49.0617 15.855 49.4415 15.9311 49.4764 15.6822C49.5913 14.8668 49.7061 14.0513 49.8203 13.2336C49.6829 13.2325 49.5461 13.2336 49.4087 13.2325C49.564 14.1297 49.7193 15.0269 49.8746 15.9241C49.9153 16.1644 50.2971 16.1072 50.2952 15.8706C50.2864 14.9555 50.3795 14.0676 50.5844 13.1735C50.447 13.1724 50.3101 13.1735 50.1727 13.1724C50.318 13.9703 50.3759 14.7514 50.3535 15.5587C50.4959 15.5608 50.6377 15.5607 50.7802 15.5629C50.7538 14.8469 50.7894 14.1593 50.8989 13.4472C50.7589 13.4278 50.619 13.4084 50.479 13.389C50.5805 14.2177 50.6359 15.0421 50.651 15.8749C50.7934 15.877 50.9352 15.8769 51.0776 15.8791C51.0014 15.0034 51.0238 14.1605 51.1615 13.2892C51.0215 13.2698 50.8816 13.2504 50.7416 13.231C50.8077 14.0952 50.8716 14.9599 50.9376 15.8241C50.959 16.0981 51.3458 16.1035 51.3643 15.8283C51.4247 14.9421 51.5811 14.0965 51.8361 13.2483C51.6987 13.2472 51.5618 13.2483 51.4244 13.2471C51.5778 13.9694 51.5909 14.6273 51.464 15.3536C51.604 15.3729 51.7439 15.3923 51.8839 15.4117C51.8846 14.4704 51.9962 13.5633 52.2245 12.6511C52.0871 12.65 51.9503 12.6511 51.8129 12.65C51.9641 13.5672 51.8679 14.4346 51.7359 15.3447C51.8758 15.3641 52.0158 15.3835 52.1557 15.4029C52.2107 14.5845 52.3768 13.8193 52.6531 13.0507C52.5157 13.0496 52.3789 13.0507 52.2415 13.0496C52.3552 13.818 52.3456 14.5057 52.2121 15.2693C52.3521 15.2887 52.492 15.3081 52.632 15.3275C52.624 14.4596 52.7756 13.6579 53.094 12.852C52.9565 12.8508 52.8197 12.8519 52.6823 12.8508C52.8333 13.6614 52.8585 14.4347 52.7703 15.2525C52.9127 15.2546 53.0545 15.2545 53.1969 15.2567C53.2523 14.4311 53.3645 13.6234 53.5332 12.8149C53.3932 12.7955 53.2533 12.7761 53.1133 12.7567C53.1142 13.5364 53.1173 14.3155 53.1182 15.0952C53.1192 15.3723 53.538 15.3739 53.5449 15.0994C53.5637 14.3405 53.6678 13.6085 53.8589 12.8746C53.7189 12.8552 53.579 12.8358 53.439 12.8164C53.5153 13.6304 53.507 14.4197 53.4126 15.2321C53.555 15.2342 53.6968 15.2342 53.8392 15.2363C53.8943 14.3918 54.015 13.5629 54.2005 12.738C54.0606 12.7186 53.9206 12.6992 53.7807 12.6798C53.8495 13.4484 53.8589 14.2069 53.8103 14.9785C53.9528 14.9807 54.0946 14.9806 54.237 14.9827C54.2381 14.2546 54.3135 13.5564 54.47 12.8436C54.33 12.8242 54.1901 12.8048 54.0501 12.7854C54.0519 13.489 54.0559 14.192 54.0571 14.8935C54.0584 15.1278 54.4391 15.1988 54.4769 14.9516C54.5714 14.3337 54.6664 13.7179 54.7631 13.0993C54.6231 13.0799 54.4832 13.0605 54.3432 13.0411C54.367 13.6061 54.3935 14.1727 54.4172 14.7377C54.4288 15.0191 54.8142 15.0106 54.8439 14.7419C54.9155 14.1182 54.9878 13.4967 55.0594 12.8729C54.917 12.8708 54.7752 12.8709 54.6327 12.8687C54.6358 13.4535 54.6048 14.026 54.5379 14.6058C54.5072 14.8795 54.9327 14.8793 54.9646 14.61C55.0308 14.028 55.0624 13.4577 55.0594 12.8729C55.0573 12.5914 54.663 12.6022 54.6327 12.8687C54.5611 13.4924 54.4889 14.114 54.4172 14.7377C54.5596 14.7398 54.7015 14.7398 54.8439 14.7419C54.8201 14.1769 54.7936 13.6103 54.7699 13.0453C54.7609 12.8178 54.3889 12.7349 54.35 12.9871C54.2556 13.6051 54.1605 14.2209 54.0639 14.8395C54.2038 14.8589 54.3438 14.8783 54.4837 14.8977C54.4819 14.194 54.478 13.491 54.4768 12.7896C54.4749 12.5531 54.1103 12.4895 54.0569 12.7314C53.8933 13.4794 53.813 14.2121 53.8109 14.9807C53.8097 15.2584 54.2208 15.2573 54.2376 14.9849C54.2862 14.2133 54.2774 13.457 54.2079 12.6862C54.1874 12.4594 53.8457 12.3755 53.7881 12.628C53.5938 13.4909 53.4703 14.3537 53.4115 15.2371C53.3943 15.5167 53.808 15.5078 53.8382 15.2413C53.9348 14.4284 53.9432 13.6391 53.8647 12.8256C53.8435 12.5966 53.5103 12.5176 53.4448 12.7674C53.2418 13.5449 53.1364 14.2985 53.1178 15.1025C53.2602 15.1046 53.402 15.1045 53.5444 15.1067C53.5436 14.3269 53.5405 13.5478 53.5396 12.7681C53.5399 12.531 53.1703 12.4664 53.1197 12.7099C52.9407 13.5592 52.8274 14.3979 52.7682 15.2625C52.7504 15.5399 53.1674 15.5348 53.1949 15.2667C53.2862 14.4077 53.2488 13.5975 53.0911 12.7531C53.0483 12.5228 52.7484 12.5771 52.6795 12.752C52.3442 13.6005 52.194 14.4254 52.2017 15.3361C52.203 15.5704 52.5787 15.6404 52.6215 15.3943C52.7644 14.5689 52.7728 13.7796 52.6497 12.9497C52.6163 12.7192 52.3014 12.7704 52.238 12.9485C51.948 13.7541 51.7825 14.557 51.7254 15.4115C51.7091 15.6506 52.1107 15.7113 52.1453 15.4697C52.2888 14.4877 52.3863 13.537 52.2217 12.5523C52.1852 12.3368 51.8593 12.3554 51.81 12.5511C51.5735 13.5035 51.4558 14.4407 51.4541 15.4226C51.4533 15.6575 51.8312 15.7269 51.874 15.4808C52.013 14.6849 52.0028 13.9409 51.836 13.1511C51.7902 12.9358 51.4814 12.9569 51.4244 13.15C51.1579 14.0345 50.9999 14.9184 50.9374 15.8408C51.0798 15.8429 51.2216 15.8429 51.364 15.845C51.298 14.9808 51.2341 14.116 51.168 13.2518C51.1508 13.0289 50.788 12.9364 50.7482 13.1937C50.6072 14.0967 50.57 14.9815 50.6485 15.8921C50.6709 16.1611 51.0811 16.1745 51.0752 15.8963C51.0601 15.0635 51.0041 14.2369 50.9032 13.4105C50.8762 13.1949 50.5236 13.0879 50.4833 13.3523C50.3684 14.0967 50.3218 14.8228 50.3488 15.5765C50.3586 15.8513 50.7686 15.8552 50.7755 15.5807C50.7983 14.7306 50.7314 13.9165 50.5805 13.0797C50.543 12.8693 50.2147 12.8791 50.1689 13.0786C49.9552 14.0106 49.8533 14.927 49.8639 15.8842C50.0032 15.8659 50.1431 15.8497 50.2846 15.8308C50.1293 14.9336 49.974 14.0364 49.8187 13.1393C49.7836 12.9377 49.4361 12.9289 49.407 13.1381C49.2922 13.9536 49.1774 14.7691 49.0631 15.5867C49.2031 15.6061 49.343 15.6255 49.483 15.6449C49.4593 14.7623 49.4355 13.8796 49.4146 12.9986C49.4094 12.7677 49.0319 12.691 48.9947 12.9404C48.8449 13.9431 48.6957 14.9479 48.5482 15.9499C48.6881 15.9693 48.8281 15.9887 48.968 16.0081C48.9172 15.1304 48.8958 14.2566 48.9037 13.3773C48.9068 13.1418 48.5323 13.0762 48.4839 13.3191C48.3176 14.1721 48.152 15.0272 47.9857 15.8802C48.1257 15.8996 48.2656 15.919 48.4056 15.9384C48.3651 15.0815 48.3253 14.2269 48.2848 13.3701C48.2733 13.1243 47.9451 13.0818 47.8649 13.3119C47.5446 14.2251 47.4007 15.1171 47.4093 16.0844C47.5517 16.0866 47.6935 16.0865 47.8359 16.0886C47.7691 15.1511 47.7051 14.2153 47.6383 13.2778C47.6227 13.052 47.2689 12.9667 47.2185 13.2196C47.0213 14.2041 46.8269 15.1903 46.6297 16.1748C46.7696 16.1942 46.9096 16.2136 47.0495 16.233C46.9826 15.4804 46.9135 14.7285 46.846 13.9737C46.8255 13.7469 46.4866 13.6646 46.4262 13.9155C46.2392 14.6911 46.1191 15.4605 46.0577 16.2546C46.2001 16.2567 46.3419 16.2566 46.4843 16.2588C46.473 15.4226 46.4259 14.5936 46.3448 13.7619C46.3238 13.5423 45.9642 13.4443 45.925 13.7037C45.798 14.5532 45.7115 15.4038 45.665 16.2626C45.8074 16.2647 45.9493 16.2646 46.0917 16.2668C46.0424 15.4123 45.9931 14.5579 45.9432 13.7012C45.9299 13.4748 45.5666 13.3896 45.5234 13.643C45.3947 14.4242 45.2653 15.2033 45.1366 15.9845C45.2766 16.0039 45.4165 16.0233 45.5565 16.0427C45.4915 15.3679 45.4237 14.6915 45.3587 14.0166C45.3323 13.7416 44.9605 13.7393 44.9321 14.0124C44.8441 14.8136 44.759 15.6163 44.6711 16.4175C44.8135 16.4196 44.9553 16.4195 45.0977 16.4217C45.0248 15.6731 44.9497 14.9252 44.8768 14.1766C44.8498 13.8993 44.4858 13.8997 44.4501 14.1724C44.3532 14.9048 44.2563 15.6372 44.1594 16.3697C44.3018 16.3718 44.4437 16.3717 44.5861 16.3739C44.5737 15.6043 44.4904 14.8609 44.336 14.1081C44.2832 13.8496 43.9464 13.9423 43.9153 14.1616C43.8205 14.8579 43.7264 15.5564 43.6316 16.2527C43.774 16.2548 43.9159 16.2547 44.0583 16.2569C44.0605 15.5593 43.9979 14.8933 43.8662 14.2079C43.8223 13.9732 43.4258 14.0201 43.4456 14.2614C43.4977 14.897 43.4819 15.482 43.3777 16.1168C43.5151 16.1179 43.652 16.1168 43.7894 16.1179C43.6581 15.3898 43.6438 14.7013 43.7341 13.9707C43.7833 13.6778 43.355 13.6764 43.321 13.9463Z" fill="white"/>
<path d="M28.5243 15.394C30.0827 29.3077 31.635 43.218 33.1934 57.1317C33.3904 58.8888 33.5887 60.6506 33.7858 62.4076C33.901 63.424 33.8732 64.7584 34.2927 65.7186C35.0304 67.4122 37.0432 67.3558 38.6194 67.5435C45.1672 68.3106 51.7974 68.3642 58.3548 67.7104C61.1098 67.4348 63.8545 67.045 66.5744 66.5247C68.7603 66.1118 72.4661 65.9221 74.2229 64.4753C75.9551 63.0503 74.9326 59.8774 74.7496 58.0404C74.4105 54.5421 74.0357 51.0431 73.6419 47.5493C72.8972 40.967 72.0683 34.392 71.1955 27.8237C70.7561 24.4997 70.3024 21.1795 69.838 17.8571C69.618 16.2791 69.3967 14.6963 69.1766 13.1183C68.9678 11.6389 68.9685 9.84416 68.2911 8.47003C67.244 6.34086 64.868 6.34711 62.8056 6.35068C59.0644 6.35161 55.3208 6.55146 51.5993 6.92841C44.0694 7.68015 36.6464 9.17094 29.3965 11.327C28.3825 11.6293 28.8061 13.229 29.8249 12.9255C40.7138 9.68756 52.6288 7.44056 64.043 8.01706C67.7018 8.20087 67.4651 12.672 67.8534 15.4454C68.273 18.4493 68.6879 21.4546 69.0968 24.4563C69.9027 30.3969 70.6756 36.3463 71.3844 42.3027C72.0858 48.1747 72.7279 54.0524 73.2811 59.9387C73.4244 61.4763 73.9952 62.6604 72.2761 63.548C71.1941 64.1074 69.514 64.2322 68.3446 64.4846C65.3394 65.1322 62.3043 65.6302 59.2509 65.9654C53.8924 66.5522 48.478 66.666 43.0934 66.304C41.8956 66.2233 40.7022 66.1212 39.5119 65.9927C37.6848 65.796 36.226 66.0089 35.6203 64.0513C35.201 62.6944 35.2659 60.9688 35.1067 59.5423C34.9267 57.9433 34.7467 56.3444 34.5714 54.7442C33.1054 41.6293 31.6407 28.5191 30.17 15.4055C30.0532 14.3641 28.4037 14.3384 28.5243 15.394Z" fill="white"/>
<path d="M44.0098 14.1474C44.049 14.7174 43.8618 15.967 44.3592 16.3811C44.6132 16.5904 44.9589 16.5272 45.2583 16.5168C45.8757 16.4964 46.4938 16.4447 47.1102 16.3934C49.4343 16.2005 51.7437 15.8572 54.0268 15.3814C54.1602 15.353 54.2386 15.2218 54.2467 15.0947C54.2883 14.4774 54.575 13.0248 54.0939 12.5145C53.9382 12.3504 53.7605 12.3503 53.5554 12.33C52.9082 12.2664 52.1919 12.3959 51.5459 12.4459C49.0655 12.6366 46.6024 13.0082 44.1704 13.5368C43.795 13.619 43.951 14.1944 44.3252 14.1144C46.2671 13.6914 48.2279 13.3662 50.2049 13.1634C51.0945 13.072 51.9883 13.0033 52.8808 12.9571C52.9966 12.9518 53.4629 12.8599 53.5503 12.9265C53.7344 13.0663 53.6898 13.5357 53.6935 13.7478C53.6983 14.1965 53.6803 14.6422 53.6499 15.0893C53.7234 14.9943 53.7969 14.8993 53.8699 14.8026C52.0239 15.187 50.1627 15.4873 48.2864 15.6833C47.3917 15.7761 46.4954 15.8491 45.5961 15.8972C45.3722 15.9095 45.1462 15.9204 44.9219 15.9309C44.6918 15.886 44.6159 15.7392 44.6939 15.4905C44.5789 15.0952 44.6296 14.56 44.6018 14.1486C44.5793 13.7707 43.9821 13.7636 44.0098 14.1474Z" fill="white"/>
<path d="M51.9053 56.9254C50.2288 57.6164 49.4569 59.5595 50.4255 61.1765C51.4583 62.907 53.7215 63.2534 55.4099 62.3366C56.955 61.497 57.8246 59.7744 56.8412 58.1565C55.7787 56.405 53.5621 56.3944 51.9436 57.302C51.4533 57.5785 51.896 58.3304 52.3862 58.054C53.4764 57.4427 54.9696 57.2554 55.8831 58.3068C56.7885 59.3458 56.3618 60.6693 55.2916 61.3913C54.3153 62.0495 52.9607 62.2142 51.9498 61.5371C50.5682 60.6111 50.4549 58.4602 52.1314 57.7692C52.6443 57.5592 52.4227 56.7142 51.9053 56.9254Z" fill="white"/>
<path d="M49.2352 29.5469C49.1834 32.164 48.4924 34.5402 47.1394 36.7757C46.9396 37.1025 47.2712 37.5452 47.6431 37.4356C50.1227 36.6867 51.788 38.501 53.2351 40.185C53.4733 40.464 54.0396 40.2477 53.9982 39.8712C53.7628 37.6986 53.836 35.6421 54.25 33.4892C54.2959 33.2534 54.1847 33.005 53.9339 32.938C51.8399 32.3713 50.5452 30.7012 50.5362 28.5226C50.5354 27.9465 49.6367 27.9389 49.6421 28.5138C49.6504 30.3199 50.4115 32.0138 51.9424 33.0494C53.1291 33.8542 53.213 33.4094 53.0976 34.9755C52.9722 36.6337 52.9264 38.201 53.1041 39.8624C53.3588 39.7594 53.6124 39.6517 53.8671 39.5486C52.1618 37.5662 50.1931 35.7289 47.4121 36.5734C47.5796 36.7919 47.7472 37.0103 47.9159 37.2333C49.3479 34.8674 50.0803 32.3311 50.1318 29.565C50.1378 28.9771 49.2449 28.9729 49.2352 29.5469Z" fill="white"/>
</svg>
