<svg width="142" height="118" viewBox="0 0 142 118" fill="none" xmlns="http://www.w3.org/2000/svg">
<path d="M15.3389 88.106C14.2723 88.106 13.2789 87.926 12.3589 87.566C11.4523 87.206 10.6656 86.706 9.99893 86.066C9.33226 85.4127 8.81226 84.6527 8.43893 83.786C8.0656 82.9194 7.87893 81.9727 7.87893 80.946C7.87893 79.9194 8.0656 78.9727 8.43893 78.106C8.81226 77.2394 9.33226 76.486 9.99893 75.846C10.6656 75.1927 11.4523 74.686 12.3589 74.326C13.2656 73.966 14.2589 73.786 15.3389 73.786C16.4056 73.786 17.3856 73.966 18.2789 74.326C19.1856 74.6727 19.9723 75.1727 20.6389 75.826C21.3189 76.466 21.8389 77.2194 22.1989 78.086C22.5723 78.9527 22.7589 79.906 22.7589 80.946C22.7589 81.986 22.5723 82.9394 22.1989 83.806C21.8389 84.6727 21.3189 85.4327 20.6389 86.086C19.9723 86.726 19.1856 87.226 18.2789 87.586C17.3856 87.9327 16.4056 88.106 15.3389 88.106ZM15.3389 86.326C16.1123 86.326 16.8256 86.1927 17.4789 85.926C18.1456 85.6594 18.7189 85.286 19.1989 84.806C19.6923 84.3127 20.0723 83.7394 20.3389 83.086C20.6189 82.4327 20.7589 81.7194 20.7589 80.946C20.7589 80.1727 20.6189 79.4594 20.3389 78.806C20.0723 78.1527 19.6923 77.586 19.1989 77.106C18.7189 76.6127 18.1456 76.2327 17.4789 75.966C16.8256 75.6994 16.1123 75.566 15.3389 75.566C14.5523 75.566 13.8256 75.6994 13.1589 75.966C12.5056 76.2327 11.9323 76.6127 11.4389 77.106C10.9456 77.586 10.5589 78.1527 10.2789 78.806C10.0123 79.4594 9.87893 80.1727 9.87893 80.946C9.87893 81.7194 10.0123 82.4327 10.2789 83.086C10.5589 83.7394 10.9456 84.3127 11.4389 84.806C11.9323 85.286 12.5056 85.6594 13.1589 85.926C13.8256 86.1927 14.5523 86.326 15.3389 86.326ZM29.2735 88.066C28.2068 88.066 27.3801 87.7794 26.7935 87.206C26.2068 86.6327 25.9135 85.8127 25.9135 84.746V75.026H27.8335V84.666C27.8335 85.2394 27.9735 85.6794 28.2535 85.986C28.5468 86.2927 28.9601 86.446 29.4935 86.446C30.0935 86.446 30.5935 86.2794 30.9935 85.946L31.5935 87.326C31.3001 87.5794 30.9468 87.766 30.5335 87.886C30.1335 88.006 29.7135 88.066 29.2735 88.066ZM24.1135 78.926V77.346H30.8735V78.926H24.1135ZM39.5747 77.246C40.4414 77.246 41.2014 77.4127 41.8547 77.746C42.5214 78.0794 43.0414 78.586 43.4147 79.266C43.788 79.946 43.9747 80.806 43.9747 81.846V87.946H42.0547V82.066C42.0547 81.0394 41.8014 80.266 41.2947 79.746C40.8014 79.226 40.1014 78.966 39.1947 78.966C38.5147 78.966 37.9214 79.0994 37.4147 79.366C36.908 79.6327 36.5147 80.026 36.2347 80.546C35.968 81.066 35.8347 81.7127 35.8347 82.486V87.946H33.9147V73.106H35.8347V80.206L35.4547 79.446C35.8014 78.7527 36.3347 78.2127 37.0547 77.826C37.7747 77.4394 38.6147 77.246 39.5747 77.246ZM52.248 88.066C51.1147 88.066 50.1147 87.8327 49.248 87.366C48.3947 86.8994 47.728 86.2594 47.248 85.446C46.7813 84.6327 46.548 83.6994 46.548 82.646C46.548 81.5927 46.7747 80.6594 47.228 79.846C47.6947 79.0327 48.328 78.3994 49.128 77.946C49.9413 77.4794 50.8547 77.246 51.868 77.246C52.8947 77.246 53.8013 77.4727 54.588 77.926C55.3747 78.3794 55.988 79.0194 56.428 79.846C56.8813 80.6594 57.108 81.6127 57.108 82.706C57.108 82.786 57.1013 82.8794 57.088 82.986C57.088 83.0927 57.0813 83.1927 57.068 83.286H48.048V81.906H56.068L55.288 82.386C55.3013 81.706 55.1613 81.0994 54.868 80.566C54.5747 80.0327 54.168 79.6194 53.648 79.326C53.1413 79.0194 52.548 78.866 51.868 78.866C51.2013 78.866 50.608 79.0194 50.088 79.326C49.568 79.6194 49.1613 80.0394 48.868 80.586C48.5747 81.1194 48.428 81.7327 48.428 82.426V82.746C48.428 83.4527 48.588 84.086 48.908 84.646C49.2413 85.1927 49.7013 85.6194 50.288 85.926C50.8747 86.2327 51.548 86.386 52.308 86.386C52.9347 86.386 53.5013 86.2794 54.008 86.066C54.528 85.8527 54.9813 85.5327 55.368 85.106L56.428 86.346C55.948 86.906 55.348 87.3327 54.628 87.626C53.9213 87.9194 53.128 88.066 52.248 88.066ZM59.7741 87.946V77.346H61.6141V80.226L61.4341 79.506C61.7274 78.7727 62.2208 78.2127 62.9141 77.826C63.6074 77.4394 64.4608 77.246 65.4741 77.246V79.106C65.3941 79.0927 65.3141 79.086 65.2341 79.086C65.1674 79.086 65.1008 79.086 65.0341 79.086C64.0074 79.086 63.1941 79.3927 62.5941 80.006C61.9941 80.6194 61.6941 81.506 61.6941 82.666V87.946H59.7741ZM73.6283 87.946V73.946H79.9083C81.5216 73.946 82.7616 74.2727 83.6283 74.926C84.495 75.566 84.9283 76.446 84.9283 77.566C84.9283 78.326 84.755 78.966 84.4083 79.486C84.075 80.006 83.6216 80.406 83.0483 80.686C82.475 80.966 81.855 81.106 81.1883 81.106L81.5483 80.506C82.3483 80.506 83.055 80.646 83.6683 80.926C84.2816 81.206 84.7683 81.6194 85.1283 82.166C85.4883 82.6994 85.6683 83.366 85.6683 84.166C85.6683 85.366 85.215 86.2994 84.3083 86.966C83.415 87.6194 82.0816 87.946 80.3083 87.946H73.6283ZM75.6283 86.326H80.2283C81.335 86.326 82.1816 86.1394 82.7683 85.766C83.355 85.3927 83.6483 84.806 83.6483 84.006C83.6483 83.1927 83.355 82.5994 82.7683 82.226C82.1816 81.8527 81.335 81.666 80.2283 81.666H75.4483V80.046H79.7283C80.7416 80.046 81.5283 79.8594 82.0883 79.486C82.6483 79.1127 82.9283 78.5527 82.9283 77.806C82.9283 77.0594 82.6483 76.4994 82.0883 76.126C81.5283 75.7527 80.7416 75.566 79.7283 75.566H75.6283V86.326ZM95.065 87.946V85.706L94.965 85.286V81.466C94.965 80.6527 94.725 80.026 94.245 79.586C93.7784 79.1327 93.0717 78.906 92.125 78.906C91.4984 78.906 90.885 79.0127 90.285 79.226C89.685 79.426 89.1784 79.6994 88.765 80.046L87.965 78.606C88.5117 78.166 89.165 77.8327 89.925 77.606C90.6984 77.366 91.505 77.246 92.345 77.246C93.7984 77.246 94.9184 77.5994 95.705 78.306C96.4917 79.0127 96.885 80.0927 96.885 81.546V87.946H95.065ZM91.585 88.066C90.7984 88.066 90.105 87.9327 89.505 87.666C88.9184 87.3994 88.465 87.0327 88.145 86.566C87.825 86.086 87.665 85.546 87.665 84.946C87.665 84.3727 87.7984 83.8527 88.065 83.386C88.345 82.9194 88.7917 82.546 89.405 82.266C90.0317 81.986 90.8717 81.846 91.925 81.846H95.285V83.226H92.005C91.045 83.226 90.3984 83.386 90.065 83.706C89.7317 84.026 89.565 84.4127 89.565 84.866C89.565 85.386 89.7717 85.806 90.185 86.126C90.5984 86.4327 91.1717 86.586 91.905 86.586C92.625 86.586 93.2517 86.426 93.785 86.106C94.3317 85.786 94.725 85.3194 94.965 84.706L95.345 86.026C95.0917 86.6527 94.645 87.1527 94.005 87.526C93.365 87.886 92.5584 88.066 91.585 88.066ZM106.098 77.246C106.965 77.246 107.725 77.4127 108.378 77.746C109.045 78.0794 109.565 78.586 109.938 79.266C110.311 79.946 110.498 80.806 110.498 81.846V87.946H108.578V82.066C108.578 81.0394 108.325 80.266 107.818 79.746C107.325 79.226 106.625 78.966 105.718 78.966C105.038 78.966 104.445 79.0994 103.938 79.366C103.431 79.6327 103.038 80.026 102.758 80.546C102.491 81.066 102.358 81.7127 102.358 82.486V87.946H100.438V77.346H102.278V80.206L101.978 79.446C102.325 78.7527 102.858 78.2127 103.578 77.826C104.298 77.4394 105.138 77.246 106.098 77.246ZM115.611 85.386L115.651 82.926L121.751 77.346H124.071L119.391 81.946L118.351 82.826L115.611 85.386ZM114.051 87.946V73.106H115.971V87.946H114.051ZM122.151 87.946L117.991 82.786L119.231 81.246L124.511 87.946H122.151ZM129.084 88.066C128.204 88.066 127.364 87.946 126.564 87.706C125.777 87.466 125.157 87.1727 124.704 86.826L125.504 85.306C125.957 85.6127 126.517 85.8727 127.184 86.086C127.85 86.2994 128.53 86.406 129.224 86.406C130.117 86.406 130.757 86.2794 131.144 86.026C131.544 85.7727 131.744 85.4194 131.744 84.966C131.744 84.6327 131.624 84.3727 131.384 84.186C131.144 83.9994 130.824 83.8594 130.424 83.766C130.037 83.6727 129.604 83.5927 129.124 83.526C128.644 83.446 128.164 83.3527 127.684 83.246C127.204 83.126 126.764 82.966 126.364 82.766C125.964 82.5527 125.644 82.266 125.404 81.906C125.164 81.5327 125.044 81.0394 125.044 80.426C125.044 79.786 125.224 79.226 125.584 78.746C125.944 78.266 126.45 77.8994 127.104 77.646C127.77 77.3794 128.557 77.246 129.464 77.246C130.157 77.246 130.857 77.3327 131.564 77.506C132.284 77.666 132.87 77.8994 133.324 78.206L132.504 79.726C132.024 79.406 131.524 79.186 131.004 79.066C130.484 78.946 129.964 78.886 129.444 78.886C128.604 78.886 127.977 79.026 127.564 79.306C127.15 79.5727 126.944 79.9194 126.944 80.346C126.944 80.706 127.064 80.986 127.304 81.186C127.557 81.3727 127.877 81.5194 128.264 81.626C128.664 81.7327 129.104 81.826 129.584 81.906C130.064 81.9727 130.544 82.066 131.024 82.186C131.504 82.2927 131.937 82.446 132.324 82.646C132.724 82.846 133.044 83.126 133.284 83.486C133.537 83.846 133.664 84.326 133.664 84.926C133.664 85.566 133.477 86.1194 133.104 86.586C132.73 87.0527 132.204 87.4194 131.524 87.686C130.844 87.9394 130.03 88.066 129.084 88.066ZM29.6114 110.946V98.686H24.8114V96.946H36.3914V98.686H31.5914V110.946H29.6114ZM38.0358 110.946V100.346H39.8758V103.226L39.6958 102.506C39.9891 101.773 40.4825 101.213 41.1758 100.826C41.8691 100.439 42.7225 100.246 43.7358 100.246V102.106C43.6558 102.093 43.5758 102.086 43.4958 102.086C43.4291 102.086 43.3625 102.086 43.2958 102.086C42.2691 102.086 41.4558 102.393 40.8558 103.006C40.2558 103.619 39.9558 104.506 39.9558 105.666V110.946H38.0358ZM51.901 110.946V108.706L51.801 108.286V104.466C51.801 103.653 51.561 103.026 51.081 102.586C50.6143 102.133 49.9076 101.906 48.961 101.906C48.3343 101.906 47.721 102.013 47.121 102.226C46.521 102.426 46.0143 102.699 45.601 103.046L44.801 101.606C45.3476 101.166 46.001 100.833 46.761 100.606C47.5343 100.366 48.341 100.246 49.181 100.246C50.6343 100.246 51.7543 100.599 52.541 101.306C53.3276 102.013 53.721 103.093 53.721 104.546V110.946H51.901ZM48.421 111.066C47.6343 111.066 46.941 110.933 46.341 110.666C45.7543 110.399 45.301 110.033 44.981 109.566C44.661 109.086 44.501 108.546 44.501 107.946C44.501 107.373 44.6343 106.853 44.901 106.386C45.181 105.919 45.6276 105.546 46.241 105.266C46.8676 104.986 47.7076 104.846 48.761 104.846H52.121V106.226H48.841C47.881 106.226 47.2343 106.386 46.901 106.706C46.5676 107.026 46.401 107.413 46.401 107.866C46.401 108.386 46.6076 108.806 47.021 109.126C47.4343 109.433 48.0076 109.586 48.741 109.586C49.461 109.586 50.0876 109.426 50.621 109.106C51.1676 108.786 51.561 108.319 51.801 107.706L52.181 109.026C51.9276 109.653 51.481 110.153 50.841 110.526C50.201 110.886 49.3943 111.066 48.421 111.066ZM62.9341 100.246C63.8008 100.246 64.5608 100.413 65.2141 100.746C65.8808 101.079 66.4008 101.586 66.7741 102.266C67.1474 102.946 67.3341 103.806 67.3341 104.846V110.946H65.4141V105.066C65.4141 104.039 65.1608 103.266 64.6541 102.746C64.1608 102.226 63.4608 101.966 62.5541 101.966C61.8741 101.966 61.2808 102.099 60.7741 102.366C60.2674 102.633 59.8741 103.026 59.5941 103.546C59.3274 104.066 59.1941 104.713 59.1941 105.486V110.946H57.2741V100.346H59.1141V103.206L58.8141 102.446C59.1608 101.753 59.6941 101.213 60.4141 100.826C61.1341 100.439 61.9741 100.246 62.9341 100.246ZM73.9274 111.066C73.0474 111.066 72.2074 110.946 71.4074 110.706C70.6207 110.466 70.0007 110.173 69.5474 109.826L70.3474 108.306C70.8007 108.613 71.3607 108.873 72.0274 109.086C72.694 109.299 73.374 109.406 74.0674 109.406C74.9607 109.406 75.6007 109.279 75.9874 109.026C76.3874 108.773 76.5874 108.419 76.5874 107.966C76.5874 107.633 76.4674 107.373 76.2274 107.186C75.9874 106.999 75.6674 106.859 75.2674 106.766C74.8807 106.673 74.4474 106.593 73.9674 106.526C73.4874 106.446 73.0074 106.353 72.5274 106.246C72.0474 106.126 71.6074 105.966 71.2074 105.766C70.8074 105.553 70.4874 105.266 70.2474 104.906C70.0074 104.533 69.8874 104.039 69.8874 103.426C69.8874 102.786 70.0674 102.226 70.4274 101.746C70.7874 101.266 71.294 100.899 71.9474 100.646C72.614 100.379 73.4007 100.246 74.3074 100.246C75.0007 100.246 75.7007 100.333 76.4074 100.506C77.1274 100.666 77.714 100.899 78.1674 101.206L77.3474 102.726C76.8674 102.406 76.3674 102.186 75.8474 102.066C75.3274 101.946 74.8074 101.886 74.2874 101.886C73.4474 101.886 72.8207 102.026 72.4074 102.306C71.994 102.573 71.7874 102.919 71.7874 103.346C71.7874 103.706 71.9074 103.986 72.1474 104.186C72.4007 104.373 72.7207 104.519 73.1074 104.626C73.5074 104.733 73.9474 104.826 74.4274 104.906C74.9074 104.973 75.3874 105.066 75.8674 105.186C76.3474 105.293 76.7807 105.446 77.1674 105.646C77.5674 105.846 77.8874 106.126 78.1274 106.486C78.3807 106.846 78.5074 107.326 78.5074 107.926C78.5074 108.566 78.3207 109.119 77.9474 109.586C77.574 110.053 77.0474 110.419 76.3674 110.686C75.6874 110.939 74.874 111.066 73.9274 111.066ZM81.1869 110.946V99.406C81.1869 98.366 81.4869 97.5394 82.0869 96.926C82.7002 96.2994 83.5669 95.986 84.6869 95.986C85.1002 95.986 85.4936 96.0394 85.8669 96.146C86.2536 96.2394 86.5802 96.3927 86.8469 96.606L86.2669 98.066C86.0669 97.906 85.8402 97.786 85.5869 97.706C85.3336 97.6127 85.0669 97.566 84.7869 97.566C84.2269 97.566 83.8002 97.726 83.5069 98.046C83.2136 98.3527 83.0669 98.8127 83.0669 99.426V100.846L83.1069 101.726V110.946H81.1869ZM79.3869 101.926V100.346H86.1469V101.926H79.3869ZM92.5214 111.066C91.3881 111.066 90.3881 110.833 89.5214 110.366C88.6681 109.899 88.0014 109.259 87.5214 108.446C87.0548 107.633 86.8214 106.699 86.8214 105.646C86.8214 104.593 87.0481 103.659 87.5014 102.846C87.9681 102.033 88.6014 101.399 89.4014 100.946C90.2148 100.479 91.1281 100.246 92.1414 100.246C93.1681 100.246 94.0748 100.473 94.8614 100.926C95.6481 101.379 96.2614 102.019 96.7014 102.846C97.1548 103.659 97.3814 104.613 97.3814 105.706C97.3814 105.786 97.3748 105.879 97.3614 105.986C97.3614 106.093 97.3548 106.193 97.3414 106.286H88.3214V104.906H96.3414L95.5614 105.386C95.5748 104.706 95.4348 104.099 95.1414 103.566C94.8481 103.033 94.4414 102.619 93.9214 102.326C93.4148 102.019 92.8214 101.866 92.1414 101.866C91.4748 101.866 90.8814 102.019 90.3614 102.326C89.8414 102.619 89.4348 103.039 89.1414 103.586C88.8481 104.119 88.7014 104.733 88.7014 105.426V105.746C88.7014 106.453 88.8614 107.086 89.1814 107.646C89.5148 108.193 89.9748 108.619 90.5614 108.926C91.1481 109.233 91.8214 109.386 92.5814 109.386C93.2081 109.386 93.7748 109.279 94.2814 109.066C94.8014 108.853 95.2548 108.533 95.6414 108.106L96.7014 109.346C96.2214 109.906 95.6214 110.333 94.9014 110.626C94.1948 110.919 93.4014 111.066 92.5214 111.066ZM100.048 110.946V100.346H101.888V103.226L101.708 102.506C102.001 101.773 102.494 101.213 103.188 100.826C103.881 100.439 104.734 100.246 105.748 100.246V102.106C105.668 102.093 105.588 102.086 105.508 102.086C105.441 102.086 105.374 102.086 105.308 102.086C104.281 102.086 103.468 102.393 102.868 103.006C102.268 103.619 101.968 104.506 101.968 105.666V110.946H100.048ZM111.271 111.066C110.391 111.066 109.551 110.946 108.751 110.706C107.964 110.466 107.344 110.173 106.891 109.826L107.691 108.306C108.144 108.613 108.704 108.873 109.371 109.086C110.038 109.299 110.718 109.406 111.411 109.406C112.304 109.406 112.944 109.279 113.331 109.026C113.731 108.773 113.931 108.419 113.931 107.966C113.931 107.633 113.811 107.373 113.571 107.186C113.331 106.999 113.011 106.859 112.611 106.766C112.224 106.673 111.791 106.593 111.311 106.526C110.831 106.446 110.351 106.353 109.871 106.246C109.391 106.126 108.951 105.966 108.551 105.766C108.151 105.553 107.831 105.266 107.591 104.906C107.351 104.533 107.231 104.039 107.231 103.426C107.231 102.786 107.411 102.226 107.771 101.746C108.131 101.266 108.638 100.899 109.291 100.646C109.958 100.379 110.744 100.246 111.651 100.246C112.344 100.246 113.044 100.333 113.751 100.506C114.471 100.666 115.058 100.899 115.511 101.206L114.691 102.726C114.211 102.406 113.711 102.186 113.191 102.066C112.671 101.946 112.151 101.886 111.631 101.886C110.791 101.886 110.164 102.026 109.751 102.306C109.338 102.573 109.131 102.919 109.131 103.346C109.131 103.706 109.251 103.986 109.491 104.186C109.744 104.373 110.064 104.519 110.451 104.626C110.851 104.733 111.291 104.826 111.771 104.906C112.251 104.973 112.731 105.066 113.211 105.186C113.691 105.293 114.124 105.446 114.511 105.646C114.911 105.846 115.231 106.126 115.471 106.486C115.724 106.846 115.851 107.326 115.851 107.926C115.851 108.566 115.664 109.119 115.291 109.586C114.918 110.053 114.391 110.419 113.711 110.686C113.031 110.939 112.218 111.066 111.271 111.066Z" fill="white"/>
<path fill-rule="evenodd" clip-rule="evenodd" d="M79.2139 21.9922C79.2139 27.9888 74.4334 32.7971 68.4715 32.7971C62.5096 32.7971 57.7291 27.9888 57.7291 21.9922C57.7291 15.9934 62.5096 11.1897 68.4715 11.1897C74.4334 11.1897 79.2139 15.9934 79.2139 21.9922ZM68.4714 52.023C59.7148 52.023 52.2379 50.6347 52.2379 45.0818C52.2379 39.5265 59.6668 38.0877 68.4714 38.0877C77.228 38.0877 84.705 39.476 84.705 45.0312C84.705 50.5842 77.276 52.023 68.4714 52.023ZM83.8046 22.1872C83.8046 25.2441 82.8928 28.0918 81.2932 30.4592C81.1287 30.7028 81.275 31.0315 81.5652 31.0821C81.9651 31.151 82.3787 31.1901 82.7991 31.2016C86.9924 31.3119 90.756 28.5975 91.7957 24.5109C93.3359 18.4408 88.8136 12.9913 83.0551 12.9913C82.429 12.9913 81.8302 13.0579 81.2475 13.1775C81.1676 13.1958 81.083 13.2326 81.0373 13.3039C80.9825 13.3912 81.0236 13.5084 81.0784 13.5843C82.8083 16.0229 83.8046 18.997 83.8046 22.1872ZM90.7489 35.4668C93.5665 36.0207 95.4197 37.1515 96.1875 38.7949C96.8365 40.1441 96.8365 41.7093 96.1875 43.0562C95.013 45.6051 91.2265 46.4233 89.7549 46.6348C89.4509 46.6808 89.2064 46.4164 89.2384 46.1107C89.9902 39.0477 84.0101 35.6989 82.463 34.929C82.3968 34.8945 82.383 34.8416 82.3899 34.8095C82.3945 34.7865 82.4219 34.7497 82.4722 34.7428C85.8199 34.6808 89.419 35.1404 90.7489 35.4668ZM54.4046 31.2016C54.825 31.1901 55.2364 31.1533 55.6385 31.0821C55.9288 31.0315 56.075 30.7028 55.9105 30.4592C54.3109 28.0918 53.3991 25.2441 53.3991 22.1872C53.3991 18.997 54.3954 16.0229 56.1253 13.5843C56.1801 13.5084 56.219 13.3912 56.1664 13.3039C56.1207 13.2349 56.0339 13.1958 55.9562 13.1775C55.3712 13.0579 54.7725 12.9913 54.1464 12.9913C48.3878 12.9913 43.8656 18.4408 45.408 24.5109C46.4478 28.5975 50.2114 31.3119 54.4046 31.2016ZM54.8126 34.8074C54.8194 34.8419 54.8057 34.8925 54.7417 34.9292C53.1924 35.6992 47.2122 39.048 47.964 46.1087C47.996 46.4167 47.7538 46.6787 47.4499 46.635C45.9783 46.4236 42.1918 45.6053 41.0173 43.0564C40.366 41.7072 40.366 40.1443 41.0173 38.7952C41.7851 37.1518 43.636 36.021 46.4536 35.4648C47.7858 35.1407 51.3826 34.681 54.7326 34.7431C54.7829 34.75 54.808 34.7867 54.8126 34.8074Z" fill="white"/>
<path d="M66.6267 11.4611C66.599 11.4418 66.5753 11.4225 66.5477 11.4032C66.4252 11.3143 66.1959 11.3491 66.1011 11.4611C66.0734 11.4959 66.0458 11.5268 66.0142 11.5615C65.8877 11.7083 65.86 11.9284 66.0142 12.0713C66.8401 12.8552 69.2666 12.3647 70.3415 12.3493C72.8629 12.3145 75.3803 12.1485 77.8858 11.882C78.3522 11.8318 78.368 11.1869 77.8858 11.1599C72.772 10.8587 67.757 12.3377 62.6431 11.9477C62.6431 12.1871 62.6431 12.4304 62.6431 12.6698C67.508 12.1717 72.3808 11.9477 77.2733 12.0056C77.2733 11.7662 77.2733 11.5229 77.2733 11.2835C72.9143 11.7507 68.5632 11.6735 64.2279 11.0286C64.1963 11.2642 64.1607 11.4997 64.1291 11.7392C69.069 11.6735 74.005 11.6079 78.945 11.5461C78.945 11.3066 78.945 11.0633 78.945 10.8239C76.6133 11.129 74.2777 11.2024 71.9263 11.1135C70.8118 11.0711 69.6974 10.9977 68.5869 10.9127C67.3973 10.8201 65.3937 11.0286 64.5164 10.1674C64.461 10.3682 64.4097 10.5691 64.3543 10.7699C67.0061 10.179 69.7764 10.43 72.4717 10.4957C74.6136 10.5497 78.6486 9.93959 80.3914 11.3375C80.755 11.631 81.2806 11.1213 80.913 10.8278C79.1109 9.3835 76.1628 9.86621 73.9932 9.81215C70.7407 9.73105 67.3539 9.36033 64.1567 10.0747C63.8801 10.1365 63.805 10.4918 63.9947 10.6772C65.3226 11.9824 68.3379 11.6272 70.0728 11.7392C73.0407 11.9284 75.9968 11.9284 78.9489 11.5422C79.4034 11.4843 79.439 10.8123 78.9489 10.8201C74.009 10.8857 69.073 10.9514 64.133 11.0132C63.7339 11.017 63.6074 11.658 64.0342 11.7237C68.4367 12.3802 72.851 12.4806 77.2772 12.0056C77.7396 11.9554 77.7633 11.2873 77.2772 11.2835C72.3887 11.2255 67.5119 11.4457 62.6471 11.9477C62.1768 11.994 62.165 12.6351 62.6471 12.6698C67.7609 13.0598 72.776 11.577 77.8898 11.882C77.8898 11.6426 77.8898 11.3993 77.8898 11.1599C76.0087 11.3568 74.1236 11.5074 72.2345 11.5769C71.3532 11.6117 70.472 11.631 69.5867 11.6349C69.0809 11.6387 68.579 11.6349 68.0731 11.6272C67.4092 11.5074 66.8045 11.658 66.2552 12.0867C66.6346 12.3609 67.0061 11.7353 66.6267 11.4611Z" fill="white"/>
<path d="M101.666 7.30225H97.696C95.7028 7.30225 94.0757 8.87788 94.0757 10.808V14.5738H99.1197L97.818 13.3212C97.5739 13.0848 97.5739 12.6988 97.818 12.4625C98.0621 12.2261 98.4607 12.2261 98.7048 12.4625L101.08 14.755C101.202 14.8653 101.267 15.0229 101.267 15.1804C101.267 15.3459 101.202 15.5034 101.08 15.6137L98.7048 17.9063C98.5827 18.0245 98.42 18.0796 98.2655 18.0796C98.1027 18.0796 97.94 18.0245 97.818 17.9063C97.5739 17.6699 97.5739 17.2839 97.818 17.0476L99.1197 15.787H94.0757V19.5686C94.0757 21.4908 95.7028 23.0586 97.6878 23.0586H101.65C103.651 23.0586 105.27 21.4909 105.27 19.5607V10.8002C105.27 8.87788 103.651 7.30225 101.666 7.30225Z" fill="white"/>
</svg>
