<svg width="26" height="26" viewBox="0 0 26 26" fill="none" xmlns="http://www.w3.org/2000/svg">
<path d="M20.816 14.642V13.042C20.816 12.1584 20.0996 11.442 19.216 11.442H3.21597C2.33231 11.442 1.61597 12.1584 1.61597 13.042V22.642C1.61597 23.5257 2.33231 24.242 3.21597 24.242H19.216C20.0996 24.242 20.816 23.5257 20.816 22.642V21.042M20.816 14.642H14.416C12.6487 14.642 11.216 16.0747 11.216 17.842C11.216 19.6094 12.6487 21.042 14.416 21.042H20.816M20.816 14.642C22.5833 14.642 24.016 16.0747 24.016 17.842C24.016 19.6094 22.5833 21.042 20.816 21.042M6.41597 11.442V6.64204C6.41597 3.99107 8.565 1.84204 11.216 1.84204C13.8669 1.84204 16.016 3.99107 16.016 6.64204V11.442M20.016 17.842H21.616M16.816 17.842H18.416M13.616 17.842H15.216" stroke="white" stroke-width="2"/>
</svg>
