<svg width="93" height="107" viewBox="0 0 93 107" fill="none" xmlns="http://www.w3.org/2000/svg">
<path d="M7.67011 98.0576V84.0576H13.1301C14.3568 84.0576 15.4034 84.2509 16.2701 84.6376C17.1368 85.0243 17.8034 85.5843 18.2701 86.3176C18.7368 87.051 18.9701 87.9243 18.9701 88.9376C18.9701 89.9509 18.7368 90.8243 18.2701 91.5576C17.8034 92.2776 17.1368 92.8376 16.2701 93.2376C15.4034 93.6243 14.3568 93.8176 13.1301 93.8176H8.77011L9.67011 92.8776V98.0576H7.67011ZM9.67011 93.0776L8.77011 92.0776H13.0701C14.3501 92.0776 15.3168 91.8043 15.9701 91.2576C16.6368 90.711 16.9701 89.9376 16.9701 88.9376C16.9701 87.9376 16.6368 87.1643 15.9701 86.6176C15.3168 86.0709 14.3501 85.7976 13.0701 85.7976H8.77011L9.67011 84.7976V93.0776ZM26.3093 98.1776C25.176 98.1776 24.176 97.9443 23.3093 97.4776C22.456 97.011 21.7893 96.371 21.3093 95.5576C20.8427 94.7443 20.6093 93.811 20.6093 92.7576C20.6093 91.7043 20.836 90.771 21.2893 89.9576C21.756 89.1443 22.3893 88.511 23.1893 88.0576C24.0027 87.591 24.916 87.3576 25.9293 87.3576C26.956 87.3576 27.8627 87.5843 28.6493 88.0376C29.436 88.491 30.0493 89.131 30.4893 89.9576C30.9427 90.771 31.1693 91.7243 31.1693 92.8176C31.1693 92.8976 31.1627 92.991 31.1493 93.0976C31.1493 93.2043 31.1427 93.3043 31.1293 93.3976H22.1093V92.0176H30.1293L29.3493 92.4976C29.3627 91.8176 29.2227 91.211 28.9293 90.6776C28.636 90.1443 28.2293 89.731 27.7093 89.4376C27.2027 89.131 26.6093 88.9776 25.9293 88.9776C25.2627 88.9776 24.6693 89.131 24.1493 89.4376C23.6293 89.731 23.2227 90.151 22.9293 90.6976C22.636 91.231 22.4893 91.8443 22.4893 92.5376V92.8576C22.4893 93.5643 22.6493 94.1976 22.9693 94.7576C23.3027 95.3043 23.7627 95.731 24.3493 96.0376C24.936 96.3443 25.6093 96.4976 26.3693 96.4976C26.996 96.4976 27.5627 96.391 28.0693 96.1776C28.5893 95.9643 29.0427 95.6443 29.4293 95.2176L30.4893 96.4576C30.0093 97.0176 29.4093 97.4443 28.6893 97.7376C27.9827 98.031 27.1893 98.1776 26.3093 98.1776ZM39.4954 87.3576C40.3621 87.3576 41.1221 87.5243 41.7754 87.8576C42.4421 88.1909 42.9621 88.6976 43.3354 89.3776C43.7088 90.0576 43.8954 90.9176 43.8954 91.9576V98.0576H41.9754V92.1776C41.9754 91.151 41.7221 90.3776 41.2154 89.8576C40.7221 89.3376 40.0221 89.0776 39.1154 89.0776C38.4354 89.0776 37.8421 89.2109 37.3354 89.4776C36.8288 89.7443 36.4354 90.1376 36.1554 90.6576C35.8888 91.1776 35.7554 91.8243 35.7554 92.5976V98.0576H33.8354V87.4576H35.6754V90.3176L35.3754 89.5576C35.7221 88.8643 36.2554 88.3243 36.9754 87.9376C37.6954 87.5509 38.5354 87.3576 39.4954 87.3576ZM50.4887 98.1776C49.6087 98.1776 48.7687 98.0576 47.9687 97.8176C47.182 97.5776 46.562 97.2843 46.1087 96.9376L46.9087 95.4176C47.362 95.7243 47.922 95.9843 48.5887 96.1976C49.2554 96.411 49.9354 96.5176 50.6287 96.5176C51.522 96.5176 52.162 96.391 52.5487 96.1376C52.9487 95.8843 53.1487 95.531 53.1487 95.0776C53.1487 94.7443 53.0287 94.4843 52.7887 94.2976C52.5487 94.111 52.2287 93.971 51.8287 93.8776C51.442 93.7843 51.0087 93.7043 50.5287 93.6376C50.0487 93.5576 49.5687 93.4643 49.0887 93.3576C48.6087 93.2376 48.1687 93.0776 47.7687 92.8776C47.3687 92.6643 47.0487 92.3776 46.8087 92.0176C46.5687 91.6443 46.4487 91.151 46.4487 90.5376C46.4487 89.8976 46.6287 89.3376 46.9887 88.8576C47.3487 88.3776 47.8554 88.0109 48.5087 87.7576C49.1754 87.4909 49.962 87.3576 50.8687 87.3576C51.562 87.3576 52.262 87.4443 52.9687 87.6176C53.6887 87.7776 54.2754 88.0109 54.7287 88.3176L53.9087 89.8376C53.4287 89.5176 52.9287 89.2976 52.4087 89.1776C51.8887 89.0576 51.3687 88.9976 50.8487 88.9976C50.0087 88.9976 49.382 89.1376 48.9687 89.4176C48.5554 89.6843 48.3487 90.0309 48.3487 90.4576C48.3487 90.8176 48.4687 91.0976 48.7087 91.2976C48.962 91.4843 49.282 91.631 49.6687 91.7376C50.0687 91.8443 50.5087 91.9376 50.9887 92.0176C51.4687 92.0843 51.9487 92.1776 52.4287 92.2976C52.9087 92.4043 53.342 92.5576 53.7287 92.7576C54.1287 92.9576 54.4487 93.2376 54.6887 93.5976C54.942 93.9576 55.0687 94.4376 55.0687 95.0376C55.0687 95.6776 54.882 96.231 54.5087 96.6976C54.1354 97.1643 53.6087 97.531 52.9287 97.7976C52.2487 98.051 51.4354 98.1776 50.4887 98.1776ZM57.4682 98.0576V87.4576H59.3882V98.0576H57.4682ZM58.4282 85.4176C58.0549 85.4176 57.7416 85.2976 57.4882 85.0576C57.2482 84.8176 57.1282 84.5243 57.1282 84.1776C57.1282 83.8176 57.2482 83.5176 57.4882 83.2776C57.7416 83.0376 58.0549 82.9176 58.4282 82.9176C58.8016 82.9176 59.1082 83.0376 59.3482 83.2776C59.6016 83.5043 59.7282 83.7909 59.7282 84.1376C59.7282 84.4976 59.6082 84.8043 59.3682 85.0576C59.1282 85.2976 58.8149 85.4176 58.4282 85.4176ZM67.5942 98.1776C66.5275 98.1776 65.5808 97.9443 64.7542 97.4776C63.9275 97.011 63.2742 96.371 62.7942 95.5576C62.3142 94.731 62.0742 93.7976 62.0742 92.7576C62.0742 91.7043 62.3142 90.771 62.7942 89.9576C63.2742 89.1443 63.9275 88.511 64.7542 88.0576C65.5808 87.591 66.5275 87.3576 67.5942 87.3576C68.6475 87.3576 69.5875 87.591 70.4142 88.0576C71.2542 88.511 71.9075 89.1443 72.3742 89.9576C72.8542 90.7576 73.0942 91.691 73.0942 92.7576C73.0942 93.811 72.8542 94.7443 72.3742 95.5576C71.9075 96.371 71.2542 97.011 70.4142 97.4776C69.5875 97.9443 68.6475 98.1776 67.5942 98.1776ZM67.5942 96.4976C68.2742 96.4976 68.8808 96.3443 69.4142 96.0376C69.9608 95.731 70.3875 95.2976 70.6942 94.7376C71.0008 94.1643 71.1542 93.5043 71.1542 92.7576C71.1542 91.9976 71.0008 91.3443 70.6942 90.7976C70.3875 90.2376 69.9608 89.8043 69.4142 89.4976C68.8808 89.1909 68.2742 89.0376 67.5942 89.0376C66.9142 89.0376 66.3075 89.1909 65.7742 89.4976C65.2408 89.8043 64.8142 90.2376 64.4942 90.7976C64.1742 91.3443 64.0142 91.9976 64.0142 92.7576C64.0142 93.5043 64.1742 94.1643 64.4942 94.7376C64.8142 95.2976 65.2408 95.731 65.7742 96.0376C66.3075 96.3443 66.9142 96.4976 67.5942 96.4976ZM81.4095 87.3576C82.2761 87.3576 83.0361 87.5243 83.6895 87.8576C84.3561 88.1909 84.8761 88.6976 85.2495 89.3776C85.6228 90.0576 85.8095 90.9176 85.8095 91.9576V98.0576H83.8895V92.1776C83.8895 91.151 83.6361 90.3776 83.1295 89.8576C82.6361 89.3376 81.9361 89.0776 81.0295 89.0776C80.3495 89.0776 79.7561 89.2109 79.2495 89.4776C78.7428 89.7443 78.3495 90.1376 78.0695 90.6576C77.8028 91.1776 77.6695 91.8243 77.6695 92.5976V98.0576H75.7495V87.4576H77.5895V90.3176L77.2895 89.5576C77.6361 88.8643 78.1695 88.3243 78.8895 87.9376C79.6095 87.5509 80.4495 87.3576 81.4095 87.3576Z" fill="white"/>
<path d="M26.2247 42.2282C27.375 43.1345 28.5561 43.7319 29.9786 44.0718C30.3073 44.149 30.7028 43.84 30.5692 43.4796C30.0043 41.9655 29.1416 40.8481 27.8321 39.9108C27.3904 39.5967 26.8461 40.3022 27.2518 40.6678C28.1967 41.5227 29.1621 42.187 30.3073 42.7534C30.7182 42.9594 31.2266 42.532 30.9647 42.0943C29.7579 40.1013 28.4226 38.2165 26.9436 36.4141C26.7177 36.6407 26.4917 36.8673 26.2658 37.0939C27.3853 38.0054 28.5099 38.9169 29.6294 39.8284C29.9632 40.1013 30.6103 39.8593 30.4306 39.3598C29.7424 37.4492 29.0594 35.5335 28.3764 33.623C28.0837 33.7466 27.791 33.8701 27.4983 33.9937C28.8797 35.827 30.2662 37.6604 31.6477 39.4885C31.9455 39.8799 32.7312 39.679 32.5258 39.1177C31.6631 36.7386 30.4973 34.5757 28.967 32.5518C28.6024 32.0729 27.8269 32.4797 28.1402 33.0359C28.9465 34.483 30.0197 35.4872 31.5295 36.1669C32.0893 36.4193 32.5772 35.5902 32.0123 35.3378C30.6668 34.7353 29.6859 33.8496 28.967 32.5518C28.6897 32.7115 28.4124 32.8763 28.1402 33.0359C29.6141 34.9876 30.7644 37.0681 31.6015 39.3701C31.8942 39.2465 32.1869 39.1229 32.4796 38.9993C31.0982 37.166 29.7116 35.3327 28.3302 33.5045C28.0324 33.1132 27.2518 33.314 27.452 33.8753C28.1351 35.7859 28.8232 37.7016 29.5062 39.6121C29.7732 39.4576 30.0403 39.298 30.3073 39.1435C29.1878 38.232 28.0632 37.3205 26.9436 36.409C26.4609 36.0176 25.8703 36.6098 26.2658 37.0887C27.6934 38.8293 28.9721 40.6472 30.1378 42.5732C30.3587 42.3518 30.5744 42.1355 30.7952 41.914C29.7424 41.3888 28.8129 40.7708 27.9348 39.9778C27.7396 40.2301 27.5445 40.4824 27.3545 40.7347C28.4689 41.5278 29.1776 42.4548 29.65 43.7267C29.8452 43.5311 30.0454 43.3302 30.2406 43.1345C28.967 42.8307 27.9399 42.3518 26.9077 41.5381C26.425 41.1673 25.7368 41.842 26.2247 42.2282Z" fill="white"/>
<path d="M58.0896 41.0437C58.0896 41.0437 59.2964 41.6513 59.4094 41.6822C59.8664 41.8316 59.9846 41.811 60.4416 41.7028C60.7549 41.6307 60.873 41.26 60.7292 40.9973C60.0256 39.6893 59.168 38.5873 58.0793 37.5882C57.6993 37.238 56.9958 37.7067 57.3244 38.1701C58.1461 39.3288 59.1167 40.2455 60.3235 40.9922C60.6727 41.2085 61.1554 40.848 61.0271 40.4463C60.4262 38.5358 59.584 36.7746 58.4594 35.1112C58.2077 35.3069 57.9561 35.5026 57.7045 35.6931C58.8856 37.099 60.0616 38.5049 61.2427 39.9056C61.556 40.2815 62.1774 39.8798 62.0439 39.4369C61.3198 37.0372 60.6008 34.6323 59.8767 32.2325C59.584 32.3561 59.2913 32.4797 58.9986 32.6033C59.8973 34.0246 60.6162 35.4768 61.1914 37.0578C61.4071 37.65 62.2082 37.408 62.1158 36.8003C61.9155 35.4768 61.8641 34.1791 61.936 32.8453C61.6228 32.8865 61.3095 32.9329 60.9911 32.9741C61.0784 33.2882 61.1657 33.6075 61.2479 33.9216C61.4122 34.519 62.3366 34.2667 62.1722 33.6641C62.0849 33.35 61.9976 33.0307 61.9155 32.7166C61.7666 32.181 61.0014 32.3098 60.9706 32.8453C60.8935 34.2718 60.9706 35.6468 61.1811 37.0578C61.4892 36.9702 61.7974 36.8878 62.1055 36.8003C61.5046 35.1524 60.7498 33.6023 59.8151 32.1192C59.5327 31.6712 58.7777 31.9493 58.9369 32.49C59.661 34.8898 60.38 37.2947 61.1041 39.6944C61.3711 39.5399 61.6382 39.3803 61.9052 39.2258C60.7241 37.8199 59.5481 36.4141 58.3669 35.0134C58.0177 34.5962 57.3039 35.1421 57.612 35.5953C58.6904 37.1865 59.507 38.8653 60.0822 40.6986C60.3184 40.5184 60.5546 40.3382 60.7857 40.1528C59.697 39.4833 58.865 38.716 58.1307 37.6809C57.879 37.8766 57.6274 38.0723 57.3758 38.2628C58.4029 39.2052 59.2143 40.2506 59.8767 41.4762C59.9743 41.2394 60.0667 41.0025 60.1643 40.7707C59.2245 40.9922 58.5518 39.4833 57.535 40.127C57.0214 40.4566 56.9444 41.0437 57.2371 41.5226C57.5863 42.0582 58.4183 41.5741 58.0896 41.0437Z" fill="white"/>
<path d="M68.0421 50.8121C69.9319 50.6421 71.7806 50.292 73.6037 49.7461C74.1942 49.571 73.9426 48.6389 73.3469 48.8192C71.6111 49.3393 69.8497 49.6843 68.0421 49.8491C67.4361 49.9057 67.4258 50.8687 68.0421 50.8121Z" fill="white"/>
<path d="M65.4433 54.6291C68.4937 54.5158 71.498 54.1451 74.4816 53.5168C75.0876 53.3881 74.8308 52.4611 74.2248 52.5899C71.3234 53.2027 68.4013 53.558 65.4433 53.6661C64.8271 53.6867 64.8219 54.6497 65.4433 54.6291Z" fill="white"/>
<path d="M14.531 60.5866C13.5655 46.8162 13.3087 33.015 13.7607 19.224C13.4063 19.5794 13.0571 19.9295 12.7028 20.2849C29.8755 19.5639 47.0687 19.5124 64.2466 20.1664C68.4576 20.3261 72.6634 20.5269 76.8693 20.7741C78.6667 20.8771 78.9851 21.1552 79.3497 22.8958C79.5448 23.8279 79.4011 24.9608 79.4267 25.9032C79.4781 27.9065 79.5243 29.9149 79.5757 31.9181C79.7913 40.6057 80.007 49.2933 80.2227 57.9808C80.4795 57.6409 80.7414 57.3011 80.9982 56.9612C59.6042 62.8782 37.1574 64.2944 15.1986 61.0552C13.8685 60.8595 13.2933 62.8988 14.6388 63.0997C36.988 66.4006 59.7788 65.0308 81.5579 59.0056C81.9944 58.882 82.3436 58.4495 82.3334 57.986C82.1023 48.6289 81.866 39.2771 81.6349 29.92C81.5785 27.582 81.5374 25.2441 81.4603 22.9061C81.4244 21.7886 81.5425 20.4239 80.6746 19.5485C79.817 18.6833 78.4818 18.7657 77.3726 18.6936C74.8511 18.5288 72.3245 18.4104 69.803 18.2919C50.7816 17.401 31.7293 17.3753 12.7079 18.1735C12.1225 18.1992 11.6705 18.637 11.65 19.2343C11.1981 33.0304 11.4548 46.8317 12.4203 60.5969C12.5127 61.941 14.6285 61.9513 14.531 60.5866Z" fill="white"/>
<path d="M11.5423 36.9951C22.7785 38.6069 34.102 39.4772 45.4564 39.5081C51.0796 39.5236 56.708 39.3382 62.321 38.9571C68.1086 38.5606 73.9475 37.7469 79.6015 39.4567C80.9059 39.8532 81.4657 37.8087 80.1613 37.4122C75.1132 35.8879 69.9419 36.2587 64.7603 36.6552C58.9984 37.0981 53.2211 37.3504 47.4438 37.3813C35.6221 37.4482 23.8107 36.6243 12.1072 34.9455C10.7771 34.7601 10.202 36.8045 11.5423 36.9951Z" fill="white"/>
<path d="M26.3684 32.6648C26.2811 34.3539 26.1886 36.0378 26.1013 37.727C26.0243 39.1689 25.5878 41.064 25.8959 42.4854C26.2554 44.1539 27.9295 43.7522 29.2288 43.6131C30.7334 43.4484 31.6937 43.3351 31.9762 41.7026C32.5308 38.5252 32.4332 35.0697 32.5154 31.8511C32.5205 31.5833 32.2894 31.3773 32.0378 31.3722C30.0196 31.2898 28.0066 31.2125 25.9884 31.1353C25.3721 31.1095 25.3721 32.0725 25.9884 32.0983C28.0066 32.1755 30.0196 32.2579 32.0378 32.3352C31.8786 32.1755 31.7194 32.0159 31.5602 31.8563C31.514 33.6484 31.4472 35.4405 31.3445 37.2326C31.2932 38.1132 31.3086 39.0453 31.1648 39.9156C31.1904 40.8632 30.9132 41.7283 30.3226 42.5214C29.845 42.5884 29.3725 42.645 28.895 42.6913C26.2092 42.9797 26.9179 40.4924 27.0154 38.6539C27.1233 36.661 27.226 34.668 27.3338 32.6699C27.3646 32.0468 26.4043 32.0519 26.3684 32.6648Z" fill="white"/>
<path d="M58.0381 33.0929C57.4784 35.987 57.1908 38.8863 57.1805 41.8371C57.1805 42.0997 57.4014 42.3108 57.6581 42.316C58.9831 42.3469 62.1105 43.1914 62.7319 41.5126C63.1274 40.4467 62.7576 38.3868 62.7525 37.2384C62.7473 35.4309 62.7422 33.6233 62.7422 31.8209C62.7422 31.548 62.5214 31.3574 62.2646 31.342C60.9448 31.239 59.6918 31.3111 58.3925 31.5428C57.7865 31.651 58.0433 32.5779 58.6493 32.4698C59.8869 32.2483 61.0218 32.202 62.2697 32.2998C62.1105 32.1402 61.9513 31.9805 61.7921 31.8209C61.7973 34.1434 61.8024 36.4659 61.8076 38.7885C61.8076 39.5764 62.1259 40.9616 61.4327 41.4457C60.8986 41.8216 58.3925 41.3736 57.6684 41.353C57.8276 41.5126 57.9868 41.6723 58.146 41.8319C58.1614 38.9738 58.4284 36.1518 58.9728 33.3452C59.0806 32.7427 58.1563 32.4852 58.0381 33.0929Z" fill="white"/>
<path d="M22.0136 19.0751C23.7647 8.2401 36.8034 2.19433 46.7353 2.63206C56.816 3.08009 65.9159 9.89831 69.675 19.209C70.1783 20.4552 72.2221 19.9093 71.7137 18.6477C67.5849 8.41518 57.8431 1.02021 46.7353 0.515536C35.9458 0.0211631 21.8698 6.79816 19.98 18.5138C19.7591 19.8424 21.7979 20.4192 22.0136 19.0751Z" fill="white"/>
<path d="M25.8805 18.216C26.9948 13.8078 30.6358 11.063 34.7185 9.52843C38.9038 7.95776 43.7721 6.85573 48.2502 7.05141C56.0611 7.3913 62.8757 13.0199 65.048 20.4818C65.428 21.7899 67.4667 21.2337 67.0867 19.9205C64.6474 11.5574 57.0008 5.27989 48.2502 4.93486C43.1045 4.73402 37.3889 6.02144 32.69 8.08648C28.5047 9.92493 24.9972 13.1023 23.8469 17.6547C23.5131 18.973 25.5467 19.5395 25.8805 18.216Z" fill="white"/>
</svg>
