<svg width="25" height="23" viewBox="0 0 25 23" fill="none" xmlns="http://www.w3.org/2000/svg">
<path d="M3.95381 2.85048C3.95381 3.44262 3.51294 3.92264 2.96909 3.92264C2.42525 3.92264 1.98438 3.44262 1.98438 2.85048C1.98438 2.25834 2.42525 1.77832 2.96909 1.77832C3.51294 1.77832 3.95381 2.25834 3.95381 2.85048Z" fill="white"/>
<path d="M13.801 2.85048C13.801 3.44262 13.3601 3.92264 12.8163 3.92264C12.2724 3.92264 11.8315 3.44262 11.8315 2.85048C11.8315 2.25834 12.2724 1.77832 12.8163 1.77832C13.3601 1.77832 13.801 2.25834 13.801 2.85048Z" fill="white"/>
<path d="M23.6481 2.85048C23.6481 3.44262 23.2073 3.92264 22.6634 3.92264C22.1196 3.92264 21.6787 3.44262 21.6787 2.85048C21.6787 2.25834 22.1196 1.77832 22.6634 1.77832C23.2073 1.77832 23.6481 2.25834 23.6481 2.85048Z" fill="white"/>
<path d="M3.95381 11.4277C3.95381 12.0199 3.51294 12.4999 2.96909 12.4999C2.42525 12.4999 1.98438 12.0199 1.98438 11.4277C1.98438 10.8356 2.42525 10.3556 2.96909 10.3556C3.51294 10.3556 3.95381 10.8356 3.95381 11.4277Z" fill="white"/>
<path d="M13.801 11.4277C13.801 12.0199 13.3601 12.4999 12.8163 12.4999C12.2724 12.4999 11.8315 12.0199 11.8315 11.4277C11.8315 10.8356 12.2724 10.3556 12.8163 10.3556C13.3601 10.3556 13.801 10.8356 13.801 11.4277Z" fill="white"/>
<path d="M23.6481 11.4277C23.6481 12.0199 23.2073 12.4999 22.6634 12.4999C22.1196 12.4999 21.6787 12.0199 21.6787 11.4277C21.6787 10.8356 22.1196 10.3556 22.6634 10.3556C23.2073 10.3556 23.6481 10.8356 23.6481 11.4277Z" fill="white"/>
<path d="M3.95381 19.9917C3.95381 20.5838 3.51294 21.0639 2.96909 21.0639C2.42525 21.0639 1.98438 20.5838 1.98438 19.9917C1.98438 19.3996 2.42525 18.9196 2.96909 18.9196C3.51294 18.9196 3.95381 19.3996 3.95381 19.9917Z" fill="white"/>
<path d="M13.801 19.9917C13.801 20.5838 13.3601 21.0639 12.8163 21.0639C12.2724 21.0639 11.8315 20.5838 11.8315 19.9917C11.8315 19.3996 12.2724 18.9196 12.8163 18.9196C13.3601 18.9196 13.801 19.3996 13.801 19.9917Z" fill="white"/>
<path d="M23.6481 19.9917C23.6481 20.5838 23.2073 21.0639 22.6634 21.0639C22.1196 21.0639 21.6787 20.5838 21.6787 19.9917C21.6787 19.3996 22.1196 18.9196 22.6634 18.9196C23.2073 18.9196 23.6481 19.3996 23.6481 19.9917Z" fill="white"/>
<path d="M3.95381 2.85048C3.95381 3.44262 3.51294 3.92264 2.96909 3.92264C2.42525 3.92264 1.98438 3.44262 1.98438 2.85048C1.98438 2.25834 2.42525 1.77832 2.96909 1.77832C3.51294 1.77832 3.95381 2.25834 3.95381 2.85048Z" stroke="white" stroke-width="2"/>
<path d="M13.801 2.85048C13.801 3.44262 13.3601 3.92264 12.8163 3.92264C12.2724 3.92264 11.8315 3.44262 11.8315 2.85048C11.8315 2.25834 12.2724 1.77832 12.8163 1.77832C13.3601 1.77832 13.801 2.25834 13.801 2.85048Z" stroke="white" stroke-width="2"/>
<path d="M23.6481 2.85048C23.6481 3.44262 23.2073 3.92264 22.6634 3.92264C22.1196 3.92264 21.6787 3.44262 21.6787 2.85048C21.6787 2.25834 22.1196 1.77832 22.6634 1.77832C23.2073 1.77832 23.6481 2.25834 23.6481 2.85048Z" stroke="white" stroke-width="2"/>
<path d="M3.95381 11.4277C3.95381 12.0199 3.51294 12.4999 2.96909 12.4999C2.42525 12.4999 1.98438 12.0199 1.98438 11.4277C1.98438 10.8356 2.42525 10.3556 2.96909 10.3556C3.51294 10.3556 3.95381 10.8356 3.95381 11.4277Z" stroke="white" stroke-width="2"/>
<path d="M13.801 11.4277C13.801 12.0199 13.3601 12.4999 12.8163 12.4999C12.2724 12.4999 11.8315 12.0199 11.8315 11.4277C11.8315 10.8356 12.2724 10.3556 12.8163 10.3556C13.3601 10.3556 13.801 10.8356 13.801 11.4277Z" stroke="white" stroke-width="2"/>
<path d="M23.6481 11.4277C23.6481 12.0199 23.2073 12.4999 22.6634 12.4999C22.1196 12.4999 21.6787 12.0199 21.6787 11.4277C21.6787 10.8356 22.1196 10.3556 22.6634 10.3556C23.2073 10.3556 23.6481 10.8356 23.6481 11.4277Z" stroke="white" stroke-width="2"/>
<path d="M3.95381 19.9917C3.95381 20.5838 3.51294 21.0639 2.96909 21.0639C2.42525 21.0639 1.98438 20.5838 1.98438 19.9917C1.98438 19.3996 2.42525 18.9196 2.96909 18.9196C3.51294 18.9196 3.95381 19.3996 3.95381 19.9917Z" stroke="white" stroke-width="2"/>
<path d="M13.801 19.9917C13.801 20.5838 13.3601 21.0639 12.8163 21.0639C12.2724 21.0639 11.8315 20.5838 11.8315 19.9917C11.8315 19.3996 12.2724 18.9196 12.8163 18.9196C13.3601 18.9196 13.801 19.3996 13.801 19.9917Z" stroke="white" stroke-width="2"/>
<path d="M23.6481 19.9917C23.6481 20.5838 23.2073 21.0639 22.6634 21.0639C22.1196 21.0639 21.6787 20.5838 21.6787 19.9917C21.6787 19.3996 22.1196 18.9196 22.6634 18.9196C23.2073 18.9196 23.6481 19.3996 23.6481 19.9917Z" stroke="white" stroke-width="2"/>
</svg>
