<svg width="27" height="27" viewBox="0 0 27 27" fill="none" xmlns="http://www.w3.org/2000/svg">
<path fill-rule="evenodd" clip-rule="evenodd" d="M11.7645 14.9766H8.89195C8.09873 14.9766 7.45581 14.3337 7.45581 13.5405C7.45581 12.7473 8.09873 12.1044 8.89195 12.1044H11.7645C11.9629 12.1044 12.1237 11.9436 12.1237 11.7452V8.87258C12.1237 8.07937 12.7666 7.43645 13.5599 7.43645C14.3531 7.43645 14.996 8.07937 14.996 8.87258V11.7452C14.996 11.9436 15.1568 12.1044 15.3552 12.1044H18.2278C19.021 12.1044 19.6639 12.7473 19.6639 13.5405C19.6639 14.3337 19.021 14.9766 18.2278 14.9766H15.3552C15.1568 14.9766 14.996 15.1374 14.996 15.3358V18.2084C14.996 19.0016 14.3531 19.6445 13.5599 19.6445C12.7666 19.6445 12.1237 19.0016 12.1237 18.2084V15.3358C12.1237 15.1374 11.9629 14.9766 11.7645 14.9766Z" fill="#3B58A8"/>
<path d="M13.5599 3.4866C19.1125 3.4866 23.6138 7.98795 23.6138 13.5405C23.6138 19.093 19.1125 23.5943 13.5599 23.5943C8.00743 23.5943 3.50608 19.093 3.50608 13.5405C3.50608 7.98795 8.00743 3.4866 13.5599 3.4866ZM13.5599 0.614004C6.42093 0.614004 0.633545 6.40152 0.633545 13.5404C0.633545 20.6793 6.42106 26.4668 13.5599 26.4668C20.6988 26.4668 26.4863 20.6793 26.4863 13.5404C26.4863 6.40152 20.6988 0.614004 13.5599 0.614004Z" fill="#3B58A8"/>
</svg>
