<svg width="39" height="39" viewBox="0 0 39 39" fill="none" xmlns="http://www.w3.org/2000/svg">
<circle cx="19.6809" cy="19.864" r="19.0135" fill="#AE1F24"/>
<path d="M20.8723 27.9985L20.8723 14.6203L26.7171 20.465C27.1842 20.9321 27.9507 20.9321 28.4178 20.465C28.5288 20.3542 28.6169 20.2226 28.677 20.0777C28.7371 19.9328 28.7681 19.7775 28.7681 19.6206C28.7681 19.4638 28.7371 19.3085 28.677 19.1636C28.6169 19.0187 28.5288 18.8871 28.4178 18.7763L20.525 10.8835C20.4142 10.7724 20.2826 10.6843 20.1377 10.6242C19.9928 10.5641 19.8375 10.5332 19.6806 10.5332C19.5238 10.5332 19.3685 10.5641 19.2236 10.6242C19.0787 10.6843 18.9471 10.7724 18.8363 10.8835L10.9435 18.7763C10.8326 18.8871 10.7446 19.0188 10.6846 19.1637C10.6246 19.3085 10.5937 19.4638 10.5937 19.6206C10.5937 19.7774 10.6246 19.9327 10.6846 20.0776C10.7446 20.2225 10.8326 20.3541 10.9435 20.465C11.0543 20.5759 11.186 20.6638 11.3309 20.7239C11.4757 20.7839 11.631 20.8148 11.7878 20.8148C11.9447 20.8148 12.0999 20.7839 12.2448 20.7239C12.3897 20.6638 12.5213 20.5759 12.6322 20.465L18.477 14.6203L18.477 27.9985C18.477 28.6572 19.0159 29.1962 19.6746 29.1962C20.3334 29.1962 20.8723 28.6572 20.8723 27.9985Z" fill="white"/>
</svg>
