<svg width="141" height="114" viewBox="0 0 141 114" fill="none" xmlns="http://www.w3.org/2000/svg">
<path d="M19.2092 89.2139V75.2139H24.6692C25.8959 75.2139 26.9425 75.4072 27.8092 75.7939C28.6759 76.1805 29.3425 76.7405 29.8092 77.4739C30.2759 78.2072 30.5092 79.0805 30.5092 80.0939C30.5092 81.1072 30.2759 81.9805 29.8092 82.7139C29.3425 83.4339 28.6759 83.9872 27.8092 84.3739C26.9425 84.7605 25.8959 84.9539 24.6692 84.9539H20.3092L21.2092 84.0339V89.2139H19.2092ZM28.5692 89.2139L25.0092 84.1339H27.1492L30.7492 89.2139H28.5692ZM21.2092 84.2339L20.3092 83.2539H24.6092C25.8892 83.2539 26.8559 82.9805 27.5092 82.4339C28.1759 81.8739 28.5092 81.0939 28.5092 80.0939C28.5092 79.0939 28.1759 78.3205 27.5092 77.7739C26.8559 77.2272 25.8892 76.9539 24.6092 76.9539H20.3092L21.2092 75.9539V84.2339ZM38.1804 89.3339C37.0471 89.3339 36.0471 89.1005 35.1804 88.6339C34.3271 88.1672 33.6604 87.5272 33.1804 86.7139C32.7138 85.9005 32.4804 84.9672 32.4804 83.9139C32.4804 82.8605 32.7071 81.9272 33.1604 81.1139C33.6271 80.3005 34.2604 79.6672 35.0604 79.2139C35.8738 78.7472 36.7871 78.5139 37.8004 78.5139C38.8271 78.5139 39.7338 78.7405 40.5204 79.1939C41.3071 79.6472 41.9204 80.2872 42.3604 81.1139C42.8138 81.9272 43.0404 82.8805 43.0404 83.9739C43.0404 84.0539 43.0338 84.1472 43.0204 84.2539C43.0204 84.3605 43.0138 84.4605 43.0004 84.5539H33.9804V83.1739H42.0004L41.2204 83.6539C41.2338 82.9739 41.0938 82.3672 40.8004 81.8339C40.5071 81.3005 40.1004 80.8872 39.5804 80.5939C39.0738 80.2872 38.4804 80.1339 37.8004 80.1339C37.1338 80.1339 36.5404 80.2872 36.0204 80.5939C35.5004 80.8872 35.0938 81.3072 34.8004 81.8539C34.5071 82.3872 34.3604 83.0005 34.3604 83.6939V84.0139C34.3604 84.7205 34.5204 85.3539 34.8404 85.9139C35.1738 86.4605 35.6338 86.8872 36.2204 87.1939C36.8071 87.5005 37.4804 87.6539 38.2404 87.6539C38.8671 87.6539 39.4338 87.5472 39.9404 87.3339C40.4604 87.1205 40.9138 86.8005 41.3004 86.3739L42.3604 87.6139C41.8804 88.1739 41.2804 88.6005 40.5604 88.8939C39.8538 89.1872 39.0604 89.3339 38.1804 89.3339ZM47.7512 89.2139L43.8112 78.6139H45.6312L49.1312 88.2139H48.2712L51.9112 78.6139H53.5312L57.0912 88.2139H56.2512L59.8312 78.6139H61.5512L57.5912 89.2139H55.7512L52.4112 80.4539H52.9712L49.5912 89.2139H47.7512ZM69.7475 89.2139V86.9739L69.6475 86.5539V82.7339C69.6475 81.9205 69.4075 81.2939 68.9275 80.8539C68.4608 80.4005 67.7541 80.1739 66.8075 80.1739C66.1808 80.1739 65.5675 80.2805 64.9675 80.4939C64.3675 80.6939 63.8608 80.9672 63.4475 81.3139L62.6475 79.8739C63.1941 79.4339 63.8475 79.1005 64.6075 78.8739C65.3808 78.6339 66.1875 78.5139 67.0275 78.5139C68.4808 78.5139 69.6008 78.8672 70.3875 79.5739C71.1741 80.2805 71.5675 81.3605 71.5675 82.8139V89.2139H69.7475ZM66.2675 89.3339C65.4808 89.3339 64.7875 89.2005 64.1875 88.9339C63.6008 88.6672 63.1475 88.3005 62.8275 87.8339C62.5075 87.3539 62.3475 86.8139 62.3475 86.2139C62.3475 85.6405 62.4808 85.1205 62.7475 84.6539C63.0275 84.1872 63.4741 83.8139 64.0875 83.5339C64.7141 83.2539 65.5541 83.1139 66.6075 83.1139H69.9675V84.4939H66.6875C65.7275 84.4939 65.0808 84.6539 64.7475 84.9739C64.4141 85.2939 64.2475 85.6805 64.2475 86.1339C64.2475 86.6539 64.4541 87.0739 64.8675 87.3939C65.2808 87.7005 65.8541 87.8539 66.5875 87.8539C67.3075 87.8539 67.9341 87.6939 68.4675 87.3739C69.0141 87.0539 69.4075 86.5872 69.6475 85.9739L70.0275 87.2939C69.7741 87.9205 69.3275 88.4205 68.6875 88.7939C68.0475 89.1539 67.2408 89.3339 66.2675 89.3339ZM75.1206 89.2139V78.6139H76.9606V81.4939L76.7806 80.7739C77.0739 80.0405 77.5673 79.4805 78.2606 79.0939C78.9539 78.7072 79.8073 78.5139 80.8206 78.5139V80.3739C80.7406 80.3605 80.6606 80.3539 80.5806 80.3539C80.5139 80.3539 80.4473 80.3539 80.3806 80.3539C79.3539 80.3539 78.5406 80.6605 77.9406 81.2739C77.3406 81.8872 77.0406 82.7739 77.0406 83.9339V89.2139H75.1206ZM87.4693 89.3339C86.4427 89.3339 85.5227 89.1072 84.7093 88.6539C83.9093 88.2005 83.276 87.5672 82.8093 86.7539C82.3427 85.9405 82.1093 84.9939 82.1093 83.9139C82.1093 82.8339 82.3427 81.8939 82.8093 81.0939C83.276 80.2805 83.9093 79.6472 84.7093 79.1939C85.5227 78.7405 86.4427 78.5139 87.4693 78.5139C88.3627 78.5139 89.1693 78.7139 89.8893 79.1139C90.6093 79.5139 91.1827 80.1139 91.6093 80.9139C92.0493 81.7139 92.2693 82.7139 92.2693 83.9139C92.2693 85.1139 92.056 86.1139 91.6293 86.9139C91.216 87.7139 90.6493 88.3205 89.9293 88.7339C89.2093 89.1339 88.3893 89.3339 87.4693 89.3339ZM87.6293 87.6539C88.296 87.6539 88.896 87.5005 89.4293 87.1939C89.976 86.8872 90.4027 86.4539 90.7093 85.8939C91.0293 85.3205 91.1893 84.6605 91.1893 83.9139C91.1893 83.1539 91.0293 82.5005 90.7093 81.9539C90.4027 81.3939 89.976 80.9605 89.4293 80.6539C88.896 80.3472 88.296 80.1939 87.6293 80.1939C86.9493 80.1939 86.3427 80.3472 85.8093 80.6539C85.276 80.9605 84.8493 81.3939 84.5293 81.9539C84.2093 82.5005 84.0493 83.1539 84.0493 83.9139C84.0493 84.6605 84.2093 85.3205 84.5293 85.8939C84.8493 86.4539 85.276 86.8872 85.8093 87.1939C86.3427 87.5005 86.9493 87.6539 87.6293 87.6539ZM91.2493 89.2139V86.3539L91.3693 83.8939L91.1693 81.4339V74.3739H93.0893V89.2139H91.2493ZM99.7622 89.3339C98.8822 89.3339 98.0422 89.2139 97.2422 88.9739C96.4555 88.7339 95.8355 88.4405 95.3822 88.0939L96.1822 86.5739C96.6355 86.8805 97.1955 87.1405 97.8622 87.3539C98.5288 87.5672 99.2088 87.6739 99.9022 87.6739C100.795 87.6739 101.435 87.5472 101.822 87.2939C102.222 87.0405 102.422 86.6872 102.422 86.2339C102.422 85.9005 102.302 85.6405 102.062 85.4539C101.822 85.2672 101.502 85.1272 101.102 85.0339C100.715 84.9405 100.282 84.8605 99.8022 84.7939C99.3222 84.7139 98.8422 84.6205 98.3622 84.5139C97.8822 84.3939 97.4422 84.2339 97.0422 84.0339C96.6422 83.8205 96.3222 83.5339 96.0822 83.1739C95.8422 82.8005 95.7222 82.3072 95.7222 81.6939C95.7222 81.0539 95.9022 80.4939 96.2622 80.0139C96.6222 79.5339 97.1288 79.1672 97.7822 78.9139C98.4488 78.6472 99.2355 78.5139 100.142 78.5139C100.835 78.5139 101.535 78.6005 102.242 78.7739C102.962 78.9339 103.549 79.1672 104.002 79.4739L103.182 80.9939C102.702 80.6739 102.202 80.4539 101.682 80.3339C101.162 80.2139 100.642 80.1539 100.122 80.1539C99.2822 80.1539 98.6555 80.2939 98.2422 80.5739C97.8288 80.8405 97.6222 81.1872 97.6222 81.6139C97.6222 81.9739 97.7422 82.2539 97.9822 82.4539C98.2355 82.6405 98.5555 82.7872 98.9422 82.8939C99.3422 83.0005 99.7822 83.0939 100.262 83.1739C100.742 83.2405 101.222 83.3339 101.702 83.4539C102.182 83.5605 102.615 83.7139 103.002 83.9139C103.402 84.1139 103.722 84.3939 103.962 84.7539C104.215 85.1139 104.342 85.5939 104.342 86.1939C104.342 86.8339 104.155 87.3872 103.782 87.8539C103.409 88.3205 102.882 88.6872 102.202 88.9539C101.522 89.2072 100.709 89.3339 99.7622 89.3339ZM116.093 89.3739C115.146 89.3739 114.306 89.2205 113.573 88.9139C112.839 88.6072 112.259 88.1805 111.833 87.6339C111.406 87.0872 111.193 86.4539 111.193 85.7339C111.193 85.1072 111.333 84.5339 111.613 84.0139C111.893 83.4939 112.339 82.9939 112.953 82.5139C113.566 82.0205 114.373 81.5139 115.373 80.9939C116.186 80.5672 116.819 80.1939 117.273 79.8739C117.739 79.5539 118.066 79.2539 118.253 78.9739C118.453 78.6805 118.553 78.3672 118.553 78.0339C118.553 77.5805 118.393 77.2139 118.073 76.9339C117.753 76.6405 117.293 76.4939 116.693 76.4939C116.066 76.4939 115.573 76.6539 115.213 76.9739C114.866 77.2805 114.693 77.6872 114.693 78.1939C114.693 78.4472 114.733 78.6939 114.813 78.9339C114.906 79.1605 115.066 79.4205 115.293 79.7139C115.533 79.9939 115.873 80.3539 116.313 80.7939L123.713 88.1539L122.633 89.4339L114.773 81.6139C114.306 81.1472 113.939 80.7339 113.673 80.3739C113.406 80.0005 113.213 79.6405 113.093 79.2939C112.973 78.9472 112.913 78.5939 112.913 78.2339C112.913 77.6072 113.066 77.0605 113.373 76.5939C113.693 76.1139 114.133 75.7472 114.693 75.4939C115.266 75.2272 115.933 75.0939 116.693 75.0939C117.399 75.0939 118.013 75.2139 118.533 75.4539C119.053 75.6805 119.453 76.0139 119.733 76.4539C120.026 76.8805 120.173 77.4005 120.173 78.0139C120.173 78.5472 120.039 79.0405 119.773 79.4939C119.519 79.9472 119.106 80.3872 118.533 80.8139C117.959 81.2405 117.186 81.7005 116.213 82.1939C115.413 82.6072 114.786 82.9939 114.333 83.3539C113.879 83.7005 113.553 84.0472 113.353 84.3939C113.166 84.7405 113.073 85.1205 113.073 85.5339C113.073 85.9739 113.199 86.3672 113.453 86.7139C113.719 87.0472 114.086 87.3072 114.553 87.4939C115.033 87.6805 115.586 87.7739 116.213 87.7739C117.106 87.7739 117.913 87.5805 118.633 87.1939C119.353 86.8072 119.953 86.2272 120.433 85.4539C120.926 84.6805 121.286 83.7205 121.513 82.5739L123.053 83.0739C122.786 84.4205 122.326 85.5605 121.673 86.4939C121.033 87.4272 120.239 88.1405 119.293 88.6339C118.346 89.1272 117.279 89.3739 116.093 89.3739ZM28.2424 109.214V95.2139H33.7024C34.9291 95.2139 35.9757 95.4072 36.8424 95.7939C37.7091 96.1805 38.3757 96.7405 38.8424 97.4739C39.3091 98.2072 39.5424 99.0805 39.5424 100.094C39.5424 101.107 39.3091 101.981 38.8424 102.714C38.3757 103.434 37.7091 103.987 36.8424 104.374C35.9757 104.761 34.9291 104.954 33.7024 104.954H29.3424L30.2424 104.034V109.214H28.2424ZM37.6024 109.214L34.0424 104.134H36.1824L39.7824 109.214H37.6024ZM30.2424 104.234L29.3424 103.254H33.6424C34.9224 103.254 35.8891 102.981 36.5424 102.434C37.2091 101.874 37.5424 101.094 37.5424 100.094C37.5424 99.0939 37.2091 98.3205 36.5424 97.7739C35.8891 97.2272 34.9224 96.9539 33.6424 96.9539H29.3424L30.2424 95.9539V104.234ZM47.2136 109.334C46.0803 109.334 45.0803 109.101 44.2136 108.634C43.3603 108.167 42.6936 107.527 42.2136 106.714C41.747 105.901 41.5136 104.967 41.5136 103.914C41.5136 102.861 41.7403 101.927 42.1936 101.114C42.6603 100.301 43.2936 99.6672 44.0936 99.2139C44.907 98.7472 45.8203 98.5139 46.8336 98.5139C47.8603 98.5139 48.767 98.7405 49.5536 99.1939C50.3403 99.6472 50.9536 100.287 51.3936 101.114C51.847 101.927 52.0736 102.881 52.0736 103.974C52.0736 104.054 52.067 104.147 52.0536 104.254C52.0536 104.361 52.047 104.461 52.0336 104.554H43.0136V103.174H51.0336L50.2536 103.654C50.267 102.974 50.127 102.367 49.8336 101.834C49.5403 101.301 49.1336 100.887 48.6136 100.594C48.107 100.287 47.5136 100.134 46.8336 100.134C46.167 100.134 45.5736 100.287 45.0536 100.594C44.5336 100.887 44.127 101.307 43.8336 101.854C43.5403 102.387 43.3936 103.001 43.3936 103.694V104.014C43.3936 104.721 43.5536 105.354 43.8736 105.914C44.207 106.461 44.667 106.887 45.2536 107.194C45.8403 107.501 46.5136 107.654 47.2736 107.654C47.9003 107.654 48.467 107.547 48.9736 107.334C49.4936 107.121 49.947 106.801 50.3336 106.374L51.3936 107.614C50.9136 108.174 50.3136 108.601 49.5936 108.894C48.887 109.187 48.0936 109.334 47.2136 109.334ZM55.0197 109.214V97.6739C55.0197 96.6339 55.3197 95.8072 55.9197 95.1939C56.5331 94.5672 57.3997 94.2539 58.5197 94.2539C58.9331 94.2539 59.3264 94.3072 59.6997 94.4139C60.0864 94.5072 60.4131 94.6605 60.6797 94.8739L60.0997 96.3339C59.8997 96.1739 59.6731 96.0539 59.4197 95.9739C59.1664 95.8805 58.8997 95.8339 58.6197 95.8339C58.0597 95.8339 57.6331 95.9939 57.3397 96.3139C57.0464 96.6205 56.8997 97.0805 56.8997 97.6939V99.1139L56.9397 99.9939V109.214H55.0197ZM53.2197 100.194V98.6139H59.9797V100.194H53.2197ZM66.3543 109.334C65.2209 109.334 64.2209 109.101 63.3543 108.634C62.5009 108.167 61.8343 107.527 61.3543 106.714C60.8876 105.901 60.6543 104.967 60.6543 103.914C60.6543 102.861 60.8809 101.927 61.3343 101.114C61.8009 100.301 62.4343 99.6672 63.2343 99.2139C64.0476 98.7472 64.9609 98.5139 65.9743 98.5139C67.0009 98.5139 67.9076 98.7405 68.6943 99.1939C69.4809 99.6472 70.0943 100.287 70.5343 101.114C70.9876 101.927 71.2143 102.881 71.2143 103.974C71.2143 104.054 71.2076 104.147 71.1943 104.254C71.1943 104.361 71.1876 104.461 71.1743 104.554H62.1543V103.174H70.1743L69.3943 103.654C69.4076 102.974 69.2676 102.367 68.9743 101.834C68.6809 101.301 68.2743 100.887 67.7543 100.594C67.2476 100.287 66.6543 100.134 65.9743 100.134C65.3076 100.134 64.7143 100.287 64.1943 100.594C63.6743 100.887 63.2676 101.307 62.9743 101.854C62.6809 102.387 62.5343 103.001 62.5343 103.694V104.014C62.5343 104.721 62.6943 105.354 63.0143 105.914C63.3476 106.461 63.8076 106.887 64.3943 107.194C64.9809 107.501 65.6543 107.654 66.4143 107.654C67.0409 107.654 67.6076 107.547 68.1143 107.334C68.6343 107.121 69.0876 106.801 69.4743 106.374L70.5343 107.614C70.0543 108.174 69.4543 108.601 68.7343 108.894C68.0276 109.187 67.2343 109.334 66.3543 109.334ZM73.8804 109.214V98.6139H75.7204V101.494L75.5404 100.774C75.8337 100.041 76.327 99.4805 77.0204 99.0939C77.7137 98.7072 78.567 98.5139 79.5804 98.5139V100.374C79.5004 100.361 79.4204 100.354 79.3404 100.354C79.2737 100.354 79.207 100.354 79.1404 100.354C78.1137 100.354 77.3004 100.661 76.7004 101.274C76.1004 101.887 75.8004 102.774 75.8004 103.934V109.214H73.8804ZM81.9468 109.214V98.6139H83.7868V101.494L83.6068 100.774C83.9001 100.041 84.3934 99.4805 85.0868 99.0939C85.7801 98.7072 86.6334 98.5139 87.6468 98.5139V100.374C87.5668 100.361 87.4868 100.354 87.4068 100.354C87.3401 100.354 87.2734 100.354 87.2068 100.354C86.1801 100.354 85.3668 100.661 84.7668 101.274C84.1668 101.887 83.8668 102.774 83.8668 103.934V109.214H81.9468ZM95.8119 109.214V106.974L95.7119 106.554V102.734C95.7119 101.921 95.4719 101.294 94.9919 100.854C94.5253 100.401 93.8186 100.174 92.8719 100.174C92.2453 100.174 91.6319 100.281 91.0319 100.494C90.4319 100.694 89.9253 100.967 89.5119 101.314L88.7119 99.8739C89.2586 99.4339 89.9119 99.1005 90.6719 98.8739C91.4453 98.6339 92.2519 98.5139 93.0919 98.5139C94.5453 98.5139 95.6653 98.8672 96.4519 99.5739C97.2386 100.281 97.6319 101.361 97.6319 102.814V109.214H95.8119ZM92.3319 109.334C91.5453 109.334 90.8519 109.201 90.2519 108.934C89.6653 108.667 89.2119 108.301 88.8919 107.834C88.5719 107.354 88.4119 106.814 88.4119 106.214C88.4119 105.641 88.5453 105.121 88.8119 104.654C89.0919 104.187 89.5386 103.814 90.1519 103.534C90.7786 103.254 91.6186 103.114 92.6719 103.114H96.0319V104.494H92.7519C91.7919 104.494 91.1453 104.654 90.8119 104.974C90.4786 105.294 90.3119 105.681 90.3119 106.134C90.3119 106.654 90.5186 107.074 90.9319 107.394C91.3453 107.701 91.9186 107.854 92.6519 107.854C93.3719 107.854 93.9986 107.694 94.5319 107.374C95.0786 107.054 95.4719 106.587 95.7119 105.974L96.0919 107.294C95.8386 107.921 95.3919 108.421 94.7519 108.794C94.1119 109.154 93.3053 109.334 92.3319 109.334ZM101.185 109.214V94.3739H103.105V109.214H101.185ZM109.811 109.334C108.931 109.334 108.091 109.214 107.291 108.974C106.504 108.734 105.884 108.441 105.431 108.094L106.231 106.574C106.684 106.881 107.244 107.141 107.911 107.354C108.578 107.567 109.258 107.674 109.951 107.674C110.844 107.674 111.484 107.547 111.871 107.294C112.271 107.041 112.471 106.687 112.471 106.234C112.471 105.901 112.351 105.641 112.111 105.454C111.871 105.267 111.551 105.127 111.151 105.034C110.764 104.941 110.331 104.861 109.851 104.794C109.371 104.714 108.891 104.621 108.411 104.514C107.931 104.394 107.491 104.234 107.091 104.034C106.691 103.821 106.371 103.534 106.131 103.174C105.891 102.801 105.771 102.307 105.771 101.694C105.771 101.054 105.951 100.494 106.311 100.014C106.671 99.5339 107.178 99.1672 107.831 98.9139C108.498 98.6472 109.284 98.5139 110.191 98.5139C110.884 98.5139 111.584 98.6005 112.291 98.7739C113.011 98.9339 113.598 99.1672 114.051 99.4739L113.231 100.994C112.751 100.674 112.251 100.454 111.731 100.334C111.211 100.214 110.691 100.154 110.171 100.154C109.331 100.154 108.704 100.294 108.291 100.574C107.878 100.841 107.671 101.187 107.671 101.614C107.671 101.974 107.791 102.254 108.031 102.454C108.284 102.641 108.604 102.787 108.991 102.894C109.391 103.001 109.831 103.094 110.311 103.174C110.791 103.241 111.271 103.334 111.751 103.454C112.231 103.561 112.664 103.714 113.051 103.914C113.451 104.114 113.771 104.394 114.011 104.754C114.264 105.114 114.391 105.594 114.391 106.194C114.391 106.834 114.204 107.387 113.831 107.854C113.458 108.321 112.931 108.687 112.251 108.954C111.571 109.207 110.758 109.334 109.811 109.334Z" fill="white"/>
<path d="M54.1018 28.4164C54.9345 27.7353 55.7942 27.0864 56.6864 26.4857C57.1189 26.1907 58.7465 24.8177 59.2818 25.0162C59.1574 24.8553 59.033 24.6944 58.9086 24.5335C58.9032 24.5817 58.8979 24.6246 58.8925 24.6729C58.8222 25.3111 59.8333 25.3111 59.9036 24.6729C59.909 24.6246 59.9143 24.5817 59.9197 24.5335C59.9468 24.3029 59.7413 24.1259 59.5467 24.0508C58.6005 23.6915 57.4109 24.807 56.6701 25.2897C55.5292 26.0352 54.4425 26.8504 53.3881 27.7085C52.8852 28.1215 53.6043 28.824 54.1018 28.4164Z" fill="white"/>
<path d="M53.8044 31.7582C54.9291 30.2672 56.3565 29.0873 58.0219 28.2292C58.6004 27.9289 58.0868 27.0654 57.5137 27.3657C55.6915 28.3097 54.1667 29.6236 52.9339 31.2541C52.5446 31.7743 53.4205 32.273 53.8044 31.7582Z" fill="white"/>
<path d="M54.0805 33.2225C55.0267 32.0963 56.1568 31.206 57.4707 30.5463C58.0493 30.2567 57.541 29.3878 56.9624 29.6828C55.5782 30.3747 54.3617 31.3347 53.3668 32.5146C52.9504 33.008 53.6642 33.7213 54.0805 33.2225Z" fill="white"/>
<path d="M69.2903 41.2823C70.6096 40.0488 72.1452 39.1746 73.8862 38.6758C74.508 38.4988 74.2431 37.5281 73.6159 37.7104C71.7126 38.2575 70.0148 39.2229 68.5711 40.5744C68.1061 41.0195 68.8199 41.7275 69.2903 41.2823Z" fill="white"/>
<path d="M70.4147 42.7858C71.5502 41.9653 72.6802 41.1447 73.8157 40.3295C74.3348 39.954 73.8319 39.0798 73.3074 39.466C72.172 40.2866 71.0419 41.1071 69.9065 41.9223C69.3874 42.2978 69.8902 43.1666 70.4147 42.7858Z" fill="white"/>
<path d="M70.9012 44.6906C71.8259 43.7467 72.8748 42.9851 74.059 42.3952C74.643 42.1056 74.1293 41.2421 73.5508 41.5317C72.2963 42.1592 71.1662 42.9798 70.1875 43.9827C69.7333 44.4439 70.447 45.1519 70.9012 44.6906Z" fill="white"/>
<path d="M70.9876 46.5995C71.5445 45.618 72.4204 44.9047 73.5073 44.5722C74.1291 44.3845 73.8642 43.4137 73.2369 43.6068C71.9014 44.0144 70.7983 44.8832 70.1116 46.0953C69.798 46.6585 70.6686 47.1626 70.9876 46.5995Z" fill="white"/>
<path d="M71.6694 50.068C72.5507 49.049 73.5455 48.1587 74.6702 47.4025C75.2055 47.0432 74.7027 46.1743 74.162 46.539C72.9724 47.3435 71.8964 48.2767 70.961 49.3601C70.5339 49.8481 71.2422 50.5614 71.6694 50.068Z" fill="white"/>
<path d="M99.8445 1.48247C99.0227 4.29278 97.5736 6.65796 95.4433 8.67988C95.1297 8.97486 95.3621 9.54872 95.8001 9.53799C98.7252 9.44682 100.012 11.8871 101.099 14.1235C101.277 14.4936 101.959 14.4239 102.023 14.0055C102.402 11.5921 103.083 9.39319 104.165 7.18891C104.284 6.94757 104.235 6.64723 103.981 6.50242C101.861 5.28498 100.937 3.10752 101.564 0.75307C101.732 0.130939 100.753 -0.137221 100.591 0.48491C100.072 2.43712 100.407 4.48586 101.775 6.04655C102.835 7.25863 103.056 6.80276 102.472 8.45999C101.85 10.2138 101.342 11.8924 101.05 13.7374C101.358 13.6998 101.667 13.6569 101.975 13.6194C100.693 10.9861 99.0821 8.43317 95.8001 8.54043C95.919 8.82468 96.038 9.10894 96.157 9.39855C98.4117 7.25863 99.9526 4.73256 100.818 1.76135C100.996 1.12849 100.023 0.865698 99.8445 1.48247Z" fill="white"/>
<path d="M32.7444 26.9799C32.2795 29.4685 31.1981 31.5226 29.3868 33.3085C29.1164 33.5767 29.2462 34.0433 29.6085 34.1452C31.6144 34.7029 31.8523 36.6766 32.0145 38.4143C32.0686 38.9774 32.8094 39.0954 33.0094 38.5484C33.6529 36.7517 35.3073 33.9628 35.1884 32.0482C35.1559 31.5708 35.064 31.4207 34.8099 30.9594C33.9124 29.3236 33.1554 28.192 33.4257 26.213C33.5122 25.5748 32.5011 25.5801 32.4146 26.213C32.1335 28.3207 32.8364 29.3719 33.6745 31.1471C34.6315 33.1691 32.7391 36.3065 32.0308 38.2802C32.3606 38.3231 32.6904 38.3714 33.0256 38.4143C32.8202 36.1617 32.3498 33.8663 29.8788 33.1798C29.9545 33.4587 30.0248 33.7376 30.1005 34.0165C32.0254 32.1232 33.2257 29.8921 33.7177 27.2427C33.8367 26.6152 32.8634 26.3471 32.7444 26.9799Z" fill="white"/>
<path d="M106.36 20.4745C105.582 21.7242 105.009 23.006 104.603 24.4165C104.538 24.6471 104.652 24.8509 104.836 24.985C106.247 25.9879 107.209 27.2751 107.771 28.9055C107.907 29.2917 108.474 29.4257 108.696 29.0235C109.734 27.1249 110.767 25.2317 111.805 23.3331C111.962 23.0489 111.827 22.6896 111.502 22.5984C109.61 22.0567 108.274 20.8607 107.496 19.0747C107.236 18.4848 106.366 18.9943 106.625 19.5789C107.507 21.5955 109.107 22.9577 111.232 23.5638C111.129 23.317 111.032 23.0703 110.929 22.829C109.891 24.7276 108.858 26.6208 107.82 28.5194C108.128 28.5569 108.437 28.5998 108.745 28.6374C108.301 27.3609 107.653 26.1917 106.696 25.221C106.295 24.8134 105.879 24.6418 105.744 24.1108C105.56 23.3707 106.809 21.6598 107.231 20.9841C107.577 20.4316 106.701 19.9275 106.36 20.4745Z" fill="white"/>
<path d="M45.1374 37.6291C46.4999 34.9582 47.8625 32.2927 49.2305 29.6218C49.955 28.2113 50.6741 26.7954 51.3986 25.3849C52.0961 24.0173 52.5287 22.3225 53.9453 21.6628C55.3944 20.9871 57.4057 21.2874 58.99 21.2767C60.4012 21.266 61.8124 21.2606 63.229 21.2606C66.4083 21.2552 69.5822 21.2713 72.7615 21.3089C75.7623 21.3464 78.7632 21.4 81.7641 21.4698C83.3537 21.5073 84.9434 21.5288 86.5276 21.5985C88.42 21.6789 89.3068 21.8559 90.4476 23.4273C92.1022 25.712 93.4106 28.2328 95.1246 30.496C96.698 32.577 98.3959 34.5613 100.186 36.4653C100.186 35.9451 100.186 35.4248 100.186 34.9046C90.4368 43.6627 81.2125 52.9625 72.5506 62.7825C73.0751 62.7825 73.5996 62.7825 74.124 62.7825C68.8523 57.7304 63.5859 52.6729 58.3141 47.6207C54.0102 43.4964 49.8468 38.6052 44.1046 36.4814C42.7637 35.988 42.1798 38.1171 43.5153 38.6106C49.3818 40.7773 53.8588 46.414 58.2492 50.6241C63.0182 55.199 67.7871 59.7684 72.5506 64.3432C72.9615 64.7347 73.7239 64.7991 74.124 64.3432C82.786 54.5232 92.0102 45.218 101.759 36.4653C102.213 36.0577 102.154 35.3229 101.759 34.9046C99.4502 32.4482 97.3037 29.8578 95.3896 27.0904C93.946 25.0041 92.7348 21.5395 90.5503 20.1236C88.5173 18.8042 85.1163 19.3459 82.8238 19.2869C79.12 19.1958 75.4109 19.126 71.7017 19.0885C68.171 19.0509 64.6403 19.0402 61.1095 19.0563C59.3469 19.0617 57.5788 19.0617 55.8107 19.0992C54.7239 19.1207 53.4208 19.008 52.4368 19.598C50.3226 20.8691 49.3224 24.5751 48.2734 26.6292C46.5865 29.9275 44.9048 33.2259 43.2179 36.5189C42.5745 37.7793 44.4939 38.8948 45.1374 37.6291Z" fill="white"/>
<path d="M49.2467 36.5558C56.4109 36.1857 63.5805 35.9819 70.7556 35.9712C74.1619 35.9658 77.5683 36.0034 80.9747 36.0838C81.8885 36.1053 92.3672 36.706 92.4104 36.5236C92.2644 37.1511 93.2376 37.4193 93.3836 36.7918C93.4053 36.7006 93.4269 36.6094 93.4485 36.5129C93.4864 36.3413 93.4539 36.1482 93.3188 36.0248C92.6591 35.4295 92.0968 35.4885 91.1884 35.4402C89.3987 35.3491 87.6036 35.2793 85.8139 35.2203C81.6938 35.0755 77.5683 34.9951 73.4428 34.9736C65.3756 34.9307 57.3085 35.1345 49.2467 35.5529C48.5979 35.585 48.5979 36.588 49.2467 36.5558Z" fill="white"/>
<path d="M64.6672 24.0858C65.1052 24.6168 62.737 28.3925 62.4612 28.9127C61.7313 30.3179 61.0013 31.7284 60.2659 33.1336C59.9686 33.7074 60.8391 34.2169 61.1365 33.6377C62.3152 31.3637 63.4993 29.0897 64.678 26.8157C65.2458 25.7216 66.2948 24.4881 65.3756 23.3725C64.97 22.8737 64.2617 23.587 64.6672 24.0858Z" fill="white"/>
<path d="M80.1419 25.0454C81.3855 27.7592 82.8832 30.3228 84.6459 32.7416C85.0244 33.2619 85.9003 32.7577 85.5164 32.2375C83.7537 29.8187 82.256 27.2551 81.0124 24.5413C80.7474 23.9513 79.8769 24.4608 80.1419 25.0454Z" fill="white"/>
<path d="M61.4018 36.7588C64.4513 42.6691 67.5008 48.574 70.5504 54.4842C70.8477 55.0581 71.7183 54.5539 71.4209 53.9801C68.3713 48.0698 65.3219 42.1649 62.2723 36.2547C61.9804 35.6808 61.1098 36.1849 61.4018 36.7588Z" fill="white"/>
<path d="M83.3159 38.3423C80.2448 41.5388 77.7197 45.1321 75.7678 49.1009C75.4813 49.6801 76.3572 50.1896 76.6383 49.6051C78.5524 45.7114 81.0126 42.1877 84.0243 39.0449C84.4785 38.5836 83.7647 37.8703 83.3159 38.3423Z" fill="white"/>
</svg>
