<svg width="20" height="20" viewBox="0 0 20 20" fill="none" xmlns="http://www.w3.org/2000/svg">
<path opacity="0.4" d="M9.76603 2.09245C14.1321 2.09245 17.6827 5.64386 17.6827 10.0091C17.6827 14.3744 14.1321 17.9258 9.76603 17.9258C5.40078 17.9258 1.84937 14.3744 1.84937 10.0091C1.84937 5.64386 5.40078 2.09245 9.76603 2.09245Z" fill="#3B58A8"/>
<path d="M8.62402 6.66772C8.77523 6.66772 8.92723 6.72551 9.04281 6.84109L11.8034 9.58818C11.915 9.6998 11.9775 9.85101 11.9775 10.0093C11.9775 10.1669 11.915 10.3181 11.8034 10.4297L9.04281 13.1784C8.81085 13.4096 8.4356 13.4096 8.20364 13.1768C7.97248 12.9441 7.97327 12.568 8.20523 12.3368L10.543 10.0093L8.20523 7.68184C7.97327 7.45068 7.97248 7.07543 8.20364 6.84268C8.31923 6.72551 8.47202 6.66772 8.62402 6.66772Z" fill="#3B58A8"/>
</svg>
