<svg width="25" height="19" viewBox="0 0 25 19" fill="none" xmlns="http://www.w3.org/2000/svg">
<path d="M10.1056 9.52217C10.1056 8.19668 11.1747 7.12217 12.4934 7.12217C13.8121 7.12217 14.8811 8.19668 14.8811 9.52217C14.8811 10.8477 13.8121 11.9222 12.4934 11.9222C11.1747 11.9222 10.1056 10.8477 10.1056 9.52217Z" fill="#99A8D2"/>
<path fill-rule="evenodd" clip-rule="evenodd" d="M23.6361 9.52214C24.375 9.22505 24.3749 9.22471 24.3748 9.22433L24.3735 9.22108L24.3707 9.21419L24.3615 9.19186C24.3538 9.17323 24.3429 9.14719 24.3287 9.11424C24.3002 9.04833 24.2587 8.95469 24.2036 8.83728C24.0936 8.60258 23.929 8.27211 23.7067 7.87776C23.263 7.09064 22.5839 6.04017 21.6409 4.987C19.7538 2.8794 16.7689 0.722168 12.4933 0.722168C8.21764 0.722168 5.23275 2.8794 3.34561 4.987C2.4026 6.04017 1.7236 7.09064 1.27985 7.87776C1.05752 8.27211 0.893006 8.60258 0.782927 8.83728C0.727858 8.9547 0.686323 9.04834 0.657911 9.11424C0.643703 9.1472 0.632768 9.17324 0.625055 9.19187L0.615894 9.2142L0.613112 9.22108L0.612168 9.22344C0.612019 9.22381 0.611522 9.22506 1.35051 9.52217L0.611522 9.22506L0.493286 9.52217L0.611522 9.81928L1.35051 9.52217C0.611522 9.81928 0.611373 9.8189 0.611522 9.81928L0.612168 9.8209L0.613112 9.82325L0.615894 9.83014L0.625055 9.85247C0.632768 9.8711 0.643703 9.89714 0.657911 9.93009C0.686323 9.996 0.727858 10.0896 0.782927 10.2071C0.893006 10.4418 1.05752 10.7722 1.27985 11.1666C1.7236 11.9537 2.4026 13.0042 3.34561 14.0573C5.23275 16.1649 8.21764 18.3222 12.4933 18.3222C16.7689 18.3222 19.7538 16.1649 21.6409 14.0573C22.5839 13.0042 23.263 11.9537 23.7067 11.1666C23.929 10.7722 24.0936 10.4418 24.2036 10.2071C24.2587 10.0896 24.3002 9.996 24.3287 9.9301C24.3429 9.89714 24.3538 9.8711 24.3615 9.85247L24.3707 9.83014L24.3735 9.82325L24.3744 9.8209C24.3746 9.82053 24.375 9.81922 23.6361 9.52214L24.375 9.81928L24.4933 9.52217L24.3748 9.22433L23.6361 9.52214ZM12.4934 5.52217C10.2955 5.52217 8.51381 7.31303 8.51381 9.52217C8.51381 11.7313 10.2955 13.5222 12.4934 13.5222C14.6912 13.5222 16.4729 11.7313 16.4729 9.52217C16.4729 7.31303 14.6912 5.52217 12.4934 5.52217Z" fill="#99A8D2"/>
</svg>
