<svg width="15" height="16" viewBox="0 0 15 16" fill="none" xmlns="http://www.w3.org/2000/svg">
<path fill-rule="evenodd" clip-rule="evenodd" d="M7.26723 0.811035C3.4462 0.811035 0.348633 3.84019 0.348633 7.57683C0.348633 11.3135 3.4462 14.3426 7.26723 14.3426C8.90146 14.3426 10.4034 13.7885 11.5872 12.862L13.836 15.0554L13.8958 15.1058C14.1046 15.2569 14.4006 15.2397 14.5895 15.0545C14.7973 14.8507 14.7969 14.5208 14.5885 14.3176L12.3662 12.1499C13.4961 10.9457 14.1858 9.34004 14.1858 7.57683C14.1858 3.84019 11.0883 0.811035 7.26723 0.811035ZM7.26725 1.85326C10.4997 1.85326 13.1202 4.41584 13.1202 7.57694C13.1202 10.738 10.4997 13.3006 7.26725 13.3006C4.03475 13.3006 1.4143 10.738 1.4143 7.57694C1.4143 4.41584 4.03475 1.85326 7.26725 1.85326Z" fill="#3B58A8"/>
</svg>
