<svg width="25" height="25" viewBox="0 0 25 25" fill="none" xmlns="http://www.w3.org/2000/svg">
<path fill-rule="evenodd" clip-rule="evenodd" d="M12.4121 22.543C17.935 22.543 22.4121 18.0658 22.4121 12.543C22.4121 7.02012 17.935 2.54297 12.4121 2.54297C6.88926 2.54297 2.41211 7.02012 2.41211 12.543C2.41211 18.0658 6.88926 22.543 12.4121 22.543ZM15.627 18.4613C15.6954 18.5139 15.7775 18.542 15.8617 18.5417C15.9252 18.5416 15.9877 18.5253 16.0441 18.4941C16.1006 18.463 16.1493 18.418 16.1862 18.3627C16.2232 18.3075 16.2473 18.2436 16.2567 18.1763C16.266 18.1091 16.2603 18.0405 16.24 17.976L14.9867 13.9981L18.2382 11.6119C18.3086 11.5601 18.3618 11.4856 18.3899 11.3991C18.418 11.3127 18.4195 11.2189 18.3942 11.1315C18.3689 11.0441 18.3181 10.9676 18.2493 10.9133C18.1805 10.859 18.0973 10.8298 18.0119 10.8298H14.0021L12.792 6.83932C12.7659 6.75319 12.7151 6.67813 12.6467 6.62489C12.5784 6.57165 12.496 6.54297 12.4115 6.54297C12.327 6.54297 12.2446 6.57165 12.1763 6.62489C12.1079 6.67813 12.057 6.75319 12.031 6.83932L10.8209 10.8285H6.81109C6.72575 10.8287 6.64272 10.8582 6.57413 10.9126C6.50555 10.967 6.45499 11.0434 6.42986 11.1308C6.40472 11.2181 6.40632 11.3118 6.43443 11.3981C6.46253 11.4844 6.51567 11.5589 6.58607 11.6105L9.8363 13.9981L8.58221 17.9771C8.55501 18.0632 8.55408 18.1564 8.57956 18.2431C8.60503 18.3298 8.65559 18.4056 8.72392 18.4595C8.79225 18.5134 8.87482 18.5426 8.95968 18.543C9.04455 18.5433 9.12731 18.5147 9.19601 18.4613L12.4115 15.9642L15.627 18.4613Z" fill="#3B58A8"/>
</svg>
