<svg width="117" height="124" viewBox="0 0 117 124" fill="none" xmlns="http://www.w3.org/2000/svg">
<path d="M20.4586 99.0401C19.3786 99.0401 18.3853 98.8668 17.4786 98.5201C16.572 98.1601 15.7853 97.6601 15.1186 97.0201C14.452 96.3668 13.932 95.6068 13.5586 94.7401C13.1853 93.8735 12.9986 92.9201 12.9986 91.8801C12.9986 90.8401 13.1853 89.8868 13.5586 89.0201C13.932 88.1535 14.452 87.4001 15.1186 86.7601C15.7986 86.1068 16.592 85.6068 17.4986 85.2601C18.4053 84.9001 19.4053 84.7201 20.4986 84.7201C21.6053 84.7201 22.6186 84.9001 23.5386 85.2601C24.4586 85.6201 25.2386 86.1601 25.8786 86.8801L24.6386 88.1201C24.0653 87.5601 23.4386 87.1535 22.7586 86.9001C22.092 86.6335 21.3653 86.5001 20.5786 86.5001C19.7786 86.5001 19.032 86.6335 18.3386 86.9001C17.6586 87.1668 17.0653 87.5401 16.5586 88.0201C16.0653 88.5001 15.6786 89.0735 15.3986 89.7401C15.132 90.3935 14.9986 91.1068 14.9986 91.8801C14.9986 92.6401 15.132 93.3535 15.3986 94.0201C15.6786 94.6735 16.0653 95.2468 16.5586 95.7401C17.0653 96.2201 17.6586 96.5935 18.3386 96.8601C19.0186 97.1268 19.7586 97.2601 20.5586 97.2601C21.3053 97.2601 22.0186 97.1468 22.6986 96.9201C23.392 96.6801 24.032 96.2868 24.6186 95.7401L25.7586 97.2601C25.0653 97.8468 24.252 98.2935 23.3186 98.6001C22.3986 98.8935 21.4453 99.0401 20.4586 99.0401ZM23.8386 97.0001V91.8001H25.7586V97.2601L23.8386 97.0001ZM34.0279 99.0001C32.8945 99.0001 31.8945 98.7668 31.0279 98.3001C30.1745 97.8335 29.5079 97.1935 29.0279 96.3801C28.5612 95.5668 28.3279 94.6335 28.3279 93.5801C28.3279 92.5268 28.5545 91.5935 29.0079 90.7801C29.4745 89.9668 30.1079 89.3335 30.9079 88.8801C31.7212 88.4135 32.6345 88.1801 33.6479 88.1801C34.6745 88.1801 35.5812 88.4068 36.3679 88.8601C37.1545 89.3135 37.7679 89.9535 38.2079 90.7801C38.6612 91.5935 38.8879 92.5468 38.8879 93.6401C38.8879 93.7201 38.8812 93.8135 38.8679 93.9201C38.8679 94.0268 38.8612 94.1268 38.8479 94.2201H29.8279V92.8401H37.8479L37.0679 93.3201C37.0812 92.6401 36.9412 92.0335 36.6479 91.5001C36.3545 90.9668 35.9479 90.5535 35.4279 90.2601C34.9212 89.9535 34.3279 89.8001 33.6479 89.8001C32.9812 89.8001 32.3879 89.9535 31.8679 90.2601C31.3479 90.5535 30.9412 90.9735 30.6479 91.5201C30.3545 92.0535 30.2079 92.6668 30.2079 93.3601V93.6801C30.2079 94.3868 30.3679 95.0201 30.6879 95.5801C31.0212 96.1268 31.4812 96.5535 32.0679 96.8601C32.6545 97.1668 33.3279 97.3201 34.0879 97.3201C34.7145 97.3201 35.2812 97.2135 35.7879 97.0001C36.3079 96.7868 36.7612 96.4668 37.1479 96.0401L38.2079 97.2801C37.7279 97.8401 37.1279 98.2668 36.4079 98.5601C35.7012 98.8535 34.9079 99.0001 34.0279 99.0001ZM47.214 88.1801C48.0806 88.1801 48.8406 88.3468 49.494 88.6801C50.1606 89.0135 50.6806 89.5201 51.054 90.2001C51.4273 90.8801 51.614 91.7401 51.614 92.7801V98.8801H49.694V93.0001C49.694 91.9735 49.4406 91.2001 48.934 90.6801C48.4406 90.1601 47.7406 89.9001 46.834 89.9001C46.154 89.9001 45.5606 90.0335 45.054 90.3001C44.5473 90.5668 44.154 90.9601 43.874 91.4801C43.6073 92.0001 43.474 92.6468 43.474 93.4201V98.8801H41.554V88.2801H43.394V91.1401L43.094 90.3801C43.4406 89.6868 43.974 89.1468 44.694 88.7601C45.414 88.3735 46.254 88.1801 47.214 88.1801ZM59.8872 99.0001C58.7539 99.0001 57.7539 98.7668 56.8872 98.3001C56.0339 97.8335 55.3672 97.1935 54.8872 96.3801C54.4206 95.5668 54.1872 94.6335 54.1872 93.5801C54.1872 92.5268 54.4139 91.5935 54.8672 90.7801C55.3339 89.9668 55.9672 89.3335 56.7672 88.8801C57.5806 88.4135 58.4939 88.1801 59.5072 88.1801C60.5339 88.1801 61.4406 88.4068 62.2272 88.8601C63.0139 89.3135 63.6272 89.9535 64.0672 90.7801C64.5206 91.5935 64.7472 92.5468 64.7472 93.6401C64.7472 93.7201 64.7406 93.8135 64.7272 93.9201C64.7272 94.0268 64.7206 94.1268 64.7072 94.2201H55.6872V92.8401H63.7072L62.9272 93.3201C62.9406 92.6401 62.8006 92.0335 62.5072 91.5001C62.2139 90.9668 61.8072 90.5535 61.2872 90.2601C60.7806 89.9535 60.1872 89.8001 59.5072 89.8001C58.8406 89.8001 58.2472 89.9535 57.7272 90.2601C57.2072 90.5535 56.8006 90.9735 56.5072 91.5201C56.2139 92.0535 56.0672 92.6668 56.0672 93.3601V93.6801C56.0672 94.3868 56.2272 95.0201 56.5472 95.5801C56.8806 96.1268 57.3406 96.5535 57.9272 96.8601C58.5139 97.1668 59.1872 97.3201 59.9472 97.3201C60.5739 97.3201 61.1406 97.2135 61.6472 97.0001C62.1672 96.7868 62.6206 96.4668 63.0072 96.0401L64.0672 97.2801C63.5872 97.8401 62.9872 98.2668 62.2672 98.5601C61.5606 98.8535 60.7672 99.0001 59.8872 99.0001ZM67.4133 98.8801V88.2801H69.2533V91.1601L69.0733 90.4401C69.3667 89.7068 69.86 89.1468 70.5533 88.7601C71.2467 88.3735 72.1 88.1801 73.1133 88.1801V90.0401C73.0333 90.0268 72.9533 90.0201 72.8733 90.0201C72.8067 90.0201 72.74 90.0201 72.6733 90.0201C71.6467 90.0201 70.8333 90.3268 70.2333 90.9401C69.6333 91.5535 69.3333 92.4401 69.3333 93.6001V98.8801H67.4133ZM81.2785 98.8801V96.6401L81.1785 96.2201V92.4001C81.1785 91.5868 80.9385 90.9601 80.4585 90.5201C79.9918 90.0668 79.2852 89.8401 78.3385 89.8401C77.7118 89.8401 77.0985 89.9468 76.4985 90.1601C75.8985 90.3601 75.3918 90.6335 74.9785 90.9801L74.1785 89.5401C74.7252 89.1001 75.3785 88.7668 76.1385 88.5401C76.9118 88.3001 77.7185 88.1801 78.5585 88.1801C80.0118 88.1801 81.1318 88.5335 81.9185 89.2401C82.7052 89.9468 83.0985 91.0268 83.0985 92.4801V98.8801H81.2785ZM77.7985 99.0001C77.0118 99.0001 76.3185 98.8668 75.7185 98.6001C75.1318 98.3335 74.6785 97.9668 74.3585 97.5001C74.0385 97.0201 73.8785 96.4801 73.8785 95.8801C73.8785 95.3068 74.0118 94.7868 74.2785 94.3201C74.5585 93.8535 75.0052 93.4801 75.6185 93.2001C76.2452 92.9201 77.0852 92.7801 78.1385 92.7801H81.4985V94.1601H78.2185C77.2585 94.1601 76.6118 94.3201 76.2785 94.6401C75.9452 94.9601 75.7785 95.3468 75.7785 95.8001C75.7785 96.3201 75.9852 96.7401 76.3985 97.0601C76.8118 97.3668 77.3852 97.5201 78.1185 97.5201C78.8385 97.5201 79.4652 97.3601 79.9985 97.0401C80.5452 96.7201 80.9385 96.2535 81.1785 95.6401L81.5585 96.9601C81.3052 97.5868 80.8585 98.0868 80.2185 98.4601C79.5785 98.8201 78.7718 99.0001 77.7985 99.0001ZM90.2916 99.0001C89.225 99.0001 88.3983 98.7135 87.8116 98.1401C87.225 97.5668 86.9316 96.7468 86.9316 95.6801V85.9601H88.8516V95.6001C88.8516 96.1735 88.9916 96.6135 89.2716 96.9201C89.565 97.2268 89.9783 97.3801 90.5116 97.3801C91.1116 97.3801 91.6116 97.2135 92.0116 96.8801L92.6116 98.2601C92.3183 98.5135 91.965 98.7001 91.5516 98.8201C91.1516 98.9401 90.7316 99.0001 90.2916 99.0001ZM85.1316 89.8601V88.2801H91.8916V89.8601H85.1316ZM99.3013 99.0001C98.168 99.0001 97.168 98.7668 96.3013 98.3001C95.448 97.8335 94.7813 97.1935 94.3013 96.3801C93.8346 95.5668 93.6013 94.6335 93.6013 93.5801C93.6013 92.5268 93.828 91.5935 94.2813 90.7801C94.748 89.9668 95.3813 89.3335 96.1813 88.8801C96.9946 88.4135 97.908 88.1801 98.9213 88.1801C99.948 88.1801 100.855 88.4068 101.641 88.8601C102.428 89.3135 103.041 89.9535 103.481 90.7801C103.935 91.5935 104.161 92.5468 104.161 93.6401C104.161 93.7201 104.155 93.8135 104.141 93.9201C104.141 94.0268 104.135 94.1268 104.121 94.2201H95.1013V92.8401H103.121L102.341 93.3201C102.355 92.6401 102.215 92.0335 101.921 91.5001C101.628 90.9668 101.221 90.5535 100.701 90.2601C100.195 89.9535 99.6013 89.8001 98.9213 89.8001C98.2546 89.8001 97.6613 89.9535 97.1413 90.2601C96.6213 90.5535 96.2146 90.9735 95.9213 91.5201C95.628 92.0535 95.4813 92.6668 95.4813 93.3601V93.6801C95.4813 94.3868 95.6413 95.0201 95.9613 95.5801C96.2946 96.1268 96.7546 96.5535 97.3413 96.8601C97.928 97.1668 98.6013 97.3201 99.3613 97.3201C99.988 97.3201 100.555 97.2135 101.061 97.0001C101.581 96.7868 102.035 96.4668 102.421 96.0401L103.481 97.2801C103.001 97.8401 102.401 98.2668 101.681 98.5601C100.975 98.8535 100.181 99.0001 99.3013 99.0001ZM10.6503 119.04C9.58362 119.04 8.56362 118.88 7.59029 118.56C6.61695 118.227 5.85029 117.8 5.29029 117.28L6.03029 115.72C6.56362 116.187 7.24362 116.573 8.07029 116.88C8.89695 117.187 9.75695 117.34 10.6503 117.34C11.4636 117.34 12.1236 117.247 12.6303 117.06C13.137 116.873 13.5103 116.62 13.7503 116.3C13.9903 115.967 14.1103 115.593 14.1103 115.18C14.1103 114.7 13.9503 114.313 13.6303 114.02C13.3236 113.727 12.917 113.493 12.4103 113.32C11.917 113.133 11.3703 112.973 10.7703 112.84C10.1703 112.707 9.56362 112.553 8.95029 112.38C8.35029 112.193 7.79695 111.96 7.29029 111.68C6.79695 111.4 6.39695 111.027 6.09029 110.56C5.78362 110.08 5.63029 109.467 5.63029 108.72C5.63029 108 5.81695 107.34 6.19029 106.74C6.57695 106.127 7.16362 105.64 7.95029 105.28C8.75029 104.907 9.76362 104.72 10.9903 104.72C11.8036 104.72 12.6103 104.827 13.4103 105.04C14.2103 105.253 14.9036 105.56 15.4903 105.96L14.8303 107.56C14.2303 107.16 13.597 106.873 12.9303 106.7C12.2636 106.513 11.617 106.42 10.9903 106.42C10.2036 106.42 9.55695 106.52 9.05029 106.72C8.54362 106.92 8.17029 107.187 7.93029 107.52C7.70362 107.853 7.59029 108.227 7.59029 108.64C7.59029 109.133 7.74362 109.527 8.05029 109.82C8.37029 110.113 8.77695 110.347 9.27029 110.52C9.77695 110.693 10.3303 110.853 10.9303 111C11.5303 111.133 12.1303 111.287 12.7303 111.46C13.3436 111.633 13.897 111.86 14.3903 112.14C14.897 112.42 15.3036 112.793 15.6103 113.26C15.917 113.727 16.0703 114.327 16.0703 115.06C16.0703 115.767 15.877 116.427 15.4903 117.04C15.1036 117.64 14.5036 118.127 13.6903 118.5C12.8903 118.86 11.877 119.04 10.6503 119.04ZM22.3522 119C21.2855 119 20.4588 118.713 19.8722 118.14C19.2855 117.567 18.9922 116.747 18.9922 115.68V105.96H20.9122V115.6C20.9122 116.173 21.0522 116.613 21.3322 116.92C21.6255 117.227 22.0388 117.38 22.5722 117.38C23.1722 117.38 23.6722 117.213 24.0722 116.88L24.6722 118.26C24.3788 118.513 24.0255 118.7 23.6122 118.82C23.2122 118.94 22.7922 119 22.3522 119ZM17.1922 109.86V108.28H23.9522V109.86H17.1922ZM33.5734 118.88V116.64L33.4734 116.22V112.4C33.4734 111.587 33.2334 110.96 32.7534 110.52C32.2867 110.067 31.5801 109.84 30.6334 109.84C30.0067 109.84 29.3934 109.947 28.7934 110.16C28.1934 110.36 27.6867 110.633 27.2734 110.98L26.4734 109.54C27.0201 109.1 27.6734 108.767 28.4334 108.54C29.2067 108.3 30.0134 108.18 30.8534 108.18C32.3067 108.18 33.4267 108.533 34.2134 109.24C35.0001 109.947 35.3934 111.027 35.3934 112.48V118.88H33.5734ZM30.0934 119C29.3067 119 28.6134 118.867 28.0134 118.6C27.4267 118.333 26.9734 117.967 26.6534 117.5C26.3334 117.02 26.1734 116.48 26.1734 115.88C26.1734 115.307 26.3067 114.787 26.5734 114.32C26.8534 113.853 27.3001 113.48 27.9134 113.2C28.5401 112.92 29.3801 112.78 30.4334 112.78H33.7934V114.16H30.5134C29.5534 114.16 28.9067 114.32 28.5734 114.64C28.2401 114.96 28.0734 115.347 28.0734 115.8C28.0734 116.32 28.2801 116.74 28.6934 117.06C29.1067 117.367 29.6801 117.52 30.4134 117.52C31.1334 117.52 31.7601 117.36 32.2934 117.04C32.8401 116.72 33.2334 116.253 33.4734 115.64L33.8534 116.96C33.6001 117.587 33.1534 118.087 32.5134 118.46C31.8734 118.82 31.0667 119 30.0934 119ZM42.5865 119C41.5199 119 40.6932 118.713 40.1065 118.14C39.5199 117.567 39.2265 116.747 39.2265 115.68V105.96H41.1465V115.6C41.1465 116.173 41.2865 116.613 41.5665 116.92C41.8599 117.227 42.2732 117.38 42.8065 117.38C43.4065 117.38 43.9065 117.213 44.3065 116.88L44.9065 118.26C44.6132 118.513 44.2599 118.7 43.8465 118.82C43.4465 118.94 43.0265 119 42.5865 119ZM37.4265 109.86V108.28H44.1865V109.86H37.4265ZM51.5962 119C50.4629 119 49.4629 118.767 48.5962 118.3C47.7429 117.833 47.0762 117.193 46.5962 116.38C46.1296 115.567 45.8962 114.633 45.8962 113.58C45.8962 112.527 46.1229 111.593 46.5762 110.78C47.0429 109.967 47.6762 109.333 48.4762 108.88C49.2896 108.413 50.2029 108.18 51.2162 108.18C52.2429 108.18 53.1496 108.407 53.9362 108.86C54.7229 109.313 55.3362 109.953 55.7762 110.78C56.2296 111.593 56.4562 112.547 56.4562 113.64C56.4562 113.72 56.4496 113.813 56.4362 113.92C56.4362 114.027 56.4296 114.127 56.4162 114.22H47.3962V112.84H55.4162L54.6362 113.32C54.6496 112.64 54.5096 112.033 54.2162 111.5C53.9229 110.967 53.5162 110.553 52.9962 110.26C52.4896 109.953 51.8962 109.8 51.2162 109.8C50.5496 109.8 49.9562 109.953 49.4362 110.26C48.9162 110.553 48.5096 110.973 48.2162 111.52C47.9229 112.053 47.7762 112.667 47.7762 113.36V113.68C47.7762 114.387 47.9362 115.02 48.2562 115.58C48.5896 116.127 49.0496 116.553 49.6362 116.86C50.2229 117.167 50.8962 117.32 51.6562 117.32C52.2829 117.32 52.8496 117.213 53.3562 117C53.8762 116.787 54.3296 116.467 54.7162 116.04L55.7762 117.28C55.2962 117.84 54.6962 118.267 53.9762 118.56C53.2696 118.853 52.4762 119 51.5962 119ZM72.3823 108.18C73.2357 108.18 73.989 108.347 74.6423 108.68C75.2957 109.013 75.8023 109.52 76.1623 110.2C76.5357 110.88 76.7223 111.74 76.7223 112.78V118.88H74.8023V113C74.8023 111.973 74.5623 111.2 74.0823 110.68C73.6023 110.16 72.929 109.9 72.0623 109.9C71.4223 109.9 70.8623 110.033 70.3823 110.3C69.9023 110.567 69.529 110.96 69.2623 111.48C69.009 112 68.8823 112.647 68.8823 113.42V118.88H66.9623V113C66.9623 111.973 66.7223 111.2 66.2423 110.68C65.7757 110.16 65.1023 109.9 64.2223 109.9C63.5957 109.9 63.0423 110.033 62.5623 110.3C62.0823 110.567 61.709 110.96 61.4423 111.48C61.1757 112 61.0423 112.647 61.0423 113.42V118.88H59.1223V108.28H60.9623V111.1L60.6623 110.38C60.9957 109.687 61.509 109.147 62.2023 108.76C62.8957 108.373 63.7023 108.18 64.6223 108.18C65.6357 108.18 66.509 108.433 67.2423 108.94C67.9757 109.433 68.4557 110.187 68.6823 111.2L67.9023 110.88C68.2223 110.067 68.7823 109.413 69.5823 108.92C70.3823 108.427 71.3157 108.18 72.3823 108.18ZM84.9751 119C83.8418 119 82.8418 118.767 81.9751 118.3C81.1218 117.833 80.4551 117.193 79.9751 116.38C79.5085 115.567 79.2751 114.633 79.2751 113.58C79.2751 112.527 79.5018 111.593 79.9551 110.78C80.4218 109.967 81.0551 109.333 81.8551 108.88C82.6685 108.413 83.5818 108.18 84.5951 108.18C85.6218 108.18 86.5285 108.407 87.3151 108.86C88.1018 109.313 88.7151 109.953 89.1551 110.78C89.6085 111.593 89.8351 112.547 89.8351 113.64C89.8351 113.72 89.8285 113.813 89.8151 113.92C89.8151 114.027 89.8085 114.127 89.7951 114.22H80.7751V112.84H88.7951L88.0151 113.32C88.0285 112.64 87.8885 112.033 87.5951 111.5C87.3018 110.967 86.8951 110.553 86.3751 110.26C85.8685 109.953 85.2751 109.8 84.5951 109.8C83.9285 109.8 83.3351 109.953 82.8151 110.26C82.2951 110.553 81.8885 110.973 81.5951 111.52C81.3018 112.053 81.1551 112.667 81.1551 113.36V113.68C81.1551 114.387 81.3151 115.02 81.6351 115.58C81.9685 116.127 82.4285 116.553 83.0151 116.86C83.6018 117.167 84.2751 117.32 85.0351 117.32C85.6618 117.32 86.2285 117.213 86.7351 117C87.2551 116.787 87.7085 116.467 88.0951 116.04L89.1551 117.28C88.6751 117.84 88.0751 118.267 87.3551 118.56C86.6485 118.853 85.8551 119 84.9751 119ZM98.1612 108.18C99.0279 108.18 99.7879 108.347 100.441 108.68C101.108 109.013 101.628 109.52 102.001 110.2C102.375 110.88 102.561 111.74 102.561 112.78V118.88H100.641V113C100.641 111.973 100.388 111.2 99.8812 110.68C99.3879 110.16 98.6879 109.9 97.7812 109.9C97.1012 109.9 96.5079 110.033 96.0012 110.3C95.4946 110.567 95.1012 110.96 94.8212 111.48C94.5546 112 94.4212 112.647 94.4212 113.42V118.88H92.5012V108.28H94.3412V111.14L94.0412 110.38C94.3879 109.687 94.9212 109.147 95.6412 108.76C96.3612 108.373 97.2012 108.18 98.1612 108.18ZM109.755 119C108.688 119 107.861 118.713 107.275 118.14C106.688 117.567 106.395 116.747 106.395 115.68V105.96H108.315V115.6C108.315 116.173 108.455 116.613 108.735 116.92C109.028 117.227 109.441 117.38 109.975 117.38C110.575 117.38 111.075 117.213 111.475 116.88L112.075 118.26C111.781 118.513 111.428 118.7 111.015 118.82C110.615 118.94 110.195 119 109.755 119ZM104.595 109.86V108.28H111.355V109.86H104.595Z" fill="white"/>
<path d="M59.4155 13.5865C55.5199 12.4462 54.4208 19.8337 58.1395 19.5629C61.8094 19.3 63.178 12.4882 58.8922 12.453C55.0672 12.4235 54.5831 18.7858 57.9997 19.9081C59.8428 20.513 62.0924 19.2795 63.0752 17.7204C64.1717 15.9802 63.3252 14.0929 61.7665 12.9695C60.2842 11.9035 58.1692 11.5217 56.7023 12.8111C55.385 13.9678 55.0572 15.9754 55.8731 17.5121C56.7615 19.1875 58.8025 20.2057 60.6691 19.8729C62.4036 19.5635 63.6768 18.0048 62.8262 16.2644C62.0339 14.649 59.8267 13.5582 58.0911 14.1684C56.3431 14.783 55.7467 16.9045 56.9142 18.3636C57.9387 19.6434 60.1578 19.9226 61.4394 18.8632C62.6632 17.8523 62.0972 16.0299 60.9286 15.2283C59.6313 14.3408 56.834 15.0456 57.7108 17.0582C58.3641 18.5587 61.0533 18.3944 61.4079 16.7528C61.7381 15.2278 59.5799 14.1431 58.9784 15.7877C58.3412 17.5295 60.9107 17.2388 61.472 16.0355C61.6555 15.6419 61.2081 15.317 60.8631 15.519C60.4601 15.7556 60.4523 15.7866 60.2174 16.1936C59.9501 16.6544 60.6982 17.009 60.9614 16.5496C61.0848 16.4355 61.2108 16.3157 61.3342 16.2016C61.1327 16.029 60.9269 15.8578 60.7253 15.6851C59.3595 17.7883 59.1927 17.8192 60.2247 15.778C60.4544 15.9642 60.6842 16.1503 60.914 16.3364C61.5349 17.1115 61.3947 18.0764 60.3816 18.5198C59.1333 19.0653 56.9759 18.2338 57.1219 16.6379C57.5633 11.8725 65.3062 17.4651 60.9402 18.9602C58.6872 19.7349 55.8891 17.6895 56.2823 15.2457C56.744 12.374 59.9567 12.3528 61.7493 14.0176C64.0494 16.1502 61.6343 19.2681 58.9953 19.2174C56.4735 19.1674 55.8221 15.8358 57.2436 14.1542C58.29 12.9198 60.1169 13.1221 60.6727 14.7041C61.1058 15.9399 60.4082 17.3792 59.4323 18.1521C58.1993 19.124 56.7109 18.675 56.6666 16.9776C56.6256 15.5277 57.613 13.9153 59.2583 14.3979C59.7707 14.5496 59.9223 13.7355 59.4155 13.5865Z" fill="white"/>
<path d="M37.1808 15.2969C38.2493 33.8755 37.7303 52.5049 35.6088 70.9839C35.5347 71.6203 35.9573 72.0338 36.5664 72.0621C45.7984 72.504 55.0303 72.9459 64.2623 73.3878C68.8671 73.6104 73.5017 73.996 78.1116 74.0478C81.0825 74.0842 82.3665 72.5826 82.3762 69.6505C82.4074 60.4776 81.7845 51.255 81.4892 42.0852C81.1842 32.7029 80.8807 23.3249 80.5756 13.9426C80.5533 13.2982 79.9113 13.0187 79.3681 13.1501C66.271 16.3305 52.5997 16.2785 39.5031 13.0661C38.3656 12.7885 38.0308 14.5781 39.1625 14.853C52.5859 18.1421 66.5586 18.1201 79.9712 14.8655C79.5682 14.6 79.1652 14.3344 78.7637 14.073C79.3098 30.9264 79.8574 47.7839 80.3994 64.6388C80.4306 65.665 80.466 66.6897 80.4973 67.7159C80.5239 68.5044 80.875 70.3278 80.4579 71.0529C79.8032 72.1907 78.1947 72.2348 77.1065 72.1886C75.9512 72.1379 74.7971 72.0774 73.6445 72.0211C69.6069 71.8276 65.5652 71.6355 61.5276 71.442C53.1618 71.0405 44.7933 70.6447 36.4275 70.2433C36.7473 70.6041 37.0655 70.9607 37.3852 71.3214C39.5218 52.6869 40.0628 33.8948 38.9815 15.1611C38.9253 13.9983 37.1133 14.1287 37.1808 15.2969Z" fill="white"/>
<path d="M46.8003 29.7798C55.7406 30.6536 64.6995 31.2627 73.6715 31.6183C74.2037 31.641 74.1359 30.8155 73.6135 30.794C64.7127 30.4413 55.8236 29.831 46.9533 28.97C46.4289 28.9164 46.2717 29.7278 46.8003 29.7798Z" fill="white"/>
<path d="M47.7849 32.5584C56.7252 33.4322 65.684 34.0412 74.6561 34.3969C75.1883 34.4195 75.1205 33.594 74.5981 33.5726C65.6973 33.2199 56.8082 32.6096 47.9379 31.7485C47.4134 31.695 47.2562 32.5063 47.7849 32.5584Z" fill="white"/>
<path d="M45.9553 36.7345C49.9342 37.7796 54.0394 37.2921 58.0985 37.2293C63.1105 37.148 68.1161 37.3787 73.1058 37.8686C73.6303 37.9221 73.7875 37.1108 73.2588 37.0587C68.7586 36.616 64.2413 36.3765 59.7207 36.3917C55.2084 36.4039 50.532 37.0891 46.1098 35.9288C45.592 35.7884 45.4405 36.6025 45.9553 36.7345Z" fill="white"/>
<path d="M45.9478 55.2985C50.0325 55.3346 54.1158 55.3664 58.2047 55.401C60.2471 55.419 62.2895 55.437 64.3319 55.455C66.5292 55.4744 68.8174 55.288 70.9388 55.9914C71.4376 56.1574 71.7956 55.411 71.2927 55.2465C67.7567 54.0774 63.5662 54.628 59.8946 54.5958C55.2236 54.5562 50.5567 54.5153 45.8871 54.4799C45.3551 54.4713 45.4215 55.2926 45.9478 55.2985Z" fill="white"/>
<path d="M46.9871 52.7048C51.0718 52.7408 55.1551 52.7727 59.244 52.8072C61.2864 52.8252 63.3288 52.8432 65.3711 52.8613C67.5685 52.8807 69.8567 52.6942 71.9781 53.3977C72.4769 53.5636 72.8349 52.8172 72.332 52.6528C68.796 51.4836 64.6054 52.0342 60.9339 52.002C56.2629 51.9625 51.596 51.9215 46.9264 51.8862C46.3944 51.8775 46.4608 52.6988 46.9871 52.7048Z" fill="white"/>
<path d="M46.4325 62.5355C52.1784 62.6495 57.8858 63.1573 63.5633 64.0558C64.0883 64.1374 64.2414 63.3275 63.7163 63.246C57.9689 62.3347 52.186 61.8254 46.3745 61.7112C45.8411 61.6984 45.9047 62.5253 46.4325 62.5355Z" fill="white"/>
<path d="M67.9637 64.838C69.2723 64.9516 70.5517 65.2071 71.8029 65.5946C72.3085 65.7534 72.4601 64.9394 71.956 64.7847C70.7033 64.3931 69.4212 64.1432 68.1167 64.0281C67.5937 63.9787 67.4365 64.79 67.9637 64.838Z" fill="white"/>
<path d="M48.1592 44.6462C54.7408 46.1678 61.4138 47.0892 68.1523 47.4288C68.6819 47.4571 68.6182 46.6301 68.0943 46.6045C61.4271 46.2678 54.8208 45.3369 48.3108 43.8321C47.7921 43.7155 47.6405 44.5296 48.1592 44.6462Z" fill="white"/>
<path d="M49.6295 40.9987C56.2111 42.5204 62.8842 43.4417 69.6226 43.7814C70.1522 43.8097 70.0885 42.9827 69.5646 42.9571C62.8974 42.6204 56.2911 41.6894 49.7811 40.1847C49.2624 40.068 49.1108 40.8821 49.6295 40.9987Z" fill="white"/>
</svg>
