<svg width="22" height="23" viewBox="0 0 22 23" fill="none" xmlns="http://www.w3.org/2000/svg">
<path d="M11 0.296143C4.9346 0.296143 0 5.23074 0 11.2961V15.8534C0 16.9798 0.9867 17.8961 2.2 17.8961H3.3C3.59174 17.8961 3.87153 17.7803 4.07782 17.574C4.28411 17.3677 4.4 17.0879 4.4 16.7961V11.1388C4.4 10.8471 4.28411 10.5673 4.07782 10.361C3.87153 10.1547 3.59174 10.0388 3.3 10.0388H2.3012C2.9128 5.78184 6.5758 2.49614 11 2.49614C15.4242 2.49614 19.0872 5.78184 19.6988 10.0388H18.7C18.4083 10.0388 18.1285 10.1547 17.9222 10.361C17.7159 10.5673 17.6 10.8471 17.6 11.1388V17.8961C17.6 19.1094 16.6133 20.0961 15.4 20.0961H13.2V18.9961H8.8V22.2961H15.4C17.8266 22.2961 19.8 20.3227 19.8 17.8961C21.0133 17.8961 22 16.9798 22 15.8534V11.2961C22 5.23074 17.0654 0.296143 11 0.296143Z" fill="white"/>
</svg>
