<svg width="25" height="25" viewBox="0 0 25 25" fill="none" xmlns="http://www.w3.org/2000/svg">
<path d="M22.9411 6.02166C22.1715 6.36301 21.3443 6.5937 20.4763 6.69743C21.3622 6.16629 22.0428 5.32526 22.3632 4.32306C21.5339 4.81492 20.6155 5.17206 19.6379 5.36448C18.8551 4.5304 17.7398 4.00928 16.5054 4.00928C14.1353 4.00928 12.2136 5.93075 12.2136 8.30083C12.2136 8.63718 12.2516 8.96474 12.3248 9.27888C8.75802 9.09988 5.59569 7.39131 3.47903 4.79479C3.10959 5.42863 2.89794 6.16584 2.89794 6.95237C2.89794 8.44132 3.65557 9.75491 4.80716 10.5246C4.10372 10.5022 3.4419 10.3092 2.86333 9.98774C2.86292 10.0057 2.86292 10.0236 2.86292 10.0417C2.86292 12.1211 4.34226 13.8556 6.30552 14.2499C5.94542 14.348 5.56627 14.4005 5.17487 14.4005C4.89833 14.4005 4.62948 14.3735 4.36739 14.3235C4.91354 16.0284 6.49846 17.2693 8.37647 17.3038C6.90769 18.455 5.0572 19.1411 3.04646 19.1411C2.70005 19.1411 2.35845 19.1207 2.02271 19.081C3.92196 20.2987 6.17784 21.0093 8.60143 21.0093C16.4953 21.0093 20.8121 14.4698 20.8121 8.79846C20.8121 8.61242 20.8079 8.42733 20.7996 8.24323C21.6382 7.63814 22.3658 6.8823 22.9411 6.02166Z" fill="#3B58A8"/>
</svg>
