<svg width="93" height="104" viewBox="0 0 93 104" fill="none" xmlns="http://www.w3.org/2000/svg">
<path d="M19.3376 94.8264L14.6576 80.8264H16.7176L21.0176 93.7464H19.9776L24.4376 80.8264H26.2776L30.6376 93.7464H29.6376L33.9976 80.8264H35.8976L31.2176 94.8264H29.1176L25.0376 82.8464H25.5776L21.4776 94.8264H19.3376ZM43.8434 94.8264V92.5864L43.7434 92.1664V88.3464C43.7434 87.5331 43.5034 86.9064 43.0234 86.4664C42.5567 86.0131 41.85 85.7864 40.9034 85.7864C40.2767 85.7864 39.6634 85.8931 39.0634 86.1064C38.4634 86.3064 37.9567 86.5797 37.5434 86.9264L36.7434 85.4864C37.29 85.0464 37.9434 84.7131 38.7034 84.4864C39.4767 84.2464 40.2834 84.1264 41.1234 84.1264C42.5767 84.1264 43.6967 84.4797 44.4834 85.1864C45.27 85.8931 45.6634 86.9731 45.6634 88.4264V94.8264H43.8434ZM40.3634 94.9464C39.5767 94.9464 38.8834 94.8131 38.2834 94.5464C37.6967 94.2797 37.2434 93.9131 36.9234 93.4464C36.6034 92.9664 36.4434 92.4264 36.4434 91.8264C36.4434 91.2531 36.5767 90.7331 36.8434 90.2664C37.1234 89.7997 37.57 89.4264 38.1834 89.1464C38.81 88.8664 39.65 88.7264 40.7034 88.7264H44.0634V90.1064H40.7834C39.8234 90.1064 39.1767 90.2664 38.8434 90.5864C38.51 90.9064 38.3434 91.2931 38.3434 91.7464C38.3434 92.2664 38.55 92.6864 38.9634 93.0064C39.3767 93.3131 39.95 93.4664 40.6834 93.4664C41.4034 93.4664 42.03 93.3064 42.5634 92.9864C43.11 92.6664 43.5034 92.1997 43.7434 91.5864L44.1234 92.9064C43.87 93.5331 43.4234 94.0331 42.7834 94.4064C42.1434 94.7664 41.3367 94.9464 40.3634 94.9464ZM49.2165 94.8264V79.9864H51.1365V94.8264H49.2165ZM54.8024 94.8264V79.9864H56.7224V94.8264H54.8024ZM65.1084 94.9464C63.975 94.9464 62.975 94.7131 62.1084 94.2464C61.255 93.7797 60.5884 93.1397 60.1084 92.3264C59.6417 91.5131 59.4084 90.5797 59.4084 89.5264C59.4084 88.4731 59.635 87.5397 60.0884 86.7264C60.555 85.9131 61.1884 85.2797 61.9884 84.8264C62.8017 84.3597 63.715 84.1264 64.7284 84.1264C65.755 84.1264 66.6617 84.3531 67.4484 84.8064C68.235 85.2597 68.8484 85.8997 69.2884 86.7264C69.7417 87.5397 69.9684 88.4931 69.9684 89.5864C69.9684 89.6664 69.9617 89.7597 69.9484 89.8664C69.9484 89.9731 69.9417 90.0731 69.9284 90.1664H60.9084V88.7864H68.9284L68.1484 89.2664C68.1617 88.5864 68.0217 87.9797 67.7284 87.4464C67.435 86.9131 67.0284 86.4997 66.5084 86.2064C66.0017 85.8997 65.4084 85.7464 64.7284 85.7464C64.0617 85.7464 63.4684 85.8997 62.9484 86.2064C62.4284 86.4997 62.0217 86.9197 61.7284 87.4664C61.435 87.9997 61.2884 88.6131 61.2884 89.3064V89.6264C61.2884 90.3331 61.4484 90.9664 61.7684 91.5264C62.1017 92.0731 62.5617 92.4997 63.1484 92.8064C63.735 93.1131 64.4084 93.2664 65.1684 93.2664C65.795 93.2664 66.3617 93.1597 66.8684 92.9464C67.3884 92.7331 67.8417 92.4131 68.2284 91.9864L69.2884 93.2264C68.8084 93.7864 68.2084 94.2131 67.4884 94.5064C66.7817 94.7997 65.9884 94.9464 65.1084 94.9464ZM76.2745 94.9464C75.2078 94.9464 74.3811 94.6597 73.7945 94.0864C73.2078 93.5131 72.9145 92.6931 72.9145 91.6264V81.9064H74.8345V91.5464C74.8345 92.1197 74.9745 92.5597 75.2545 92.8664C75.5478 93.1731 75.9611 93.3264 76.4945 93.3264C77.0945 93.3264 77.5945 93.1597 77.9945 92.8264L78.5945 94.2064C78.3011 94.4597 77.9478 94.6464 77.5345 94.7664C77.1345 94.8864 76.7145 94.9464 76.2745 94.9464ZM71.1145 85.8064V84.2264H77.8745V85.8064H71.1145Z" fill="white"/>
<path d="M28.7917 29.933C27.172 30.8191 26.9762 33.1749 28.7123 34.0822C30.2526 34.8834 32.1792 33.6631 32.0734 31.9015C31.9781 30.3628 30.2737 29.4342 28.8658 29.726C27.1456 30.0815 26.3781 32.0341 26.7116 33.6259C27.1138 35.5785 28.9399 36.6875 30.7924 35.8385C32.248 35.17 33.873 33.1219 32.9414 31.4717C32.0522 29.8905 29.2945 29.7207 27.9448 30.7023C26.4257 31.806 26.4363 34.1194 27.9395 35.2283C29.2892 36.2312 31.3165 35.6316 32.0787 34.1724C32.8514 32.708 31.941 30.8509 30.4643 30.2672C28.8764 29.6464 26.9815 30.7713 26.7645 32.4745C26.5475 34.1406 28.2836 35.7642 29.935 35.2018C31.3535 34.719 32.0522 32.7451 31.036 31.5725C30.0938 30.4848 28.0983 30.6227 27.4843 31.9811C26.8756 33.3235 27.9448 35.1328 29.4904 34.9047C31.0465 34.6765 31.7505 32.777 30.713 31.6043C30.1467 30.9623 29.0775 30.5485 28.3101 31.0897C27.6908 31.5248 27.6008 32.4162 27.9607 33.0476C28.924 34.7296 32.1633 33.159 30.946 31.9598C29.718 30.7554 27.5531 33.2545 29.3422 34.0239C29.9667 34.2945 30.7131 33.9549 30.7342 33.2121C30.7554 32.2198 29.7127 31.9386 28.9293 32.0182C28.5323 32.0554 28.3418 32.4056 28.5006 32.7664C28.6488 33.1059 28.6594 33.1112 28.9346 33.3606C29.1463 33.5516 29.4216 33.541 29.6333 33.3606C29.9085 33.1272 29.9562 33.0157 30.0938 32.6815C30.1573 32.5276 30.0832 32.3047 29.9668 32.1986C29.6968 31.9439 29.6544 31.9068 29.321 31.7423C29.1304 31.6468 28.8764 31.6521 28.7229 31.8219C28.2094 32.379 27.966 32.9945 28.0083 33.7533C28.0454 34.39 29.0352 34.39 28.9981 33.7533C28.9717 33.2757 29.0934 32.8778 29.4216 32.5223C29.2204 32.5488 29.0193 32.5753 28.8235 32.6019C28.9717 32.7027 29.1199 32.8035 29.2681 32.9043C29.2257 32.7451 29.1834 32.5806 29.141 32.4215C29.0722 32.5011 29.0034 32.5806 28.9346 32.6602C29.1675 32.6602 29.4004 32.6602 29.6333 32.6602C29.538 32.5276 29.448 32.3949 29.3528 32.2676C29.2099 32.517 29.0669 32.7664 28.924 33.0157C29.2892 33.0104 29.6333 32.9043 29.9562 32.708C28.5324 32.7611 28.4371 32.5276 29.6703 32.0076C30.4061 32.2304 30.3267 33.1908 29.898 33.6047C28.8447 34.6288 27.6484 32.7717 28.6964 32.0235C29.4533 31.477 30.5701 32.0819 30.5384 32.9998C30.496 34.0663 29.321 34.65 28.4477 34.0504C26.2193 32.5223 29.755 29.6464 31.1259 32.0978C32.2798 34.1618 28.9876 35.8757 27.9713 33.7373C26.4893 30.6068 32.5762 30.2672 32.1845 32.777C31.8881 34.6818 28.9717 36.2577 27.8972 34.0663C27.1509 32.5382 28.1407 30.0656 30.1097 30.8031C31.163 31.1958 31.47 32.5966 30.4008 33.2068C28.8288 34.1035 27.7225 31.6627 29.2946 30.8031C29.8503 30.4795 29.3527 29.6252 28.7917 29.933Z" fill="white"/>
<path d="M47.968 9.40998C47.6663 8.3647 47.7086 7.33534 48.1108 6.32721C47.788 6.28476 47.4651 6.237 47.1369 6.19456C47.1952 8.16838 47.2481 10.1475 47.3064 12.1213C47.3275 12.7793 48.2167 12.7368 48.2961 12.1213C48.582 9.89813 48.8942 7.68023 49.3123 5.47294C48.9895 5.4305 48.6666 5.38274 48.3385 5.34029C48.1585 7.90839 48.2538 10.434 48.6031 12.9862C48.6666 13.4584 49.4923 13.4584 49.5559 12.9862C49.9317 10.2218 50.3339 7.45738 50.7521 4.69296C50.4292 4.65052 50.1063 4.60276 49.7781 4.56032C49.667 7.16024 49.7305 9.73364 49.974 12.323C50.0216 12.8536 50.7944 13.0287 50.9479 12.4556C51.8212 9.1606 52.0223 5.82314 52.1547 2.42731C51.8265 2.42731 51.493 2.42731 51.1649 2.42731C51.1172 5.96109 51.0696 9.49488 51.0273 13.0287C51.0167 13.6866 51.9376 13.6442 52.017 13.0287C52.414 9.91405 52.811 6.80474 53.2132 3.69014C52.9063 3.77503 52.5993 3.85462 52.2923 3.93952C53.0174 5.53662 52.6469 7.90308 52.6098 9.6063C52.5781 11.1026 52.5411 12.5936 52.5093 14.0899C52.4934 14.7266 53.4779 14.7266 53.4991 14.0899C53.6102 10.2059 53.9331 6.34843 54.4783 2.5016C54.1554 2.45915 53.8325 2.4114 53.5044 2.36895C53.5679 6.36965 53.4779 10.3651 53.2397 14.3658C53.208 14.9176 54.1183 15.0502 54.2136 14.4984C54.9017 10.5083 55.1187 6.48108 55.2881 2.44323C54.9599 2.44323 54.6265 2.44323 54.2983 2.44323C54.3883 6.30068 54.256 10.1369 53.9067 13.9784C53.8484 14.6151 54.8276 14.6045 54.8964 13.9784C55.2352 10.8479 55.5687 7.71737 55.9021 4.58685C55.5739 4.58685 55.2405 4.58685 54.9123 4.58685C54.8647 7.75982 54.817 10.9328 54.7694 14.1111C54.7588 14.6735 55.5951 14.7849 55.7433 14.2437C56.5637 11.2565 57.2095 8.24797 57.6858 5.19173C57.363 5.14928 57.04 5.10153 56.7119 5.05908C56.9183 7.98798 56.8125 10.8585 56.3573 13.7609C56.6802 13.8033 57.003 13.8511 57.3312 13.8935C57.7334 10.1634 58.2416 6.44924 58.8556 2.75098C58.5327 2.70853 58.2098 2.66078 57.8817 2.61833C57.8393 5.77539 57.797 8.93775 57.7546 12.0948C57.7493 12.6413 58.6068 12.7846 58.7285 12.2275C59.2525 9.7814 59.7765 7.34065 60.3058 4.89459C59.9829 4.85215 59.6601 4.80439 59.3319 4.76194C59.4643 7.07004 59.3531 9.29325 58.9667 11.5748C58.8608 12.2009 59.7024 12.445 59.9194 11.8401C60.3693 10.5932 60.8193 9.3463 61.2692 8.0994C61.4862 7.49983 60.5281 7.23983 60.3164 7.8341C59.8665 9.08101 59.4166 10.3279 58.9667 11.5748C59.2843 11.665 59.6019 11.7499 59.9194 11.8401C60.3164 9.47896 60.454 7.15494 60.3164 4.76194C60.2847 4.23135 59.4696 4.05625 59.3425 4.6293C58.8185 7.07535 58.2945 9.5161 57.7652 11.9622C58.0881 12.0046 58.411 12.0524 58.7391 12.0948C58.7815 8.93775 58.8238 5.77539 58.8662 2.61833C58.8714 2.07712 57.9875 1.92325 57.8923 2.48568C57.2624 6.27415 56.7437 10.0732 56.3308 13.8935C56.2726 14.4453 57.2147 14.578 57.3047 14.0262C57.7758 11.0389 57.9134 8.07818 57.6964 5.05908C57.6594 4.53909 56.8178 4.33747 56.7225 4.92643C56.2461 7.98267 55.5951 10.9965 54.78 13.9784C55.1029 14.0209 55.4257 14.0686 55.7539 14.1111C55.8015 10.9381 55.8492 7.76513 55.8968 4.58685C55.9074 3.93421 54.9758 3.96605 54.907 4.58685C54.5683 7.71737 54.2348 10.8479 53.9014 13.9784C54.2295 13.9784 54.563 13.9784 54.8911 13.9784C55.2458 10.1369 55.3728 6.30068 55.2828 2.44323C55.2669 1.80121 54.3195 1.80651 54.293 2.44323C54.1289 6.39618 53.9278 10.3279 53.2556 14.2331C53.5785 14.2756 53.9014 14.3233 54.2295 14.3658C54.4677 10.3704 54.5524 6.37496 54.4942 2.36895C54.4836 1.83304 53.605 1.66325 53.5203 2.2363C52.9645 6.17333 52.6258 10.1157 52.5093 14.0899C52.8375 14.0899 53.1709 14.0899 53.4991 14.0899C53.5732 10.8426 54.5153 6.47047 53.1444 3.44075C52.9168 2.93669 52.2764 3.27096 52.2235 3.69014C51.8265 6.80474 51.4295 9.91405 51.0273 13.0287C51.3554 13.0287 51.6889 13.0287 52.017 13.0287C52.0647 9.49488 52.1123 5.96109 52.1547 2.42731C52.1652 1.78529 51.1913 1.7906 51.1649 2.42731C51.0378 5.72763 50.842 8.99081 49.9899 12.1956C50.3127 12.2381 50.6356 12.2858 50.9637 12.3283C50.7256 9.73895 50.662 7.16024 50.7679 4.56562C50.7891 4.01911 49.884 3.87585 49.794 4.43297C49.3706 7.19208 48.9736 9.95649 48.5978 12.7262C48.9154 12.7262 49.233 12.7262 49.5506 12.7262C49.2118 10.2536 49.143 7.8288 49.3176 5.3456C49.3547 4.79378 48.4496 4.66113 48.3438 5.21295C47.9044 7.50513 47.5922 9.81323 47.2905 12.1266C47.6186 12.1266 47.9521 12.1266 48.2802 12.1266C48.222 10.1528 48.1691 8.17369 48.1108 6.19986C48.095 5.64274 47.301 5.526 47.1369 6.06721C46.7611 7.31942 46.7241 8.39654 46.994 9.68058C47.1422 10.2961 48.095 10.0308 47.968 9.40998Z" fill="white"/>
<path d="M29.4163 22.9122C27.3785 22.0155 25.2931 21.3417 23.0753 21.0286C21.4716 20.8005 18.6187 20.2009 17.2531 21.4531C14.0297 24.4138 21.7998 28.1705 23.4247 29.2476C24.5944 30.0276 25.69 28.1386 24.5256 27.364C23.4935 26.6795 22.4561 25.9897 21.4239 25.3052C20.9476 24.9922 20.0425 24.6314 19.7037 24.1592C18.9204 23.0767 19.4232 22.9547 20.4395 22.9812C23.1706 23.0555 25.8224 23.6975 28.3207 24.8012C29.591 25.3583 30.6972 23.4747 29.4163 22.9122Z" fill="white"/>
<path d="M21.2916 28.2875C22.292 31.2748 20.7464 34.6918 17.7241 35.7318C16.4062 36.1828 16.9725 38.2946 18.301 37.8383C22.3978 36.4322 24.785 31.8797 23.3876 27.7092C22.9483 26.3827 20.8417 26.9504 21.2916 28.2875Z" fill="white"/>
<path d="M17.8512 36.2846C15.8134 35.961 13.7439 35.5153 11.6849 35.3136C10.6739 35.2128 9.60479 35.1651 8.85848 36.0087C7.22296 37.8658 8.10158 42.5828 8.3821 44.753C8.69968 47.199 8.99081 51.4014 11.5156 52.7172C14.0085 54.0172 16.4433 52.0911 18.1212 50.4251C19.1162 49.4328 17.5813 47.8941 16.5809 48.881C15.8557 49.6026 15.1412 50.3826 14.1302 50.6585C12.3836 51.1361 11.7907 49.5867 11.2561 48.1966C10.6157 46.5252 10.4675 44.4028 10.3511 42.6412C10.3087 41.9833 10.2876 41.3253 10.2929 40.6674C10.2981 39.2719 10.06 38.8686 11.3091 38.147C12.9023 37.2238 15.4694 38.1099 17.269 38.3964C18.6399 38.6087 19.2327 36.5075 17.8512 36.2846Z" fill="white"/>
<path d="M16.094 51.48C21.0111 52.2016 25.2244 54.6264 28.3155 58.5263C29.1889 59.6247 30.7185 58.07 29.8557 56.9823C26.5582 52.8277 21.9163 50.1429 16.6709 49.3735C15.3053 49.1772 14.7125 51.2784 16.094 51.48Z" fill="white"/>
<path d="M28.3526 57.9518C27.8498 60.2334 25.2933 65.6296 28.559 66.8818C30.2316 67.5238 32.5923 67.3169 34.3548 67.3593C35.7416 67.3912 37.0966 67.3434 38.1552 66.3088C39.0656 65.4173 39.4731 63.9847 39.7907 62.7962C40.0289 61.9048 40.0924 58.9281 40.7858 58.3339C41.6644 57.5857 45.4595 60.2918 46.6769 60.7056C48.7676 61.4166 50.943 61.6713 53.1449 61.6395C54.5422 61.6183 54.5475 59.4322 53.1449 59.4587C51.1335 59.4906 49.1698 59.2571 47.2591 58.6045C45.3219 57.9465 43.9457 56.5351 42.1302 55.7923C40.0289 54.9274 39.0073 56.5776 38.5204 58.4081C38.2134 59.5595 38.0652 60.7534 37.7688 61.9101C37.2819 63.8096 37.0013 65.0778 34.7095 65.1945C33.6773 65.2476 30.3216 65.3749 29.5753 64.6533C28.739 63.8468 30.1893 59.7506 30.4592 58.5408C30.7556 57.1612 28.6543 56.5776 28.3526 57.9518Z" fill="white"/>
<path d="M42.4689 58.6806C44.549 59.2271 46.4597 60.3202 48.5716 60.7446C50.6518 61.1585 52.6949 60.7818 54.775 60.6173C57.4057 60.4104 60.4703 60.5112 61.5183 63.4613C62.0317 64.9151 61.64 66.629 62.688 67.8865C64.6676 70.2635 69.5371 69.2926 71.9878 68.3746C73.2263 67.9077 74.4278 67.2232 74.8406 65.8755C75.1476 64.8727 74.8671 63.7903 74.9042 62.7768C74.9624 61.0948 75.6664 59.5137 76.5185 58.097C77.2437 56.8925 75.3646 55.7942 74.6395 56.9933C73.6391 58.6541 72.8558 60.5059 72.7446 62.4638C72.6811 63.6046 73.0622 64.9894 72.2153 65.8543C71.6437 66.4326 70.384 66.6183 69.6165 66.7828C67.7904 67.1649 64.7522 67.6901 64.0589 65.4935C63.5613 63.9229 63.7307 62.5381 62.7092 61.0789C60.8725 58.4631 57.7285 58.1978 54.7909 58.4312C52.806 58.5904 50.8053 59.0149 48.8258 58.5745C46.8409 58.1341 45.036 57.0941 43.0617 56.5741C41.6908 56.2187 41.1139 58.3198 42.4689 58.6806Z" fill="white"/>
<path d="M75.412 61.3638C75.6926 57.9627 78.3337 55.5007 80.1492 52.8265C81.7318 50.4972 83.0127 47.945 83.9019 45.2708C85.6009 40.1558 85.7968 34.4307 83.6531 29.4165C81.8588 25.2301 78.5666 21.5955 74.3799 19.7384C68.9705 17.3348 63.4605 18.8577 58.1305 20.6988C56.8126 21.1551 57.3789 23.2616 58.7075 22.8053C63.9316 21.0013 69.4151 19.3936 74.5757 22.2694C78.736 24.5881 81.7212 28.8647 82.674 33.5234C83.7696 38.8559 82.3987 44.4537 79.8369 49.1601C77.6086 53.251 73.6336 56.4983 73.2313 61.3691C73.1149 62.7646 75.2956 62.7593 75.412 61.3638Z" fill="white"/>
<path d="M66.0223 19.0226C54.0761 20.8478 41.881 26.3342 29.8078 22.2592C28.4793 21.8082 27.9076 23.92 29.2309 24.3657C41.717 28.5786 54.2507 23.018 66.5992 21.129C67.9806 20.9168 67.3931 18.8103 66.0223 19.0226Z" fill="white"/>
<path d="M44.0249 29.9799C44.046 30.744 44.0672 31.508 44.0831 32.2721C44.0884 32.548 44.3054 32.7549 44.5806 32.7656C49.3708 32.9725 54.3832 33.6198 59.168 33.3598C61.264 33.2431 63.36 31.9644 62.6137 29.6138C62.5449 29.391 62.365 29.2636 62.1374 29.2477C56.1987 28.8604 50.2918 29.1097 44.4007 29.964C43.7708 30.0542 44.0408 31.0093 44.6654 30.9191C47.7088 30.4787 50.7628 30.1816 53.838 30.0807C55.2195 30.033 56.6062 30.0277 57.993 30.0489C58.6229 30.0595 59.4592 29.9534 60.0679 30.1179C60.4119 30.1338 60.7612 30.155 61.1053 30.1709C61.1635 31.6991 60.6289 32.4101 59.4962 32.3039C56.9926 32.8345 53.8222 32.1713 51.271 32.0599C49.9001 32.0015 48.5292 31.9378 47.1583 31.8795C45.3428 31.7999 45.0676 31.8105 45.0199 29.9693C44.9988 29.3432 44.009 29.3379 44.0249 29.9799Z" fill="white"/>
<path d="M53.6529 0.504616C49.1115 0.271153 44.9194 3.87922 45.2159 8.59623C45.5546 14.072 50.5829 16.3695 55.4684 16.1891C60.2797 16.014 63.2491 11.2864 62.0529 6.71792C60.5603 1.00868 54.8438 0.249929 49.9795 1.54989C48.6245 1.9107 49.2015 4.01717 50.5565 3.65637C54.0392 2.72252 58.2472 2.65884 59.7293 6.70731C61.1584 10.6125 58.5966 14.0402 54.5845 14.003C51.197 13.9712 47.693 12.4218 47.3913 8.60154C47.1107 5.03592 50.3024 2.52089 53.6529 2.69598C55.0556 2.76496 55.0503 0.578899 53.6529 0.504616Z" fill="white"/>
<path d="M53.3985 5.77372C53.4515 7.22755 53.5097 8.68139 53.5626 10.1352C53.589 10.7719 54.5788 10.7772 54.5524 10.1352C54.4994 8.68139 54.4413 7.22755 54.3883 5.77372C54.3619 5.137 53.3721 5.1317 53.3985 5.77372Z" fill="white"/>
</svg>
