<svg width="79" height="70" viewBox="0 0 79 70" fill="none" xmlns="http://www.w3.org/2000/svg">
<path d="M21.7916 29.933C20.172 30.8191 19.9762 33.1749 21.7123 34.0822C23.2526 34.8834 25.1792 33.6631 25.0733 31.9015C24.9781 30.3628 23.2737 29.4342 21.8657 29.726C20.1455 30.0815 19.3781 32.0341 19.7115 33.6259C20.1138 35.5785 21.9399 36.6875 23.7924 35.8385C25.248 35.17 26.8729 33.1219 25.9414 31.4717C25.0522 29.8905 22.2945 29.7207 20.9448 30.7023C19.4257 31.806 19.4363 34.1194 20.9395 35.2283C22.2892 36.2312 24.3164 35.6316 25.0786 34.1724C25.8514 32.708 24.941 30.8509 23.4642 30.2672C21.8763 29.6464 19.9815 30.7713 19.7644 32.4745C19.5474 34.1406 21.2835 35.7642 22.9349 35.2018C24.3535 34.719 25.0522 32.7451 24.0359 31.5725C23.0938 30.4848 21.0983 30.6227 20.4843 31.9811C19.8756 33.3235 20.9448 35.1328 22.4903 34.9047C24.0465 34.6765 24.7504 32.777 23.713 31.6043C23.1466 30.9623 22.0775 30.5485 21.31 31.0897C20.6907 31.5248 20.6007 32.4162 20.9607 33.0476C21.924 34.7296 25.1633 33.159 23.9459 31.9598C22.7179 30.7554 20.5531 33.2545 22.3421 34.0239C22.9667 34.2945 23.713 33.9549 23.7342 33.2121C23.7554 32.2198 22.7126 31.9386 21.9293 32.0182C21.5323 32.0554 21.3418 32.4056 21.5006 32.7664C21.6488 33.1059 21.6593 33.1112 21.9346 33.3606C22.1463 33.5516 22.4215 33.541 22.6333 33.3606C22.9085 33.1272 22.9561 33.0157 23.0938 32.6815C23.1573 32.5276 23.0832 32.3047 22.9667 32.1986C22.6968 31.9439 22.6544 31.9068 22.3209 31.7423C22.1304 31.6468 21.8763 31.6521 21.7228 31.8219C21.2094 32.379 20.9659 32.9945 21.0083 33.7533C21.0453 34.39 22.0351 34.39 21.9981 33.7533C21.9716 33.2757 22.0934 32.8778 22.4215 32.5223C22.2204 32.5488 22.0193 32.5753 21.8234 32.6019C21.9716 32.7027 22.1198 32.8035 22.268 32.9043C22.2257 32.7451 22.1833 32.5806 22.141 32.4215C22.0722 32.5011 22.0034 32.5806 21.9346 32.6602C22.1674 32.6602 22.4004 32.6602 22.6333 32.6602C22.538 32.5276 22.448 32.3949 22.3527 32.2676C22.2098 32.517 22.0669 32.7664 21.924 33.0157C22.2892 33.0104 22.6333 32.9043 22.9561 32.708C21.5323 32.7611 21.437 32.5276 22.6703 32.0076C23.406 32.2304 23.3266 33.1908 22.8979 33.6047C21.8446 34.6288 20.6484 32.7717 21.6964 32.0235C22.4533 31.477 23.5701 32.0819 23.5383 32.9998C23.496 34.0663 22.321 34.65 21.4476 34.0504C19.2193 32.5223 22.755 29.6464 24.1259 32.0978C25.2797 34.1618 21.9875 35.8757 20.9713 33.7373C19.4892 30.6068 25.5761 30.2672 25.1845 32.777C24.888 34.6818 21.9716 36.2577 20.8972 34.0663C20.1508 32.5382 21.1407 30.0656 23.1096 30.8031C24.163 31.1958 24.4699 32.5966 23.4007 33.2068C21.8287 34.1035 20.7225 31.6627 22.2945 30.8031C22.8503 30.4795 22.3527 29.6252 21.7916 29.933Z" fill="white"/>
<path d="M40.968 9.40998C40.6663 8.3647 40.7086 7.33534 41.1108 6.32721C40.7879 6.28476 40.4651 6.237 40.1369 6.19456C40.1952 8.16838 40.2481 10.1475 40.3063 12.1213C40.3275 12.7793 41.2167 12.7368 41.2961 12.1213C41.5819 9.89813 41.8942 7.68023 42.3123 5.47294C41.9895 5.4305 41.6666 5.38274 41.3384 5.34029C41.1585 7.90839 41.2538 10.434 41.6031 12.9862C41.6666 13.4584 42.4923 13.4584 42.5558 12.9862C42.9316 10.2218 43.3339 7.45738 43.7521 4.69296C43.4292 4.65052 43.1063 4.60276 42.7781 4.56032C42.667 7.16024 42.7305 9.73364 42.9739 12.323C43.0216 12.8536 43.7944 13.0287 43.9479 12.4556C44.8212 9.1606 45.0223 5.82314 45.1546 2.42731C44.8265 2.42731 44.493 2.42731 44.1649 2.42731C44.1172 5.96109 44.0696 9.49488 44.0272 13.0287C44.0167 13.6866 44.9376 13.6442 45.017 13.0287C45.414 9.91405 45.811 6.80474 46.2132 3.69014C45.9062 3.77503 45.5993 3.85462 45.2923 3.93952C46.0174 5.53662 45.6469 7.90308 45.6098 9.6063C45.5781 11.1026 45.541 12.5936 45.5093 14.0899C45.4934 14.7266 46.4779 14.7266 46.4991 14.0899C46.6102 10.2059 46.9331 6.34843 47.4783 2.5016C47.1554 2.45915 46.8325 2.4114 46.5044 2.36895C46.5679 6.36965 46.4779 10.3651 46.2397 14.3658C46.208 14.9176 47.1183 15.0502 47.2136 14.4984C47.9017 10.5083 48.1187 6.48108 48.2881 2.44323C47.9599 2.44323 47.6265 2.44323 47.2983 2.44323C47.3883 6.30068 47.256 10.1369 46.9066 13.9784C46.8484 14.6151 47.8276 14.6045 47.8964 13.9784C48.2352 10.8479 48.5686 7.71737 48.9021 4.58685C48.5739 4.58685 48.2405 4.58685 47.9123 4.58685C47.8647 7.75982 47.817 10.9328 47.7694 14.1111C47.7588 14.6735 48.5951 14.7849 48.7433 14.2437C49.5637 11.2565 50.2095 8.24797 50.6858 5.19173C50.3629 5.14928 50.04 5.10153 49.7119 5.05908C49.9183 7.98798 49.8125 10.8585 49.3573 13.7609C49.6802 13.8033 50.003 13.8511 50.3312 13.8935C50.7334 10.1634 51.2416 6.44924 51.8555 2.75098C51.5327 2.70853 51.2098 2.66078 50.8817 2.61833C50.8393 5.77539 50.797 8.93775 50.7546 12.0948C50.7493 12.6413 51.6068 12.7846 51.7285 12.2275C52.2525 9.7814 52.7765 7.34065 53.3058 4.89459C52.9829 4.85215 52.6601 4.80439 52.3319 4.76194C52.4642 7.07004 52.3531 9.29325 51.9667 11.5748C51.8608 12.2009 52.7024 12.445 52.9194 11.8401C53.3693 10.5932 53.8193 9.3463 54.2692 8.0994C54.4862 7.49983 53.5281 7.23983 53.3164 7.8341C52.8665 9.08101 52.4166 10.3279 51.9667 11.5748C52.2842 11.665 52.6019 11.7499 52.9194 11.8401C53.3164 9.47896 53.454 7.15494 53.3164 4.76194C53.2846 4.23135 52.4695 4.05625 52.3425 4.6293C51.8185 7.07535 51.2945 9.5161 50.7652 11.9622C51.0881 12.0046 51.4109 12.0524 51.7391 12.0948C51.7815 8.93775 51.8238 5.77539 51.8661 2.61833C51.8714 2.07712 50.9875 1.92325 50.8923 2.48568C50.2624 6.27415 49.7436 10.0732 49.3308 13.8935C49.2726 14.4453 50.2147 14.578 50.3047 14.0262C50.7757 11.0389 50.9134 8.07818 50.6964 5.05908C50.6594 4.53909 49.8177 4.33747 49.7225 4.92643C49.2461 7.98267 48.5951 10.9965 47.78 13.9784C48.1029 14.0209 48.4257 14.0686 48.7539 14.1111C48.8015 10.9381 48.8492 7.76513 48.8968 4.58685C48.9074 3.93421 47.9758 3.96605 47.907 4.58685C47.5683 7.71737 47.2348 10.8479 46.9013 13.9784C47.2295 13.9784 47.563 13.9784 47.8911 13.9784C48.2457 10.1369 48.3728 6.30068 48.2828 2.44323C48.2669 1.80121 47.3195 1.80651 47.293 2.44323C47.1289 6.39618 46.9278 10.3279 46.2556 14.2331C46.5785 14.2756 46.9013 14.3233 47.2295 14.3658C47.4677 10.3704 47.5524 6.37496 47.4941 2.36895C47.4836 1.83304 46.605 1.66325 46.5203 2.2363C45.9645 6.17333 45.6257 10.1157 45.5093 14.0899C45.8375 14.0899 46.1709 14.0899 46.4991 14.0899C46.5732 10.8426 47.5153 6.47047 46.1444 3.44075C45.9168 2.93669 45.2764 3.27096 45.2235 3.69014C44.8265 6.80474 44.4295 9.91405 44.0272 13.0287C44.3554 13.0287 44.6889 13.0287 45.017 13.0287C45.0647 9.49488 45.1123 5.96109 45.1546 2.42731C45.1652 1.78529 44.1913 1.7906 44.1649 2.42731C44.0378 5.72763 43.842 8.99081 42.9898 12.1956C43.3127 12.2381 43.6356 12.2858 43.9637 12.3283C43.7255 9.73895 43.662 7.16024 43.7679 4.56562C43.7891 4.01911 42.884 3.87585 42.794 4.43297C42.3706 7.19208 41.9736 9.95649 41.5978 12.7262C41.9154 12.7262 42.233 12.7262 42.5505 12.7262C42.2118 10.2536 42.143 7.8288 42.3176 5.3456C42.3547 4.79378 41.4496 4.66113 41.3437 5.21295C40.9044 7.50513 40.5921 9.81323 40.2904 12.1266C40.6186 12.1266 40.9521 12.1266 41.2802 12.1266C41.222 10.1528 41.169 8.17369 41.1108 6.19986C41.0949 5.64274 40.301 5.526 40.1369 6.06721C39.7611 7.31942 39.7241 8.39654 39.994 9.68058C40.1422 10.2961 41.095 10.0308 40.968 9.40998Z" fill="white"/>
<path d="M22.4162 22.9122C20.3784 22.0155 18.293 21.3417 16.0753 21.0286C14.4715 20.8005 11.6186 20.2009 10.2531 21.4531C7.02966 24.4138 14.7997 28.1705 16.4246 29.2476C17.5944 30.0276 18.69 28.1386 17.5256 27.364C16.4934 26.6795 15.456 25.9897 14.4239 25.3052C13.9475 24.9922 13.0424 24.6314 12.7037 24.1592C11.9203 23.0767 12.4232 22.9547 13.4394 22.9812C16.1706 23.0555 18.8223 23.6975 21.3206 24.8012C22.5909 25.3583 23.6971 23.4747 22.4162 22.9122Z" fill="white"/>
<path d="M14.2915 28.2875C15.2919 31.2748 13.7464 34.6918 10.7241 35.7318C9.40609 36.1828 9.97243 38.2946 11.301 37.8383C15.3978 36.4322 17.7849 31.8797 16.3876 27.7092C15.9482 26.3827 13.8416 26.9504 14.2915 28.2875Z" fill="white"/>
<path d="M10.8512 36.2846C8.81345 35.961 6.74389 35.5153 4.68493 35.3136C3.67398 35.2128 2.60482 35.1651 1.85851 36.0087C0.222988 37.8658 1.10161 42.5828 1.38213 44.753C1.69971 47.199 1.99085 51.4014 4.51558 52.7172C7.00857 54.0172 9.44331 52.0911 11.1212 50.4251C12.1163 49.4328 10.5813 47.8941 9.58091 48.881C8.85578 49.6026 8.14123 50.3826 7.13027 50.6585C5.3836 51.1361 4.79076 49.5867 4.25617 48.1966C3.61572 46.5252 3.46754 44.4028 3.3511 42.6412C3.30875 41.9833 3.28759 41.3253 3.29288 40.6674C3.29817 39.2719 3.06001 38.8686 4.30915 38.147C5.90233 37.2238 8.46942 38.1099 10.269 38.3964C11.6399 38.6087 12.2327 36.5075 10.8512 36.2846Z" fill="white"/>
<path d="M9.09389 51.48C14.0111 52.2016 18.2243 54.6264 21.3155 58.5263C22.1888 59.6247 23.7184 58.07 22.8557 56.9823C19.5581 52.8277 14.9162 50.1429 9.67087 49.3735C8.30528 49.1772 7.71242 51.2784 9.09389 51.48Z" fill="white"/>
<path d="M21.3527 57.9518C20.8498 60.2334 18.2933 65.6296 21.5591 66.8818C23.2317 67.5238 25.5923 67.3169 27.3549 67.3593C28.7416 67.3912 30.0966 67.3434 31.1552 66.3088C32.0656 65.4173 32.4732 63.9847 32.7908 62.7962C33.0289 61.9048 33.0925 58.9281 33.7858 58.3339C34.6645 57.5857 38.4595 60.2918 39.6769 60.7056C41.7676 61.4166 43.943 61.6713 46.1449 61.6395C47.5422 61.6183 47.5475 59.4322 46.1449 59.4587C44.1336 59.4906 42.1699 59.2571 40.2591 58.6045C38.3219 57.9465 36.9458 56.5351 35.1303 55.7923C33.029 54.9274 32.0074 56.5776 31.5204 58.4081C31.2134 59.5595 31.0653 60.7534 30.7689 61.9101C30.2819 63.8096 30.0014 65.0778 27.7095 65.1945C26.6774 65.2476 23.3217 65.3749 22.5754 64.6533C21.7391 63.8468 23.1893 59.7506 23.4592 58.5408C23.7557 57.1612 21.6544 56.5776 21.3527 57.9518Z" fill="white"/>
<path d="M35.4688 58.6806C37.5489 59.2271 39.4597 60.3202 41.5715 60.7446C43.6517 61.1585 45.6948 60.7818 47.775 60.6173C50.4056 60.4104 53.4702 60.5112 54.5182 63.4613C55.0316 64.9151 54.6399 66.629 55.6879 67.8865C57.6675 70.2635 62.5371 69.2926 64.9877 68.3746C66.2263 67.9077 67.4277 67.2232 67.8405 65.8755C68.1475 64.8727 67.867 63.7903 67.9041 62.7768C67.9623 61.0948 68.6663 59.5137 69.5184 58.097C70.2436 56.8925 68.3646 55.7942 67.6394 56.9933C66.639 58.6541 65.8557 60.5059 65.7446 62.4638C65.681 63.6046 66.0621 64.9894 65.2153 65.8543C64.6436 66.4326 63.3839 66.6183 62.6164 66.7828C60.7903 67.1649 57.7522 67.6901 57.0588 65.4935C56.5612 63.9229 56.7307 62.5381 55.7091 61.0789C53.8724 58.4631 50.7284 58.1978 47.7908 58.4312C45.8059 58.5904 43.8052 59.0149 41.8257 58.5745C39.8408 58.1341 38.0359 57.0941 36.0616 56.5741C34.6907 56.2187 34.1138 58.3198 35.4688 58.6806Z" fill="white"/>
<path d="M68.412 61.3638C68.6926 57.9627 71.3337 55.5007 73.1492 52.8265C74.7318 50.4972 76.0127 47.945 76.9019 45.2708C78.6009 40.1558 78.7968 34.4307 76.6531 29.4165C74.8588 25.2301 71.5666 21.5955 67.3799 19.7384C61.9705 17.3348 56.4605 18.8577 51.1305 20.6988C49.8126 21.1551 50.3789 23.2616 51.7075 22.8053C56.9316 21.0013 62.4151 19.3936 67.5757 22.2694C71.736 24.5881 74.7212 28.8647 75.674 33.5234C76.7696 38.8559 75.3987 44.4537 72.8369 49.1601C70.6086 53.251 66.6336 56.4983 66.2313 61.3691C66.1149 62.7646 68.2956 62.7593 68.412 61.3638Z" fill="white"/>
<path d="M59.0224 19.0226C47.0761 20.8478 34.8811 26.3342 22.8079 22.2592C21.4794 21.8082 20.9077 23.92 22.231 24.3657C34.7171 28.5786 47.2508 23.018 59.5993 21.129C60.9807 20.9168 60.3932 18.8103 59.0224 19.0226Z" fill="white"/>
<path d="M37.0248 29.9799C37.046 30.744 37.0672 31.508 37.0831 32.2721C37.0884 32.548 37.3054 32.7549 37.5806 32.7656C42.3708 32.9725 47.3832 33.6198 52.168 33.3598C54.264 33.2431 56.36 31.9644 55.6137 29.6138C55.5449 29.391 55.3649 29.2636 55.1373 29.2477C49.1986 28.8604 43.2918 29.1097 37.4007 29.964C36.7708 30.0542 37.0408 31.0093 37.6653 30.9191C40.7088 30.4787 43.7628 30.1816 46.838 30.0807C48.2195 30.033 49.6062 30.0277 50.993 30.0489C51.6228 30.0595 52.4592 29.9534 53.0678 30.1179C53.4119 30.1338 53.7612 30.155 54.1052 30.1709C54.1635 31.6991 53.6289 32.4101 52.4962 32.3039C49.9926 32.8345 46.8222 32.1713 44.2709 32.0599C42.9001 32.0015 41.5292 31.9378 40.1583 31.8795C38.3428 31.7999 38.0676 31.8105 38.0199 29.9693C37.9988 29.3432 37.009 29.3379 37.0248 29.9799Z" fill="white"/>
<path d="M46.6531 0.504616C42.1117 0.271153 37.9196 3.87922 38.216 8.59623C38.5548 14.072 43.5831 16.3695 48.4685 16.1891C53.2799 16.014 56.2493 11.2864 55.053 6.71792C53.5604 1.00868 47.844 0.249929 42.9797 1.54989C41.6247 1.9107 42.2016 4.01717 43.5566 3.65637C47.0394 2.72252 51.2474 2.65884 52.7294 6.70731C54.1585 10.6125 51.5967 14.0402 47.5846 14.003C44.1971 13.9712 40.6931 12.4218 40.3914 8.60154C40.1109 5.03592 43.3026 2.52089 46.6531 2.69598C48.0557 2.76496 48.0504 0.578899 46.6531 0.504616Z" fill="white"/>
<path d="M46.3985 5.77372C46.4514 7.22755 46.5096 8.68139 46.5625 10.1352C46.589 10.7719 47.5788 10.7772 47.5523 10.1352C47.4994 8.68139 47.4412 7.22755 47.3883 5.77372C47.3618 5.137 46.372 5.1317 46.3985 5.77372Z" fill="white"/>
</svg>
